solid chan stepper
facet normal 0.0 0.0 1.0
  outer loop
    vertex 0.899517172165375 9.597374020215398 2.0000000000000018
    vertex 0.11715203347414298 17.319743320232796 2.0000000000000018
    vertex 0.0 13.40705850795709 2.0000000000000018
  endloop
endfacet
facet normal 0.0 0.0 1.0
  outer loop
    vertex 0.11715203347414298 17.319743320232796 2.0000000000000018
    vertex 0.899517172165375 9.597374020215398 2.0000000000000018
    vertex 1.242989555109432 21.068785453103292 2.0000000000000018
  endloop
endfacet
facet normal 0.0 0.0 1.0
  outer loop
    vertex 1.242989555109432 21.068785453103292 2.0000000000000018
    vertex 0.899517172165375 9.597374020215398 2.0000000000000018
    vertex 2.7544029412096145 6.150313559046022 2.0000000000000018
  endloop
endfacet
facet normal 0.0 0.0 1.0
  outer loop
    vertex 1.242989555109432 21.068785453103292 2.0000000000000018
    vertex 2.7544029412096145 6.150313559046022 2.0000000000000018
    vertex 3.3007885983408958 24.398693880798522 2.0000000000000018
  endloop
endfacet
facet normal 0.0 0.0 1.0
  outer loop
    vertex 3.3007885983408958 24.398693880798522 2.0000000000000018
    vertex 2.7544029412096145 6.150313559046022 2.0000000000000018
    vertex 5.438249907316015 3.3007885983408958 2.0000000000000018
  endloop
endfacet
facet normal 0.0 0.0 1.0
  outer loop
    vertex 3.3007885983408958 24.398693880798522 2.0000000000000018
    vertex 5.438249907316015 3.3007885983408958 2.0000000000000018
    vertex 6.150313559046018 27.082540846904926 2.0000000000000018
  endloop
endfacet
facet normal 0.0 0.0 1.0
  outer loop
    vertex 6.150313559046018 27.082540846904926 2.0000000000000018
    vertex 5.438249907316015 3.3007885983408958 2.0000000000000018
    vertex 8.768158335011245 1.242989555109435 2.0000000000000018
  endloop
endfacet
facet normal 0.0 0.0 1.0
  outer loop
    vertex 6.150313559046018 27.082540846904926 2.0000000000000018
    vertex 8.768158335011245 1.242989555109435 2.0000000000000018
    vertex 9.597374020215398 28.937426615949164 2.0000000000000018
  endloop
endfacet
facet normal 0.0 0.0 1.0
  outer loop
    vertex 9.597374020215398 28.937426615949164 2.0000000000000018
    vertex 8.768158335011245 1.242989555109435 2.0000000000000018
    vertex 10.999223961844736 14.118787177529722 2.0000000000000018
  endloop
endfacet
facet normal 0.0 0.0 1.0
  outer loop
    vertex 10.999223961844736 14.118787177529722 2.0000000000000018
    vertex 8.768158335011245 1.242989555109435 2.0000000000000018
    vertex 12.517200467881743 0.1171520334741458 2.0000000000000018
  endloop
endfacet
facet normal 0.0 0.0 1.0
  outer loop
    vertex 9.597374020215398 28.937426615949164 2.0000000000000018
    vertex 10.999223961844736 14.118787177529722 2.0000000000000018
    vertex 10.925795461988415 15.160411780809936 2.0000000000000018
  endloop
endfacet
facet normal 0.0 0.0 1.0
  outer loop
    vertex 10.999223961844736 14.118787177529722 2.0000000000000018
    vertex 12.517200467881743 0.1171520334741458 2.0000000000000018
    vertex 11.339742731417898 13.131659766139382 2.0000000000000018
  endloop
endfacet
facet normal 0.0 0.0 1.0
  outer loop
    vertex 11.339742731417898 13.131659766139382 2.0000000000000018
    vertex 12.517200467881743 0.1171520334741458 2.0000000000000018
    vertex 11.924145979295355 12.266300648419987 2.0000000000000018
  endloop
endfacet
facet normal 0.0 0.0 1.0
  outer loop
    vertex 11.924145979295355 12.266300648419987 2.0000000000000018
    vertex 12.517200467881743 0.1171520334741458 2.0000000000000018
    vertex 12.712607589906304 11.581682618170563 2.0000000000000018
  endloop
endfacet
facet normal 0.0 0.0 1.0
  outer loop
    vertex 12.712607589906304 11.581682618170563 2.0000000000000018
    vertex 12.517200467881743 0.1171520334741458 2.0000000000000018
    vertex 16.429885280157453 0.0 2.0000000000000018
  endloop
endfacet
facet normal 0.0 0.0 1.0
  outer loop
    vertex 12.712607589906304 11.581682618170563 2.0000000000000018
    vertex 16.429885280157453 0.0 2.0000000000000018
    vertex 13.651395207482018 11.12446126276781 2.0000000000000018
  endloop
endfacet
facet normal 0.0 0.0 1.0
  outer loop
    vertex 13.651395207482018 11.12446126276781 2.0000000000000018
    vertex 16.429885280157453 0.0 2.0000000000000018
    vertex 14.676532007304601 10.925795461988415 2.0000000000000018
  endloop
endfacet
facet normal 0.0 0.0 1.0
  outer loop
    vertex 14.676532007304601 10.925795461988415 2.0000000000000018
    vertex 16.429885280157453 0.0 2.0000000000000018
    vertex 15.71815661058482 10.999223961844736 2.0000000000000018
  endloop
endfacet
facet normal 0.0 0.0 1.0
  outer loop
    vertex 15.71815661058482 10.999223961844736 2.0000000000000018
    vertex 16.429885280157453 0.0 2.0000000000000018
    vertex 16.705284021975157 11.339742731417894 2.0000000000000018
  endloop
endfacet
facet normal 0.0 0.0 1.0
  outer loop
    vertex 16.705284021975157 11.339742731417894 2.0000000000000018
    vertex 16.429885280157453 0.0 2.0000000000000018
    vertex 20.239569767899138 0.899517172165375 2.0000000000000018
  endloop
endfacet
facet normal 0.0 0.0 1.0
  outer loop
    vertex 16.705284021975157 11.339742731417894 2.0000000000000018
    vertex 20.239569767899138 0.899517172165375 2.0000000000000018
    vertex 17.570643139694546 11.924145979295357 2.0000000000000018
  endloop
endfacet
facet normal 0.0 0.0 1.0
  outer loop
    vertex 17.570643139694546 11.924145979295357 2.0000000000000018
    vertex 20.239569767899138 0.899517172165375 2.0000000000000018
    vertex 18.255261169943978 12.712607589906304 2.0000000000000018
  endloop
endfacet
facet normal 0.0 0.0 1.0
  outer loop
    vertex 18.255261169943978 12.712607589906304 2.0000000000000018
    vertex 20.239569767899138 0.899517172165375 2.0000000000000018
    vertex 18.712482525346736 13.651395207482018 2.0000000000000018
  endloop
endfacet
facet normal 0.0 0.0 1.0
  outer loop
    vertex 18.712482525346736 13.651395207482018 2.0000000000000018
    vertex 20.239569767899138 0.899517172165375 2.0000000000000018
    vertex 18.911148326126124 14.676532007304605 2.0000000000000018
  endloop
endfacet
facet normal 0.0 0.0 1.0
  outer loop
    vertex 10.925795461988415 15.160411780809936 2.0000000000000018
    vertex 13.407058507957087 29.83694378811454 2.0000000000000018
    vertex 9.597374020215398 28.937426615949164 2.0000000000000018
  endloop
endfacet
facet normal 0.0 0.0 1.0
  outer loop
    vertex 13.407058507957087 29.83694378811454 2.0000000000000018
    vertex 10.925795461988415 15.160411780809936 2.0000000000000018
    vertex 11.12446126276781 16.18554858063252 2.0000000000000018
  endloop
endfacet
facet normal 0.0 0.0 1.0
  outer loop
    vertex 13.407058507957087 29.83694378811454 2.0000000000000018
    vertex 11.12446126276781 16.18554858063252 2.0000000000000018
    vertex 11.581682618170563 17.12433619820824 2.0000000000000018
  endloop
endfacet
facet normal 0.0 0.0 1.0
  outer loop
    vertex 13.407058507957087 29.83694378811454 2.0000000000000018
    vertex 11.581682618170563 17.12433619820824 2.0000000000000018
    vertex 12.266300648419987 17.912797808819185 2.0000000000000018
  endloop
endfacet
facet normal 0.0 0.0 1.0
  outer loop
    vertex 13.407058507957087 29.83694378811454 2.0000000000000018
    vertex 12.266300648419987 17.912797808819185 2.0000000000000018
    vertex 13.131659766139382 18.497201056696646 2.0000000000000018
  endloop
endfacet
facet normal 0.0 0.0 1.0
  outer loop
    vertex 13.407058507957087 29.83694378811454 2.0000000000000018
    vertex 13.131659766139382 18.497201056696646 2.0000000000000018
    vertex 14.118787177529725 18.837719826269808 2.0000000000000018
  endloop
endfacet
facet normal 0.0 0.0 1.0
  outer loop
    vertex 13.407058507957087 29.83694378811454 2.0000000000000018
    vertex 14.118787177529725 18.837719826269808 2.0000000000000018
    vertex 17.319743320232803 29.71979175464039 2.0000000000000018
  endloop
endfacet
facet normal 0.0 0.0 1.0
  outer loop
    vertex 17.319743320232803 29.71979175464039 2.0000000000000018
    vertex 14.118787177529725 18.837719826269808 2.0000000000000018
    vertex 15.16041178080994 18.911148326126128 2.0000000000000018
  endloop
endfacet
facet normal 0.0 0.0 1.0
  outer loop
    vertex 17.319743320232803 29.71979175464039 2.0000000000000018
    vertex 15.16041178080994 18.911148326126128 2.0000000000000018
    vertex 16.18554858063252 18.712482525346733 2.0000000000000018
  endloop
endfacet
facet normal 0.0 0.0 1.0
  outer loop
    vertex 17.319743320232803 29.71979175464039 2.0000000000000018
    vertex 16.18554858063252 18.712482525346733 2.0000000000000018
    vertex 17.12433619820824 18.255261169943978 2.0000000000000018
  endloop
endfacet
facet normal 0.0 0.0 1.0
  outer loop
    vertex 17.319743320232803 29.71979175464039 2.0000000000000018
    vertex 17.12433619820824 18.255261169943978 2.0000000000000018
    vertex 17.912797808819185 17.570643139694553 2.0000000000000018
  endloop
endfacet
facet normal 0.0 0.0 1.0
  outer loop
    vertex 17.319743320232803 29.71979175464039 2.0000000000000018
    vertex 17.912797808819185 17.570643139694553 2.0000000000000018
    vertex 21.0687854531033 28.593954233005103 2.0000000000000018
  endloop
endfacet
facet normal 0.0 0.0 1.0
  outer loop
    vertex 21.0687854531033 28.593954233005103 2.0000000000000018
    vertex 17.912797808819185 17.570643139694553 2.0000000000000018
    vertex 18.497201056696642 16.705284021975157 2.0000000000000018
  endloop
endfacet
facet normal 0.0 0.0 1.0
  outer loop
    vertex 21.0687854531033 28.593954233005103 2.0000000000000018
    vertex 18.497201056696642 16.705284021975157 2.0000000000000018
    vertex 18.837719826269804 15.718156610584817 2.0000000000000018
  endloop
endfacet
facet normal 0.0 0.0 1.0
  outer loop
    vertex 21.0687854531033 28.593954233005103 2.0000000000000018
    vertex 18.837719826269804 15.718156610584817 2.0000000000000018
    vertex 18.911148326126124 14.676532007304605 2.0000000000000018
  endloop
endfacet
facet normal 0.0 0.0 1.0
  outer loop
    vertex 21.0687854531033 28.593954233005103 2.0000000000000018
    vertex 18.911148326126124 14.676532007304605 2.0000000000000018
    vertex 20.239569767899138 0.899517172165375 2.0000000000000018
  endloop
endfacet
facet normal 0.0 0.0 1.0
  outer loop
    vertex 21.0687854531033 28.593954233005103 2.0000000000000018
    vertex 20.239569767899138 0.899517172165375 2.0000000000000018
    vertex 23.686630229068523 2.754402941209609 2.0000000000000018
  endloop
endfacet
facet normal 0.0 0.0 1.0
  outer loop
    vertex 21.0687854531033 28.593954233005103 2.0000000000000018
    vertex 23.686630229068523 2.754402941209609 2.0000000000000018
    vertex 24.398693880798525 26.536155189773638 2.0000000000000018
  endloop
endfacet
facet normal 0.0 0.0 1.0
  outer loop
    vertex 24.398693880798525 26.536155189773638 2.0000000000000018
    vertex 23.686630229068523 2.754402941209609 2.0000000000000018
    vertex 26.536155189773634 5.438249907316009 2.0000000000000018
  endloop
endfacet
facet normal 0.0 0.0 1.0
  outer loop
    vertex 24.398693880798525 26.536155189773638 2.0000000000000018
    vertex 26.536155189773634 5.438249907316009 2.0000000000000018
    vertex 27.08254084690493 23.686630229068513 2.0000000000000018
  endloop
endfacet
facet normal 0.0 0.0 1.0
  outer loop
    vertex 27.08254084690493 23.686630229068513 2.0000000000000018
    vertex 26.536155189773634 5.438249907316009 2.0000000000000018
    vertex 28.593954233005096 8.768158335011242 2.0000000000000018
  endloop
endfacet
facet normal 0.0 0.0 1.0
  outer loop
    vertex 27.08254084690493 23.686630229068513 2.0000000000000018
    vertex 28.593954233005096 8.768158335011242 2.0000000000000018
    vertex 28.93742661594916 20.239569767899138 2.0000000000000018
  endloop
endfacet
facet normal 0.0 0.0 1.0
  outer loop
    vertex 28.93742661594916 20.239569767899138 2.0000000000000018
    vertex 28.593954233005096 8.768158335011242 2.0000000000000018
    vertex 29.719791754640397 12.517200467881736 2.0000000000000018
  endloop
endfacet
facet normal 0.0 0.0 1.0
  outer loop
    vertex 28.93742661594916 20.239569767899138 2.0000000000000018
    vertex 29.719791754640397 12.517200467881736 2.0000000000000018
    vertex 29.836943788114546 16.42988528015745 2.0000000000000018
  endloop
endfacet
facet normal 0.0 0.0 1.0
  outer loop
    vertex 10.999223961844736 14.118787177529722 20.0
    vertex 11.12446126276781 16.18554858063252 20.0
    vertex 10.925795461988415 15.160411780809936 20.0
  endloop
endfacet
facet normal 0.0 0.0 1.0
  outer loop
    vertex 11.12446126276781 16.18554858063252 20.0
    vertex 10.999223961844736 14.118787177529722 20.0
    vertex 11.339742731417898 13.131659766139382 20.0
  endloop
endfacet
facet normal 0.0 0.0 1.0
  outer loop
    vertex 11.12446126276781 16.18554858063252 20.0
    vertex 11.339742731417898 13.131659766139382 20.0
    vertex 11.581682618170563 17.12433619820824 20.0
  endloop
endfacet
facet normal 0.0 0.0 1.0
  outer loop
    vertex 11.581682618170563 17.12433619820824 20.0
    vertex 11.339742731417898 13.131659766139382 20.0
    vertex 11.924145979295355 12.266300648419987 20.0
  endloop
endfacet
facet normal 0.0 0.0 1.0
  outer loop
    vertex 11.581682618170563 17.12433619820824 20.0
    vertex 11.924145979295355 12.266300648419987 20.0
    vertex 12.266300648419987 17.912797808819185 20.0
  endloop
endfacet
facet normal 0.0 0.0 1.0
  outer loop
    vertex 12.266300648419987 17.912797808819185 20.0
    vertex 11.924145979295355 12.266300648419987 20.0
    vertex 12.712607589906304 11.581682618170563 20.0
  endloop
endfacet
facet normal 0.0 0.0 1.0
  outer loop
    vertex 12.266300648419987 17.912797808819185 20.0
    vertex 12.712607589906304 11.581682618170563 20.0
    vertex 13.131659766139382 18.497201056696646 20.0
  endloop
endfacet
facet normal 0.0 0.0 1.0
  outer loop
    vertex 13.131659766139382 18.497201056696646 20.0
    vertex 12.712607589906304 11.581682618170563 20.0
    vertex 13.651395207482018 11.12446126276781 20.0
  endloop
endfacet
facet normal 0.0 0.0 1.0
  outer loop
    vertex 13.131659766139382 18.497201056696646 20.0
    vertex 13.651395207482018 11.12446126276781 20.0
    vertex 13.44275113674497 15.007894545498537 20.0
  endloop
endfacet
facet normal 0.0 0.0 1.0
  outer loop
    vertex 13.44275113674497 15.007894545498537 20.0
    vertex 13.651395207482018 11.12446126276781 20.0
    vertex 13.469890816921888 14.622902905294112 20.0
  endloop
endfacet
facet normal 0.0 0.0 1.0
  outer loop
    vertex 13.469890816921888 14.622902905294112 20.0
    vertex 13.651395207482018 11.12446126276781 20.0
    vertex 13.595748903612172 14.25805380322302 20.0
  endloop
endfacet
facet normal 0.0 0.0 1.0
  outer loop
    vertex 13.595748903612172 14.25805380322302 20.0
    vertex 13.651395207482018 11.12446126276781 20.0
    vertex 13.811748376198185 13.9382111026498 20.0
  endloop
endfacet
facet normal 0.0 0.0 1.0
  outer loop
    vertex 13.811748376198185 13.9382111026498 20.0
    vertex 13.651395207482018 11.12446126276781 20.0
    vertex 14.676532007304601 10.925795461988415 20.0
  endloop
endfacet
facet normal 0.0 0.0 1.0
  outer loop
    vertex 13.811748376198185 13.9382111026498 20.0
    vertex 14.676532007304601 10.925795461988415 20.0
    vertex 14.103169227579201 13.685171555053453 20.0
  endloop
endfacet
facet normal 0.0 0.0 1.0
  outer loop
    vertex 14.103169227579201 13.685171555053453 20.0
    vertex 14.676532007304601 10.925795461988415 20.0
    vertex 14.450151608329367 13.516179387435018 20.0
  endloop
endfacet
facet normal 0.0 0.0 1.0
  outer loop
    vertex 14.450151608329367 13.516179387435018 20.0
    vertex 14.676532007304601 10.925795461988415 20.0
    vertex 14.829049242615994 13.442751136744967 20.0
  endloop
endfacet
facet normal 0.0 0.0 1.0
  outer loop
    vertex 14.829049242615994 13.442751136744967 20.0
    vertex 14.676532007304601 10.925795461988415 20.0
    vertex 15.71815661058482 10.999223961844736 20.0
  endloop
endfacet
facet normal 0.0 0.0 1.0
  outer loop
    vertex 14.829049242615994 13.442751136744967 20.0
    vertex 15.71815661058482 10.999223961844736 20.0
    vertex 15.214040882820434 13.469890816921888 20.0
  endloop
endfacet
facet normal 0.0 0.0 1.0
  outer loop
    vertex 15.214040882820434 13.469890816921888 20.0
    vertex 15.71815661058482 10.999223961844736 20.0
    vertex 15.578889984891507 13.595748903612165 20.0
  endloop
endfacet
facet normal 0.0 0.0 1.0
  outer loop
    vertex 15.578889984891507 13.595748903612165 20.0
    vertex 15.71815661058482 10.999223961844736 20.0
    vertex 15.898732685464726 13.81174837619818 20.0
  endloop
endfacet
facet normal 0.0 0.0 1.0
  outer loop
    vertex 15.898732685464726 13.81174837619818 20.0
    vertex 15.71815661058482 10.999223961844736 20.0
    vertex 16.705284021975157 11.339742731417894 20.0
  endloop
endfacet
facet normal 0.0 0.0 1.0
  outer loop
    vertex 15.898732685464726 13.81174837619818 20.0
    vertex 16.705284021975157 11.339742731417894 20.0
    vertex 16.151772233061102 14.103169227579224 20.0
  endloop
endfacet
facet normal 0.0 0.0 1.0
  outer loop
    vertex 16.151772233061102 14.103169227579224 20.0
    vertex 16.705284021975157 11.339742731417894 20.0
    vertex 16.32076440067952 14.45015160832935 20.0
  endloop
endfacet
facet normal 0.0 0.0 1.0
  outer loop
    vertex 16.32076440067952 14.45015160832935 20.0
    vertex 16.705284021975157 11.339742731417894 20.0
    vertex 16.394192651369572 14.829049242615998 20.0
  endloop
endfacet
facet normal 0.0 0.0 1.0
  outer loop
    vertex 13.44275113674497 15.007894545498537 20.0
    vertex 14.118787177529725 18.837719826269808 20.0
    vertex 13.131659766139382 18.497201056696646 20.0
  endloop
endfacet
facet normal 0.0 0.0 1.0
  outer loop
    vertex 14.118787177529725 18.837719826269808 20.0
    vertex 13.44275113674497 15.007894545498537 20.0
    vertex 13.516179387435027 15.386792179785193 20.0
  endloop
endfacet
facet normal 0.0 0.0 1.0
  outer loop
    vertex 14.118787177529725 18.837719826269808 20.0
    vertex 13.516179387435027 15.386792179785193 20.0
    vertex 13.685171555053444 15.73377456053533 20.0
  endloop
endfacet
facet normal 0.0 0.0 1.0
  outer loop
    vertex 14.118787177529725 18.837719826269808 20.0
    vertex 13.685171555053444 15.73377456053533 20.0
    vertex 13.938211102649802 16.025195411916354 20.0
  endloop
endfacet
facet normal 0.0 0.0 1.0
  outer loop
    vertex 14.118787177529725 18.837719826269808 20.0
    vertex 13.938211102649802 16.025195411916354 20.0
    vertex 14.258053803223028 16.241194884502374 20.0
  endloop
endfacet
facet normal 0.0 0.0 1.0
  outer loop
    vertex 14.118787177529725 18.837719826269808 20.0
    vertex 14.258053803223028 16.241194884502374 20.0
    vertex 15.16041178080994 18.911148326126128 20.0
  endloop
endfacet
facet normal 0.0 0.0 1.0
  outer loop
    vertex 15.16041178080994 18.911148326126128 20.0
    vertex 14.258053803223028 16.241194884502374 20.0
    vertex 14.622902905294112 16.367052971192656 20.0
  endloop
endfacet
facet normal 0.0 0.0 1.0
  outer loop
    vertex 15.16041178080994 18.911148326126128 20.0
    vertex 14.622902905294112 16.367052971192656 20.0
    vertex 15.007894545498537 16.394192651369572 20.0
  endloop
endfacet
facet normal 0.0 0.0 1.0
  outer loop
    vertex 15.16041178080994 18.911148326126128 20.0
    vertex 15.007894545498537 16.394192651369572 20.0
    vertex 15.386792179785187 16.32076440067952 20.0
  endloop
endfacet
facet normal 0.0 0.0 1.0
  outer loop
    vertex 15.16041178080994 18.911148326126128 20.0
    vertex 15.386792179785187 16.32076440067952 20.0
    vertex 16.18554858063252 18.712482525346733 20.0
  endloop
endfacet
facet normal 0.0 0.0 1.0
  outer loop
    vertex 16.18554858063252 18.712482525346733 20.0
    vertex 15.386792179785187 16.32076440067952 20.0
    vertex 15.73377456053534 16.15177223306109 20.0
  endloop
endfacet
facet normal 0.0 0.0 1.0
  outer loop
    vertex 16.18554858063252 18.712482525346733 20.0
    vertex 15.73377456053534 16.15177223306109 20.0
    vertex 16.02519541191635 15.898732685464745 20.0
  endloop
endfacet
facet normal 0.0 0.0 1.0
  outer loop
    vertex 16.18554858063252 18.712482525346733 20.0
    vertex 16.02519541191635 15.898732685464745 20.0
    vertex 16.24119488450237 15.578889984891518 20.0
  endloop
endfacet
facet normal 0.0 0.0 1.0
  outer loop
    vertex 16.18554858063252 18.712482525346733 20.0
    vertex 16.24119488450237 15.578889984891518 20.0
    vertex 17.12433619820824 18.255261169943978 20.0
  endloop
endfacet
facet normal 0.0 0.0 1.0
  outer loop
    vertex 17.12433619820824 18.255261169943978 20.0
    vertex 16.24119488450237 15.578889984891518 20.0
    vertex 16.367052971192653 15.214040882820429 20.0
  endloop
endfacet
facet normal 0.0 0.0 1.0
  outer loop
    vertex 17.12433619820824 18.255261169943978 20.0
    vertex 16.367052971192653 15.214040882820429 20.0
    vertex 16.394192651369572 14.829049242615998 20.0
  endloop
endfacet
facet normal 0.0 0.0 1.0
  outer loop
    vertex 17.12433619820824 18.255261169943978 20.0
    vertex 16.394192651369572 14.829049242615998 20.0
    vertex 16.705284021975157 11.339742731417894 20.0
  endloop
endfacet
facet normal 0.0 0.0 1.0
  outer loop
    vertex 17.12433619820824 18.255261169943978 20.0
    vertex 16.705284021975157 11.339742731417894 20.0
    vertex 17.570643139694546 11.924145979295357 20.0
  endloop
endfacet
facet normal 0.0 0.0 1.0
  outer loop
    vertex 17.12433619820824 18.255261169943978 20.0
    vertex 17.570643139694546 11.924145979295357 20.0
    vertex 17.912797808819185 17.570643139694553 20.0
  endloop
endfacet
facet normal 0.0 0.0 1.0
  outer loop
    vertex 17.912797808819185 17.570643139694553 20.0
    vertex 17.570643139694546 11.924145979295357 20.0
    vertex 18.255261169943978 12.712607589906304 20.0
  endloop
endfacet
facet normal 0.0 0.0 1.0
  outer loop
    vertex 17.912797808819185 17.570643139694553 20.0
    vertex 18.255261169943978 12.712607589906304 20.0
    vertex 18.497201056696642 16.705284021975157 20.0
  endloop
endfacet
facet normal 0.0 0.0 1.0
  outer loop
    vertex 18.497201056696642 16.705284021975157 20.0
    vertex 18.255261169943978 12.712607589906304 20.0
    vertex 18.712482525346736 13.651395207482018 20.0
  endloop
endfacet
facet normal 0.0 0.0 1.0
  outer loop
    vertex 18.497201056696642 16.705284021975157 20.0
    vertex 18.712482525346736 13.651395207482018 20.0
    vertex 18.837719826269804 15.718156610584817 20.0
  endloop
endfacet
facet normal 0.0 0.0 1.0
  outer loop
    vertex 18.837719826269804 15.718156610584817 20.0
    vertex 18.712482525346736 13.651395207482018 20.0
    vertex 18.911148326126124 14.676532007304605 20.0
  endloop
endfacet
facet normal 0.7550798782225374 -0.6556328069151498 3.942159674275704e-19
  outer loop
    vertex 18.255261169943978 12.712607589906304 2.0000000000000018
    vertex 17.570643139694546 11.924145979295357 20.0
    vertex 17.570643139694546 11.924145979295357 2.0000000000000018
  endloop
endfacet
facet normal 0.7550798782225374 -0.6556328069151498 3.942159674275704e-19
  outer loop
    vertex 17.570643139694546 11.924145979295357 20.0
    vertex 18.255261169943978 12.712607589906304 2.0000000000000018
    vertex 18.255261169943978 12.712607589906304 20.0
  endloop
endfacet
facet normal 0.945334605454284 0.32610195296960903 1.960771265775972e-19
  outer loop
    vertex 18.497201056696642 16.705284021975157 2.0000000000000018
    vertex 18.837719826269804 15.718156610584817 20.0
    vertex 18.837719826269804 15.718156610584817 2.0000000000000018
  endloop
endfacet
facet normal 0.945334605454284 0.32610195296960903 1.960771265775972e-19
  outer loop
    vertex 18.837719826269804 15.718156610584817 20.0
    vertex 18.497201056696642 16.705284021975157 2.0000000000000018
    vertex 18.497201056696642 16.705284021975157 20.0
  endloop
endfacet
facet normal 0.9975245059667412 0.07031969849059921 2.114075720228118e-19
  outer loop
    vertex 18.837719826269804 15.718156610584817 2.0000000000000018
    vertex 18.911148326126124 14.676532007304605 20.0
    vertex 18.911148326126124 14.676532007304605 2.0000000000000018
  endloop
endfacet
facet normal 0.9975245059667412 0.07031969849059921 2.114075720228118e-19
  outer loop
    vertex 18.911148326126124 14.676532007304605 20.0
    vertex 18.837719826269804 15.718156610584817 2.0000000000000018
    vertex 18.837719826269804 15.718156610584817 20.0
  endloop
endfacet
facet normal 0.9817347598847542 -0.19025472723174094 -1.143955131016402e-19
  outer loop
    vertex 18.911148326126124 14.676532007304605 2.0000000000000018
    vertex 18.712482525346736 13.651395207482018 20.0
    vertex 18.712482525346736 13.651395207482018 2.0000000000000018
  endloop
endfacet
facet normal 0.9817347598847542 -0.19025472723174094 -1.143955131016402e-19
  outer loop
    vertex 18.712482525346736 13.651395207482018 20.0
    vertex 18.911148326126124 14.676532007304605 2.0000000000000018
    vertex 18.911148326126124 14.676532007304605 20.0
  endloop
endfacet
facet normal 0.8990414123100176 -0.4378636077040533 -1.0531067017500082e-18
  outer loop
    vertex 18.712482525346736 13.651395207482018 2.0000000000000018
    vertex 18.255261169943978 12.712607589906304 20.0
    vertex 18.255261169943978 12.712607589906304 2.0000000000000018
  endloop
endfacet
facet normal 0.8990414123100176 -0.4378636077040533 -1.0531067017500082e-18
  outer loop
    vertex 18.255261169943978 12.712607589906304 20.0
    vertex 18.712482525346736 13.651395207482018 2.0000000000000018
    vertex 18.712482525346736 13.651395207482018 20.0
  endloop
endfacet
facet normal -0.9975245059667412 -0.07031969849059919 4.228151440456246e-20
  outer loop
    vertex 10.925795461988415 15.160411780809936 20.0
    vertex 10.999223961844736 14.118787177529722 2.0000000000000018
    vertex 10.999223961844736 14.118787177529722 20.0
  endloop
endfacet
facet normal -0.9975245059667412 -0.07031969849059919 4.228151440456246e-20
  outer loop
    vertex 10.999223961844736 14.118787177529722 2.0000000000000018
    vertex 10.925795461988415 15.160411780809936 20.0
    vertex 10.925795461988415 15.160411780809936 2.0000000000000018
  endloop
endfacet
facet normal -0.9817347598847531 0.19025472723174655 -1.1439551310164843e-19
  outer loop
    vertex 11.12446126276781 16.18554858063252 20.0
    vertex 10.925795461988415 15.160411780809936 2.0000000000000018
    vertex 10.925795461988415 15.160411780809936 20.0
  endloop
endfacet
facet normal -0.9817347598847531 0.19025472723174655 -1.1439551310164843e-19
  outer loop
    vertex 10.925795461988415 15.160411780809936 2.0000000000000018
    vertex 11.12446126276781 16.18554858063252 20.0
    vertex 11.12446126276781 16.18554858063252 2.0000000000000018
  endloop
endfacet
facet normal 0.19025472723174688 0.9817347598847529 2.9514654700255405e-19
  outer loop
    vertex 15.16041178080994 18.911148326126128 20.0
    vertex 16.18554858063252 18.712482525346733 2.0000000000000018
    vertex 15.16041178080994 18.911148326126128 2.0000000000000018
  endloop
endfacet
facet normal 0.19025472723174688 0.9817347598847529 2.9514654700255405e-19
  outer loop
    vertex 16.18554858063252 18.712482525346733 2.0000000000000018
    vertex 15.16041178080994 18.911148326126128 20.0
    vertex 16.18554858063252 18.712482525346733 20.0
  endloop
endfacet
facet normal 0.4378636077040489 0.8990414123100197 -2.702858035573495e-19
  outer loop
    vertex 16.18554858063252 18.712482525346733 20.0
    vertex 17.12433619820824 18.255261169943978 2.0000000000000018
    vertex 16.18554858063252 18.712482525346733 2.0000000000000018
  endloop
endfacet
facet normal 0.4378636077040489 0.8990414123100197 -2.702858035573495e-19
  outer loop
    vertex 17.12433619820824 18.255261169943978 2.0000000000000018
    vertex 16.18554858063252 18.712482525346733 20.0
    vertex 17.12433619820824 18.255261169943978 20.0
  endloop
endfacet
facet normal 0.655632806915148 0.755079878222539 -8.482270259637436e-19
  outer loop
    vertex 17.12433619820824 18.255261169943978 20.0
    vertex 17.912797808819185 17.570643139694553 2.0000000000000018
    vertex 17.12433619820824 18.255261169943978 2.0000000000000018
  endloop
endfacet
facet normal 0.655632806915148 0.755079878222539 -8.482270259637436e-19
  outer loop
    vertex 17.912797808819185 17.570643139694553 2.0000000000000018
    vertex 17.12433619820824 18.255261169943978 20.0
    vertex 17.912797808819185 17.570643139694553 20.0
  endloop
endfacet
facet normal 0.8287217138194233 0.5596608982626874 0.0
  outer loop
    vertex 17.912797808819185 17.570643139694553 2.0000000000000018
    vertex 18.497201056696642 16.705284021975157 20.0
    vertex 18.497201056696642 16.705284021975157 2.0000000000000018
  endloop
endfacet
facet normal 0.8287217138194233 0.5596608982626874 0.0
  outer loop
    vertex 18.497201056696642 16.705284021975157 20.0
    vertex 17.912797808819185 17.570643139694553 2.0000000000000018
    vertex 17.912797808819185 17.570643139694553 20.0
  endloop
endfacet
facet normal -0.8287217138194226 -0.5596608982626881 0.0
  outer loop
    vertex 11.339742731417898 13.131659766139382 20.0
    vertex 11.924145979295355 12.266300648419987 2.0000000000000018
    vertex 11.924145979295355 12.266300648419987 20.0
  endloop
endfacet
facet normal -0.8287217138194226 -0.5596608982626881 0.0
  outer loop
    vertex 11.924145979295355 12.266300648419987 2.0000000000000018
    vertex 11.339742731417898 13.131659766139382 20.0
    vertex 11.339742731417898 13.131659766139382 2.0000000000000018
  endloop
endfacet
facet normal -0.9453346054542843 -0.3261019529696085 -1.9607712657760807e-19
  outer loop
    vertex 10.999223961844736 14.118787177529722 20.0
    vertex 11.339742731417898 13.131659766139382 2.0000000000000018
    vertex 11.339742731417898 13.131659766139382 20.0
  endloop
endfacet
facet normal -0.9453346054542843 -0.3261019529696085 -1.9607712657760807e-19
  outer loop
    vertex 11.339742731417898 13.131659766139382 2.0000000000000018
    vertex 10.999223961844736 14.118787177529722 20.0
    vertex 10.999223961844736 14.118787177529722 2.0000000000000018
  endloop
endfacet
facet normal -0.5596608982626912 0.8287217138194206 0.0
  outer loop
    vertex 12.266300648419987 17.912797808819185 20.0
    vertex 13.131659766139382 18.497201056696646 2.0000000000000018
    vertex 12.266300648419987 17.912797808819185 2.0000000000000018
  endloop
endfacet
facet normal -0.5596608982626912 0.8287217138194206 0.0
  outer loop
    vertex 13.131659766139382 18.497201056696646 2.0000000000000018
    vertex 12.266300648419987 17.912797808819185 20.0
    vertex 13.131659766139382 18.497201056696646 20.0
  endloop
endfacet
facet normal -0.3261019529696058 0.9453346054542853 -2.842032858189104e-19
  outer loop
    vertex 13.131659766139382 18.497201056696646 20.0
    vertex 14.118787177529725 18.837719826269808 2.0000000000000018
    vertex 13.131659766139382 18.497201056696646 2.0000000000000018
  endloop
endfacet
facet normal -0.3261019529696058 0.9453346054542853 -2.842032858189104e-19
  outer loop
    vertex 14.118787177529725 18.837719826269808 2.0000000000000018
    vertex 13.131659766139382 18.497201056696646 20.0
    vertex 14.118787177529725 18.837719826269808 20.0
  endloop
endfacet
facet normal -0.07031969849059919 0.9975245059667412 4.228151440456246e-20
  outer loop
    vertex 14.118787177529725 18.837719826269808 20.0
    vertex 15.16041178080994 18.911148326126128 2.0000000000000018
    vertex 14.118787177529725 18.837719826269808 2.0000000000000018
  endloop
endfacet
facet normal -0.07031969849059919 0.9975245059667412 4.228151440456246e-20
  outer loop
    vertex 15.16041178080994 18.911148326126128 2.0000000000000018
    vertex 14.118787177529725 18.837719826269808 20.0
    vertex 15.16041178080994 18.911148326126128 20.0
  endloop
endfacet
facet normal -0.8990414123100202 0.4378636077040478 -2.632766754375006e-19
  outer loop
    vertex 11.581682618170563 17.12433619820824 20.0
    vertex 11.12446126276781 16.18554858063252 2.0000000000000018
    vertex 11.12446126276781 16.18554858063252 20.0
  endloop
endfacet
facet normal -0.8990414123100202 0.4378636077040478 -2.632766754375006e-19
  outer loop
    vertex 11.12446126276781 16.18554858063252 2.0000000000000018
    vertex 11.581682618170563 17.12433619820824 20.0
    vertex 11.581682618170563 17.12433619820824 2.0000000000000018
  endloop
endfacet
facet normal -0.7550798782225402 0.6556328069151467 -5.979509110860636e-20
  outer loop
    vertex 12.266300648419987 17.912797808819185 20.0
    vertex 11.581682618170563 17.12433619820824 2.0000000000000018
    vertex 11.581682618170563 17.12433619820824 20.0
  endloop
endfacet
facet normal -0.7550798782225402 0.6556328069151467 -5.979509110860636e-20
  outer loop
    vertex 11.581682618170563 17.12433619820824 2.0000000000000018
    vertex 12.266300648419987 17.912797808819185 20.0
    vertex 12.266300648419987 17.912797808819185 2.0000000000000018
  endloop
endfacet
facet normal 0.5596608982626937 -0.8287217138194191 -3.3651040660716036e-19
  outer loop
    vertex 17.570643139694546 11.924145979295357 20.0
    vertex 16.705284021975157 11.339742731417894 2.0000000000000018
    vertex 17.570643139694546 11.924145979295357 2.0000000000000018
  endloop
endfacet
facet normal 0.5596608982626937 -0.8287217138194191 -3.3651040660716036e-19
  outer loop
    vertex 16.705284021975157 11.339742731417894 2.0000000000000018
    vertex 17.570643139694546 11.924145979295357 20.0
    vertex 16.705284021975157 11.339742731417894 20.0
  endloop
endfacet
facet normal 0.3261019529696063 -0.945334605454285 8.812615924130367e-20
  outer loop
    vertex 16.705284021975157 11.339742731417894 20.0
    vertex 15.71815661058482 10.999223961844736 2.0000000000000018
    vertex 16.705284021975157 11.339742731417894 2.0000000000000018
  endloop
endfacet
facet normal 0.3261019529696063 -0.945334605454285 8.812615924130367e-20
  outer loop
    vertex 15.71815661058482 10.999223961844736 2.0000000000000018
    vertex 16.705284021975157 11.339742731417894 20.0
    vertex 15.71815661058482 10.999223961844736 20.0
  endloop
endfacet
facet normal 0.07031969849059946 -0.9975245059667412 0.0
  outer loop
    vertex 15.71815661058482 10.999223961844736 20.0
    vertex 14.676532007304601 10.925795461988415 2.0000000000000018
    vertex 15.71815661058482 10.999223961844736 2.0000000000000018
  endloop
endfacet
facet normal 0.07031969849059946 -0.9975245059667412 0.0
  outer loop
    vertex 14.676532007304601 10.925795461988415 2.0000000000000018
    vertex 15.71815661058482 10.999223961844736 20.0
    vertex 14.676532007304601 10.925795461988415 20.0
  endloop
endfacet
facet normal -0.19025472723174625 -0.9817347598847531 1.4757327350128545e-19
  outer loop
    vertex 14.676532007304601 10.925795461988415 20.0
    vertex 13.651395207482018 11.12446126276781 2.0000000000000018
    vertex 14.676532007304601 10.925795461988415 2.0000000000000018
  endloop
endfacet
facet normal -0.19025472723174625 -0.9817347598847531 1.4757327350128545e-19
  outer loop
    vertex 13.651395207482018 11.12446126276781 2.0000000000000018
    vertex 14.676532007304601 10.925795461988415 20.0
    vertex 13.651395207482018 11.12446126276781 20.0
  endloop
endfacet
facet normal -0.4378636077040495 -0.8990414123100195 -5.335624789948434e-19
  outer loop
    vertex 13.651395207482018 11.12446126276781 20.0
    vertex 12.712607589906304 11.581682618170563 2.0000000000000018
    vertex 13.651395207482018 11.12446126276781 2.0000000000000018
  endloop
endfacet
facet normal -0.4378636077040495 -0.8990414123100195 -5.335624789948434e-19
  outer loop
    vertex 12.712607589906304 11.581682618170563 2.0000000000000018
    vertex 13.651395207482018 11.12446126276781 20.0
    vertex 12.712607589906304 11.581682618170563 20.0
  endloop
endfacet
facet normal -0.6556328069151457 -0.755079878222541 -4.540110585361689e-19
  outer loop
    vertex 12.712607589906304 11.581682618170563 20.0
    vertex 11.924145979295355 12.266300648419987 2.0000000000000018
    vertex 12.712607589906304 11.581682618170563 2.0000000000000018
  endloop
endfacet
facet normal -0.6556328069151457 -0.755079878222541 -4.540110585361689e-19
  outer loop
    vertex 11.924145979295355 12.266300648419987 2.0000000000000018
    vertex 12.712607589906304 11.581682618170563 20.0
    vertex 11.924145979295355 12.266300648419987 20.0
  endloop
endfacet
facet normal 0.0 0.0 -1.0
  outer loop
    vertex 13.407058507957087 29.83694378811454 0.0
    vertex 13.516179387435027 15.386792179785193 1.4099832412739487e-15
    vertex 13.44275113674497 15.007894545498537 1.4099832412739487e-15
  endloop
endfacet
facet normal 0.0 0.0 -1.0
  outer loop
    vertex 13.516179387435027 15.386792179785193 1.4099832412739487e-15
    vertex 13.407058507957087 29.83694378811454 0.0
    vertex 17.319743320232803 29.71979175464039 0.0
  endloop
endfacet
facet normal 0.0 0.0 -1.0
  outer loop
    vertex 13.516179387435027 15.386792179785193 1.4099832412739487e-15
    vertex 17.319743320232803 29.71979175464039 0.0
    vertex 13.685171555053444 15.73377456053533 1.4099832412739487e-15
  endloop
endfacet
facet normal 0.0 0.0 -1.0
  outer loop
    vertex 13.685171555053444 15.73377456053533 1.4099832412739487e-15
    vertex 17.319743320232803 29.71979175464039 0.0
    vertex 13.938211102649802 16.025195411916354 1.4099832412739487e-15
  endloop
endfacet
facet normal 0.0 0.0 -1.0
  outer loop
    vertex 13.938211102649802 16.025195411916354 1.4099832412739487e-15
    vertex 17.319743320232803 29.71979175464039 0.0
    vertex 14.186292430358224 16.19273225376837 7.122525658250169e-16
  endloop
endfacet
facet normal 0.0 0.0 -1.0
  outer loop
    vertex 14.186292430358224 16.19273225376837 7.122525658250169e-16
    vertex 17.319743320232803 29.71979175464039 0.0
    vertex 14.258053803223028 16.241194884502374 1.4099832412739487e-15
  endloop
endfacet
facet normal 0.0 0.0 -1.0
  outer loop
    vertex 14.258053803223028 16.241194884502374 1.4099832412739487e-15
    vertex 17.319743320232803 29.71979175464039 0.0
    vertex 14.622902905294112 16.367052971192656 1.4099832412739487e-15
  endloop
endfacet
facet normal 0.0 0.0 -1.0
  outer loop
    vertex 14.622902905294112 16.367052971192656 1.4099832412739487e-15
    vertex 17.319743320232803 29.71979175464039 0.0
    vertex 15.007894545498537 16.394192651369572 1.4099832412739487e-15
  endloop
endfacet
facet normal 0.0 0.0 -1.0
  outer loop
    vertex 15.007894545498537 16.394192651369572 1.4099832412739487e-15
    vertex 17.319743320232803 29.71979175464039 0.0
    vertex 15.386792179785187 16.32076440067952 1.4099832412739487e-15
  endloop
endfacet
facet normal 0.0 0.0 -1.0
  outer loop
    vertex 15.386792179785187 16.32076440067952 1.4099832412739487e-15
    vertex 17.319743320232803 29.71979175464039 0.0
    vertex 15.73377456053534 16.15177223306109 1.4099832412739487e-15
  endloop
endfacet
facet normal 0.0 0.0 -1.0
  outer loop
    vertex 15.73377456053534 16.15177223306109 1.4099832412739487e-15
    vertex 17.319743320232803 29.71979175464039 0.0
    vertex 15.820536828243592 16.076436906624114 1.0450234511353658e-15
  endloop
endfacet
facet normal 0.0 0.0 -1.0
  outer loop
    vertex 15.820536828243592 16.076436906624114 1.0450234511353658e-15
    vertex 17.319743320232803 29.71979175464039 0.0
    vertex 16.02519541191635 15.898732685464745 1.4099832412739487e-15
  endloop
endfacet
facet normal 0.0 0.0 -1.0
  outer loop
    vertex 16.02519541191635 15.898732685464745 1.4099832412739487e-15
    vertex 17.319743320232803 29.71979175464039 0.0
    vertex 16.24119488450237 15.578889984891518 1.4099832412739487e-15
  endloop
endfacet
facet normal 0.0 0.0 -1.0
  outer loop
    vertex 16.24119488450237 15.578889984891518 1.4099832412739487e-15
    vertex 17.319743320232803 29.71979175464039 0.0
    vertex 16.367052971192653 15.214040882820429 1.4099832412739487e-15
  endloop
endfacet
facet normal 0.0 0.0 -1.0
  outer loop
    vertex 16.367052971192653 15.214040882820429 1.4099832412739487e-15
    vertex 17.319743320232803 29.71979175464039 0.0
    vertex 16.394192651369572 14.829049242615998 1.4099832412739487e-15
  endloop
endfacet
facet normal 0.0 0.0 -1.0
  outer loop
    vertex 16.394192651369572 14.829049242615998 1.4099832412739487e-15
    vertex 17.319743320232803 29.71979175464039 0.0
    vertex 16.429885280157453 0.0 0.0
  endloop
endfacet
facet normal 0.0 0.0 -1.0
  outer loop
    vertex 16.429885280157453 0.0 0.0
    vertex 17.319743320232803 29.71979175464039 0.0
    vertex 20.239569767899138 0.899517172165375 0.0
  endloop
endfacet
facet normal 0.0 0.0 -1.0
  outer loop
    vertex 20.239569767899138 0.899517172165375 0.0
    vertex 17.319743320232803 29.71979175464039 0.0
    vertex 21.0687854531033 28.593954233005103 0.0
  endloop
endfacet
facet normal 0.0 0.0 -1.0
  outer loop
    vertex 20.239569767899138 0.899517172165375 0.0
    vertex 21.0687854531033 28.593954233005103 0.0
    vertex 23.686630229068523 2.754402941209609 0.0
  endloop
endfacet
facet normal 0.0 0.0 -1.0
  outer loop
    vertex 23.686630229068523 2.754402941209609 0.0
    vertex 21.0687854531033 28.593954233005103 0.0
    vertex 24.398693880798525 26.536155189773638 0.0
  endloop
endfacet
facet normal 0.0 0.0 -1.0
  outer loop
    vertex 23.686630229068523 2.754402941209609 0.0
    vertex 24.398693880798525 26.536155189773638 0.0
    vertex 26.536155189773634 5.438249907316009 0.0
  endloop
endfacet
facet normal 0.0 0.0 -1.0
  outer loop
    vertex 26.536155189773634 5.438249907316009 0.0
    vertex 24.398693880798525 26.536155189773638 0.0
    vertex 27.08254084690493 23.686630229068513 0.0
  endloop
endfacet
facet normal 0.0 0.0 -1.0
  outer loop
    vertex 26.536155189773634 5.438249907316009 0.0
    vertex 27.08254084690493 23.686630229068513 0.0
    vertex 28.593954233005096 8.768158335011242 0.0
  endloop
endfacet
facet normal 0.0 0.0 -1.0
  outer loop
    vertex 28.593954233005096 8.768158335011242 0.0
    vertex 27.08254084690493 23.686630229068513 0.0
    vertex 28.93742661594916 20.239569767899138 0.0
  endloop
endfacet
facet normal 0.0 0.0 -1.0
  outer loop
    vertex 28.593954233005096 8.768158335011242 0.0
    vertex 28.93742661594916 20.239569767899138 0.0
    vertex 29.719791754640397 12.517200467881736 0.0
  endloop
endfacet
facet normal 0.0 0.0 -1.0
  outer loop
    vertex 29.719791754640397 12.517200467881736 0.0
    vertex 28.93742661594916 20.239569767899138 0.0
    vertex 29.836943788114546 16.42988528015745 0.0
  endloop
endfacet
facet normal 0.0 0.0 -1.0
  outer loop
    vertex 0.04525413113935403 14.91847189405727 0.0
    vertex 0.899517172165375 9.597374020215398 0.0
    vertex 0.0 13.40705850795709 0.0
  endloop
endfacet
facet normal 0.0 0.0 -1.0
  outer loop
    vertex 0.899517172165375 9.597374020215398 0.0
    vertex 0.04525413113935403 14.91847189405727 0.0
    vertex 0.11715203347414298 17.319743320232796 0.0
  endloop
endfacet
facet normal 0.0 0.0 -1.0
  outer loop
    vertex 0.899517172165375 9.597374020215398 0.0
    vertex 0.11715203347414298 17.319743320232796 0.0
    vertex 1.242989555109432 21.068785453103292 0.0
  endloop
endfacet
facet normal 0.0 0.0 -1.0
  outer loop
    vertex 0.899517172165375 9.597374020215398 0.0
    vertex 1.242989555109432 21.068785453103292 0.0
    vertex 2.7544029412096145 6.150313559046022 0.0
  endloop
endfacet
facet normal 0.0 0.0 -1.0
  outer loop
    vertex 2.7544029412096145 6.150313559046022 0.0
    vertex 1.242989555109432 21.068785453103292 0.0
    vertex 3.3007885983408958 24.398693880798522 0.0
  endloop
endfacet
facet normal 0.0 0.0 -1.0
  outer loop
    vertex 2.7544029412096145 6.150313559046022 0.0
    vertex 3.3007885983408958 24.398693880798522 0.0
    vertex 5.438249907316015 3.3007885983408958 0.0
  endloop
endfacet
facet normal 0.0 0.0 -1.0
  outer loop
    vertex 5.438249907316015 3.3007885983408958 0.0
    vertex 3.3007885983408958 24.398693880798522 0.0
    vertex 6.150313559046018 27.082540846904926 0.0
  endloop
endfacet
facet normal 0.0 0.0 -1.0
  outer loop
    vertex 5.438249907316015 3.3007885983408958 0.0
    vertex 6.150313559046018 27.082540846904926 0.0
    vertex 8.768158335011245 1.242989555109435 0.0
  endloop
endfacet
facet normal 0.0 0.0 -1.0
  outer loop
    vertex 8.768158335011245 1.242989555109435 0.0
    vertex 6.150313559046018 27.082540846904926 0.0
    vertex 9.597374020215398 28.937426615949164 0.0
  endloop
endfacet
facet normal 0.0 0.0 -1.0
  outer loop
    vertex 8.768158335011245 1.242989555109435 0.0
    vertex 9.597374020215398 28.937426615949164 0.0
    vertex 12.517200467881743 0.1171520334741458 0.0
  endloop
endfacet
facet normal 0.0 0.0 -1.0
  outer loop
    vertex 12.517200467881743 0.1171520334741458 0.0
    vertex 9.597374020215398 28.937426615949164 0.0
    vertex 13.407058507957087 29.83694378811454 0.0
  endloop
endfacet
facet normal 0.0 0.0 -1.0
  outer loop
    vertex 12.517200467881743 0.1171520334741458 0.0
    vertex 13.407058507957087 29.83694378811454 0.0
    vertex 13.44275113674497 15.007894545498537 1.4099832412739487e-15
  endloop
endfacet
facet normal 0.0 0.0 -1.0
  outer loop
    vertex 12.517200467881743 0.1171520334741458 0.0
    vertex 13.44275113674497 15.007894545498537 1.4099832412739487e-15
    vertex 13.469890816921888 14.622902905294112 1.4099832412739487e-15
  endloop
endfacet
facet normal 0.0 0.0 -1.0
  outer loop
    vertex 12.517200467881743 0.1171520334741458 0.0
    vertex 13.469890816921888 14.622902905294112 1.4099832412739487e-15
    vertex 16.429885280157453 0.0 0.0
  endloop
endfacet
facet normal 0.0 0.0 -1.0
  outer loop
    vertex 16.429885280157453 0.0 0.0
    vertex 13.469890816921888 14.622902905294112 1.4099832412739487e-15
    vertex 13.595748903612172 14.25805380322302 1.4099832412739487e-15
  endloop
endfacet
facet normal 0.0 0.0 -1.0
  outer loop
    vertex 16.429885280157453 0.0 0.0
    vertex 13.595748903612172 14.25805380322302 1.4099832412739487e-15
    vertex 13.811748376198185 13.9382111026498 1.4099832412739487e-15
  endloop
endfacet
facet normal 0.0 0.0 -1.0
  outer loop
    vertex 16.429885280157453 0.0 0.0
    vertex 13.811748376198185 13.9382111026498 1.4099832412739487e-15
    vertex 14.103169227579201 13.685171555053453 1.4099832412739487e-15
  endloop
endfacet
facet normal 0.0 0.0 -1.0
  outer loop
    vertex 16.429885280157453 0.0 0.0
    vertex 14.103169227579201 13.685171555053453 1.4099832412739487e-15
    vertex 14.18565963217125 13.644995935041871 7.085292406978357e-16
  endloop
endfacet
facet normal 0.0 0.0 -1.0
  outer loop
    vertex 16.429885280157453 0.0 0.0
    vertex 14.18565963217125 13.644995935041871 7.085292406978357e-16
    vertex 14.450151608329367 13.516179387435018 1.4099832412739487e-15
  endloop
endfacet
facet normal 0.0 0.0 -1.0
  outer loop
    vertex 16.429885280157453 0.0 0.0
    vertex 14.450151608329367 13.516179387435018 1.4099832412739487e-15
    vertex 14.820147549186206 13.43141653963319 0.0
  endloop
endfacet
facet normal 0.0 0.0 -1.0
  outer loop
    vertex 16.429885280157453 0.0 0.0
    vertex 14.820147549186206 13.43141653963319 0.0
    vertex 15.214040882820434 13.469890816921888 1.4099832412739487e-15
  endloop
endfacet
facet normal 0.0 0.0 -1.0
  outer loop
    vertex 16.429885280157453 0.0 0.0
    vertex 15.214040882820434 13.469890816921888 1.4099832412739487e-15
    vertex 15.578889984891507 13.595748903612165 1.4099832412739487e-15
  endloop
endfacet
facet normal 0.0 0.0 -1.0
  outer loop
    vertex 16.429885280157453 0.0 0.0
    vertex 15.578889984891507 13.595748903612165 1.4099832412739487e-15
    vertex 15.898732685464726 13.81174837619818 1.4099832412739487e-15
  endloop
endfacet
facet normal 0.0 0.0 -1.0
  outer loop
    vertex 16.429885280157453 0.0 0.0
    vertex 15.898732685464726 13.81174837619818 1.4099832412739487e-15
    vertex 16.151772233061102 14.103169227579224 1.4099832412739487e-15
  endloop
endfacet
facet normal 0.0 0.0 -1.0
  outer loop
    vertex 16.429885280157453 0.0 0.0
    vertex 16.151772233061102 14.103169227579224 1.4099832412739487e-15
    vertex 16.32076440067952 14.45015160832935 1.4099832412739487e-15
  endloop
endfacet
facet normal 0.0 0.0 -1.0
  outer loop
    vertex 16.429885280157453 0.0 0.0
    vertex 16.32076440067952 14.45015160832935 1.4099832412739487e-15
    vertex 16.394192651369572 14.829049242615998 1.4099832412739487e-15
  endloop
endfacet
facet normal -0.8806015616002398 -0.4738574571611373 -0.0
  outer loop
    vertex 0.899517172165375 9.597374020215398 2.0000000000000018
    vertex 2.7544029412096145 6.150313559046022 0.0
    vertex 2.7544029412096145 6.150313559046022 2.0000000000000018
  endloop
endfacet
facet normal -0.8806015616002398 -0.4738574571611373 -0.0
  outer loop
    vertex 2.7544029412096145 6.150313559046022 0.0
    vertex 0.899517172165375 9.597374020215398 2.0000000000000018
    vertex 0.899517172165375 9.597374020215398 0.0
  endloop
endfacet
facet normal -0.28761151445653865 -0.9577471570054471 -0.0
  outer loop
    vertex 12.517200467881743 0.1171520334741458 2.0000000000000018
    vertex 8.768158335011245 1.242989555109435 0.0
    vertex 12.517200467881743 0.1171520334741458 0.0
  endloop
endfacet
facet normal -0.28761151445653865 -0.9577471570054471 -0.0
  outer loop
    vertex 8.768158335011245 1.242989555109435 0.0
    vertex 12.517200467881743 0.1171520334741458 2.0000000000000018
    vertex 8.768158335011245 1.242989555109435 2.0000000000000018
  endloop
endfacet
facet normal -0.6556328069151482 -0.7550798782225389 2.3839052254764605e-17
  outer loop
    vertex 16.02519541191635 15.898732685464745 1.4099832412739487e-15
    vertex 15.73377456053534 16.15177223306109 1.4099832412739487e-15
    vertex 15.820536828243592 16.076436906624114 1.0450234511353658e-15
  endloop
endfacet
facet normal -0.6556328069151482 -0.7550798782225389 2.3839052254764605e-17
  outer loop
    vertex 15.73377456053534 16.15177223306109 1.4099832412739487e-15
    vertex 16.02519541191635 15.898732685464745 1.4099832412739487e-15
    vertex 16.02519541191635 15.898732685464745 20.0
  endloop
endfacet
facet normal -0.6556328069151482 -0.7550798782225389 2.3839052254764605e-17
  outer loop
    vertex 15.73377456053534 16.15177223306109 1.4099832412739487e-15
    vertex 16.02519541191635 15.898732685464745 20.0
    vertex 15.73377456053534 16.15177223306109 20.0
  endloop
endfacet
facet normal 0.47385745716113653 -0.8806015616002403 0.0
  outer loop
    vertex 23.686630229068523 2.754402941209609 2.0000000000000018
    vertex 20.239569767899138 0.899517172165375 0.0
    vertex 23.686630229068523 2.754402941209609 0.0
  endloop
endfacet
facet normal 0.47385745716113653 -0.8806015616002403 0.0
  outer loop
    vertex 20.239569767899138 0.899517172165375 0.0
    vertex 23.686630229068523 2.754402941209609 2.0000000000000018
    vertex 20.239569767899138 0.899517172165375 2.0000000000000018
  endloop
endfacet
facet normal 0.5256945943774864 0.8506733764743611 0.0
  outer loop
    vertex 21.0687854531033 28.593954233005103 2.0000000000000018
    vertex 24.398693880798525 26.536155189773638 0.0
    vertex 21.0687854531033 28.593954233005103 0.0
  endloop
endfacet
facet normal 0.5256945943774864 0.8506733764743611 0.0
  outer loop
    vertex 24.398693880798525 26.536155189773638 0.0
    vertex 21.0687854531033 28.593954233005103 2.0000000000000018
    vertex 24.398693880798525 26.536155189773638 2.0000000000000018
  endloop
endfacet
facet normal -0.97323912559731 -0.22979470056244522 -0.0
  outer loop
    vertex 0.0 13.40705850795709 2.0000000000000018
    vertex 0.899517172165375 9.597374020215398 0.0
    vertex 0.899517172165375 9.597374020215398 2.0000000000000018
  endloop
endfacet
facet normal -0.97323912559731 -0.22979470056244522 -0.0
  outer loop
    vertex 0.899517172165375 9.597374020215398 0.0
    vertex 0.0 13.40705850795709 2.0000000000000018
    vertex 0.0 13.40705850795709 0.0
  endloop
endfacet
facet normal 0.9577471570054467 -0.28761151445653976 0.0
  outer loop
    vertex 29.719791754640397 12.517200467881736 0.0
    vertex 28.593954233005096 8.768158335011242 2.0000000000000018
    vertex 28.593954233005096 8.768158335011242 0.0
  endloop
endfacet
facet normal 0.9577471570054467 -0.28761151445653976 0.0
  outer loop
    vertex 28.593954233005096 8.768158335011242 2.0000000000000018
    vertex 29.719791754640397 12.517200467881736 0.0
    vertex 29.719791754640397 12.517200467881736 2.0000000000000018
  endloop
endfacet
facet normal 0.28761151445654 0.9577471570054467 0.0
  outer loop
    vertex 17.319743320232803 29.71979175464039 2.0000000000000018
    vertex 21.0687854531033 28.593954233005103 0.0
    vertex 17.319743320232803 29.71979175464039 0.0
  endloop
endfacet
facet normal 0.28761151445654 0.9577471570054467 0.0
  outer loop
    vertex 21.0687854531033 28.593954233005103 0.0
    vertex 17.319743320232803 29.71979175464039 2.0000000000000018
    vertex 21.0687854531033 28.593954233005103 2.0000000000000018
  endloop
endfacet
facet normal 0.029928185125879303 0.9995520515386236 0.0
  outer loop
    vertex 13.407058507957087 29.83694378811454 2.0000000000000018
    vertex 17.319743320232803 29.71979175464039 0.0
    vertex 13.407058507957087 29.83694378811454 0.0
  endloop
endfacet
facet normal 0.029928185125879303 0.9995520515386236 0.0
  outer loop
    vertex 17.319743320232803 29.71979175464039 0.0
    vertex 13.407058507957087 29.83694378811454 2.0000000000000018
    vertex 17.319743320232803 29.71979175464039 2.0000000000000018
  endloop
endfacet
facet normal 0.6856276111407706 -0.7279524564430017 0.0
  outer loop
    vertex 26.536155189773634 5.438249907316009 2.0000000000000018
    vertex 23.686630229068523 2.754402941209609 0.0
    vertex 26.536155189773634 5.438249907316009 0.0
  endloop
endfacet
facet normal 0.6856276111407706 -0.7279524564430017 0.0
  outer loop
    vertex 23.686630229068523 2.754402941209609 0.0
    vertex 26.536155189773634 5.438249907316009 2.0000000000000018
    vertex 23.686630229068523 2.754402941209609 2.0000000000000018
  endloop
endfacet
facet normal 0.850673376474361 -0.5256945943774866 0.0
  outer loop
    vertex 28.593954233005096 8.768158335011242 0.0
    vertex 26.536155189773634 5.438249907316009 2.0000000000000018
    vertex 26.536155189773634 5.438249907316009 0.0
  endloop
endfacet
facet normal 0.850673376474361 -0.5256945943774866 0.0
  outer loop
    vertex 26.536155189773634 5.438249907316009 2.0000000000000018
    vertex 28.593954233005096 8.768158335011242 0.0
    vertex 28.593954233005096 8.768158335011242 2.0000000000000018
  endloop
endfacet
facet normal -0.029928185125879386 -0.9995520515386236 -0.0
  outer loop
    vertex 16.429885280157453 0.0 2.0000000000000018
    vertex 12.517200467881743 0.1171520334741458 0.0
    vertex 16.429885280157453 0.0 0.0
  endloop
endfacet
facet normal -0.029928185125879386 -0.9995520515386236 -0.0
  outer loop
    vertex 12.517200467881743 0.1171520334741458 0.0
    vertex 16.429885280157453 0.0 2.0000000000000018
    vertex 12.517200467881743 0.1171520334741458 2.0000000000000018
  endloop
endfacet
facet normal -0.7279524564430017 -0.6856276111407706 -0.0
  outer loop
    vertex 2.7544029412096145 6.150313559046022 2.0000000000000018
    vertex 5.438249907316015 3.3007885983408958 0.0
    vertex 5.438249907316015 3.3007885983408958 2.0000000000000018
  endloop
endfacet
facet normal -0.7279524564430017 -0.6856276111407706 -0.0
  outer loop
    vertex 5.438249907316015 3.3007885983408958 0.0
    vertex 2.7544029412096145 6.150313559046022 2.0000000000000018
    vertex 2.7544029412096145 6.150313559046022 0.0
  endloop
endfacet
facet normal -0.828721713819421 -0.5596608982626905 0.0
  outer loop
    vertex 16.02519541191635 15.898732685464745 20.0
    vertex 16.24119488450237 15.578889984891518 1.4099832412739487e-15
    vertex 16.24119488450237 15.578889984891518 20.0
  endloop
endfacet
facet normal -0.828721713819421 -0.5596608982626905 0.0
  outer loop
    vertex 16.24119488450237 15.578889984891518 1.4099832412739487e-15
    vertex 16.02519541191635 15.898732685464745 20.0
    vertex 16.02519541191635 15.898732685464745 1.4099832412739487e-15
  endloop
endfacet
facet normal -0.9453346054542848 -0.3261019529696069 -3.241539406700861e-33
  outer loop
    vertex 16.24119488450237 15.578889984891518 20.0
    vertex 16.367052971192653 15.214040882820429 1.4099832412739487e-15
    vertex 16.367052971192653 15.214040882820429 20.0
  endloop
endfacet
facet normal -0.9453346054542848 -0.3261019529696069 -3.241539406700861e-33
  outer loop
    vertex 16.367052971192653 15.214040882820429 1.4099832412739487e-15
    vertex 16.24119488450237 15.578889984891518 20.0
    vertex 16.24119488450237 15.578889984891518 1.4099832412739487e-15
  endloop
endfacet
facet normal -0.997524505966741 -0.07031969849060497 0.0
  outer loop
    vertex 16.367052971192653 15.214040882820429 20.0
    vertex 16.394192651369572 14.829049242615998 1.4099832412739487e-15
    vertex 16.394192651369572 14.829049242615998 20.0
  endloop
endfacet
facet normal -0.997524505966741 -0.07031969849060497 0.0
  outer loop
    vertex 16.394192651369572 14.829049242615998 1.4099832412739487e-15
    vertex 16.367052971192653 15.214040882820429 20.0
    vertex 16.367052971192653 15.214040882820429 1.4099832412739487e-15
  endloop
endfacet
facet normal -0.850673376474361 0.5256945943774863 0.0
  outer loop
    vertex 3.3007885983408958 24.398693880798522 2.0000000000000018
    vertex 1.242989555109432 21.068785453103292 0.0
    vertex 1.242989555109432 21.068785453103292 2.0000000000000018
  endloop
endfacet
facet normal -0.850673376474361 0.5256945943774863 0.0
  outer loop
    vertex 1.242989555109432 21.068785453103292 0.0
    vertex 3.3007885983408958 24.398693880798522 2.0000000000000018
    vertex 3.3007885983408958 24.398693880798522 0.0
  endloop
endfacet
facet normal -0.957747157005447 0.28761151445653904 0.0
  outer loop
    vertex 1.242989555109432 21.068785453103292 2.0000000000000018
    vertex 0.11715203347414298 17.319743320232796 0.0
    vertex 0.11715203347414298 17.319743320232796 2.0000000000000018
  endloop
endfacet
facet normal -0.957747157005447 0.28761151445653904 0.0
  outer loop
    vertex 0.11715203347414298 17.319743320232796 0.0
    vertex 1.242989555109432 21.068785453103292 2.0000000000000018
    vertex 1.242989555109432 21.068785453103292 0.0
  endloop
endfacet
facet normal -0.22979470056244514 0.9732391255973099 0.0
  outer loop
    vertex 9.597374020215398 28.937426615949164 2.0000000000000018
    vertex 13.407058507957087 29.83694378811454 0.0
    vertex 9.597374020215398 28.937426615949164 0.0
  endloop
endfacet
facet normal -0.22979470056244514 0.9732391255973099 0.0
  outer loop
    vertex 13.407058507957087 29.83694378811454 0.0
    vertex 9.597374020215398 28.937426615949164 2.0000000000000018
    vertex 13.407058507957087 29.83694378811454 2.0000000000000018
  endloop
endfacet
facet normal -0.9817347598847542 0.19025472723174106 0.0
  outer loop
    vertex 16.394192651369572 14.829049242615998 20.0
    vertex 16.32076440067952 14.45015160832935 1.4099832412739487e-15
    vertex 16.32076440067952 14.45015160832935 20.0
  endloop
endfacet
facet normal -0.9817347598847542 0.19025472723174106 0.0
  outer loop
    vertex 16.32076440067952 14.45015160832935 1.4099832412739487e-15
    vertex 16.394192651369572 14.829049242615998 20.0
    vertex 16.394192651369572 14.829049242615998 1.4099832412739487e-15
  endloop
endfacet
facet normal -0.8990414123100158 0.43786360770405697 0.0
  outer loop
    vertex 16.32076440067952 14.45015160832935 20.0
    vertex 16.151772233061102 14.103169227579224 1.4099832412739487e-15
    vertex 16.151772233061102 14.103169227579224 20.0
  endloop
endfacet
facet normal -0.8990414123100158 0.43786360770405697 0.0
  outer loop
    vertex 16.151772233061102 14.103169227579224 1.4099832412739487e-15
    vertex 16.32076440067952 14.45015160832935 20.0
    vertex 16.32076440067952 14.45015160832935 1.4099832412739487e-15
  endloop
endfacet
facet normal -0.5256945943774868 -0.8506733764743609 -0.0
  outer loop
    vertex 8.768158335011245 1.242989555109435 2.0000000000000018
    vertex 5.438249907316015 3.3007885983408958 0.0
    vertex 8.768158335011245 1.242989555109435 0.0
  endloop
endfacet
facet normal -0.5256945943774868 -0.8506733764743609 -0.0
  outer loop
    vertex 5.438249907316015 3.3007885983408958 0.0
    vertex 8.768158335011245 1.242989555109435 2.0000000000000018
    vertex 5.438249907316015 3.3007885983408958 2.0000000000000018
  endloop
endfacet
facet normal 0.7279524564430021 0.6856276111407703 0.0
  outer loop
    vertex 24.398693880798525 26.536155189773638 0.0
    vertex 27.08254084690493 23.686630229068513 2.0000000000000018
    vertex 27.08254084690493 23.686630229068513 0.0
  endloop
endfacet
facet normal 0.7279524564430021 0.6856276111407703 0.0
  outer loop
    vertex 27.08254084690493 23.686630229068513 2.0000000000000018
    vertex 24.398693880798525 26.536155189773638 0.0
    vertex 24.398693880798525 26.536155189773638 2.0000000000000018
  endloop
endfacet
facet normal -0.7550798782225365 0.655632806915151 0.0
  outer loop
    vertex 16.151772233061102 14.103169227579224 20.0
    vertex 15.898732685464726 13.81174837619818 1.4099832412739487e-15
    vertex 15.898732685464726 13.81174837619818 20.0
  endloop
endfacet
facet normal -0.7550798782225365 0.655632806915151 0.0
  outer loop
    vertex 15.898732685464726 13.81174837619818 1.4099832412739487e-15
    vertex 16.151772233061102 14.103169227579224 20.0
    vertex 16.151772233061102 14.103169227579224 1.4099832412739487e-15
  endloop
endfacet
facet normal -0.4738574571611371 0.88060156160024 0.0
  outer loop
    vertex 6.150313559046018 27.082540846904926 2.0000000000000018
    vertex 9.597374020215398 28.937426615949164 0.0
    vertex 6.150313559046018 27.082540846904926 0.0
  endloop
endfacet
facet normal -0.4738574571611371 0.88060156160024 0.0
  outer loop
    vertex 9.597374020215398 28.937426615949164 0.0
    vertex 6.150313559046018 27.082540846904926 2.0000000000000018
    vertex 9.597374020215398 28.937426615949164 2.0000000000000018
  endloop
endfacet
facet normal -0.5596608982626906 0.828721713819421 -5.5631769131943685e-33
  outer loop
    vertex 15.578889984891507 13.595748903612165 20.0
    vertex 15.898732685464726 13.81174837619818 1.4099832412739487e-15
    vertex 15.578889984891507 13.595748903612165 1.4099832412739487e-15
  endloop
endfacet
facet normal -0.5596608982626906 0.828721713819421 -5.5631769131943685e-33
  outer loop
    vertex 15.898732685464726 13.81174837619818 1.4099832412739487e-15
    vertex 15.578889984891507 13.595748903612165 20.0
    vertex 15.898732685464726 13.81174837619818 20.0
  endloop
endfacet
facet normal -0.32610195296960737 0.9453346054542846 3.241539406700866e-33
  outer loop
    vertex 15.214040882820434 13.469890816921888 20.0
    vertex 15.578889984891507 13.595748903612165 1.4099832412739487e-15
    vertex 15.214040882820434 13.469890816921888 1.4099832412739487e-15
  endloop
endfacet
facet normal -0.32610195296960737 0.9453346054542846 3.241539406700866e-33
  outer loop
    vertex 15.578889984891507 13.595748903612165 1.4099832412739487e-15
    vertex 15.214040882820434 13.469890816921888 20.0
    vertex 15.578889984891507 13.595748903612165 20.0
  endloop
endfacet
facet normal -0.08409720239813291 0.9964575209408747 -0.0002636459256203557
  outer loop
    vertex 14.829049242615994 13.442751136744967 20.0
    vertex 15.214040882820434 13.469890816921888 1.4099832412739487e-15
    vertex 14.820147549186206 13.43141653963319 0.0
  endloop
endfacet
facet normal -0.08409720239813291 0.9964575209408747 -0.0002636459256203557
  outer loop
    vertex 15.214040882820434 13.469890816921888 1.4099832412739487e-15
    vertex 14.829049242615994 13.442751136744967 20.0
    vertex 15.214040882820434 13.469890816921888 20.0
  endloop
endfacet
facet normal 0.8806015616002402 0.4738574571611367 0.0
  outer loop
    vertex 27.08254084690493 23.686630229068513 0.0
    vertex 28.93742661594916 20.239569767899138 2.0000000000000018
    vertex 28.93742661594916 20.239569767899138 0.0
  endloop
endfacet
facet normal 0.8806015616002402 0.4738574571611367 0.0
  outer loop
    vertex 28.93742661594916 20.239569767899138 2.0000000000000018
    vertex 27.08254084690493 23.686630229068513 0.0
    vertex 27.08254084690493 23.686630229068513 2.0000000000000018
  endloop
endfacet
facet normal 0.2064761448091909 0.9784515814085899 -0.0003232085452575981
  outer loop
    vertex 14.450151608329367 13.516179387435018 1.4099832412739487e-15
    vertex 14.829049242615994 13.442751136744967 20.0
    vertex 14.820147549186206 13.43141653963319 0.0
  endloop
endfacet
facet normal 0.2064761448091909 0.9784515814085899 -0.0003232085452575981
  outer loop
    vertex 14.829049242615994 13.442751136744967 20.0
    vertex 14.450151608329367 13.516179387435018 1.4099832412739487e-15
    vertex 14.450151608329367 13.516179387435018 20.0
  endloop
endfacet
facet normal 0.4378636077040517 0.8990414123100184 -1.884669836810854e-17
  outer loop
    vertex 14.103169227579201 13.685171555053453 1.4099832412739487e-15
    vertex 14.450151608329367 13.516179387435018 1.4099832412739487e-15
    vertex 14.18565963217125 13.644995935041871 7.085292406978357e-16
  endloop
endfacet
facet normal 0.4378636077040517 0.8990414123100184 -1.884669836810854e-17
  outer loop
    vertex 14.450151608329367 13.516179387435018 1.4099832412739487e-15
    vertex 14.103169227579201 13.685171555053453 1.4099832412739487e-15
    vertex 14.103169227579201 13.685171555053453 20.0
  endloop
endfacet
facet normal 0.4378636077040517 0.8990414123100184 -1.884669836810854e-17
  outer loop
    vertex 14.450151608329367 13.516179387435018 1.4099832412739487e-15
    vertex 14.103169227579201 13.685171555053453 20.0
    vertex 14.450151608329367 13.516179387435018 20.0
  endloop
endfacet
facet normal 0.6556328069151455 0.7550798782225413 0.0
  outer loop
    vertex 13.811748376198185 13.9382111026498 20.0
    vertex 14.103169227579201 13.685171555053453 1.4099832412739487e-15
    vertex 13.811748376198185 13.9382111026498 1.4099832412739487e-15
  endloop
endfacet
facet normal 0.6556328069151455 0.7550798782225413 0.0
  outer loop
    vertex 14.103169227579201 13.685171555053453 1.4099832412739487e-15
    vertex 13.811748376198185 13.9382111026498 20.0
    vertex 14.103169227579201 13.685171555053453 20.0
  endloop
endfacet
facet normal 0.8287217138194233 0.5596608982626873 0.0
  outer loop
    vertex 13.595748903612172 14.25805380322302 1.4099832412739487e-15
    vertex 13.811748376198185 13.9382111026498 20.0
    vertex 13.811748376198185 13.9382111026498 1.4099832412739487e-15
  endloop
endfacet
facet normal 0.8287217138194233 0.5596608982626873 0.0
  outer loop
    vertex 13.811748376198185 13.9382111026498 20.0
    vertex 13.595748903612172 14.25805380322302 1.4099832412739487e-15
    vertex 13.595748903612172 14.25805380322302 20.0
  endloop
endfacet
facet normal 0.9453346054542848 0.3261019529696069 -3.241539406700861e-33
  outer loop
    vertex 13.469890816921888 14.622902905294112 1.4099832412739487e-15
    vertex 13.595748903612172 14.25805380322302 20.0
    vertex 13.595748903612172 14.25805380322302 1.4099832412739487e-15
  endloop
endfacet
facet normal 0.9453346054542848 0.3261019529696069 -3.241539406700861e-33
  outer loop
    vertex 13.595748903612172 14.25805380322302 20.0
    vertex 13.469890816921888 14.622902905294112 1.4099832412739487e-15
    vertex 13.469890816921888 14.622902905294112 20.0
  endloop
endfacet
facet normal 0.9975245059667415 0.07031969849059873 -9.915656639880255e-33
  outer loop
    vertex 13.44275113674497 15.007894545498537 1.4099832412739487e-15
    vertex 13.469890816921888 14.622902905294112 20.0
    vertex 13.469890816921888 14.622902905294112 1.4099832412739487e-15
  endloop
endfacet
facet normal 0.9975245059667415 0.07031969849059873 -9.915656639880255e-33
  outer loop
    vertex 13.469890816921888 14.622902905294112 20.0
    vertex 13.44275113674497 15.007894545498537 1.4099832412739487e-15
    vertex 13.44275113674497 15.007894545498537 20.0
  endloop
endfacet
facet normal 0.9817347598847536 -0.19025472723174403 -1.7167690817316031e-19
  outer loop
    vertex 13.516179387435027 15.386792179785193 1.4099832412739487e-15
    vertex 13.44275113674497 15.007894545498537 20.0
    vertex 13.44275113674497 15.007894545498537 1.4099832412739487e-15
  endloop
endfacet
facet normal 0.9817347598847536 -0.19025472723174403 -1.7167690817316031e-19
  outer loop
    vertex 13.44275113674497 15.007894545498537 20.0
    vertex 13.516179387435027 15.386792179785193 1.4099832412739487e-15
    vertex 13.516179387435027 15.386792179785193 20.0
  endloop
endfacet
facet normal -7.738394539325352e-18 -2.7530533402278815e-17 1.0
  outer loop
    vertex 16.36736063349088 14.53024332640349 0.0
    vertex 16.367052971192653 15.214040882820429 1.4099832412739487e-15
    vertex 16.32076440067952 14.45015160832935 1.4099832412739487e-15
  endloop
endfacet
facet normal -7.738394539325352e-18 -2.7530533402278815e-17 1.0
  outer loop
    vertex 16.367052971192653 15.214040882820429 1.4099832412739487e-15
    vertex 16.36736063349088 14.53024332640349 0.0
    vertex 16.394192651369572 14.829049242615998 1.4099832412739487e-15
  endloop
endfacet
facet normal -7.738394539325352e-18 -2.7530533402278815e-17 1.0
  outer loop
    vertex 16.367052971192653 15.214040882820429 1.4099832412739487e-15
    vertex 16.394192651369572 14.829049242615998 1.4099832412739487e-15
    vertex 16.418471894057273 14.91847189405727 0.0
  endloop
endfacet
facet normal -7.738394539325352e-18 -2.7530533402278815e-17 1.0
  outer loop
    vertex 13.595748903612172 14.25805380322302 1.4099832412739487e-15
    vertex 13.469890816921888 14.622902905294112 1.4099832412739487e-15
    vertex 13.469583154623667 14.530243326403486 0.0
  endloop
endfacet
facet normal -7.738394539325352e-18 -2.7530533402278815e-17 1.0
  outer loop
    vertex 13.469890816921888 14.622902905294112 1.4099832412739487e-15
    vertex 13.595748903612172 14.25805380322302 1.4099832412739487e-15
    vertex 13.516179387435027 15.386792179785193 1.4099832412739487e-15
  endloop
endfacet
facet normal -7.738394539325352e-18 -2.7530533402278815e-17 1.0
  outer loop
    vertex 13.516179387435027 15.386792179785193 1.4099832412739487e-15
    vertex 13.595748903612172 14.25805380322302 1.4099832412739487e-15
    vertex 13.619433788380615 15.66847189405727 0.0
  endloop
endfacet
facet normal -7.738394539325352e-18 -2.7530533402278815e-17 1.0
  outer loop
    vertex 13.619433788380615 15.66847189405727 0.0
    vertex 13.595748903612172 14.25805380322302 1.4099832412739487e-15
    vertex 13.619433788380615 14.16847189405727 0.0
  endloop
endfacet
facet normal -7.738394539325352e-18 -2.7530533402278815e-17 1.0
  outer loop
    vertex 13.619433788380615 15.66847189405727 0.0
    vertex 13.619433788380615 14.16847189405727 0.0
    vertex 13.811748376198185 13.9382111026498 1.4099832412739487e-15
  endloop
endfacet
facet normal -7.738394539325352e-18 -2.7530533402278815e-17 1.0
  outer loop
    vertex 13.619433788380615 15.66847189405727 0.0
    vertex 13.811748376198185 13.9382111026498 1.4099832412739487e-15
    vertex 13.685171555053444 15.73377456053533 1.4099832412739487e-15
  endloop
endfacet
facet normal -7.738394539325352e-18 -2.7530533402278815e-17 1.0
  outer loop
    vertex 13.685171555053444 15.73377456053533 1.4099832412739487e-15
    vertex 13.811748376198185 13.9382111026498 1.4099832412739487e-15
    vertex 13.857811722277447 15.97913206583709 0.0
  endloop
endfacet
facet normal -7.738394539325352e-18 -2.7530533402278815e-17 1.0
  outer loop
    vertex 13.857811722277447 15.97913206583709 0.0
    vertex 13.811748376198185 13.9382111026498 1.4099832412739487e-15
    vertex 13.857811722277452 13.857811722277448 0.0
  endloop
endfacet
facet normal -7.738394539325352e-18 -2.7530533402278815e-17 1.0
  outer loop
    vertex 13.857811722277447 15.97913206583709 0.0
    vertex 13.857811722277452 13.857811722277448 0.0
    vertex 13.938211102649802 16.025195411916354 1.4099832412739487e-15
  endloop
endfacet
facet normal -7.738394539325352e-18 -2.7530533402278815e-17 1.0
  outer loop
    vertex 13.938211102649802 16.025195411916354 1.4099832412739487e-15
    vertex 13.857811722277452 13.857811722277448 0.0
    vertex 14.103169227579201 13.685171555053453 1.4099832412739487e-15
  endloop
endfacet
facet normal -7.738394539325352e-18 -2.7530533402278815e-17 1.0
  outer loop
    vertex 13.938211102649802 16.025195411916354 1.4099832412739487e-15
    vertex 14.103169227579201 13.685171555053453 1.4099832412739487e-15
    vertex 14.168471894057271 16.217509999733927 0.0
  endloop
endfacet
facet normal -7.738394539325352e-18 -2.7530533402278815e-17 1.0
  outer loop
    vertex 14.168471894057271 16.217509999733927 0.0
    vertex 14.103169227579201 13.685171555053453 1.4099832412739487e-15
    vertex 14.168471894057271 13.619433788380611 0.0
  endloop
endfacet
facet normal -7.738394539325352e-18 -2.7530533402278815e-17 1.0
  outer loop
    vertex 14.168471894057271 16.217509999733927 0.0
    vertex 14.168471894057271 13.619433788380611 0.0
    vertex 14.450151608329367 13.516179387435018 1.4099832412739487e-15
  endloop
endfacet
facet normal -7.738394539325352e-18 -2.7530533402278815e-17 1.0
  outer loop
    vertex 14.168471894057271 16.217509999733927 0.0
    vertex 14.450151608329367 13.516179387435018 1.4099832412739487e-15
    vertex 14.258053803223028 16.241194884502374 1.4099832412739487e-15
  endloop
endfacet
facet normal -7.738394539325352e-18 -2.7530533402278815e-17 1.0
  outer loop
    vertex 14.258053803223028 16.241194884502374 1.4099832412739487e-15
    vertex 14.450151608329367 13.516179387435018 1.4099832412739487e-15
    vertex 14.530243326403486 16.367360633490872 0.0
  endloop
endfacet
facet normal -7.738394539325352e-18 -2.7530533402278815e-17 1.0
  outer loop
    vertex 14.530243326403486 16.367360633490872 0.0
    vertex 14.450151608329367 13.516179387435018 1.4099832412739487e-15
    vertex 14.530243326403491 13.469583154623667 0.0
  endloop
endfacet
facet normal -7.738394539325352e-18 -2.7530533402278815e-17 1.0
  outer loop
    vertex 14.530243326403486 16.367360633490872 0.0
    vertex 14.530243326403491 13.469583154623667 0.0
    vertex 14.622902905294112 16.367052971192656 1.4099832412739487e-15
  endloop
endfacet
facet normal -7.738394539325352e-18 -2.7530533402278815e-17 1.0
  outer loop
    vertex 14.622902905294112 16.367052971192656 1.4099832412739487e-15
    vertex 14.530243326403491 13.469583154623667 0.0
    vertex 14.820147549186206 13.43141653963319 0.0
  endloop
endfacet
facet normal -7.738394539325352e-18 -2.7530533402278815e-17 1.0
  outer loop
    vertex 14.622902905294112 16.367052971192656 1.4099832412739487e-15
    vertex 14.820147549186206 13.43141653963319 0.0
    vertex 14.91847189405727 16.41847189405727 0.0
  endloop
endfacet
facet normal -7.738394539325352e-18 -2.7530533402278815e-17 1.0
  outer loop
    vertex 14.91847189405727 16.41847189405727 0.0
    vertex 14.820147549186206 13.43141653963319 0.0
    vertex 15.214040882820434 13.469890816921888 1.4099832412739487e-15
  endloop
endfacet
facet normal -7.738394539325352e-18 -2.7530533402278815e-17 1.0
  outer loop
    vertex 14.91847189405727 16.41847189405727 0.0
    vertex 15.214040882820434 13.469890816921888 1.4099832412739487e-15
    vertex 15.007894545498537 16.394192651369572 1.4099832412739487e-15
  endloop
endfacet
facet normal -7.738394539325352e-18 -2.7530533402278815e-17 1.0
  outer loop
    vertex 15.007894545498537 16.394192651369572 1.4099832412739487e-15
    vertex 15.214040882820434 13.469890816921888 1.4099832412739487e-15
    vertex 15.30670046171105 16.367360633490872 0.0
  endloop
endfacet
facet normal -7.738394539325352e-18 -2.7530533402278815e-17 1.0
  outer loop
    vertex 15.30670046171105 16.367360633490872 0.0
    vertex 15.214040882820434 13.469890816921888 1.4099832412739487e-15
    vertex 15.306700461711054 13.469583154623667 0.0
  endloop
endfacet
facet normal -7.738394539325352e-18 -2.7530533402278815e-17 1.0
  outer loop
    vertex 15.30670046171105 16.367360633490872 0.0
    vertex 15.306700461711054 13.469583154623667 0.0
    vertex 15.386792179785187 16.32076440067952 1.4099832412739487e-15
  endloop
endfacet
facet normal -7.738394539325352e-18 -2.7530533402278815e-17 1.0
  outer loop
    vertex 15.386792179785187 16.32076440067952 1.4099832412739487e-15
    vertex 15.306700461711054 13.469583154623667 0.0
    vertex 15.578889984891507 13.595748903612165 1.4099832412739487e-15
  endloop
endfacet
facet normal -7.738394539325352e-18 -2.7530533402278815e-17 1.0
  outer loop
    vertex 15.386792179785187 16.32076440067952 1.4099832412739487e-15
    vertex 15.578889984891507 13.595748903612165 1.4099832412739487e-15
    vertex 15.66847189405727 16.217509999733927 0.0
  endloop
endfacet
facet normal -7.738394539325352e-18 -2.7530533402278815e-17 1.0
  outer loop
    vertex 15.66847189405727 16.217509999733927 0.0
    vertex 15.578889984891507 13.595748903612165 1.4099832412739487e-15
    vertex 15.66847189405727 13.619433788380615 0.0
  endloop
endfacet
facet normal -7.738394539325352e-18 -2.7530533402278815e-17 1.0
  outer loop
    vertex 15.66847189405727 16.217509999733927 0.0
    vertex 15.66847189405727 13.619433788380615 0.0
    vertex 15.898732685464726 13.81174837619818 1.4099832412739487e-15
  endloop
endfacet
facet normal -7.738394539325352e-18 -2.7530533402278815e-17 1.0
  outer loop
    vertex 15.66847189405727 16.217509999733927 0.0
    vertex 15.898732685464726 13.81174837619818 1.4099832412739487e-15
    vertex 15.73377456053534 16.15177223306109 1.4099832412739487e-15
  endloop
endfacet
facet normal -7.738394539325352e-18 -2.7530533402278815e-17 1.0
  outer loop
    vertex 15.73377456053534 16.15177223306109 1.4099832412739487e-15
    vertex 15.898732685464726 13.81174837619818 1.4099832412739487e-15
    vertex 15.820536828243592 16.076436906624114 1.0450234511353658e-15
  endloop
endfacet
facet normal -7.738394539325352e-18 -2.7530533402278815e-17 1.0
  outer loop
    vertex 15.820536828243592 16.076436906624114 1.0450234511353658e-15
    vertex 15.898732685464726 13.81174837619818 1.4099832412739487e-15
    vertex 15.979132065837094 15.97913206583709 0.0
  endloop
endfacet
facet normal -7.738394539325352e-18 -2.7530533402278815e-17 1.0
  outer loop
    vertex 15.979132065837094 15.97913206583709 0.0
    vertex 15.898732685464726 13.81174837619818 1.4099832412739487e-15
    vertex 15.979132065837094 13.857811722277448 0.0
  endloop
endfacet
facet normal -7.738394539325352e-18 -2.7530533402278815e-17 1.0
  outer loop
    vertex 15.979132065837094 15.97913206583709 0.0
    vertex 15.979132065837094 13.857811722277448 0.0
    vertex 16.151772233061102 14.103169227579224 1.4099832412739487e-15
  endloop
endfacet
facet normal -7.738394539325352e-18 -2.7530533402278815e-17 1.0
  outer loop
    vertex 15.979132065837094 15.97913206583709 0.0
    vertex 16.151772233061102 14.103169227579224 1.4099832412739487e-15
    vertex 16.02519541191635 15.898732685464745 1.4099832412739487e-15
  endloop
endfacet
facet normal -7.738394539325352e-18 -2.7530533402278815e-17 1.0
  outer loop
    vertex 16.02519541191635 15.898732685464745 1.4099832412739487e-15
    vertex 16.151772233061102 14.103169227579224 1.4099832412739487e-15
    vertex 16.217509999733927 15.668471894057271 0.0
  endloop
endfacet
facet normal -7.738394539325352e-18 -2.7530533402278815e-17 1.0
  outer loop
    vertex 16.217509999733927 15.668471894057271 0.0
    vertex 16.151772233061102 14.103169227579224 1.4099832412739487e-15
    vertex 16.217509999733927 14.168471894057271 0.0
  endloop
endfacet
facet normal -7.738394539325352e-18 -2.7530533402278815e-17 1.0
  outer loop
    vertex 16.217509999733927 15.668471894057271 0.0
    vertex 16.217509999733927 14.168471894057271 0.0
    vertex 16.32076440067952 14.45015160832935 1.4099832412739487e-15
  endloop
endfacet
facet normal -7.738394539325352e-18 -2.7530533402278815e-17 1.0
  outer loop
    vertex 16.217509999733927 15.668471894057271 0.0
    vertex 16.32076440067952 14.45015160832935 1.4099832412739487e-15
    vertex 16.24119488450237 15.578889984891518 1.4099832412739487e-15
  endloop
endfacet
facet normal -7.738394539325352e-18 -2.7530533402278815e-17 1.0
  outer loop
    vertex 16.24119488450237 15.578889984891518 1.4099832412739487e-15
    vertex 16.32076440067952 14.45015160832935 1.4099832412739487e-15
    vertex 16.36736063349087 15.306700461711051 0.0
  endloop
endfacet
facet normal -7.738394539325352e-18 -2.7530533402278815e-17 1.0
  outer loop
    vertex 16.36736063349087 15.306700461711051 0.0
    vertex 16.32076440067952 14.45015160832935 1.4099832412739487e-15
    vertex 16.367052971192653 15.214040882820429 1.4099832412739487e-15
  endloop
endfacet
facet normal -7.738394539325352e-18 -2.7530533402278815e-17 1.0
  outer loop
    vertex 13.469890816921888 14.622902905294112 1.4099832412739487e-15
    vertex 13.44275113674497 15.007894545498537 1.4099832412739487e-15
    vertex 13.418471894057268 14.91847189405727 0.0
  endloop
endfacet
facet normal -7.738394539325352e-18 -2.7530533402278815e-17 1.0
  outer loop
    vertex 13.44275113674497 15.007894545498537 1.4099832412739487e-15
    vertex 13.469890816921888 14.622902905294112 1.4099832412739487e-15
    vertex 13.469583154623667 15.306700461711051 0.0
  endloop
endfacet
facet normal -7.738394539325352e-18 -2.7530533402278815e-17 1.0
  outer loop
    vertex 13.469583154623667 15.306700461711051 0.0
    vertex 13.469890816921888 14.622902905294112 1.4099832412739487e-15
    vertex 13.516179387435027 15.386792179785193 1.4099832412739487e-15
  endloop
endfacet
facet normal 0.8990414123100215 -0.4378636077040455 0.0
  outer loop
    vertex 13.685171555053444 15.73377456053533 1.4099832412739487e-15
    vertex 13.516179387435027 15.386792179785193 20.0
    vertex 13.516179387435027 15.386792179785193 1.4099832412739487e-15
  endloop
endfacet
facet normal 0.8990414123100215 -0.4378636077040455 0.0
  outer loop
    vertex 13.516179387435027 15.386792179785193 20.0
    vertex 13.685171555053444 15.73377456053533 1.4099832412739487e-15
    vertex 13.685171555053444 15.73377456053533 20.0
  endloop
endfacet
facet normal 0.7550798782225361 -0.6556328069151514 4.586045754407349e-19
  outer loop
    vertex 13.938211102649802 16.025195411916354 1.4099832412739487e-15
    vertex 13.685171555053444 15.73377456053533 20.0
    vertex 13.685171555053444 15.73377456053533 1.4099832412739487e-15
  endloop
endfacet
facet normal 0.7550798782225361 -0.6556328069151514 4.586045754407349e-19
  outer loop
    vertex 13.685171555053444 15.73377456053533 20.0
    vertex 13.938211102649802 16.025195411916354 1.4099832412739487e-15
    vertex 13.938211102649802 16.025195411916354 20.0
  endloop
endfacet
facet normal 0.9732391255973099 0.22979470056244541 0.0
  outer loop
    vertex 28.93742661594916 20.239569767899138 0.0
    vertex 29.836943788114546 16.42988528015745 2.0000000000000018
    vertex 29.836943788114546 16.42988528015745 0.0
  endloop
endfacet
facet normal 0.9732391255973099 0.22979470056244541 0.0
  outer loop
    vertex 29.836943788114546 16.42988528015745 2.0000000000000018
    vertex 28.93742661594916 20.239569767899138 0.0
    vertex 28.93742661594916 20.239569767899138 2.0000000000000018
  endloop
endfacet
facet normal 0.22979470056244541 -0.9732391255973099 0.0
  outer loop
    vertex 20.239569767899138 0.899517172165375 2.0000000000000018
    vertex 16.429885280157453 0.0 0.0
    vertex 20.239569767899138 0.899517172165375 0.0
  endloop
endfacet
facet normal 0.22979470056244541 -0.9732391255973099 0.0
  outer loop
    vertex 16.429885280157453 0.0 0.0
    vertex 20.239569767899138 0.899517172165375 2.0000000000000018
    vertex 16.429885280157453 0.0 2.0000000000000018
  endloop
endfacet
facet normal -0.6856276111407712 0.7279524564430011 0.0
  outer loop
    vertex 3.3007885983408958 24.398693880798522 2.0000000000000018
    vertex 6.150313559046018 27.082540846904926 0.0
    vertex 3.3007885983408958 24.398693880798522 0.0
  endloop
endfacet
facet normal -0.6856276111407712 0.7279524564430011 0.0
  outer loop
    vertex 6.150313559046018 27.082540846904926 0.0
    vertex 3.3007885983408958 24.398693880798522 2.0000000000000018
    vertex 6.150313559046018 27.082540846904926 2.0000000000000018
  endloop
endfacet
facet normal 0.9995520515386236 -0.029928185125879338 0.0
  outer loop
    vertex 29.836943788114546 16.42988528015745 0.0
    vertex 29.719791754640397 12.517200467881736 2.0000000000000018
    vertex 29.719791754640397 12.517200467881736 0.0
  endloop
endfacet
facet normal 0.9995520515386236 -0.029928185125879338 0.0
  outer loop
    vertex 29.719791754640397 12.517200467881736 2.0000000000000018
    vertex 29.836943788114546 16.42988528015745 0.0
    vertex 29.836943788114546 16.42988528015745 2.0000000000000018
  endloop
endfacet
facet normal 0.5596608982626936 -0.828721713819419 1.5220194524061452e-17
  outer loop
    vertex 14.258053803223028 16.241194884502374 1.4099832412739487e-15
    vertex 13.938211102649802 16.025195411916354 1.4099832412739487e-15
    vertex 14.186292430358224 16.19273225376837 7.122525658250169e-16
  endloop
endfacet
facet normal 0.5596608982626936 -0.828721713819419 1.5220194524061452e-17
  outer loop
    vertex 13.938211102649802 16.025195411916354 1.4099832412739487e-15
    vertex 14.258053803223028 16.241194884502374 1.4099832412739487e-15
    vertex 14.258053803223028 16.241194884502374 20.0
  endloop
endfacet
facet normal 0.5596608982626936 -0.828721713819419 1.5220194524061452e-17
  outer loop
    vertex 13.938211102649802 16.025195411916354 1.4099832412739487e-15
    vertex 14.258053803223028 16.241194884502374 20.0
    vertex 13.938211102649802 16.025195411916354 20.0
  endloop
endfacet
facet normal 0.32610195296960487 -0.9453346054542856 -6.1553358594331156e-33
  outer loop
    vertex 14.622902905294112 16.367052971192656 20.0
    vertex 14.258053803223028 16.241194884502374 1.4099832412739487e-15
    vertex 14.622902905294112 16.367052971192656 1.4099832412739487e-15
  endloop
endfacet
facet normal 0.32610195296960487 -0.9453346054542856 -6.1553358594331156e-33
  outer loop
    vertex 14.258053803223028 16.241194884502374 1.4099832412739487e-15
    vertex 14.622902905294112 16.367052971192656 20.0
    vertex 14.258053803223028 16.241194884502374 20.0
  endloop
endfacet
facet normal 0.07031969849059873 -0.9975245059667415 9.915656639880255e-33
  outer loop
    vertex 15.007894545498537 16.394192651369572 20.0
    vertex 14.622902905294112 16.367052971192656 1.4099832412739487e-15
    vertex 15.007894545498537 16.394192651369572 1.4099832412739487e-15
  endloop
endfacet
facet normal 0.07031969849059873 -0.9975245059667415 9.915656639880255e-33
  outer loop
    vertex 14.622902905294112 16.367052971192656 1.4099832412739487e-15
    vertex 15.007894545498537 16.394192651369572 20.0
    vertex 14.622902905294112 16.367052971192656 20.0
  endloop
endfacet
facet normal -0.19025472723173967 -0.9817347598847544 -1.8911821594956423e-33
  outer loop
    vertex 15.386792179785187 16.32076440067952 20.0
    vertex 15.007894545498537 16.394192651369572 1.4099832412739487e-15
    vertex 15.386792179785187 16.32076440067952 1.4099832412739487e-15
  endloop
endfacet
facet normal -0.19025472723173967 -0.9817347598847544 -1.8911821594956423e-33
  outer loop
    vertex 15.007894545498537 16.394192651369572 1.4099832412739487e-15
    vertex 15.386792179785187 16.32076440067952 20.0
    vertex 15.007894545498537 16.394192651369572 20.0
  endloop
endfacet
facet normal -0.9995520515386236 0.029928185125879386 0.0
  outer loop
    vertex 0.11715203347414298 17.319743320232796 2.0000000000000018
    vertex 0.0 13.40705850795709 0.0
    vertex 0.0 13.40705850795709 2.0000000000000018
  endloop
endfacet
facet normal -0.9995520515386236 0.029928185125879386 0.0
  outer loop
    vertex 0.0 13.40705850795709 0.0
    vertex 0.11715203347414298 17.319743320232796 2.0000000000000018
    vertex 0.04525413113935403 14.91847189405727 0.0
  endloop
endfacet
facet normal -0.9995520515386236 0.029928185125879386 0.0
  outer loop
    vertex 0.04525413113935403 14.91847189405727 0.0
    vertex 0.11715203347414298 17.319743320232796 2.0000000000000018
    vertex 0.11715203347414298 17.319743320232796 0.0
  endloop
endfacet
facet normal -0.43786360770405475 -0.899041412310017 4.352479726685922e-33
  outer loop
    vertex 15.73377456053534 16.15177223306109 20.0
    vertex 15.386792179785187 16.32076440067952 1.4099832412739487e-15
    vertex 15.73377456053534 16.15177223306109 1.4099832412739487e-15
  endloop
endfacet
facet normal -0.43786360770405475 -0.899041412310017 4.352479726685922e-33
  outer loop
    vertex 15.386792179785187 16.32076440067952 1.4099832412739487e-15
    vertex 15.73377456053534 16.15177223306109 20.0
    vertex 15.386792179785187 16.32076440067952 20.0
  endloop
endfacet
facet normal 2.505823869293904e-17 5.798834709591843e-17 -1.0
  outer loop
    vertex 13.516179387435027 15.386792179785193 1.4099832412739487e-15
    vertex 13.469890816921888 14.622902905294112 1.4099832412739487e-15
    vertex 13.44275113674497 15.007894545498537 1.4099832412739487e-15
  endloop
endfacet
facet normal 2.505823869293904e-17 5.798834709591843e-17 -1.0
  outer loop
    vertex 13.469890816921888 14.622902905294112 1.4099832412739487e-15
    vertex 13.516179387435027 15.386792179785193 1.4099832412739487e-15
    vertex 13.595748903612172 14.25805380322302 1.4099832412739487e-15
  endloop
endfacet
facet normal 2.505823869293904e-17 5.798834709591843e-17 -1.0
  outer loop
    vertex 13.595748903612172 14.25805380322302 1.4099832412739487e-15
    vertex 13.516179387435027 15.386792179785193 1.4099832412739487e-15
    vertex 13.685171555053444 15.73377456053533 1.4099832412739487e-15
  endloop
endfacet
facet normal 2.505823869293904e-17 5.798834709591843e-17 -1.0
  outer loop
    vertex 13.595748903612172 14.25805380322302 1.4099832412739487e-15
    vertex 13.685171555053444 15.73377456053533 1.4099832412739487e-15
    vertex 13.811748376198185 13.9382111026498 1.4099832412739487e-15
  endloop
endfacet
facet normal 2.505823869293904e-17 5.798834709591843e-17 -1.0
  outer loop
    vertex 13.811748376198185 13.9382111026498 1.4099832412739487e-15
    vertex 13.685171555053444 15.73377456053533 1.4099832412739487e-15
    vertex 13.938211102649802 16.025195411916354 1.4099832412739487e-15
  endloop
endfacet
facet normal 2.505823869293904e-17 5.798834709591843e-17 -1.0
  outer loop
    vertex 13.811748376198185 13.9382111026498 1.4099832412739487e-15
    vertex 13.938211102649802 16.025195411916354 1.4099832412739487e-15
    vertex 14.103169227579201 13.685171555053453 1.4099832412739487e-15
  endloop
endfacet
facet normal 2.505823869293904e-17 5.798834709591843e-17 -1.0
  outer loop
    vertex 14.103169227579201 13.685171555053453 1.4099832412739487e-15
    vertex 13.938211102649802 16.025195411916354 1.4099832412739487e-15
    vertex 14.186292430358224 16.19273225376837 7.122525658250169e-16
  endloop
endfacet
facet normal 2.505823869293904e-17 5.798834709591843e-17 -1.0
  outer loop
    vertex 14.103169227579201 13.685171555053453 1.4099832412739487e-15
    vertex 14.186292430358224 16.19273225376837 7.122525658250169e-16
    vertex 14.18565963217125 13.644995935041871 7.085292406978357e-16
  endloop
endfacet
facet normal 2.505823869293904e-17 5.798834709591843e-17 -1.0
  outer loop
    vertex 14.18565963217125 13.644995935041871 7.085292406978357e-16
    vertex 14.186292430358224 16.19273225376837 7.122525658250169e-16
    vertex 14.450151608329367 13.516179387435018 1.4099832412739487e-15
  endloop
endfacet
facet normal 2.505823869293904e-17 5.798834709591843e-17 -1.0
  outer loop
    vertex 14.450151608329367 13.516179387435018 1.4099832412739487e-15
    vertex 14.186292430358224 16.19273225376837 7.122525658250169e-16
    vertex 14.258053803223028 16.241194884502374 1.4099832412739487e-15
  endloop
endfacet
facet normal 2.505823869293904e-17 5.798834709591843e-17 -1.0
  outer loop
    vertex 14.450151608329367 13.516179387435018 1.4099832412739487e-15
    vertex 14.258053803223028 16.241194884502374 1.4099832412739487e-15
    vertex 14.622902905294112 16.367052971192656 1.4099832412739487e-15
  endloop
endfacet
facet normal 2.505823869293904e-17 5.798834709591843e-17 -1.0
  outer loop
    vertex 14.450151608329367 13.516179387435018 1.4099832412739487e-15
    vertex 14.622902905294112 16.367052971192656 1.4099832412739487e-15
    vertex 14.820147549186206 13.43141653963319 0.0
  endloop
endfacet
facet normal 2.505823869293904e-17 5.798834709591843e-17 -1.0
  outer loop
    vertex 14.820147549186206 13.43141653963319 0.0
    vertex 14.622902905294112 16.367052971192656 1.4099832412739487e-15
    vertex 15.007894545498537 16.394192651369572 1.4099832412739487e-15
  endloop
endfacet
facet normal 2.505823869293904e-17 5.798834709591843e-17 -1.0
  outer loop
    vertex 14.820147549186206 13.43141653963319 0.0
    vertex 15.007894545498537 16.394192651369572 1.4099832412739487e-15
    vertex 15.214040882820434 13.469890816921888 1.4099832412739487e-15
  endloop
endfacet
facet normal 2.505823869293904e-17 5.798834709591843e-17 -1.0
  outer loop
    vertex 15.214040882820434 13.469890816921888 1.4099832412739487e-15
    vertex 15.007894545498537 16.394192651369572 1.4099832412739487e-15
    vertex 15.386792179785187 16.32076440067952 1.4099832412739487e-15
  endloop
endfacet
facet normal 2.505823869293904e-17 5.798834709591843e-17 -1.0
  outer loop
    vertex 15.214040882820434 13.469890816921888 1.4099832412739487e-15
    vertex 15.386792179785187 16.32076440067952 1.4099832412739487e-15
    vertex 15.578889984891507 13.595748903612165 1.4099832412739487e-15
  endloop
endfacet
facet normal 2.505823869293904e-17 5.798834709591843e-17 -1.0
  outer loop
    vertex 15.578889984891507 13.595748903612165 1.4099832412739487e-15
    vertex 15.386792179785187 16.32076440067952 1.4099832412739487e-15
    vertex 15.73377456053534 16.15177223306109 1.4099832412739487e-15
  endloop
endfacet
facet normal 2.505823869293904e-17 5.798834709591843e-17 -1.0
  outer loop
    vertex 15.578889984891507 13.595748903612165 1.4099832412739487e-15
    vertex 15.73377456053534 16.15177223306109 1.4099832412739487e-15
    vertex 15.898732685464726 13.81174837619818 1.4099832412739487e-15
  endloop
endfacet
facet normal 2.505823869293904e-17 5.798834709591843e-17 -1.0
  outer loop
    vertex 15.898732685464726 13.81174837619818 1.4099832412739487e-15
    vertex 15.73377456053534 16.15177223306109 1.4099832412739487e-15
    vertex 15.820536828243592 16.076436906624114 1.0450234511353658e-15
  endloop
endfacet
facet normal 2.505823869293904e-17 5.798834709591843e-17 -1.0
  outer loop
    vertex 15.898732685464726 13.81174837619818 1.4099832412739487e-15
    vertex 15.820536828243592 16.076436906624114 1.0450234511353658e-15
    vertex 16.02519541191635 15.898732685464745 1.4099832412739487e-15
  endloop
endfacet
facet normal 2.505823869293904e-17 5.798834709591843e-17 -1.0
  outer loop
    vertex 15.898732685464726 13.81174837619818 1.4099832412739487e-15
    vertex 16.02519541191635 15.898732685464745 1.4099832412739487e-15
    vertex 16.151772233061102 14.103169227579224 1.4099832412739487e-15
  endloop
endfacet
facet normal 2.505823869293904e-17 5.798834709591843e-17 -1.0
  outer loop
    vertex 16.151772233061102 14.103169227579224 1.4099832412739487e-15
    vertex 16.02519541191635 15.898732685464745 1.4099832412739487e-15
    vertex 16.24119488450237 15.578889984891518 1.4099832412739487e-15
  endloop
endfacet
facet normal 2.505823869293904e-17 5.798834709591843e-17 -1.0
  outer loop
    vertex 16.151772233061102 14.103169227579224 1.4099832412739487e-15
    vertex 16.24119488450237 15.578889984891518 1.4099832412739487e-15
    vertex 16.32076440067952 14.45015160832935 1.4099832412739487e-15
  endloop
endfacet
facet normal 2.505823869293904e-17 5.798834709591843e-17 -1.0
  outer loop
    vertex 16.32076440067952 14.45015160832935 1.4099832412739487e-15
    vertex 16.24119488450237 15.578889984891518 1.4099832412739487e-15
    vertex 16.367052971192653 15.214040882820429 1.4099832412739487e-15
  endloop
endfacet
facet normal 2.505823869293904e-17 5.798834709591843e-17 -1.0
  outer loop
    vertex 16.32076440067952 14.45015160832935 1.4099832412739487e-15
    vertex 16.367052971192653 15.214040882820429 1.4099832412739487e-15
    vertex 16.394192651369572 14.829049242615998 1.4099832412739487e-15
  endloop
endfacet
endsolid chan stepper
