solid ong dung stepper X
facet normal 0.0 0.0 -1.0
  outer loop
    vertex -1.035276180410083 3.863703305156272 0.0
    vertex -1.5 0.0 0.0
    vertex -1.9999999999999996 3.464101615137753 0.0
  endloop
endfacet
facet normal 0.0 0.0 -1.0
  outer loop
    vertex -1.5 0.0 0.0
    vertex -1.035276180410083 3.863703305156272 0.0
    vertex -1.448888739433602 0.38822856765378205 0.0
  endloop
endfacet
facet normal 0.0 0.0 -1.0
  outer loop
    vertex -1.448888739433602 0.38822856765378205 0.0
    vertex -1.035276180410083 3.863703305156272 0.0
    vertex -1.2990381056766573 0.7500000000000008 0.0
  endloop
endfacet
facet normal 0.0 0.0 -1.0
  outer loop
    vertex -1.2990381056766573 0.7500000000000008 0.0
    vertex -1.035276180410083 3.863703305156272 0.0
    vertex -1.0606601717798212 1.0606601717798219 0.0
  endloop
endfacet
facet normal 0.0 0.0 -1.0
  outer loop
    vertex -1.0606601717798212 1.0606601717798219 0.0
    vertex -1.035276180410083 3.863703305156272 0.0
    vertex -0.7499999999999987 1.299038105676658 0.0
  endloop
endfacet
facet normal 0.0 0.0 -1.0
  outer loop
    vertex -0.7499999999999987 1.299038105676658 0.0
    vertex -1.035276180410083 3.863703305156272 0.0
    vertex 0.0 3.999999999999999 0.0
  endloop
endfacet
facet normal 0.0 0.0 -1.0
  outer loop
    vertex -0.7499999999999987 1.299038105676658 0.0
    vertex 0.0 3.999999999999999 0.0
    vertex -0.3882285676537806 1.4488887394336025 0.0
  endloop
endfacet
facet normal 0.0 0.0 -1.0
  outer loop
    vertex -0.3882285676537806 1.4488887394336025 0.0
    vertex 0.0 3.999999999999999 0.0
    vertex 0.0 1.5 0.0
  endloop
endfacet
facet normal 0.0 0.0 -1.0
  outer loop
    vertex 0.0 1.5 0.0
    vertex 0.0 3.999999999999999 0.0
    vertex 1.035276180410086 3.8637033051562706 0.0
  endloop
endfacet
facet normal 0.0 0.0 -1.0
  outer loop
    vertex 0.0 1.5 0.0
    vertex 1.035276180410086 3.8637033051562706 0.0
    vertex 0.38822856765378205 1.4488887394336016 0.0
  endloop
endfacet
facet normal 0.0 0.0 -1.0
  outer loop
    vertex 0.38822856765378205 1.4488887394336016 0.0
    vertex 1.035276180410086 3.8637033051562706 0.0
    vertex 0.7500000000000008 1.2990381056766573 0.0
  endloop
endfacet
facet normal 0.0 0.0 -1.0
  outer loop
    vertex 0.7500000000000008 1.2990381056766573 0.0
    vertex 1.035276180410086 3.8637033051562706 0.0
    vertex 1.0606601717798219 1.0606601717798203 0.0
  endloop
endfacet
facet normal 0.0 0.0 -1.0
  outer loop
    vertex 1.0606601717798219 1.0606601717798203 0.0
    vertex 1.035276180410086 3.8637033051562706 0.0
    vertex 2.0000000000000018 3.464101615137753 0.0
  endloop
endfacet
facet normal 0.0 0.0 -1.0
  outer loop
    vertex 1.0606601717798219 1.0606601717798203 0.0
    vertex 2.0000000000000018 3.464101615137753 0.0
    vertex 1.299038105676658 0.7499999999999993 0.0
  endloop
endfacet
facet normal 0.0 0.0 -1.0
  outer loop
    vertex 1.299038105676658 0.7499999999999993 0.0
    vertex 2.0000000000000018 3.464101615137753 0.0
    vertex 1.4488887394336025 0.3882285676537806 0.0
  endloop
endfacet
facet normal 0.0 0.0 -1.0
  outer loop
    vertex 1.4488887394336025 0.3882285676537806 0.0
    vertex 2.0000000000000018 3.464101615137753 0.0
    vertex 1.5 0.0 0.0
  endloop
endfacet
facet normal 0.0 0.0 -1.0
  outer loop
    vertex 1.5 0.0 0.0
    vertex 2.0000000000000018 3.464101615137753 0.0
    vertex 1.9999999999999991 -3.4641016151377544 0.0
  endloop
endfacet
facet normal 0.0 0.0 -1.0
  outer loop
    vertex 1.9999999999999991 -3.4641016151377544 0.0
    vertex 2.0000000000000018 3.464101615137753 0.0
    vertex 2.8284271247461885 -2.828427124746191 0.0
  endloop
endfacet
facet normal 0.0 0.0 -1.0
  outer loop
    vertex 2.8284271247461885 -2.828427124746191 0.0
    vertex 2.0000000000000018 3.464101615137753 0.0
    vertex 2.8284271247461903 2.828427124746188 0.0
  endloop
endfacet
facet normal 0.0 0.0 -1.0
  outer loop
    vertex 2.8284271247461885 -2.828427124746191 0.0
    vertex 2.8284271247461903 2.828427124746188 0.0
    vertex 3.4641016151377526 -2.0000000000000013 0.0
  endloop
endfacet
facet normal 0.0 0.0 -1.0
  outer loop
    vertex 3.4641016151377526 -2.0000000000000013 0.0
    vertex 2.8284271247461903 2.828427124746188 0.0
    vertex 3.4641016151377553 1.9999999999999971 0.0
  endloop
endfacet
facet normal 0.0 0.0 -1.0
  outer loop
    vertex 3.4641016151377526 -2.0000000000000013 0.0
    vertex 3.4641016151377553 1.9999999999999971 0.0
    vertex 3.863703305156273 -1.0352761804100858 0.0
  endloop
endfacet
facet normal 0.0 0.0 -1.0
  outer loop
    vertex 3.863703305156273 -1.0352761804100858 0.0
    vertex 3.4641016151377553 1.9999999999999971 0.0
    vertex 3.863703305156273 1.0352761804100805 0.0
  endloop
endfacet
facet normal 0.0 0.0 -1.0
  outer loop
    vertex 3.863703305156273 -1.0352761804100858 0.0
    vertex 3.863703305156273 1.0352761804100805 0.0
    vertex 3.9999999999999996 -7.049916206369744e-16 0.0
  endloop
endfacet
facet normal 0.0 0.0 -1.0
  outer loop
    vertex -3.863703305156273 1.0352761804100834 0.0
    vertex -3.863703305156273 -1.0352761804100823 0.0
    vertex -3.9999999999999996 0.0 0.0
  endloop
endfacet
facet normal 0.0 0.0 -1.0
  outer loop
    vertex -3.863703305156273 -1.0352761804100823 0.0
    vertex -3.863703305156273 1.0352761804100834 0.0
    vertex -3.464101615137754 1.9999999999999998 0.0
  endloop
endfacet
facet normal 0.0 0.0 -1.0
  outer loop
    vertex -3.863703305156273 -1.0352761804100823 0.0
    vertex -3.464101615137754 1.9999999999999998 0.0
    vertex -3.4641016151377544 -1.9999999999999984 0.0
  endloop
endfacet
facet normal 0.0 0.0 -1.0
  outer loop
    vertex -3.4641016151377544 -1.9999999999999984 0.0
    vertex -3.464101615137754 1.9999999999999998 0.0
    vertex -2.8284271247461903 -2.8284271247461894 0.0
  endloop
endfacet
facet normal 0.0 0.0 -1.0
  outer loop
    vertex -2.8284271247461903 -2.8284271247461894 0.0
    vertex -3.464101615137754 1.9999999999999998 0.0
    vertex -2.82842712474619 2.8284271247461894 0.0
  endloop
endfacet
facet normal 0.0 0.0 -1.0
  outer loop
    vertex -2.8284271247461903 -2.8284271247461894 0.0
    vertex -2.82842712474619 2.8284271247461894 0.0
    vertex -2.0000000000000013 -3.464101615137753 0.0
  endloop
endfacet
facet normal 0.0 0.0 -1.0
  outer loop
    vertex -2.0000000000000013 -3.464101615137753 0.0
    vertex -2.82842712474619 2.8284271247461894 0.0
    vertex -1.9999999999999996 3.464101615137753 0.0
  endloop
endfacet
facet normal 0.0 0.0 -1.0
  outer loop
    vertex -2.0000000000000013 -3.464101615137753 0.0
    vertex -1.9999999999999996 3.464101615137753 0.0
    vertex -1.035276180410084 -3.863703305156272 0.0
  endloop
endfacet
facet normal 0.0 0.0 -1.0
  outer loop
    vertex -1.035276180410084 -3.863703305156272 0.0
    vertex -1.9999999999999996 3.464101615137753 0.0
    vertex -1.5 0.0 0.0
  endloop
endfacet
facet normal 0.0 0.0 -1.0
  outer loop
    vertex -1.035276180410084 -3.863703305156272 0.0
    vertex -1.5 0.0 0.0
    vertex -1.4488887394336025 -0.38822856765378133 0.0
  endloop
endfacet
facet normal 0.0 0.0 -1.0
  outer loop
    vertex -1.035276180410084 -3.863703305156272 0.0
    vertex -1.4488887394336025 -0.38822856765378133 0.0
    vertex -1.299038105676658 -0.75 0.0
  endloop
endfacet
facet normal 0.0 0.0 -1.0
  outer loop
    vertex -1.035276180410084 -3.863703305156272 0.0
    vertex -1.299038105676658 -0.75 0.0
    vertex -1.0606601717798212 -1.0606601717798212 0.0
  endloop
endfacet
facet normal 0.0 0.0 -1.0
  outer loop
    vertex -1.035276180410084 -3.863703305156272 0.0
    vertex -1.0606601717798212 -1.0606601717798212 0.0
    vertex -0.75 -1.299038105676658 0.0
  endloop
endfacet
facet normal 0.0 0.0 -1.0
  outer loop
    vertex -1.035276180410084 -3.863703305156272 0.0
    vertex -0.75 -1.299038105676658 0.0
    vertex -7.049916206369744e-16 -3.999999999999999 0.0
  endloop
endfacet
facet normal 0.0 0.0 -1.0
  outer loop
    vertex -7.049916206369744e-16 -3.999999999999999 0.0
    vertex -0.75 -1.299038105676658 0.0
    vertex -0.38822856765378133 -1.4488887394336025 0.0
  endloop
endfacet
facet normal 0.0 0.0 -1.0
  outer loop
    vertex -7.049916206369744e-16 -3.999999999999999 0.0
    vertex -0.38822856765378133 -1.4488887394336025 0.0
    vertex 0.0 -1.5 0.0
  endloop
endfacet
facet normal 0.0 0.0 -1.0
  outer loop
    vertex -7.049916206369744e-16 -3.999999999999999 0.0
    vertex 0.0 -1.5 0.0
    vertex 1.0352761804100812 -3.863703305156273 0.0
  endloop
endfacet
facet normal 0.0 0.0 -1.0
  outer loop
    vertex 1.0352761804100812 -3.863703305156273 0.0
    vertex 0.0 -1.5 0.0
    vertex 0.3882285676537806 -1.4488887394336025 0.0
  endloop
endfacet
facet normal 0.0 0.0 -1.0
  outer loop
    vertex 1.0352761804100812 -3.863703305156273 0.0
    vertex 0.3882285676537806 -1.4488887394336025 0.0
    vertex 0.7499999999999993 -1.299038105676658 0.0
  endloop
endfacet
facet normal 0.0 0.0 -1.0
  outer loop
    vertex 1.0352761804100812 -3.863703305156273 0.0
    vertex 0.7499999999999993 -1.299038105676658 0.0
    vertex 1.0606601717798212 -1.0606601717798212 0.0
  endloop
endfacet
facet normal 0.0 0.0 -1.0
  outer loop
    vertex 1.0352761804100812 -3.863703305156273 0.0
    vertex 1.0606601717798212 -1.0606601717798212 0.0
    vertex 1.9999999999999991 -3.4641016151377544 0.0
  endloop
endfacet
facet normal 0.0 0.0 -1.0
  outer loop
    vertex 1.9999999999999991 -3.4641016151377544 0.0
    vertex 1.0606601717798212 -1.0606601717798212 0.0
    vertex 1.2990381056766573 -0.7500000000000008 0.0
  endloop
endfacet
facet normal 0.0 0.0 -1.0
  outer loop
    vertex 1.9999999999999991 -3.4641016151377544 0.0
    vertex 1.2990381056766573 -0.7500000000000008 0.0
    vertex 1.4488887394336025 -0.38822856765378133 0.0
  endloop
endfacet
facet normal 0.0 0.0 -1.0
  outer loop
    vertex 1.9999999999999991 -3.4641016151377544 0.0
    vertex 1.4488887394336025 -0.38822856765378133 0.0
    vertex 1.5 0.0 0.0
  endloop
endfacet
facet normal -0.3166357378865852 -0.9485472099442482 -0.0
  outer loop
    vertex -0.47529154949995805 -2.45440378564203 14.0
    vertex -1.094342826774841 -2.247757499706419 1.5
    vertex -0.47529154949995805 -2.45440378564203 1.5
  endloop
endfacet
facet normal -0.3166357378865852 -0.9485472099442482 -0.0
  outer loop
    vertex -1.094342826774841 -2.247757499706419 1.5
    vertex -0.47529154949995805 -2.45440378564203 14.0
    vertex -1.094342826774841 -2.247757499706419 14.0
  endloop
endfacet
facet normal -0.06034455363831902 -0.9981776068647265 -0.0
  outer loop
    vertex 0.17615006141692374 -2.493786509680173 14.0
    vertex -0.47529154949995805 -2.45440378564203 1.5
    vertex 0.17615006141692374 -2.493786509680173 1.5
  endloop
endfacet
facet normal -0.06034455363831902 -0.9981776068647265 -0.0
  outer loop
    vertex -0.47529154949995805 -2.45440378564203 1.5
    vertex 0.17615006141692374 -2.493786509680173 14.0
    vertex -0.47529154949995805 -2.45440378564203 14.0
  endloop
endfacet
facet normal 0.20005901221631045 -0.979783849443863 0.0
  outer loop
    vertex 0.8155873367499823 -2.363221804260674 14.0
    vertex 0.17615006141692374 -2.493786509680173 1.5
    vertex 0.8155873367499823 -2.363221804260674 1.5
  endloop
endfacet
facet normal 0.20005901221631045 -0.979783849443863 0.0
  outer loop
    vertex 0.17615006141692374 -2.493786509680173 1.5
    vertex 0.8155873367499823 -2.363221804260674 14.0
    vertex 0.17615006141692374 -2.493786509680173 14.0
  endloop
endfacet
facet normal 0.4468288870015468 -0.8946194418527685 0.0
  outer loop
    vertex 1.3994436829053312 -2.0716074382894956 14.0
    vertex 0.8155873367499823 -2.363221804260674 1.5
    vertex 1.3994436829053312 -2.0716074382894956 1.5
  endloop
endfacet
facet normal 0.4468288870015468 -0.8946194418527685 0.0
  outer loop
    vertex 0.8155873367499823 -2.363221804260674 1.5
    vertex 1.3994436829053312 -2.0716074382894956 14.0
    vertex 0.8155873367499823 -2.363221804260674 14.0
  endloop
endfacet
facet normal 0.6631481115572774 -0.7484881977279382 0.0
  outer loop
    vertex 1.8879302547607144 -1.6388164488920487 14.0
    vertex 1.3994436829053312 -2.0716074382894956 1.5
    vertex 1.8879302547607144 -1.6388164488920487 1.5
  endloop
endfacet
facet normal 0.6631481115572774 -0.7484881977279382 0.0
  outer loop
    vertex 1.3994436829053312 -2.0716074382894956 1.5
    vertex 1.8879302547607144 -1.6388164488920487 14.0
    vertex 1.3994436829053312 -2.0716074382894956 14.0
  endloop
endfacet
facet normal 0.8342748882144502 -0.5513487198631795 0.0
  outer loop
    vertex 2.2477574997064194 -1.0943428267748414 1.5
    vertex 1.8879302547607144 -1.6388164488920487 14.0
    vertex 1.8879302547607144 -1.6388164488920487 1.5
  endloop
endfacet
facet normal 0.8342748882144502 -0.5513487198631795 0.0
  outer loop
    vertex 1.8879302547607144 -1.6388164488920487 14.0
    vertex 2.2477574997064194 -1.0943428267748414 1.5
    vertex 2.2477574997064194 -1.0943428267748414 14.0
  endloop
endfacet
facet normal 0.9485472099442483 -0.3166357378865853 0.0
  outer loop
    vertex 2.45440378564203 -0.4752915494999588 1.5
    vertex 2.2477574997064194 -1.0943428267748414 14.0
    vertex 2.2477574997064194 -1.0943428267748414 1.5
  endloop
endfacet
facet normal 0.9485472099442483 -0.3166357378865853 0.0
  outer loop
    vertex 2.2477574997064194 -1.0943428267748414 14.0
    vertex 2.45440378564203 -0.4752915494999588 1.5
    vertex 2.45440378564203 -0.4752915494999588 14.0
  endloop
endfacet
facet normal 0.9981776068647265 -0.06034455363831901 0.0
  outer loop
    vertex 2.4937865096801723 0.17615006141692302 1.5
    vertex 2.45440378564203 -0.4752915494999588 14.0
    vertex 2.45440378564203 -0.4752915494999588 1.5
  endloop
endfacet
facet normal 0.9981776068647265 -0.06034455363831901 0.0
  outer loop
    vertex 2.45440378564203 -0.4752915494999588 14.0
    vertex 2.4937865096801723 0.17615006141692302 1.5
    vertex 2.4937865096801723 0.17615006141692302 14.0
  endloop
endfacet
facet normal 0.9797838494438629 0.20005901221631037 0.0
  outer loop
    vertex 2.3632218042606734 0.8155873367499823 1.5
    vertex 2.4937865096801723 0.17615006141692302 14.0
    vertex 2.4937865096801723 0.17615006141692302 1.5
  endloop
endfacet
facet normal 0.9797838494438629 0.20005901221631037 0.0
  outer loop
    vertex 2.4937865096801723 0.17615006141692302 14.0
    vertex 2.3632218042606734 0.8155873367499823 1.5
    vertex 2.3632218042606734 0.8155873367499823 14.0
  endloop
endfacet
facet normal 0.8946194418527689 0.4468288870015463 0.0
  outer loop
    vertex 2.0716074382894965 1.3994436829053305 1.5
    vertex 2.3632218042606734 0.8155873367499823 14.0
    vertex 2.3632218042606734 0.8155873367499823 1.5
  endloop
endfacet
facet normal 0.8946194418527689 0.4468288870015463 0.0
  outer loop
    vertex 2.3632218042606734 0.8155873367499823 14.0
    vertex 2.0716074382894965 1.3994436829053305 1.5
    vertex 2.0716074382894965 1.3994436829053305 14.0
  endloop
endfacet
facet normal 0.0 0.0 -1.0
  outer loop
    vertex -2.45440378564203 0.4752915494999595 14.0
    vertex -2.3632218042606734 -0.8155873367499816 14.0
    vertex -2.493786509680173 -0.1761500614169216 14.0
  endloop
endfacet
facet normal 0.0 0.0 -1.0
  outer loop
    vertex -2.3632218042606734 -0.8155873367499816 14.0
    vertex -2.45440378564203 0.4752915494999595 14.0
    vertex -2.2477574997064185 1.0943428267748416 14.0
  endloop
endfacet
facet normal 0.0 0.0 -1.0
  outer loop
    vertex -2.3632218042606734 -0.8155873367499816 14.0
    vertex -2.2477574997064185 1.0943428267748416 14.0
    vertex -2.0716074382894965 -1.3994436829053298 14.0
  endloop
endfacet
facet normal 0.0 0.0 -1.0
  outer loop
    vertex -2.0716074382894965 -1.3994436829053298 14.0
    vertex -2.2477574997064185 1.0943428267748416 14.0
    vertex -1.8879302547607137 1.6388164488920494 14.0
  endloop
endfacet
facet normal 0.0 0.0 -1.0
  outer loop
    vertex -2.0716074382894965 -1.3994436829053298 14.0
    vertex -1.8879302547607137 1.6388164488920494 14.0
    vertex -1.6388164488920498 -1.8879302547607137 14.0
  endloop
endfacet
facet normal 0.0 0.0 -1.0
  outer loop
    vertex -1.6388164488920498 -1.8879302547607137 14.0
    vertex -1.8879302547607137 1.6388164488920494 14.0
    vertex -1.3994436829053298 2.0716074382894965 14.0
  endloop
endfacet
facet normal 0.0 0.0 -1.0
  outer loop
    vertex -1.6388164488920498 -1.8879302547607137 14.0
    vertex -1.3994436829053298 2.0716074382894965 14.0
    vertex -1.5 0.0 14.0
  endloop
endfacet
facet normal 0.0 0.0 -1.0
  outer loop
    vertex -1.5 0.0 14.0
    vertex -1.3994436829053298 2.0716074382894965 14.0
    vertex -1.448888739433602 0.38822856765378205 14.0
  endloop
endfacet
facet normal 0.0 0.0 -1.0
  outer loop
    vertex -1.448888739433602 0.38822856765378205 14.0
    vertex -1.3994436829053298 2.0716074382894965 14.0
    vertex -1.2990381056766573 0.7500000000000008 14.0
  endloop
endfacet
facet normal 0.0 0.0 -1.0
  outer loop
    vertex -1.2990381056766573 0.7500000000000008 14.0
    vertex -1.3994436829053298 2.0716074382894965 14.0
    vertex -0.8155873367499816 2.363221804260674 14.0
  endloop
endfacet
facet normal 0.0 0.0 -1.0
  outer loop
    vertex -1.2990381056766573 0.7500000000000008 14.0
    vertex -0.8155873367499816 2.363221804260674 14.0
    vertex -1.0606601717798212 1.0606601717798219 14.0
  endloop
endfacet
facet normal 0.0 0.0 -1.0
  outer loop
    vertex -1.0606601717798212 1.0606601717798219 14.0
    vertex -0.8155873367499816 2.363221804260674 14.0
    vertex -0.7499999999999987 1.299038105676658 14.0
  endloop
endfacet
facet normal 0.0 0.0 -1.0
  outer loop
    vertex -0.7499999999999987 1.299038105676658 14.0
    vertex -0.8155873367499816 2.363221804260674 14.0
    vertex -0.17615006141692302 2.4937865096801715 14.0
  endloop
endfacet
facet normal 0.0 0.0 -1.0
  outer loop
    vertex -0.7499999999999987 1.299038105676658 14.0
    vertex -0.17615006141692302 2.4937865096801715 14.0
    vertex -0.3882285676537806 1.4488887394336025 14.0
  endloop
endfacet
facet normal 0.0 0.0 -1.0
  outer loop
    vertex -0.3882285676537806 1.4488887394336025 14.0
    vertex -0.17615006141692302 2.4937865096801715 14.0
    vertex 0.0 1.5 14.0
  endloop
endfacet
facet normal 0.0 0.0 -1.0
  outer loop
    vertex 0.0 1.5 14.0
    vertex -0.17615006141692302 2.4937865096801715 14.0
    vertex 0.4752915494999595 2.4544037856420298 14.0
  endloop
endfacet
facet normal 0.0 0.0 -1.0
  outer loop
    vertex 0.0 1.5 14.0
    vertex 0.4752915494999595 2.4544037856420298 14.0
    vertex 0.38822856765378205 1.4488887394336016 14.0
  endloop
endfacet
facet normal 0.0 0.0 -1.0
  outer loop
    vertex 0.38822856765378205 1.4488887394336016 14.0
    vertex 0.4752915494999595 2.4544037856420298 14.0
    vertex 0.7500000000000008 1.2990381056766573 14.0
  endloop
endfacet
facet normal 0.0 0.0 -1.0
  outer loop
    vertex 0.7500000000000008 1.2990381056766573 14.0
    vertex 0.4752915494999595 2.4544037856420298 14.0
    vertex 1.0943428267748416 2.2477574997064185 14.0
  endloop
endfacet
facet normal 0.0 0.0 -1.0
  outer loop
    vertex 0.7500000000000008 1.2990381056766573 14.0
    vertex 1.0943428267748416 2.2477574997064185 14.0
    vertex 1.0606601717798219 1.0606601717798203 14.0
  endloop
endfacet
facet normal 0.0 0.0 -1.0
  outer loop
    vertex 1.0606601717798219 1.0606601717798203 14.0
    vertex 1.0943428267748416 2.2477574997064185 14.0
    vertex 1.299038105676658 0.7499999999999993 14.0
  endloop
endfacet
facet normal 0.0 0.0 -1.0
  outer loop
    vertex 1.299038105676658 0.7499999999999993 14.0
    vertex 1.0943428267748416 2.2477574997064185 14.0
    vertex 1.6388164488920487 1.8879302547607153 14.0
  endloop
endfacet
facet normal 0.0 0.0 -1.0
  outer loop
    vertex 1.299038105676658 0.7499999999999993 14.0
    vertex 1.6388164488920487 1.8879302547607153 14.0
    vertex 1.4488887394336025 0.3882285676537806 14.0
  endloop
endfacet
facet normal 0.0 0.0 -1.0
  outer loop
    vertex 1.4488887394336025 0.3882285676537806 14.0
    vertex 1.6388164488920487 1.8879302547607153 14.0
    vertex 1.5 0.0 14.0
  endloop
endfacet
facet normal 0.0 0.0 -1.0
  outer loop
    vertex -1.6388164488920498 -1.8879302547607137 14.0
    vertex -1.4488887394336025 -0.38822856765378133 14.0
    vertex -1.094342826774841 -2.247757499706419 14.0
  endloop
endfacet
facet normal 0.0 0.0 -1.0
  outer loop
    vertex -1.4488887394336025 -0.38822856765378133 14.0
    vertex -1.6388164488920498 -1.8879302547607137 14.0
    vertex -1.5 0.0 14.0
  endloop
endfacet
facet normal 0.0 0.0 -1.0
  outer loop
    vertex -1.094342826774841 -2.247757499706419 14.0
    vertex -1.4488887394336025 -0.38822856765378133 14.0
    vertex -1.299038105676658 -0.75 14.0
  endloop
endfacet
facet normal 0.0 0.0 -1.0
  outer loop
    vertex -1.094342826774841 -2.247757499706419 14.0
    vertex -1.299038105676658 -0.75 14.0
    vertex -1.0606601717798212 -1.0606601717798212 14.0
  endloop
endfacet
facet normal 0.0 0.0 -1.0
  outer loop
    vertex -1.094342826774841 -2.247757499706419 14.0
    vertex -1.0606601717798212 -1.0606601717798212 14.0
    vertex -0.47529154949995805 -2.45440378564203 14.0
  endloop
endfacet
facet normal 0.0 0.0 -1.0
  outer loop
    vertex -0.47529154949995805 -2.45440378564203 14.0
    vertex -1.0606601717798212 -1.0606601717798212 14.0
    vertex -0.75 -1.299038105676658 14.0
  endloop
endfacet
facet normal 0.0 0.0 -1.0
  outer loop
    vertex -0.47529154949995805 -2.45440378564203 14.0
    vertex -0.75 -1.299038105676658 14.0
    vertex -0.38822856765378133 -1.4488887394336025 14.0
  endloop
endfacet
facet normal 0.0 0.0 -1.0
  outer loop
    vertex -0.47529154949995805 -2.45440378564203 14.0
    vertex -0.38822856765378133 -1.4488887394336025 14.0
    vertex 0.17615006141692374 -2.493786509680173 14.0
  endloop
endfacet
facet normal 0.0 0.0 -1.0
  outer loop
    vertex 0.17615006141692374 -2.493786509680173 14.0
    vertex -0.38822856765378133 -1.4488887394336025 14.0
    vertex 0.0 -1.5 14.0
  endloop
endfacet
facet normal 0.0 0.0 -1.0
  outer loop
    vertex 0.17615006141692374 -2.493786509680173 14.0
    vertex 0.0 -1.5 14.0
    vertex 0.3882285676537806 -1.4488887394336025 14.0
  endloop
endfacet
facet normal 0.0 0.0 -1.0
  outer loop
    vertex 0.17615006141692374 -2.493786509680173 14.0
    vertex 0.3882285676537806 -1.4488887394336025 14.0
    vertex 0.8155873367499823 -2.363221804260674 14.0
  endloop
endfacet
facet normal 0.0 0.0 -1.0
  outer loop
    vertex 0.8155873367499823 -2.363221804260674 14.0
    vertex 0.3882285676537806 -1.4488887394336025 14.0
    vertex 0.7499999999999993 -1.299038105676658 14.0
  endloop
endfacet
facet normal 0.0 0.0 -1.0
  outer loop
    vertex 0.8155873367499823 -2.363221804260674 14.0
    vertex 0.7499999999999993 -1.299038105676658 14.0
    vertex 1.0606601717798212 -1.0606601717798212 14.0
  endloop
endfacet
facet normal 0.0 0.0 -1.0
  outer loop
    vertex 0.8155873367499823 -2.363221804260674 14.0
    vertex 1.0606601717798212 -1.0606601717798212 14.0
    vertex 1.3994436829053312 -2.0716074382894956 14.0
  endloop
endfacet
facet normal 0.0 0.0 -1.0
  outer loop
    vertex 1.3994436829053312 -2.0716074382894956 14.0
    vertex 1.0606601717798212 -1.0606601717798212 14.0
    vertex 1.2990381056766573 -0.7500000000000008 14.0
  endloop
endfacet
facet normal 0.0 0.0 -1.0
  outer loop
    vertex 1.3994436829053312 -2.0716074382894956 14.0
    vertex 1.2990381056766573 -0.7500000000000008 14.0
    vertex 1.4488887394336025 -0.38822856765378133 14.0
  endloop
endfacet
facet normal 0.0 0.0 -1.0
  outer loop
    vertex 1.3994436829053312 -2.0716074382894956 14.0
    vertex 1.4488887394336025 -0.38822856765378133 14.0
    vertex 1.8879302547607144 -1.6388164488920487 14.0
  endloop
endfacet
facet normal 0.0 0.0 -1.0
  outer loop
    vertex 1.8879302547607144 -1.6388164488920487 14.0
    vertex 1.4488887394336025 -0.38822856765378133 14.0
    vertex 1.5 0.0 14.0
  endloop
endfacet
facet normal 0.0 0.0 -1.0
  outer loop
    vertex 1.8879302547607144 -1.6388164488920487 14.0
    vertex 1.5 0.0 14.0
    vertex 1.6388164488920487 1.8879302547607153 14.0
  endloop
endfacet
facet normal 0.0 0.0 -1.0
  outer loop
    vertex 1.8879302547607144 -1.6388164488920487 14.0
    vertex 1.6388164488920487 1.8879302547607153 14.0
    vertex 2.0716074382894965 1.3994436829053305 14.0
  endloop
endfacet
facet normal 0.0 0.0 -1.0
  outer loop
    vertex 1.8879302547607144 -1.6388164488920487 14.0
    vertex 2.0716074382894965 1.3994436829053305 14.0
    vertex 2.2477574997064194 -1.0943428267748414 14.0
  endloop
endfacet
facet normal 0.0 0.0 -1.0
  outer loop
    vertex 2.2477574997064194 -1.0943428267748414 14.0
    vertex 2.0716074382894965 1.3994436829053305 14.0
    vertex 2.3632218042606734 0.8155873367499823 14.0
  endloop
endfacet
facet normal 0.0 0.0 -1.0
  outer loop
    vertex 2.2477574997064194 -1.0943428267748414 14.0
    vertex 2.3632218042606734 0.8155873367499823 14.0
    vertex 2.45440378564203 -0.4752915494999588 14.0
  endloop
endfacet
facet normal 0.0 0.0 -1.0
  outer loop
    vertex 2.45440378564203 -0.4752915494999588 14.0
    vertex 2.3632218042606734 0.8155873367499823 14.0
    vertex 2.4937865096801723 0.17615006141692302 14.0
  endloop
endfacet
facet normal -0.7484881977279383 -0.6631481115572772 -0.0
  outer loop
    vertex -2.0716074382894965 -1.3994436829053298 14.0
    vertex -1.6388164488920498 -1.8879302547607137 1.5
    vertex -1.6388164488920498 -1.8879302547607137 14.0
  endloop
endfacet
facet normal -0.7484881977279383 -0.6631481115572772 -0.0
  outer loop
    vertex -1.6388164488920498 -1.8879302547607137 1.5
    vertex -2.0716074382894965 -1.3994436829053298 14.0
    vertex -2.0716074382894965 -1.3994436829053298 1.5
  endloop
endfacet
facet normal -0.5513487198631798 -0.8342748882144501 -0.0
  outer loop
    vertex -1.094342826774841 -2.247757499706419 14.0
    vertex -1.6388164488920498 -1.8879302547607137 1.5
    vertex -1.094342826774841 -2.247757499706419 1.5
  endloop
endfacet
facet normal -0.5513487198631798 -0.8342748882144501 -0.0
  outer loop
    vertex -1.6388164488920498 -1.8879302547607137 1.5
    vertex -1.094342826774841 -2.247757499706419 14.0
    vertex -1.6388164488920498 -1.8879302547607137 14.0
  endloop
endfacet
facet normal -0.9797838494438629 -0.2000590122163106 -0.0
  outer loop
    vertex -2.493786509680173 -0.1761500614169216 14.0
    vertex -2.3632218042606734 -0.8155873367499816 1.5
    vertex -2.3632218042606734 -0.8155873367499816 14.0
  endloop
endfacet
facet normal -0.9797838494438629 -0.2000590122163106 -0.0
  outer loop
    vertex -2.3632218042606734 -0.8155873367499816 1.5
    vertex -2.493786509680173 -0.1761500614169216 14.0
    vertex -2.493786509680173 -0.1761500614169216 1.5
  endloop
endfacet
facet normal -0.9981776068647263 0.06034455363831905 0.0
  outer loop
    vertex -2.45440378564203 0.4752915494999595 14.0
    vertex -2.493786509680173 -0.1761500614169216 1.5
    vertex -2.493786509680173 -0.1761500614169216 14.0
  endloop
endfacet
facet normal -0.9981776068647263 0.06034455363831905 0.0
  outer loop
    vertex -2.493786509680173 -0.1761500614169216 1.5
    vertex -2.45440378564203 0.4752915494999595 14.0
    vertex -2.45440378564203 0.4752915494999595 1.5
  endloop
endfacet
facet normal -0.13052619222005174 0.9914448613738104 0.0
  outer loop
    vertex -1.035276180410083 3.863703305156272 1.5
    vertex 0.0 3.999999999999999 0.0
    vertex -1.035276180410083 3.863703305156272 0.0
  endloop
endfacet
facet normal -0.13052619222005174 0.9914448613738104 0.0
  outer loop
    vertex 0.0 3.999999999999999 0.0
    vertex -1.035276180410083 3.863703305156272 1.5
    vertex 0.0 3.999999999999999 1.5
  endloop
endfacet
facet normal -0.38268343236508956 0.9238795325112868 0.0
  outer loop
    vertex -1.9999999999999996 3.464101615137753 1.5
    vertex -1.035276180410083 3.863703305156272 0.0
    vertex -1.9999999999999996 3.464101615137753 0.0
  endloop
endfacet
facet normal -0.38268343236508956 0.9238795325112868 0.0
  outer loop
    vertex -1.035276180410083 3.863703305156272 0.0
    vertex -1.9999999999999996 3.464101615137753 1.5
    vertex -1.035276180410083 3.863703305156272 1.5
  endloop
endfacet
facet normal -0.6087614290087203 0.7933533402912354 0.0
  outer loop
    vertex -2.82842712474619 2.8284271247461894 1.5
    vertex -1.9999999999999996 3.464101615137753 0.0
    vertex -2.82842712474619 2.8284271247461894 0.0
  endloop
endfacet
facet normal -0.6087614290087203 0.7933533402912354 0.0
  outer loop
    vertex -1.9999999999999996 3.464101615137753 0.0
    vertex -2.82842712474619 2.8284271247461894 1.5
    vertex -1.9999999999999996 3.464101615137753 1.5
  endloop
endfacet
facet normal -0.894619441852769 -0.4468288870015459 -0.0
  outer loop
    vertex -2.3632218042606734 -0.8155873367499816 14.0
    vertex -2.0716074382894965 -1.3994436829053298 1.5
    vertex -2.0716074382894965 -1.3994436829053298 14.0
  endloop
endfacet
facet normal -0.894619441852769 -0.4468288870015459 -0.0
  outer loop
    vertex -2.0716074382894965 -1.3994436829053298 1.5
    vertex -2.3632218042606734 -0.8155873367499816 14.0
    vertex -2.3632218042606734 -0.8155873367499816 1.5
  endloop
endfacet
facet normal -0.9485472099442481 0.3166357378865861 0.0
  outer loop
    vertex -2.2477574997064185 1.0943428267748416 14.0
    vertex -2.45440378564203 0.4752915494999595 1.5
    vertex -2.45440378564203 0.4752915494999595 14.0
  endloop
endfacet
facet normal -0.9485472099442481 0.3166357378865861 0.0
  outer loop
    vertex -2.45440378564203 0.4752915494999595 1.5
    vertex -2.2477574997064185 1.0943428267748416 14.0
    vertex -2.2477574997064185 1.0943428267748416 1.5
  endloop
endfacet
facet normal -0.8342748882144501 0.5513487198631797 0.0
  outer loop
    vertex -1.8879302547607137 1.6388164488920494 14.0
    vertex -2.2477574997064185 1.0943428267748416 1.5
    vertex -2.2477574997064185 1.0943428267748416 14.0
  endloop
endfacet
facet normal -0.8342748882144501 0.5513487198631797 0.0
  outer loop
    vertex -2.2477574997064185 1.0943428267748416 1.5
    vertex -1.8879302547607137 1.6388164488920494 14.0
    vertex -1.8879302547607137 1.6388164488920494 1.5
  endloop
endfacet
facet normal -0.6631481115572772 0.7484881977279383 0.0
  outer loop
    vertex -1.8879302547607137 1.6388164488920494 14.0
    vertex -1.3994436829053298 2.0716074382894965 1.5
    vertex -1.8879302547607137 1.6388164488920494 1.5
  endloop
endfacet
facet normal -0.6631481115572772 0.7484881977279383 0.0
  outer loop
    vertex -1.3994436829053298 2.0716074382894965 1.5
    vertex -1.8879302547607137 1.6388164488920494 14.0
    vertex -1.3994436829053298 2.0716074382894965 14.0
  endloop
endfacet
facet normal -0.4468288870015464 0.8946194418527688 0.0
  outer loop
    vertex -1.3994436829053298 2.0716074382894965 14.0
    vertex -0.8155873367499816 2.363221804260674 1.5
    vertex -1.3994436829053298 2.0716074382894965 1.5
  endloop
endfacet
facet normal -0.4468288870015464 0.8946194418527688 0.0
  outer loop
    vertex -0.8155873367499816 2.363221804260674 1.5
    vertex -1.3994436829053298 2.0716074382894965 14.0
    vertex -0.8155873367499816 2.363221804260674 14.0
  endloop
endfacet
facet normal -0.2000590122163096 0.9797838494438632 0.0
  outer loop
    vertex -0.8155873367499816 2.363221804260674 14.0
    vertex -0.17615006141692302 2.4937865096801715 1.5
    vertex -0.8155873367499816 2.363221804260674 1.5
  endloop
endfacet
facet normal -0.2000590122163096 0.9797838494438632 0.0
  outer loop
    vertex -0.17615006141692302 2.4937865096801715 1.5
    vertex -0.8155873367499816 2.363221804260674 14.0
    vertex -0.17615006141692302 2.4937865096801715 14.0
  endloop
endfacet
facet normal 0.060344553638318414 0.9981776068647265 0.0
  outer loop
    vertex -0.17615006141692302 2.4937865096801715 14.0
    vertex 0.4752915494999595 2.4544037856420298 1.5
    vertex -0.17615006141692302 2.4937865096801715 1.5
  endloop
endfacet
facet normal 0.060344553638318414 0.9981776068647265 0.0
  outer loop
    vertex 0.4752915494999595 2.4544037856420298 1.5
    vertex -0.17615006141692302 2.4937865096801715 14.0
    vertex 0.4752915494999595 2.4544037856420298 14.0
  endloop
endfacet
facet normal 0.31663573788658556 0.9485472099442481 0.0
  outer loop
    vertex 0.4752915494999595 2.4544037856420298 14.0
    vertex 1.0943428267748416 2.2477574997064185 1.5
    vertex 0.4752915494999595 2.4544037856420298 1.5
  endloop
endfacet
facet normal 0.31663573788658556 0.9485472099442481 0.0
  outer loop
    vertex 1.0943428267748416 2.2477574997064185 1.5
    vertex 0.4752915494999595 2.4544037856420298 14.0
    vertex 1.0943428267748416 2.2477574997064185 14.0
  endloop
endfacet
facet normal 0.5513487198631797 0.8342748882144502 0.0
  outer loop
    vertex 1.0943428267748416 2.2477574997064185 14.0
    vertex 1.6388164488920487 1.8879302547607153 1.5
    vertex 1.0943428267748416 2.2477574997064185 1.5
  endloop
endfacet
facet normal 0.5513487198631797 0.8342748882144502 0.0
  outer loop
    vertex 1.6388164488920487 1.8879302547607153 1.5
    vertex 1.0943428267748416 2.2477574997064185 14.0
    vertex 1.6388164488920487 1.8879302547607153 14.0
  endloop
endfacet
facet normal 0.7484881977279378 0.6631481115572775 0.0
  outer loop
    vertex 1.6388164488920487 1.8879302547607153 1.5
    vertex 2.0716074382894965 1.3994436829053305 14.0
    vertex 2.0716074382894965 1.3994436829053305 1.5
  endloop
endfacet
facet normal 0.7484881977279378 0.6631481115572775 0.0
  outer loop
    vertex 2.0716074382894965 1.3994436829053305 14.0
    vertex 1.6388164488920487 1.8879302547607153 1.5
    vertex 1.6388164488920487 1.8879302547607153 14.0
  endloop
endfacet
facet normal 0.9238795325112866 -0.38268343236508984 0.0
  outer loop
    vertex 1.4488887394336025 -0.38822856765378133 0.0
    vertex 1.2990381056766573 -0.7500000000000008 14.0
    vertex 1.2990381056766573 -0.7500000000000008 0.0
  endloop
endfacet
facet normal 0.9238795325112866 -0.38268343236508984 0.0
  outer loop
    vertex 1.2990381056766573 -0.7500000000000008 14.0
    vertex 1.4488887394336025 -0.38822856765378133 0.0
    vertex 1.4488887394336025 -0.38822856765378133 14.0
  endloop
endfacet
facet normal 0.9914448613738105 -0.13052619222005168 0.0
  outer loop
    vertex 1.5 0.0 0.0
    vertex 1.4488887394336025 -0.38822856765378133 14.0
    vertex 1.4488887394336025 -0.38822856765378133 0.0
  endloop
endfacet
facet normal 0.9914448613738105 -0.13052619222005168 0.0
  outer loop
    vertex 1.4488887394336025 -0.38822856765378133 14.0
    vertex 1.5 0.0 0.0
    vertex 1.5 0.0 14.0
  endloop
endfacet
facet normal 0.9914448613738105 0.13052619222005102 0.0
  outer loop
    vertex 1.4488887394336025 0.3882285676537806 0.0
    vertex 1.5 0.0 14.0
    vertex 1.5 0.0 0.0
  endloop
endfacet
facet normal 0.9914448613738105 0.13052619222005102 0.0
  outer loop
    vertex 1.5 0.0 14.0
    vertex 1.4488887394336025 0.3882285676537806 0.0
    vertex 1.4488887394336025 0.3882285676537806 14.0
  endloop
endfacet
facet normal 0.9238795325112867 0.3826834323650899 0.0
  outer loop
    vertex 1.299038105676658 0.7499999999999993 0.0
    vertex 1.4488887394336025 0.3882285676537806 14.0
    vertex 1.4488887394336025 0.3882285676537806 0.0
  endloop
endfacet
facet normal 0.9238795325112867 0.3826834323650899 0.0
  outer loop
    vertex 1.4488887394336025 0.3882285676537806 14.0
    vertex 1.299038105676658 0.7499999999999993 0.0
    vertex 1.299038105676658 0.7499999999999993 14.0
  endloop
endfacet
facet normal 0.7933533402912355 0.6087614290087202 0.0
  outer loop
    vertex 1.0606601717798219 1.0606601717798203 0.0
    vertex 1.299038105676658 0.7499999999999993 14.0
    vertex 1.299038105676658 0.7499999999999993 0.0
  endloop
endfacet
facet normal 0.7933533402912355 0.6087614290087202 0.0
  outer loop
    vertex 1.299038105676658 0.7499999999999993 14.0
    vertex 1.0606601717798219 1.0606601717798203 0.0
    vertex 1.0606601717798219 1.0606601717798203 14.0
  endloop
endfacet
facet normal 0.6087614290087212 0.7933533402912347 0.0
  outer loop
    vertex 0.7500000000000008 1.2990381056766573 14.0
    vertex 1.0606601717798219 1.0606601717798203 0.0
    vertex 0.7500000000000008 1.2990381056766573 0.0
  endloop
endfacet
facet normal 0.6087614290087212 0.7933533402912347 0.0
  outer loop
    vertex 1.0606601717798219 1.0606601717798203 0.0
    vertex 0.7500000000000008 1.2990381056766573 14.0
    vertex 1.0606601717798219 1.0606601717798203 14.0
  endloop
endfacet
facet normal 0.38268343236509045 0.9238795325112866 0.0
  outer loop
    vertex 0.38822856765378205 1.4488887394336016 14.0
    vertex 0.7500000000000008 1.2990381056766573 0.0
    vertex 0.38822856765378205 1.4488887394336016 0.0
  endloop
endfacet
facet normal 0.38268343236509045 0.9238795325112866 0.0
  outer loop
    vertex 0.7500000000000008 1.2990381056766573 0.0
    vertex 0.38822856765378205 1.4488887394336016 14.0
    vertex 0.7500000000000008 1.2990381056766573 14.0
  endloop
endfacet
facet normal 0.1305261922200519 0.9914448613738104 0.0
  outer loop
    vertex 0.0 1.5 14.0
    vertex 0.38822856765378205 1.4488887394336016 0.0
    vertex 0.0 1.5 0.0
  endloop
endfacet
facet normal 0.1305261922200519 0.9914448613738104 0.0
  outer loop
    vertex 0.38822856765378205 1.4488887394336016 0.0
    vertex 0.0 1.5 14.0
    vertex 0.38822856765378205 1.4488887394336016 14.0
  endloop
endfacet
facet normal -0.13052619222005102 0.9914448613738105 0.0
  outer loop
    vertex -0.3882285676537806 1.4488887394336025 14.0
    vertex 0.0 1.5 0.0
    vertex -0.3882285676537806 1.4488887394336025 0.0
  endloop
endfacet
facet normal -0.13052619222005102 0.9914448613738105 0.0
  outer loop
    vertex 0.0 1.5 0.0
    vertex -0.3882285676537806 1.4488887394336025 14.0
    vertex 0.0 1.5 14.0
  endloop
endfacet
facet normal -0.3826834323650895 0.9238795325112868 0.0
  outer loop
    vertex -0.7499999999999987 1.299038105676658 14.0
    vertex -0.3882285676537806 1.4488887394336025 0.0
    vertex -0.7499999999999987 1.299038105676658 0.0
  endloop
endfacet
facet normal -0.3826834323650895 0.9238795325112868 0.0
  outer loop
    vertex -0.3882285676537806 1.4488887394336025 0.0
    vertex -0.7499999999999987 1.299038105676658 14.0
    vertex -0.3882285676537806 1.4488887394336025 14.0
  endloop
endfacet
facet normal -0.6087614290087202 0.7933533402912355 0.0
  outer loop
    vertex -1.0606601717798212 1.0606601717798219 14.0
    vertex -0.7499999999999987 1.299038105676658 0.0
    vertex -1.0606601717798212 1.0606601717798219 0.0
  endloop
endfacet
facet normal -0.6087614290087202 0.7933533402912355 0.0
  outer loop
    vertex -0.7499999999999987 1.299038105676658 0.0
    vertex -1.0606601717798212 1.0606601717798219 14.0
    vertex -0.7499999999999987 1.299038105676658 14.0
  endloop
endfacet
facet normal -0.7933533402912348 0.6087614290087211 0.0
  outer loop
    vertex -1.0606601717798212 1.0606601717798219 14.0
    vertex -1.2990381056766573 0.7500000000000008 0.0
    vertex -1.2990381056766573 0.7500000000000008 14.0
  endloop
endfacet
facet normal -0.7933533402912348 0.6087614290087211 0.0
  outer loop
    vertex -1.2990381056766573 0.7500000000000008 0.0
    vertex -1.0606601717798212 1.0606601717798219 14.0
    vertex -1.0606601717798212 1.0606601717798219 0.0
  endloop
endfacet
facet normal -0.9238795325112866 0.38268343236509056 0.0
  outer loop
    vertex -1.2990381056766573 0.7500000000000008 14.0
    vertex -1.448888739433602 0.38822856765378205 0.0
    vertex -1.448888739433602 0.38822856765378205 14.0
  endloop
endfacet
facet normal -0.9238795325112866 0.38268343236509056 0.0
  outer loop
    vertex -1.448888739433602 0.38822856765378205 0.0
    vertex -1.2990381056766573 0.7500000000000008 14.0
    vertex -1.2990381056766573 0.7500000000000008 0.0
  endloop
endfacet
facet normal -0.9914448613738105 0.1305261922200518 0.0
  outer loop
    vertex -1.448888739433602 0.38822856765378205 14.0
    vertex -1.5 0.0 0.0
    vertex -1.5 0.0 14.0
  endloop
endfacet
facet normal -0.9914448613738105 0.1305261922200518 0.0
  outer loop
    vertex -1.5 0.0 0.0
    vertex -1.448888739433602 0.38822856765378205 14.0
    vertex -1.448888739433602 0.38822856765378205 0.0
  endloop
endfacet
facet normal -0.9914448613738106 -0.13052619222005135 -0.0
  outer loop
    vertex -1.5 0.0 14.0
    vertex -1.4488887394336025 -0.38822856765378133 0.0
    vertex -1.4488887394336025 -0.38822856765378133 14.0
  endloop
endfacet
facet normal -0.9914448613738106 -0.13052619222005135 -0.0
  outer loop
    vertex -1.4488887394336025 -0.38822856765378133 0.0
    vertex -1.5 0.0 14.0
    vertex -1.5 0.0 0.0
  endloop
endfacet
facet normal -0.9238795325112868 -0.38268343236508967 -0.0
  outer loop
    vertex -1.4488887394336025 -0.38822856765378133 14.0
    vertex -1.299038105676658 -0.75 0.0
    vertex -1.299038105676658 -0.75 14.0
  endloop
endfacet
facet normal -0.9238795325112868 -0.38268343236508967 -0.0
  outer loop
    vertex -1.299038105676658 -0.75 0.0
    vertex -1.4488887394336025 -0.38822856765378133 14.0
    vertex -1.4488887394336025 -0.38822856765378133 0.0
  endloop
endfacet
facet normal -0.793353340291235 -0.6087614290087209 -0.0
  outer loop
    vertex -1.299038105676658 -0.75 14.0
    vertex -1.0606601717798212 -1.0606601717798212 0.0
    vertex -1.0606601717798212 -1.0606601717798212 14.0
  endloop
endfacet
facet normal -0.793353340291235 -0.6087614290087209 -0.0
  outer loop
    vertex -1.0606601717798212 -1.0606601717798212 0.0
    vertex -1.299038105676658 -0.75 14.0
    vertex -1.299038105676658 -0.75 0.0
  endloop
endfacet
facet normal -0.608761429008721 -0.793353340291235 -0.0
  outer loop
    vertex -0.75 -1.299038105676658 14.0
    vertex -1.0606601717798212 -1.0606601717798212 0.0
    vertex -0.75 -1.299038105676658 0.0
  endloop
endfacet
facet normal -0.608761429008721 -0.793353340291235 -0.0
  outer loop
    vertex -1.0606601717798212 -1.0606601717798212 0.0
    vertex -0.75 -1.299038105676658 14.0
    vertex -1.0606601717798212 -1.0606601717798212 14.0
  endloop
endfacet
facet normal -0.3826834323650898 -0.9238795325112867 -0.0
  outer loop
    vertex -0.38822856765378133 -1.4488887394336025 14.0
    vertex -0.75 -1.299038105676658 0.0
    vertex -0.38822856765378133 -1.4488887394336025 0.0
  endloop
endfacet
facet normal -0.3826834323650898 -0.9238795325112867 -0.0
  outer loop
    vertex -0.75 -1.299038105676658 0.0
    vertex -0.38822856765378133 -1.4488887394336025 14.0
    vertex -0.75 -1.299038105676658 14.0
  endloop
endfacet
facet normal -0.13052619222005168 -0.9914448613738105 -0.0
  outer loop
    vertex 0.0 -1.5 14.0
    vertex -0.38822856765378133 -1.4488887394336025 0.0
    vertex 0.0 -1.5 0.0
  endloop
endfacet
facet normal -0.13052619222005168 -0.9914448613738105 -0.0
  outer loop
    vertex -0.38822856765378133 -1.4488887394336025 0.0
    vertex 0.0 -1.5 14.0
    vertex -0.38822856765378133 -1.4488887394336025 14.0
  endloop
endfacet
facet normal 0.13052619222005135 -0.9914448613738105 0.0
  outer loop
    vertex 0.3882285676537806 -1.4488887394336025 14.0
    vertex 0.0 -1.5 0.0
    vertex 0.3882285676537806 -1.4488887394336025 0.0
  endloop
endfacet
facet normal 0.13052619222005135 -0.9914448613738105 0.0
  outer loop
    vertex 0.0 -1.5 0.0
    vertex 0.3882285676537806 -1.4488887394336025 14.0
    vertex 0.0 -1.5 14.0
  endloop
endfacet
facet normal 0.38268343236508984 -0.9238795325112868 0.0
  outer loop
    vertex 0.7499999999999993 -1.299038105676658 14.0
    vertex 0.3882285676537806 -1.4488887394336025 0.0
    vertex 0.7499999999999993 -1.299038105676658 0.0
  endloop
endfacet
facet normal 0.38268343236508984 -0.9238795325112868 0.0
  outer loop
    vertex 0.3882285676537806 -1.4488887394336025 0.0
    vertex 0.7499999999999993 -1.299038105676658 14.0
    vertex 0.3882285676537806 -1.4488887394336025 14.0
  endloop
endfacet
facet normal 0.6087614290087204 -0.7933533402912353 0.0
  outer loop
    vertex 1.0606601717798212 -1.0606601717798212 14.0
    vertex 0.7499999999999993 -1.299038105676658 0.0
    vertex 1.0606601717798212 -1.0606601717798212 0.0
  endloop
endfacet
facet normal 0.6087614290087204 -0.7933533402912353 0.0
  outer loop
    vertex 0.7499999999999993 -1.299038105676658 0.0
    vertex 1.0606601717798212 -1.0606601717798212 14.0
    vertex 0.7499999999999993 -1.299038105676658 14.0
  endloop
endfacet
facet normal 0.7933533402912348 -0.6087614290087211 0.0
  outer loop
    vertex 1.2990381056766573 -0.7500000000000008 0.0
    vertex 1.0606601717798212 -1.0606601717798212 14.0
    vertex 1.0606601717798212 -1.0606601717798212 0.0
  endloop
endfacet
facet normal 0.7933533402912348 -0.6087614290087211 0.0
  outer loop
    vertex 1.0606601717798212 -1.0606601717798212 14.0
    vertex 1.2990381056766573 -0.7500000000000008 0.0
    vertex 1.2990381056766573 -0.7500000000000008 14.0
  endloop
endfacet
facet normal -0.7933533402912353 0.6087614290087205 0.0
  outer loop
    vertex -2.82842712474619 2.8284271247461894 1.5
    vertex -3.464101615137754 1.9999999999999998 0.0
    vertex -3.464101615137754 1.9999999999999998 1.5
  endloop
endfacet
facet normal -0.7933533402912353 0.6087614290087205 0.0
  outer loop
    vertex -3.464101615137754 1.9999999999999998 0.0
    vertex -2.82842712474619 2.8284271247461894 1.5
    vertex -2.82842712474619 2.8284271247461894 0.0
  endloop
endfacet
facet normal -0.9238795325112867 0.38268343236509034 0.0
  outer loop
    vertex -3.464101615137754 1.9999999999999998 1.5
    vertex -3.863703305156273 1.0352761804100834 0.0
    vertex -3.863703305156273 1.0352761804100834 1.5
  endloop
endfacet
facet normal -0.9238795325112867 0.38268343236509034 0.0
  outer loop
    vertex -3.863703305156273 1.0352761804100834 0.0
    vertex -3.464101615137754 1.9999999999999998 1.5
    vertex -3.464101615137754 1.9999999999999998 0.0
  endloop
endfacet
facet normal -0.9914448613738104 0.13052619222005168 0.0
  outer loop
    vertex -3.863703305156273 1.0352761804100834 1.5
    vertex -3.9999999999999996 0.0 0.0
    vertex -3.9999999999999996 0.0 1.5
  endloop
endfacet
facet normal -0.9914448613738104 0.13052619222005168 0.0
  outer loop
    vertex -3.9999999999999996 0.0 0.0
    vertex -3.863703305156273 1.0352761804100834 1.5
    vertex -3.863703305156273 1.0352761804100834 0.0
  endloop
endfacet
facet normal -0.9914448613738104 -0.1305261922200518 -0.0
  outer loop
    vertex -3.9999999999999996 0.0 1.5
    vertex -3.863703305156273 -1.0352761804100823 0.0
    vertex -3.863703305156273 -1.0352761804100823 1.5
  endloop
endfacet
facet normal -0.9914448613738104 -0.1305261922200518 -0.0
  outer loop
    vertex -3.863703305156273 -1.0352761804100823 0.0
    vertex -3.9999999999999996 0.0 1.5
    vertex -3.9999999999999996 0.0 0.0
  endloop
endfacet
facet normal -0.9238795325112867 -0.3826834323650896 -0.0
  outer loop
    vertex -3.863703305156273 -1.0352761804100823 1.5
    vertex -3.4641016151377544 -1.9999999999999984 0.0
    vertex -3.4641016151377544 -1.9999999999999984 1.5
  endloop
endfacet
facet normal -0.9238795325112867 -0.3826834323650896 -0.0
  outer loop
    vertex -3.4641016151377544 -1.9999999999999984 0.0
    vertex -3.863703305156273 -1.0352761804100823 1.5
    vertex -3.863703305156273 -1.0352761804100823 0.0
  endloop
endfacet
facet normal -0.7933533402912355 -0.6087614290087202 -0.0
  outer loop
    vertex -3.4641016151377544 -1.9999999999999984 1.5
    vertex -2.8284271247461903 -2.8284271247461894 0.0
    vertex -2.8284271247461903 -2.8284271247461894 1.5
  endloop
endfacet
facet normal -0.7933533402912355 -0.6087614290087202 -0.0
  outer loop
    vertex -2.8284271247461903 -2.8284271247461894 0.0
    vertex -3.4641016151377544 -1.9999999999999984 1.5
    vertex -3.4641016151377544 -1.9999999999999984 0.0
  endloop
endfacet
facet normal -0.6087614290087208 -0.793353340291235 -0.0
  outer loop
    vertex -2.0000000000000013 -3.464101615137753 1.5
    vertex -2.8284271247461903 -2.8284271247461894 0.0
    vertex -2.0000000000000013 -3.464101615137753 0.0
  endloop
endfacet
facet normal -0.6087614290087208 -0.793353340291235 -0.0
  outer loop
    vertex -2.8284271247461903 -2.8284271247461894 0.0
    vertex -2.0000000000000013 -3.464101615137753 1.5
    vertex -2.8284271247461903 -2.8284271247461894 1.5
  endloop
endfacet
facet normal -0.3826834323650899 -0.9238795325112867 -0.0
  outer loop
    vertex -1.035276180410084 -3.863703305156272 1.5
    vertex -2.0000000000000013 -3.464101615137753 0.0
    vertex -1.035276180410084 -3.863703305156272 0.0
  endloop
endfacet
facet normal -0.3826834323650899 -0.9238795325112867 -0.0
  outer loop
    vertex -2.0000000000000013 -3.464101615137753 0.0
    vertex -1.035276180410084 -3.863703305156272 1.5
    vertex -2.0000000000000013 -3.464101615137753 1.5
  endloop
endfacet
facet normal -0.13052619222005168 -0.9914448613738104 -0.0
  outer loop
    vertex -7.049916206369744e-16 -3.999999999999999 1.5
    vertex -1.035276180410084 -3.863703305156272 0.0
    vertex -7.049916206369744e-16 -3.999999999999999 0.0
  endloop
endfacet
facet normal -0.13052619222005168 -0.9914448613738104 -0.0
  outer loop
    vertex -1.035276180410084 -3.863703305156272 0.0
    vertex -7.049916206369744e-16 -3.999999999999999 1.5
    vertex -1.035276180410084 -3.863703305156272 1.5
  endloop
endfacet
facet normal 0.13052619222005124 -0.9914448613738106 0.0
  outer loop
    vertex 1.0352761804100812 -3.863703305156273 1.5
    vertex -7.049916206369744e-16 -3.999999999999999 0.0
    vertex 1.0352761804100812 -3.863703305156273 0.0
  endloop
endfacet
facet normal 0.13052619222005124 -0.9914448613738106 0.0
  outer loop
    vertex -7.049916206369744e-16 -3.999999999999999 0.0
    vertex 1.0352761804100812 -3.863703305156273 1.5
    vertex -7.049916206369744e-16 -3.999999999999999 1.5
  endloop
endfacet
facet normal 0.38268343236508934 -0.9238795325112871 0.0
  outer loop
    vertex 1.9999999999999991 -3.4641016151377544 1.5
    vertex 1.0352761804100812 -3.863703305156273 0.0
    vertex 1.9999999999999991 -3.4641016151377544 0.0
  endloop
endfacet
facet normal 0.38268343236508934 -0.9238795325112871 0.0
  outer loop
    vertex 1.0352761804100812 -3.863703305156273 0.0
    vertex 1.9999999999999991 -3.4641016151377544 1.5
    vertex 1.0352761804100812 -3.863703305156273 1.5
  endloop
endfacet
facet normal 0.6087614290087203 -0.7933533402912355 0.0
  outer loop
    vertex 2.8284271247461885 -2.828427124746191 1.5
    vertex 1.9999999999999991 -3.4641016151377544 0.0
    vertex 2.8284271247461885 -2.828427124746191 0.0
  endloop
endfacet
facet normal 0.6087614290087203 -0.7933533402912355 0.0
  outer loop
    vertex 1.9999999999999991 -3.4641016151377544 0.0
    vertex 2.8284271247461885 -2.828427124746191 1.5
    vertex 1.9999999999999991 -3.4641016151377544 1.5
  endloop
endfacet
facet normal 0.7933533402912349 -0.6087614290087209 0.0
  outer loop
    vertex 3.4641016151377526 -2.0000000000000013 0.0
    vertex 2.8284271247461885 -2.828427124746191 1.5
    vertex 2.8284271247461885 -2.828427124746191 0.0
  endloop
endfacet
facet normal 0.7933533402912349 -0.6087614290087209 0.0
  outer loop
    vertex 2.8284271247461885 -2.828427124746191 1.5
    vertex 3.4641016151377526 -2.0000000000000013 0.0
    vertex 3.4641016151377526 -2.0000000000000013 1.5
  endloop
endfacet
facet normal 0.9238795325112865 -0.3826834323650905 0.0
  outer loop
    vertex 3.863703305156273 -1.0352761804100858 0.0
    vertex 3.4641016151377526 -2.0000000000000013 1.5
    vertex 3.4641016151377526 -2.0000000000000013 0.0
  endloop
endfacet
facet normal 0.9238795325112865 -0.3826834323650905 0.0
  outer loop
    vertex 3.4641016151377526 -2.0000000000000013 1.5
    vertex 3.863703305156273 -1.0352761804100858 0.0
    vertex 3.863703305156273 -1.0352761804100858 1.5
  endloop
endfacet
facet normal 0.9914448613738104 -0.13052619222005216 0.0
  outer loop
    vertex 3.9999999999999996 -7.049916206369744e-16 0.0
    vertex 3.863703305156273 -1.0352761804100858 1.5
    vertex 3.863703305156273 -1.0352761804100858 0.0
  endloop
endfacet
facet normal 0.9914448613738104 -0.13052619222005216 0.0
  outer loop
    vertex 3.863703305156273 -1.0352761804100858 1.5
    vertex 3.9999999999999996 -7.049916206369744e-16 0.0
    vertex 3.9999999999999996 -7.049916206369744e-16 1.5
  endloop
endfacet
facet normal 0.9914448613738106 0.13052619222005127 0.0
  outer loop
    vertex 3.863703305156273 1.0352761804100805 0.0
    vertex 3.9999999999999996 -7.049916206369744e-16 1.5
    vertex 3.9999999999999996 -7.049916206369744e-16 0.0
  endloop
endfacet
facet normal 0.9914448613738106 0.13052619222005127 0.0
  outer loop
    vertex 3.9999999999999996 -7.049916206369744e-16 1.5
    vertex 3.863703305156273 1.0352761804100805 0.0
    vertex 3.863703305156273 1.0352761804100805 1.5
  endloop
endfacet
facet normal 0.923879532511287 0.3826834323650892 0.0
  outer loop
    vertex 3.4641016151377553 1.9999999999999971 0.0
    vertex 3.863703305156273 1.0352761804100805 1.5
    vertex 3.863703305156273 1.0352761804100805 0.0
  endloop
endfacet
facet normal 0.923879532511287 0.3826834323650892 0.0
  outer loop
    vertex 3.863703305156273 1.0352761804100805 1.5
    vertex 3.4641016151377553 1.9999999999999971 0.0
    vertex 3.4641016151377553 1.9999999999999971 1.5
  endloop
endfacet
facet normal 0.7933533402912355 0.6087614290087204 0.0
  outer loop
    vertex 2.8284271247461903 2.828427124746188 0.0
    vertex 3.4641016151377553 1.9999999999999971 1.5
    vertex 3.4641016151377553 1.9999999999999971 0.0
  endloop
endfacet
facet normal 0.7933533402912355 0.6087614290087204 0.0
  outer loop
    vertex 3.4641016151377553 1.9999999999999971 1.5
    vertex 2.8284271247461903 2.828427124746188 0.0
    vertex 2.8284271247461903 2.828427124746188 1.5
  endloop
endfacet
facet normal 0.6087614290087208 0.793353340291235 0.0
  outer loop
    vertex 2.0000000000000018 3.464101615137753 1.5
    vertex 2.8284271247461903 2.828427124746188 0.0
    vertex 2.0000000000000018 3.464101615137753 0.0
  endloop
endfacet
facet normal 0.6087614290087208 0.793353340291235 0.0
  outer loop
    vertex 2.8284271247461903 2.828427124746188 0.0
    vertex 2.0000000000000018 3.464101615137753 1.5
    vertex 2.8284271247461903 2.828427124746188 1.5
  endloop
endfacet
facet normal 0.3826834323650905 0.9238795325112865 0.0
  outer loop
    vertex 1.035276180410086 3.8637033051562706 1.5
    vertex 2.0000000000000018 3.464101615137753 0.0
    vertex 1.035276180410086 3.8637033051562706 0.0
  endloop
endfacet
facet normal 0.3826834323650905 0.9238795325112865 0.0
  outer loop
    vertex 2.0000000000000018 3.464101615137753 0.0
    vertex 1.035276180410086 3.8637033051562706 1.5
    vertex 2.0000000000000018 3.464101615137753 1.5
  endloop
endfacet
facet normal 0.13052619222005202 0.9914448613738104 0.0
  outer loop
    vertex 0.0 3.999999999999999 1.5
    vertex 1.035276180410086 3.8637033051562706 0.0
    vertex 0.0 3.999999999999999 0.0
  endloop
endfacet
facet normal 0.13052619222005202 0.9914448613738104 0.0
  outer loop
    vertex 1.035276180410086 3.8637033051562706 0.0
    vertex 0.0 3.999999999999999 1.5
    vertex 1.035276180410086 3.8637033051562706 1.5
  endloop
endfacet
facet normal 0.0 0.0 1.0
  outer loop
    vertex -3.863703305156273 -1.0352761804100823 1.5
    vertex -3.863703305156273 1.0352761804100834 1.5
    vertex -3.9999999999999996 0.0 1.5
  endloop
endfacet
facet normal 0.0 0.0 1.0
  outer loop
    vertex -3.863703305156273 1.0352761804100834 1.5
    vertex -3.863703305156273 -1.0352761804100823 1.5
    vertex -3.4641016151377544 -1.9999999999999984 1.5
  endloop
endfacet
facet normal 0.0 0.0 1.0
  outer loop
    vertex -3.863703305156273 1.0352761804100834 1.5
    vertex -3.4641016151377544 -1.9999999999999984 1.5
    vertex -3.464101615137754 1.9999999999999998 1.5
  endloop
endfacet
facet normal 0.0 0.0 1.0
  outer loop
    vertex -3.464101615137754 1.9999999999999998 1.5
    vertex -3.4641016151377544 -1.9999999999999984 1.5
    vertex -2.8284271247461903 -2.8284271247461894 1.5
  endloop
endfacet
facet normal 0.0 0.0 1.0
  outer loop
    vertex -3.464101615137754 1.9999999999999998 1.5
    vertex -2.8284271247461903 -2.8284271247461894 1.5
    vertex -2.82842712474619 2.8284271247461894 1.5
  endloop
endfacet
facet normal 0.0 0.0 1.0
  outer loop
    vertex -2.82842712474619 2.8284271247461894 1.5
    vertex -2.8284271247461903 -2.8284271247461894 1.5
    vertex -2.493786509680173 -0.1761500614169216 1.5
  endloop
endfacet
facet normal 0.0 0.0 1.0
  outer loop
    vertex -2.493786509680173 -0.1761500614169216 1.5
    vertex -2.8284271247461903 -2.8284271247461894 1.5
    vertex -2.0000000000000013 -3.464101615137753 1.5
  endloop
endfacet
facet normal 0.0 0.0 1.0
  outer loop
    vertex -2.493786509680173 -0.1761500614169216 1.5
    vertex -2.0000000000000013 -3.464101615137753 1.5
    vertex -2.3632218042606734 -0.8155873367499816 1.5
  endloop
endfacet
facet normal 0.0 0.0 1.0
  outer loop
    vertex -2.3632218042606734 -0.8155873367499816 1.5
    vertex -2.0000000000000013 -3.464101615137753 1.5
    vertex -2.0716074382894965 -1.3994436829053298 1.5
  endloop
endfacet
facet normal 0.0 0.0 1.0
  outer loop
    vertex -2.0716074382894965 -1.3994436829053298 1.5
    vertex -2.0000000000000013 -3.464101615137753 1.5
    vertex -1.6388164488920498 -1.8879302547607137 1.5
  endloop
endfacet
facet normal 0.0 0.0 1.0
  outer loop
    vertex -1.6388164488920498 -1.8879302547607137 1.5
    vertex -2.0000000000000013 -3.464101615137753 1.5
    vertex -1.035276180410084 -3.863703305156272 1.5
  endloop
endfacet
facet normal 0.0 0.0 1.0
  outer loop
    vertex -1.6388164488920498 -1.8879302547607137 1.5
    vertex -1.035276180410084 -3.863703305156272 1.5
    vertex -1.094342826774841 -2.247757499706419 1.5
  endloop
endfacet
facet normal 0.0 0.0 1.0
  outer loop
    vertex -1.094342826774841 -2.247757499706419 1.5
    vertex -1.035276180410084 -3.863703305156272 1.5
    vertex -0.47529154949995805 -2.45440378564203 1.5
  endloop
endfacet
facet normal 0.0 0.0 1.0
  outer loop
    vertex -0.47529154949995805 -2.45440378564203 1.5
    vertex -1.035276180410084 -3.863703305156272 1.5
    vertex -7.049916206369744e-16 -3.999999999999999 1.5
  endloop
endfacet
facet normal 0.0 0.0 1.0
  outer loop
    vertex -0.47529154949995805 -2.45440378564203 1.5
    vertex -7.049916206369744e-16 -3.999999999999999 1.5
    vertex 0.17615006141692374 -2.493786509680173 1.5
  endloop
endfacet
facet normal 0.0 0.0 1.0
  outer loop
    vertex 0.17615006141692374 -2.493786509680173 1.5
    vertex -7.049916206369744e-16 -3.999999999999999 1.5
    vertex 1.0352761804100812 -3.863703305156273 1.5
  endloop
endfacet
facet normal 0.0 0.0 1.0
  outer loop
    vertex 0.17615006141692374 -2.493786509680173 1.5
    vertex 1.0352761804100812 -3.863703305156273 1.5
    vertex 0.8155873367499823 -2.363221804260674 1.5
  endloop
endfacet
facet normal 0.0 0.0 1.0
  outer loop
    vertex 0.8155873367499823 -2.363221804260674 1.5
    vertex 1.0352761804100812 -3.863703305156273 1.5
    vertex 1.3994436829053312 -2.0716074382894956 1.5
  endloop
endfacet
facet normal 0.0 0.0 1.0
  outer loop
    vertex 1.3994436829053312 -2.0716074382894956 1.5
    vertex 1.0352761804100812 -3.863703305156273 1.5
    vertex 1.9999999999999991 -3.4641016151377544 1.5
  endloop
endfacet
facet normal 0.0 0.0 1.0
  outer loop
    vertex 1.3994436829053312 -2.0716074382894956 1.5
    vertex 1.9999999999999991 -3.4641016151377544 1.5
    vertex 1.8879302547607144 -1.6388164488920487 1.5
  endloop
endfacet
facet normal 0.0 0.0 1.0
  outer loop
    vertex 1.8879302547607144 -1.6388164488920487 1.5
    vertex 1.9999999999999991 -3.4641016151377544 1.5
    vertex 2.2477574997064194 -1.0943428267748414 1.5
  endloop
endfacet
facet normal 0.0 0.0 1.0
  outer loop
    vertex 2.2477574997064194 -1.0943428267748414 1.5
    vertex 1.9999999999999991 -3.4641016151377544 1.5
    vertex 2.8284271247461885 -2.828427124746191 1.5
  endloop
endfacet
facet normal 0.0 0.0 1.0
  outer loop
    vertex 2.2477574997064194 -1.0943428267748414 1.5
    vertex 2.8284271247461885 -2.828427124746191 1.5
    vertex 2.45440378564203 -0.4752915494999588 1.5
  endloop
endfacet
facet normal 0.0 0.0 1.0
  outer loop
    vertex 2.45440378564203 -0.4752915494999588 1.5
    vertex 2.8284271247461885 -2.828427124746191 1.5
    vertex 2.4937865096801723 0.17615006141692302 1.5
  endloop
endfacet
facet normal 0.0 0.0 1.0
  outer loop
    vertex -2.82842712474619 2.8284271247461894 1.5
    vertex -2.45440378564203 0.4752915494999595 1.5
    vertex -1.9999999999999996 3.464101615137753 1.5
  endloop
endfacet
facet normal 0.0 0.0 1.0
  outer loop
    vertex -2.45440378564203 0.4752915494999595 1.5
    vertex -2.82842712474619 2.8284271247461894 1.5
    vertex -2.493786509680173 -0.1761500614169216 1.5
  endloop
endfacet
facet normal 0.0 0.0 1.0
  outer loop
    vertex -1.9999999999999996 3.464101615137753 1.5
    vertex -2.45440378564203 0.4752915494999595 1.5
    vertex -2.2477574997064185 1.0943428267748416 1.5
  endloop
endfacet
facet normal 0.0 0.0 1.0
  outer loop
    vertex -1.9999999999999996 3.464101615137753 1.5
    vertex -2.2477574997064185 1.0943428267748416 1.5
    vertex -1.8879302547607137 1.6388164488920494 1.5
  endloop
endfacet
facet normal 0.0 0.0 1.0
  outer loop
    vertex -1.9999999999999996 3.464101615137753 1.5
    vertex -1.8879302547607137 1.6388164488920494 1.5
    vertex -1.035276180410083 3.863703305156272 1.5
  endloop
endfacet
facet normal 0.0 0.0 1.0
  outer loop
    vertex -1.035276180410083 3.863703305156272 1.5
    vertex -1.8879302547607137 1.6388164488920494 1.5
    vertex -1.3994436829053298 2.0716074382894965 1.5
  endloop
endfacet
facet normal 0.0 0.0 1.0
  outer loop
    vertex -1.035276180410083 3.863703305156272 1.5
    vertex -1.3994436829053298 2.0716074382894965 1.5
    vertex -0.8155873367499816 2.363221804260674 1.5
  endloop
endfacet
facet normal 0.0 0.0 1.0
  outer loop
    vertex -1.035276180410083 3.863703305156272 1.5
    vertex -0.8155873367499816 2.363221804260674 1.5
    vertex 0.0 3.999999999999999 1.5
  endloop
endfacet
facet normal 0.0 0.0 1.0
  outer loop
    vertex 0.0 3.999999999999999 1.5
    vertex -0.8155873367499816 2.363221804260674 1.5
    vertex -0.17615006141692302 2.4937865096801715 1.5
  endloop
endfacet
facet normal 0.0 0.0 1.0
  outer loop
    vertex 0.0 3.999999999999999 1.5
    vertex -0.17615006141692302 2.4937865096801715 1.5
    vertex 0.4752915494999595 2.4544037856420298 1.5
  endloop
endfacet
facet normal 0.0 0.0 1.0
  outer loop
    vertex 0.0 3.999999999999999 1.5
    vertex 0.4752915494999595 2.4544037856420298 1.5
    vertex 1.035276180410086 3.8637033051562706 1.5
  endloop
endfacet
facet normal 0.0 0.0 1.0
  outer loop
    vertex 1.035276180410086 3.8637033051562706 1.5
    vertex 0.4752915494999595 2.4544037856420298 1.5
    vertex 1.0943428267748416 2.2477574997064185 1.5
  endloop
endfacet
facet normal 0.0 0.0 1.0
  outer loop
    vertex 1.035276180410086 3.8637033051562706 1.5
    vertex 1.0943428267748416 2.2477574997064185 1.5
    vertex 2.0000000000000018 3.464101615137753 1.5
  endloop
endfacet
facet normal 0.0 0.0 1.0
  outer loop
    vertex 2.0000000000000018 3.464101615137753 1.5
    vertex 1.0943428267748416 2.2477574997064185 1.5
    vertex 1.6388164488920487 1.8879302547607153 1.5
  endloop
endfacet
facet normal 0.0 0.0 1.0
  outer loop
    vertex 2.0000000000000018 3.464101615137753 1.5
    vertex 1.6388164488920487 1.8879302547607153 1.5
    vertex 2.0716074382894965 1.3994436829053305 1.5
  endloop
endfacet
facet normal 0.0 0.0 1.0
  outer loop
    vertex 2.0000000000000018 3.464101615137753 1.5
    vertex 2.0716074382894965 1.3994436829053305 1.5
    vertex 2.8284271247461903 2.828427124746188 1.5
  endloop
endfacet
facet normal 0.0 0.0 1.0
  outer loop
    vertex 2.8284271247461903 2.828427124746188 1.5
    vertex 2.0716074382894965 1.3994436829053305 1.5
    vertex 2.3632218042606734 0.8155873367499823 1.5
  endloop
endfacet
facet normal 0.0 0.0 1.0
  outer loop
    vertex 2.8284271247461903 2.828427124746188 1.5
    vertex 2.3632218042606734 0.8155873367499823 1.5
    vertex 2.4937865096801723 0.17615006141692302 1.5
  endloop
endfacet
facet normal 0.0 0.0 1.0
  outer loop
    vertex 2.8284271247461903 2.828427124746188 1.5
    vertex 2.4937865096801723 0.17615006141692302 1.5
    vertex 2.8284271247461885 -2.828427124746191 1.5
  endloop
endfacet
facet normal 0.0 0.0 1.0
  outer loop
    vertex 2.8284271247461903 2.828427124746188 1.5
    vertex 2.8284271247461885 -2.828427124746191 1.5
    vertex 3.4641016151377526 -2.0000000000000013 1.5
  endloop
endfacet
facet normal 0.0 0.0 1.0
  outer loop
    vertex 2.8284271247461903 2.828427124746188 1.5
    vertex 3.4641016151377526 -2.0000000000000013 1.5
    vertex 3.4641016151377553 1.9999999999999971 1.5
  endloop
endfacet
facet normal 0.0 0.0 1.0
  outer loop
    vertex 3.4641016151377553 1.9999999999999971 1.5
    vertex 3.4641016151377526 -2.0000000000000013 1.5
    vertex 3.863703305156273 -1.0352761804100858 1.5
  endloop
endfacet
facet normal 0.0 0.0 1.0
  outer loop
    vertex 3.4641016151377553 1.9999999999999971 1.5
    vertex 3.863703305156273 -1.0352761804100858 1.5
    vertex 3.863703305156273 1.0352761804100805 1.5
  endloop
endfacet
facet normal 0.0 0.0 1.0
  outer loop
    vertex 3.863703305156273 1.0352761804100805 1.5
    vertex 3.863703305156273 -1.0352761804100858 1.5
    vertex 3.9999999999999996 -7.049916206369744e-16 1.5
  endloop
endfacet
endsolid ong dung stepper X
