solid ĐẾ LÒ XO - TRỤC NHỰA - 2
facet normal -0.13052619222005168 -0.9914448613738105 -0.0
  outer loop
    vertex 0.0 -5.0 10.0
    vertex -1.2940952255126055 -4.8296291314453415 0.0
    vertex 0.0 -5.0 0.0
  endloop
endfacet
facet normal -0.13052619222005168 -0.9914448613738105 -0.0
  outer loop
    vertex -1.2940952255126055 -4.8296291314453415 0.0
    vertex 0.0 -5.0 10.0
    vertex -1.2940952255126055 -4.8296291314453415 10.0
  endloop
endfacet
facet normal -0.38268343236509006 -0.9238795325112866 -0.0
  outer loop
    vertex -1.2940952255126055 -4.8296291314453415 10.0
    vertex -2.5000000000000018 -4.330127018922193 0.0
    vertex -1.2940952255126055 -4.8296291314453415 0.0
  endloop
endfacet
facet normal -0.38268343236509006 -0.9238795325112866 -0.0
  outer loop
    vertex -2.5000000000000018 -4.330127018922193 0.0
    vertex -1.2940952255126055 -4.8296291314453415 10.0
    vertex -2.5000000000000018 -4.330127018922193 10.0
  endloop
endfacet
facet normal -0.6087614290087209 -0.793353340291235 -0.0
  outer loop
    vertex -2.5000000000000018 -4.330127018922193 10.0
    vertex -3.535533905932738 -3.5355339059327373 0.0
    vertex -2.5000000000000018 -4.330127018922193 0.0
  endloop
endfacet
facet normal -0.6087614290087209 -0.793353340291235 -0.0
  outer loop
    vertex -3.535533905932738 -3.5355339059327373 0.0
    vertex -2.5000000000000018 -4.330127018922193 10.0
    vertex -3.535533905932738 -3.5355339059327373 10.0
  endloop
endfacet
facet normal -0.7933533402912353 -0.6087614290087204 -0.0
  outer loop
    vertex -4.330127018922194 -2.499999999999999 10.0
    vertex -3.535533905932738 -3.5355339059327373 0.0
    vertex -3.535533905932738 -3.5355339059327373 10.0
  endloop
endfacet
facet normal -0.7933533402912353 -0.6087614290087204 -0.0
  outer loop
    vertex -3.535533905932738 -3.5355339059327373 0.0
    vertex -4.330127018922194 -2.499999999999999 10.0
    vertex -4.330127018922194 -2.499999999999999 0.0
  endloop
endfacet
facet normal 0.0 0.0 -1.0
  outer loop
    vertex -5.176194546068191 7.199376521853648 0.0
    vertex -4.8296291314453415 1.2940952255126055 0.0
    vertex -5.0 0.0 0.0
  endloop
endfacet
facet normal 0.0 0.0 -1.0
  outer loop
    vertex -4.8296291314453415 1.2940952255126055 0.0
    vertex -5.176194546068191 7.199376521853648 0.0
    vertex -3.1364842372242183 8.29376144531585 0.0
  endloop
endfacet
facet normal 0.0 0.0 -1.0
  outer loop
    vertex -4.8296291314453415 1.2940952255126055 0.0
    vertex -3.1364842372242183 8.29376144531585 0.0
    vertex -4.330127018922193 2.500000000000001 0.0
  endloop
endfacet
facet normal 0.0 0.0 -1.0
  outer loop
    vertex -4.330127018922193 2.500000000000001 0.0
    vertex -3.1364842372242183 8.29376144531585 0.0
    vertex -3.5355339059327373 3.535533905932738 0.0
  endloop
endfacet
facet normal 0.0 0.0 -1.0
  outer loop
    vertex -3.5355339059327373 3.535533905932738 0.0
    vertex -3.1364842372242183 8.29376144531585 0.0
    vertex -2.4999999999999996 4.3301270189221945 0.0
  endloop
endfacet
facet normal 0.0 0.0 -1.0
  outer loop
    vertex -2.4999999999999996 4.3301270189221945 0.0
    vertex -3.1364842372242183 8.29376144531585 0.0
    vertex -0.8830277108986917 8.822940232368607 0.0
  endloop
endfacet
facet normal 0.0 0.0 -1.0
  outer loop
    vertex -2.4999999999999996 4.3301270189221945 0.0
    vertex -0.8830277108986917 8.822940232368607 0.0
    vertex -1.294095225512604 4.829629131445342 0.0
  endloop
endfacet
facet normal 0.0 0.0 -1.0
  outer loop
    vertex -1.294095225512604 4.829629131445342 0.0
    vertex -0.8830277108986917 8.822940232368607 0.0
    vertex 0.0 5.000000000000001 0.0
  endloop
endfacet
facet normal 0.0 0.0 -1.0
  outer loop
    vertex 0.0 5.000000000000001 0.0
    vertex -0.8830277108986917 8.822940232368607 0.0
    vertex 1.4306056946522925 8.750850223183575 0.0
  endloop
endfacet
facet normal 0.0 0.0 -1.0
  outer loop
    vertex 0.0 5.000000000000001 0.0
    vertex 1.4306056946522925 8.750850223183575 0.0
    vertex 1.2940952255126081 4.829629131445339 0.0
  endloop
endfacet
facet normal 0.0 0.0 -1.0
  outer loop
    vertex 1.2940952255126081 4.829629131445339 0.0
    vertex 1.4306056946522925 8.750850223183575 0.0
    vertex 2.5000000000000027 4.330127018922192 0.0
  endloop
endfacet
facet normal 0.0 0.0 -1.0
  outer loop
    vertex 2.5000000000000027 4.330127018922192 0.0
    vertex 1.4306056946522925 8.750850223183575 0.0
    vertex 3.6467456863004237 8.082404232752337 0.0
  endloop
endfacet
facet normal 0.0 0.0 -1.0
  outer loop
    vertex 2.5000000000000027 4.330127018922192 0.0
    vertex 3.6467456863004237 8.082404232752337 0.0
    vertex 3.535533905932738 3.5355339059327364 0.0
  endloop
endfacet
facet normal 0.0 0.0 -1.0
  outer loop
    vertex 3.535533905932738 3.5355339059327364 0.0
    vertex 3.6467456863004237 8.082404232752337 0.0
    vertex 4.330127018922195 2.499999999999997 0.0
  endloop
endfacet
facet normal 0.0 0.0 -1.0
  outer loop
    vertex 4.330127018922195 2.499999999999997 0.0
    vertex 3.6467456863004237 8.082404232752337 0.0
    vertex 5.61436598595936 6.863155750663552 0.0
  endloop
endfacet
facet normal 0.0 0.0 -1.0
  outer loop
    vertex 4.330127018922195 2.499999999999997 0.0
    vertex 5.61436598595936 6.863155750663552 0.0
    vertex 4.829629131445341 1.2940952255126013 0.0
  endloop
endfacet
facet normal 0.0 0.0 -1.0
  outer loop
    vertex 4.829629131445341 1.2940952255126013 0.0
    vertex 5.61436598595936 6.863155750663552 0.0
    vertex 4.999999999999999 -1.4099832412739487e-15 0.0
  endloop
endfacet
facet normal 0.0 0.0 -1.0
  outer loop
    vertex 4.999999999999999 -1.4099832412739487e-15 0.0
    vertex 5.61436598595936 6.863155750663552 0.0
    vertex 5.176194546068191 -7.199376521853651 0.0
  endloop
endfacet
facet normal 0.0 0.0 -1.0
  outer loop
    vertex 5.176194546068191 -7.199376521853651 0.0
    vertex 5.61436598595936 6.863155750663552 0.0
    vertex 6.863155750663553 -5.6143659859593615 0.0
  endloop
endfacet
facet normal 0.0 0.0 -1.0
  outer loop
    vertex 6.863155750663553 -5.6143659859593615 0.0
    vertex 5.61436598595936 6.863155750663552 0.0
    vertex 7.199376521853649 5.176194546068192 0.0
  endloop
endfacet
facet normal 0.0 0.0 -1.0
  outer loop
    vertex 6.863155750663553 -5.6143659859593615 0.0
    vertex 7.199376521853649 5.176194546068192 0.0
    vertex 8.082404232752339 -3.6467456863004233 0.0
  endloop
endfacet
facet normal 0.0 0.0 -1.0
  outer loop
    vertex 8.082404232752339 -3.6467456863004233 0.0
    vertex 7.199376521853649 5.176194546068192 0.0
    vertex 8.293761445315852 3.1364842372242143 0.0
  endloop
endfacet
facet normal 0.0 0.0 -1.0
  outer loop
    vertex 8.082404232752339 -3.6467456863004233 0.0
    vertex 8.293761445315852 3.1364842372242143 0.0
    vertex 8.750850223183576 -1.4306056946522938 0.0
  endloop
endfacet
facet normal 0.0 0.0 -1.0
  outer loop
    vertex 8.750850223183576 -1.4306056946522938 0.0
    vertex 8.293761445315852 3.1364842372242143 0.0
    vertex 8.822940232368609 0.8830277108986875 0.0
  endloop
endfacet
facet normal 0.0 0.0 -1.0
  outer loop
    vertex -8.750850223183576 1.4306056946522938 0.0
    vertex -8.29376144531585 -3.1364842372242174 0.0
    vertex -8.822940232368609 -0.8830277108986903 0.0
  endloop
endfacet
facet normal 0.0 0.0 -1.0
  outer loop
    vertex -8.29376144531585 -3.1364842372242174 0.0
    vertex -8.750850223183576 1.4306056946522938 0.0
    vertex -8.08240423275234 3.6467456863004184 0.0
  endloop
endfacet
facet normal 0.0 0.0 -1.0
  outer loop
    vertex -8.29376144531585 -3.1364842372242174 0.0
    vertex -8.08240423275234 3.6467456863004184 0.0
    vertex -7.199376521853648 -5.176194546068191 0.0
  endloop
endfacet
facet normal 0.0 0.0 -1.0
  outer loop
    vertex -7.199376521853648 -5.176194546068191 0.0
    vertex -8.08240423275234 3.6467456863004184 0.0
    vertex -6.863155750663556 5.614365985959358 0.0
  endloop
endfacet
facet normal 0.0 0.0 -1.0
  outer loop
    vertex -7.199376521853648 -5.176194546068191 0.0
    vertex -6.863155750663556 5.614365985959358 0.0
    vertex -5.61436598595936 -6.863155750663556 0.0
  endloop
endfacet
facet normal 0.0 0.0 -1.0
  outer loop
    vertex -5.61436598595936 -6.863155750663556 0.0
    vertex -6.863155750663556 5.614365985959358 0.0
    vertex -5.176194546068191 7.199376521853648 0.0
  endloop
endfacet
facet normal 0.0 0.0 -1.0
  outer loop
    vertex -5.61436598595936 -6.863155750663556 0.0
    vertex -5.176194546068191 7.199376521853648 0.0
    vertex -5.0 0.0 0.0
  endloop
endfacet
facet normal 0.0 0.0 -1.0
  outer loop
    vertex -5.61436598595936 -6.863155750663556 0.0
    vertex -5.0 0.0 0.0
    vertex -4.8296291314453415 -1.2940952255126026 0.0
  endloop
endfacet
facet normal 0.0 0.0 -1.0
  outer loop
    vertex -5.61436598595936 -6.863155750663556 0.0
    vertex -4.8296291314453415 -1.2940952255126026 0.0
    vertex -3.646745686300419 -8.08240423275234 0.0
  endloop
endfacet
facet normal 0.0 0.0 -1.0
  outer loop
    vertex -3.646745686300419 -8.08240423275234 0.0
    vertex -4.8296291314453415 -1.2940952255126026 0.0
    vertex -4.330127018922194 -2.499999999999999 0.0
  endloop
endfacet
facet normal 0.0 0.0 -1.0
  outer loop
    vertex -3.646745686300419 -8.08240423275234 0.0
    vertex -4.330127018922194 -2.499999999999999 0.0
    vertex -3.535533905932738 -3.5355339059327373 0.0
  endloop
endfacet
facet normal 0.0 0.0 -1.0
  outer loop
    vertex -3.646745686300419 -8.08240423275234 0.0
    vertex -3.535533905932738 -3.5355339059327373 0.0
    vertex -1.4306056946522938 -8.750850223183576 0.0
  endloop
endfacet
facet normal 0.0 0.0 -1.0
  outer loop
    vertex -1.4306056946522938 -8.750850223183576 0.0
    vertex -3.535533905932738 -3.5355339059327373 0.0
    vertex -2.5000000000000018 -4.330127018922193 0.0
  endloop
endfacet
facet normal 0.0 0.0 -1.0
  outer loop
    vertex -1.4306056946522938 -8.750850223183576 0.0
    vertex -2.5000000000000018 -4.330127018922193 0.0
    vertex -1.2940952255126055 -4.8296291314453415 0.0
  endloop
endfacet
facet normal 0.0 0.0 -1.0
  outer loop
    vertex -1.4306056946522938 -8.750850223183576 0.0
    vertex -1.2940952255126055 -4.8296291314453415 0.0
    vertex 0.8830277108986875 -8.82294023236861 0.0
  endloop
endfacet
facet normal 0.0 0.0 -1.0
  outer loop
    vertex 0.8830277108986875 -8.82294023236861 0.0
    vertex -1.2940952255126055 -4.8296291314453415 0.0
    vertex 0.0 -5.0 0.0
  endloop
endfacet
facet normal 0.0 0.0 -1.0
  outer loop
    vertex 0.8830277108986875 -8.82294023236861 0.0
    vertex 0.0 -5.0 0.0
    vertex 1.2940952255126013 -4.829629131445342 0.0
  endloop
endfacet
facet normal 0.0 0.0 -1.0
  outer loop
    vertex 0.8830277108986875 -8.82294023236861 0.0
    vertex 1.2940952255126013 -4.829629131445342 0.0
    vertex 3.136484237224217 -8.293761445315852 0.0
  endloop
endfacet
facet normal 0.0 0.0 -1.0
  outer loop
    vertex 3.136484237224217 -8.293761445315852 0.0
    vertex 1.2940952255126013 -4.829629131445342 0.0
    vertex 2.4999999999999982 -4.3301270189221945 0.0
  endloop
endfacet
facet normal 0.0 0.0 -1.0
  outer loop
    vertex 3.136484237224217 -8.293761445315852 0.0
    vertex 2.4999999999999982 -4.3301270189221945 0.0
    vertex 3.535533905932735 -3.5355339059327395 0.0
  endloop
endfacet
facet normal 0.0 0.0 -1.0
  outer loop
    vertex 3.136484237224217 -8.293761445315852 0.0
    vertex 3.535533905932735 -3.5355339059327395 0.0
    vertex 5.176194546068191 -7.199376521853651 0.0
  endloop
endfacet
facet normal 0.0 0.0 -1.0
  outer loop
    vertex 5.176194546068191 -7.199376521853651 0.0
    vertex 3.535533905932735 -3.5355339059327395 0.0
    vertex 4.330127018922193 -2.5000000000000027 0.0
  endloop
endfacet
facet normal 0.0 0.0 -1.0
  outer loop
    vertex 5.176194546068191 -7.199376521853651 0.0
    vertex 4.330127018922193 -2.5000000000000027 0.0
    vertex 4.579878075183767 -1.8970476127563047 0.0
  endloop
endfacet
facet normal 0.0 0.0 -1.0
  outer loop
    vertex 5.176194546068191 -7.199376521853651 0.0
    vertex 4.579878075183767 -1.8970476127563047 0.0
    vertex 4.829629131445341 -1.2940952255126081 0.0
  endloop
endfacet
facet normal 0.0 0.0 -1.0
  outer loop
    vertex 5.176194546068191 -7.199376521853651 0.0
    vertex 4.829629131445341 -1.2940952255126081 0.0
    vertex 4.999999999999999 -1.4099832412739487e-15 0.0
  endloop
endfacet
facet normal -0.923879532511287 -0.3826834323650894 -0.0
  outer loop
    vertex -4.8296291314453415 -1.2940952255126026 10.0
    vertex -4.330127018922194 -2.499999999999999 0.0
    vertex -4.330127018922194 -2.499999999999999 10.0
  endloop
endfacet
facet normal -0.923879532511287 -0.3826834323650894 -0.0
  outer loop
    vertex -4.330127018922194 -2.499999999999999 0.0
    vertex -4.8296291314453415 -1.2940952255126026 10.0
    vertex -4.8296291314453415 -1.2940952255126026 0.0
  endloop
endfacet
facet normal -0.9914448613738104 -0.13052619222005177 -0.0
  outer loop
    vertex -5.0 0.0 10.0
    vertex -4.8296291314453415 -1.2940952255126026 0.0
    vertex -4.8296291314453415 -1.2940952255126026 10.0
  endloop
endfacet
facet normal -0.9914448613738104 -0.13052619222005177 -0.0
  outer loop
    vertex -4.8296291314453415 -1.2940952255126026 0.0
    vertex -5.0 0.0 10.0
    vertex -5.0 0.0 0.0
  endloop
endfacet
facet normal -0.9914448613738105 0.13052619222005168 0.0
  outer loop
    vertex -4.8296291314453415 1.2940952255126055 10.0
    vertex -5.0 0.0 0.0
    vertex -5.0 0.0 10.0
  endloop
endfacet
facet normal -0.9914448613738105 0.13052619222005168 0.0
  outer loop
    vertex -5.0 0.0 0.0
    vertex -4.8296291314453415 1.2940952255126055 10.0
    vertex -4.8296291314453415 1.2940952255126055 0.0
  endloop
endfacet
facet normal -0.9238795325112867 0.3826834323650899 0.0
  outer loop
    vertex -4.330127018922193 2.500000000000001 10.0
    vertex -4.8296291314453415 1.2940952255126055 0.0
    vertex -4.8296291314453415 1.2940952255126055 10.0
  endloop
endfacet
facet normal -0.9238795325112867 0.3826834323650899 0.0
  outer loop
    vertex -4.8296291314453415 1.2940952255126055 0.0
    vertex -4.330127018922193 2.500000000000001 10.0
    vertex -4.330127018922193 2.500000000000001 0.0
  endloop
endfacet
facet normal -0.7933533402912352 0.6087614290087209 0.0
  outer loop
    vertex -3.5355339059327373 3.535533905932738 10.0
    vertex -4.330127018922193 2.500000000000001 0.0
    vertex -4.330127018922193 2.500000000000001 10.0
  endloop
endfacet
facet normal -0.7933533402912352 0.6087614290087209 0.0
  outer loop
    vertex -4.330127018922193 2.500000000000001 0.0
    vertex -3.5355339059327373 3.535533905932738 10.0
    vertex -3.5355339059327373 3.535533905932738 0.0
  endloop
endfacet
facet normal -0.6087614290087208 0.7933533402912353 0.0
  outer loop
    vertex -3.5355339059327373 3.535533905932738 10.0
    vertex -2.4999999999999996 4.3301270189221945 0.0
    vertex -3.5355339059327373 3.535533905932738 0.0
  endloop
endfacet
facet normal -0.6087614290087208 0.7933533402912353 0.0
  outer loop
    vertex -2.4999999999999996 4.3301270189221945 0.0
    vertex -3.5355339059327373 3.535533905932738 10.0
    vertex -2.4999999999999996 4.3301270189221945 10.0
  endloop
endfacet
facet normal -0.3826834323650893 0.9238795325112868 0.0
  outer loop
    vertex -2.4999999999999996 4.3301270189221945 10.0
    vertex -1.294095225512604 4.829629131445342 0.0
    vertex -2.4999999999999996 4.3301270189221945 0.0
  endloop
endfacet
facet normal -0.3826834323650893 0.9238795325112868 0.0
  outer loop
    vertex -1.294095225512604 4.829629131445342 0.0
    vertex -2.4999999999999996 4.3301270189221945 10.0
    vertex -1.294095225512604 4.829629131445342 10.0
  endloop
endfacet
facet normal -0.13052619222005174 0.9914448613738104 0.0
  outer loop
    vertex -1.294095225512604 4.829629131445342 10.0
    vertex 0.0 5.000000000000001 0.0
    vertex -1.294095225512604 4.829629131445342 0.0
  endloop
endfacet
facet normal -0.13052619222005174 0.9914448613738104 0.0
  outer loop
    vertex 0.0 5.000000000000001 0.0
    vertex -1.294095225512604 4.829629131445342 10.0
    vertex 0.0 5.000000000000001 10.0
  endloop
endfacet
facet normal 0.13052619222005188 0.9914448613738105 0.0
  outer loop
    vertex 0.0 5.000000000000001 10.0
    vertex 1.2940952255126081 4.829629131445339 0.0
    vertex 0.0 5.000000000000001 0.0
  endloop
endfacet
facet normal 0.13052619222005188 0.9914448613738105 0.0
  outer loop
    vertex 1.2940952255126081 4.829629131445339 0.0
    vertex 0.0 5.000000000000001 10.0
    vertex 1.2940952255126081 4.829629131445339 10.0
  endloop
endfacet
facet normal 0.3826834323650908 0.9238795325112864 0.0
  outer loop
    vertex 1.2940952255126081 4.829629131445339 10.0
    vertex 2.5000000000000027 4.330127018922192 0.0
    vertex 1.2940952255126081 4.829629131445339 0.0
  endloop
endfacet
facet normal 0.3826834323650908 0.9238795325112864 0.0
  outer loop
    vertex 2.5000000000000027 4.330127018922192 0.0
    vertex 1.2940952255126081 4.829629131445339 10.0
    vertex 2.5000000000000027 4.330127018922192 10.0
  endloop
endfacet
facet normal 0.6087614290087208 0.7933533402912352 0.0
  outer loop
    vertex 2.5000000000000027 4.330127018922192 10.0
    vertex 3.535533905932738 3.5355339059327364 0.0
    vertex 2.5000000000000027 4.330127018922192 0.0
  endloop
endfacet
facet normal 0.6087614290087208 0.7933533402912352 0.0
  outer loop
    vertex 3.535533905932738 3.5355339059327364 0.0
    vertex 2.5000000000000027 4.330127018922192 10.0
    vertex 3.535533905932738 3.5355339059327364 10.0
  endloop
endfacet
facet normal 0.7933533402912355 0.6087614290087203 0.0
  outer loop
    vertex 3.535533905932738 3.5355339059327364 0.0
    vertex 4.330127018922195 2.499999999999997 10.0
    vertex 4.330127018922195 2.499999999999997 0.0
  endloop
endfacet
facet normal 0.7933533402912355 0.6087614290087203 0.0
  outer loop
    vertex 4.330127018922195 2.499999999999997 10.0
    vertex 3.535533905932738 3.5355339059327364 0.0
    vertex 3.535533905932738 3.5355339059327364 10.0
  endloop
endfacet
facet normal 0.9238795325112872 0.38268343236508917 0.0
  outer loop
    vertex 4.330127018922195 2.499999999999997 0.0
    vertex 4.829629131445341 1.2940952255126013 10.0
    vertex 4.829629131445341 1.2940952255126013 0.0
  endloop
endfacet
facet normal 0.9238795325112872 0.38268343236508917 0.0
  outer loop
    vertex 4.829629131445341 1.2940952255126013 10.0
    vertex 4.330127018922195 2.499999999999997 0.0
    vertex 4.330127018922195 2.499999999999997 10.0
  endloop
endfacet
facet normal 0.9914448613738105 0.13052619222005135 0.0
  outer loop
    vertex 4.829629131445341 1.2940952255126013 0.0
    vertex 4.999999999999999 -1.4099832412739487e-15 10.0
    vertex 4.999999999999999 -1.4099832412739487e-15 0.0
  endloop
endfacet
facet normal 0.9914448613738105 0.13052619222005135 0.0
  outer loop
    vertex 4.999999999999999 -1.4099832412739487e-15 10.0
    vertex 4.829629131445341 1.2940952255126013 0.0
    vertex 4.829629131445341 1.2940952255126013 10.0
  endloop
endfacet
facet normal 0.9914448613738104 -0.130526192220052 0.0
  outer loop
    vertex 4.999999999999999 -1.4099832412739487e-15 0.0
    vertex 4.829629131445341 -1.2940952255126081 10.0
    vertex 4.829629131445341 -1.2940952255126081 0.0
  endloop
endfacet
facet normal 0.9914448613738104 -0.130526192220052 0.0
  outer loop
    vertex 4.829629131445341 -1.2940952255126081 10.0
    vertex 4.999999999999999 -1.4099832412739487e-15 0.0
    vertex 4.999999999999999 -1.4099832412739487e-15 10.0
  endloop
endfacet
facet normal 0.9238795325112865 -0.38268343236509084 0.0
  outer loop
    vertex 4.579878075183767 -1.8970476127563047 0.0
    vertex 4.330127018922193 -2.5000000000000027 10.0
    vertex 4.330127018922193 -2.5000000000000027 0.0
  endloop
endfacet
facet normal 0.9238795325112865 -0.38268343236509084 0.0
  outer loop
    vertex 4.330127018922193 -2.5000000000000027 10.0
    vertex 4.579878075183767 -1.8970476127563047 0.0
    vertex 4.829629131445341 -1.2940952255126081 10.0
  endloop
endfacet
facet normal 0.9238795325112865 -0.38268343236509084 0.0
  outer loop
    vertex 4.829629131445341 -1.2940952255126081 10.0
    vertex 4.579878075183767 -1.8970476127563047 0.0
    vertex 4.829629131445341 -1.2940952255126081 0.0
  endloop
endfacet
facet normal 0.7933533402912352 -0.6087614290087209 0.0
  outer loop
    vertex 4.330127018922193 -2.5000000000000027 0.0
    vertex 3.535533905932735 -3.5355339059327395 10.0
    vertex 3.535533905932735 -3.5355339059327395 0.0
  endloop
endfacet
facet normal 0.7933533402912352 -0.6087614290087209 0.0
  outer loop
    vertex 3.535533905932735 -3.5355339059327395 10.0
    vertex 4.330127018922193 -2.5000000000000027 0.0
    vertex 4.330127018922193 -2.5000000000000027 10.0
  endloop
endfacet
facet normal 0.6087614290087204 -0.7933533402912353 0.0
  outer loop
    vertex 3.535533905932735 -3.5355339059327395 10.0
    vertex 2.4999999999999982 -4.3301270189221945 0.0
    vertex 3.535533905932735 -3.5355339059327395 0.0
  endloop
endfacet
facet normal 0.6087614290087204 -0.7933533402912353 0.0
  outer loop
    vertex 2.4999999999999982 -4.3301270189221945 0.0
    vertex 3.535533905932735 -3.5355339059327395 10.0
    vertex 2.4999999999999982 -4.3301270189221945 10.0
  endloop
endfacet
facet normal 0.3826834323650891 -0.9238795325112871 0.0
  outer loop
    vertex 2.4999999999999982 -4.3301270189221945 10.0
    vertex 1.2940952255126013 -4.829629131445342 0.0
    vertex 2.4999999999999982 -4.3301270189221945 0.0
  endloop
endfacet
facet normal 0.3826834323650891 -0.9238795325112871 0.0
  outer loop
    vertex 1.2940952255126013 -4.829629131445342 0.0
    vertex 2.4999999999999982 -4.3301270189221945 10.0
    vertex 1.2940952255126013 -4.829629131445342 10.0
  endloop
endfacet
facet normal 0.13052619222005138 -0.9914448613738105 0.0
  outer loop
    vertex 1.2940952255126013 -4.829629131445342 10.0
    vertex 0.0 -5.0 0.0
    vertex 1.2940952255126013 -4.829629131445342 0.0
  endloop
endfacet
facet normal 0.13052619222005138 -0.9914448613738105 0.0
  outer loop
    vertex 0.0 -5.0 0.0
    vertex 1.2940952255126013 -4.829629131445342 10.0
    vertex 0.0 -5.0 10.0
  endloop
endfacet
facet normal -0.3826834323650896 0.923879532511287 0.0
  outer loop
    vertex 1.555147609952705 -5.803889893612809 10.0
    vertex 3.0043144802900774 -5.203625321777298 9.0
    vertex 1.555147609952705 -5.803889893612809 9.0
  endloop
endfacet
facet normal -0.3826834323650896 0.923879532511287 0.0
  outer loop
    vertex 3.0043144802900774 -5.203625321777298 9.0
    vertex 1.555147609952705 -5.803889893612809 10.0
    vertex 3.0043144802900774 -5.203625321777298 10.0
  endloop
endfacet
facet normal -0.6087614290087207 0.7933533402912352 0.0
  outer loop
    vertex 3.0043144802900774 -5.203625321777298 10.0
    vertex 4.248742283660101 -4.248742283660104 9.0
    vertex 3.0043144802900774 -5.203625321777298 9.0
  endloop
endfacet
facet normal -0.6087614290087207 0.7933533402912352 0.0
  outer loop
    vertex 4.248742283660101 -4.248742283660104 9.0
    vertex 3.0043144802900774 -5.203625321777298 10.0
    vertex 4.248742283660101 -4.248742283660104 10.0
  endloop
endfacet
facet normal -0.7933533402912343 0.6087614290087218 0.0
  outer loop
    vertex 5.203625321777294 -3.0043144802900845 10.0
    vertex 4.248742283660101 -4.248742283660104 9.0
    vertex 4.248742283660101 -4.248742283660104 10.0
  endloop
endfacet
facet normal -0.7933533402912343 0.6087614290087218 0.0
  outer loop
    vertex 4.248742283660101 -4.248742283660104 9.0
    vertex 5.203625321777294 -3.0043144802900845 10.0
    vertex 5.203625321777294 -3.0043144802900845 9.0
  endloop
endfacet
facet normal -0.9238795325112864 0.382683432365091 0.0
  outer loop
    vertex 5.8038898936128085 -1.555147609952715 10.0
    vertex 5.203625321777294 -3.0043144802900845 9.0
    vertex 5.203625321777294 -3.0043144802900845 10.0
  endloop
endfacet
facet normal -0.9238795325112864 0.382683432365091 0.0
  outer loop
    vertex 5.203625321777294 -3.0043144802900845 9.0
    vertex 5.8038898936128085 -1.555147609952715 10.0
    vertex 5.8038898936128085 -1.555147609952715 9.0
  endloop
endfacet
facet normal -0.9914448613738104 0.13052619222005224 0.0
  outer loop
    vertex 6.008628960580152 -1.4099832412739487e-15 10.0
    vertex 5.8038898936128085 -1.555147609952715 9.0
    vertex 5.8038898936128085 -1.555147609952715 10.0
  endloop
endfacet
facet normal -0.9914448613738104 0.13052619222005224 0.0
  outer loop
    vertex 5.8038898936128085 -1.555147609952715 9.0
    vertex 6.008628960580152 -1.4099832412739487e-15 10.0
    vertex 6.008628960580152 -1.4099832412739487e-15 9.0
  endloop
endfacet
facet normal -0.9914448613738105 -0.13052619222005152 -0.0
  outer loop
    vertex 5.8038898936128085 1.5551476099527066 10.0
    vertex 6.008628960580152 -1.4099832412739487e-15 9.0
    vertex 6.008628960580152 -1.4099832412739487e-15 10.0
  endloop
endfacet
facet normal -0.9914448613738105 -0.13052619222005152 -0.0
  outer loop
    vertex 6.008628960580152 -1.4099832412739487e-15 9.0
    vertex 5.8038898936128085 1.5551476099527066 10.0
    vertex 5.8038898936128085 1.5551476099527066 9.0
  endloop
endfacet
facet normal -0.9238795325112873 -0.3826834323650885 -0.0
  outer loop
    vertex 5.203625321777305 3.004314480290069 10.0
    vertex 5.8038898936128085 1.5551476099527066 9.0
    vertex 5.8038898936128085 1.5551476099527066 10.0
  endloop
endfacet
facet normal -0.9238795325112873 -0.3826834323650885 -0.0
  outer loop
    vertex 5.8038898936128085 1.5551476099527066 9.0
    vertex 5.203625321777305 3.004314480290069 10.0
    vertex 5.203625321777305 3.004314480290069 9.0
  endloop
endfacet
facet normal -0.7933533402912353 -0.6087614290087204 -0.0
  outer loop
    vertex 4.248742283660103 4.248742283660102 10.0
    vertex 5.203625321777305 3.004314480290069 9.0
    vertex 5.203625321777305 3.004314480290069 10.0
  endloop
endfacet
facet normal -0.7933533402912353 -0.6087614290087204 -0.0
  outer loop
    vertex 5.203625321777305 3.004314480290069 9.0
    vertex 4.248742283660103 4.248742283660102 10.0
    vertex 4.248742283660103 4.248742283660102 9.0
  endloop
endfacet
facet normal -0.6087614290087204 -0.7933533402912353 -0.0
  outer loop
    vertex 4.248742283660103 4.248742283660102 10.0
    vertex 3.0043144802900774 5.203625321777298 9.0
    vertex 4.248742283660103 4.248742283660102 9.0
  endloop
endfacet
facet normal -0.6087614290087204 -0.7933533402912353 -0.0
  outer loop
    vertex 3.0043144802900774 5.203625321777298 9.0
    vertex 4.248742283660103 4.248742283660102 10.0
    vertex 3.0043144802900774 5.203625321777298 10.0
  endloop
endfacet
facet normal -0.38268343236509034 -0.9238795325112865 -0.0
  outer loop
    vertex 3.0043144802900774 5.203625321777298 10.0
    vertex 1.5551476099527108 5.803889893612807 9.0
    vertex 3.0043144802900774 5.203625321777298 9.0
  endloop
endfacet
facet normal -0.38268343236509034 -0.9238795325112865 -0.0
  outer loop
    vertex 1.5551476099527108 5.803889893612807 9.0
    vertex 3.0043144802900774 5.203625321777298 10.0
    vertex 1.5551476099527108 5.803889893612807 10.0
  endloop
endfacet
facet normal -0.13052619222005296 -0.9914448613738103 -0.0
  outer loop
    vertex 1.5551476099527108 5.803889893612807 10.0
    vertex 4.229949723821846e-15 6.008628960580153 9.0
    vertex 1.5551476099527108 5.803889893612807 9.0
  endloop
endfacet
facet normal -0.13052619222005296 -0.9914448613738103 -0.0
  outer loop
    vertex 4.229949723821846e-15 6.008628960580153 9.0
    vertex 1.5551476099527108 5.803889893612807 10.0
    vertex 4.229949723821846e-15 6.008628960580153 10.0
  endloop
endfacet
facet normal 0.13052619222005177 -0.9914448613738104 0.0
  outer loop
    vertex 4.229949723821846e-15 6.008628960580153 10.0
    vertex -1.555147609952705 5.803889893612809 9.0
    vertex 4.229949723821846e-15 6.008628960580153 9.0
  endloop
endfacet
facet normal 0.13052619222005177 -0.9914448613738104 0.0
  outer loop
    vertex -1.555147609952705 5.803889893612809 9.0
    vertex 4.229949723821846e-15 6.008628960580153 10.0
    vertex -1.555147609952705 5.803889893612809 10.0
  endloop
endfacet
facet normal 0.3826834323650908 -0.9238795325112863 0.0
  outer loop
    vertex -1.555147609952705 5.803889893612809 10.0
    vertex -3.0043144802900845 5.2036253217772925 9.0
    vertex -1.555147609952705 5.803889893612809 9.0
  endloop
endfacet
facet normal 0.3826834323650908 -0.9238795325112863 0.0
  outer loop
    vertex -3.0043144802900845 5.2036253217772925 9.0
    vertex -1.555147609952705 5.803889893612809 10.0
    vertex -3.0043144802900845 5.2036253217772925 10.0
  endloop
endfacet
facet normal 0.6087614290087203 -0.7933533402912355 0.0
  outer loop
    vertex -3.0043144802900845 5.2036253217772925 10.0
    vertex -4.248742283660099 4.248742283660107 9.0
    vertex -3.0043144802900845 5.2036253217772925 9.0
  endloop
endfacet
facet normal 0.6087614290087203 -0.7933533402912355 0.0
  outer loop
    vertex -4.248742283660099 4.248742283660107 9.0
    vertex -3.0043144802900845 5.2036253217772925 10.0
    vertex -4.248742283660099 4.248742283660107 10.0
  endloop
endfacet
facet normal 0.7933533402912343 -0.608761429008722 0.0
  outer loop
    vertex -4.248742283660099 4.248742283660107 9.0
    vertex -5.203625321777295 3.0043144802900845 10.0
    vertex -5.203625321777295 3.0043144802900845 9.0
  endloop
endfacet
facet normal 0.7933533402912343 -0.608761429008722 0.0
  outer loop
    vertex -5.203625321777295 3.0043144802900845 10.0
    vertex -4.248742283660099 4.248742283660107 9.0
    vertex -4.248742283660099 4.248742283660107 10.0
  endloop
endfacet
facet normal 0.9238795325112868 -0.38268343236508984 0.0
  outer loop
    vertex -5.203625321777295 3.0043144802900845 9.0
    vertex -5.803889893612809 1.5551476099527093 10.0
    vertex -5.803889893612809 1.5551476099527093 9.0
  endloop
endfacet
facet normal 0.9238795325112868 -0.38268343236508984 0.0
  outer loop
    vertex -5.803889893612809 1.5551476099527093 10.0
    vertex -5.203625321777295 3.0043144802900845 9.0
    vertex -5.203625321777295 3.0043144802900845 10.0
  endloop
endfacet
facet normal 0.9914448613738105 -0.1305261922200512 0.0
  outer loop
    vertex -5.803889893612809 1.5551476099527093 9.0
    vertex -6.008628960580152 -2.8199664825478975e-15 10.0
    vertex -6.008628960580152 -2.8199664825478975e-15 9.0
  endloop
endfacet
facet normal 0.9914448613738105 -0.1305261922200512 0.0
  outer loop
    vertex -6.008628960580152 -2.8199664825478975e-15 10.0
    vertex -5.803889893612809 1.5551476099527093 9.0
    vertex -5.803889893612809 1.5551476099527093 10.0
  endloop
endfacet
facet normal 0.9914448613738105 0.13052619222005188 0.0
  outer loop
    vertex -6.008628960580152 -2.8199664825478975e-15 9.0
    vertex -5.803889893612809 -1.555147609952705 10.0
    vertex -5.803889893612809 -1.555147609952705 9.0
  endloop
endfacet
facet normal 0.9914448613738105 0.13052619222005188 0.0
  outer loop
    vertex -5.803889893612809 -1.555147609952705 10.0
    vertex -6.008628960580152 -2.8199664825478975e-15 9.0
    vertex -6.008628960580152 -2.8199664825478975e-15 10.0
  endloop
endfacet
facet normal 0.923879532511287 0.3826834323650891 0.0
  outer loop
    vertex -5.803889893612809 -1.555147609952705 9.0
    vertex -5.203625321777299 -3.004314480290075 10.0
    vertex -5.203625321777299 -3.004314480290075 9.0
  endloop
endfacet
facet normal 0.923879532511287 0.3826834323650891 0.0
  outer loop
    vertex -5.203625321777299 -3.004314480290075 10.0
    vertex -5.803889893612809 -1.555147609952705 9.0
    vertex -5.803889893612809 -1.555147609952705 10.0
  endloop
endfacet
facet normal 0.7933533402912353 0.6087614290087207 0.0
  outer loop
    vertex -5.203625321777299 -3.004314480290075 9.0
    vertex -4.248742283660101 -4.248742283660104 10.0
    vertex -4.248742283660101 -4.248742283660104 9.0
  endloop
endfacet
facet normal 0.7933533402912353 0.6087614290087207 0.0
  outer loop
    vertex -4.248742283660101 -4.248742283660104 10.0
    vertex -5.203625321777299 -3.004314480290075 9.0
    vertex -5.203625321777299 -3.004314480290075 10.0
  endloop
endfacet
facet normal 0.6087614290087205 0.7933533402912354 0.0
  outer loop
    vertex -4.248742283660101 -4.248742283660104 10.0
    vertex -3.0043144802900765 -5.203625321777298 9.0
    vertex -4.248742283660101 -4.248742283660104 9.0
  endloop
endfacet
facet normal 0.6087614290087205 0.7933533402912354 0.0
  outer loop
    vertex -3.0043144802900765 -5.203625321777298 9.0
    vertex -4.248742283660101 -4.248742283660104 10.0
    vertex -3.0043144802900765 -5.203625321777298 10.0
  endloop
endfacet
facet normal 0.3826834323650899 0.9238795325112867 0.0
  outer loop
    vertex -3.0043144802900765 -5.203625321777298 10.0
    vertex -1.555147609952708 -5.803889893612809 9.0
    vertex -3.0043144802900765 -5.203625321777298 9.0
  endloop
endfacet
facet normal 0.3826834323650899 0.9238795325112867 0.0
  outer loop
    vertex -1.555147609952708 -5.803889893612809 9.0
    vertex -3.0043144802900765 -5.203625321777298 10.0
    vertex -1.555147609952708 -5.803889893612809 10.0
  endloop
endfacet
facet normal 0.13052619222005116 0.9914448613738105 0.0
  outer loop
    vertex -1.555147609952708 -5.803889893612809 10.0
    vertex 2.8199664825478975e-15 -6.008628960580152 9.0
    vertex -1.555147609952708 -5.803889893612809 9.0
  endloop
endfacet
facet normal 0.13052619222005116 0.9914448613738105 0.0
  outer loop
    vertex 2.8199664825478975e-15 -6.008628960580152 9.0
    vertex -1.555147609952708 -5.803889893612809 10.0
    vertex 2.8199664825478975e-15 -6.008628960580152 10.0
  endloop
endfacet
facet normal -0.13052619222005152 0.9914448613738106 0.0
  outer loop
    vertex 2.8199664825478975e-15 -6.008628960580152 10.0
    vertex 1.555147609952705 -5.803889893612809 9.0
    vertex 2.8199664825478975e-15 -6.008628960580152 9.0
  endloop
endfacet
facet normal -0.13052619222005152 0.9914448613738106 0.0
  outer loop
    vertex 1.555147609952705 -5.803889893612809 9.0
    vertex 2.8199664825478975e-15 -6.008628960580152 10.0
    vertex 1.555147609952705 -5.803889893612809 10.0
  endloop
endfacet
facet normal 0.0 0.0 -1.0
  outer loop
    vertex -5.203625321777295 3.0043144802900845 10.0
    vertex -4.8296291314453415 1.2940952255126055 10.0
    vertex -5.0 0.0 10.0
  endloop
endfacet
facet normal 0.0 0.0 -1.0
  outer loop
    vertex -4.8296291314453415 1.2940952255126055 10.0
    vertex -5.203625321777295 3.0043144802900845 10.0
    vertex -4.248742283660099 4.248742283660107 10.0
  endloop
endfacet
facet normal 0.0 0.0 -1.0
  outer loop
    vertex -4.8296291314453415 1.2940952255126055 10.0
    vertex -4.248742283660099 4.248742283660107 10.0
    vertex -4.330127018922193 2.500000000000001 10.0
  endloop
endfacet
facet normal 0.0 0.0 -1.0
  outer loop
    vertex -4.330127018922193 2.500000000000001 10.0
    vertex -4.248742283660099 4.248742283660107 10.0
    vertex -3.5355339059327373 3.535533905932738 10.0
  endloop
endfacet
facet normal 0.0 0.0 -1.0
  outer loop
    vertex -3.5355339059327373 3.535533905932738 10.0
    vertex -4.248742283660099 4.248742283660107 10.0
    vertex -3.0043144802900845 5.2036253217772925 10.0
  endloop
endfacet
facet normal 0.0 0.0 -1.0
  outer loop
    vertex -3.5355339059327373 3.535533905932738 10.0
    vertex -3.0043144802900845 5.2036253217772925 10.0
    vertex -2.4999999999999996 4.3301270189221945 10.0
  endloop
endfacet
facet normal 0.0 0.0 -1.0
  outer loop
    vertex -2.4999999999999996 4.3301270189221945 10.0
    vertex -3.0043144802900845 5.2036253217772925 10.0
    vertex -1.555147609952705 5.803889893612809 10.0
  endloop
endfacet
facet normal 0.0 0.0 -1.0
  outer loop
    vertex -2.4999999999999996 4.3301270189221945 10.0
    vertex -1.555147609952705 5.803889893612809 10.0
    vertex -1.294095225512604 4.829629131445342 10.0
  endloop
endfacet
facet normal 0.0 0.0 -1.0
  outer loop
    vertex -1.294095225512604 4.829629131445342 10.0
    vertex -1.555147609952705 5.803889893612809 10.0
    vertex 4.229949723821846e-15 6.008628960580153 10.0
  endloop
endfacet
facet normal 0.0 0.0 -1.0
  outer loop
    vertex -1.294095225512604 4.829629131445342 10.0
    vertex 4.229949723821846e-15 6.008628960580153 10.0
    vertex 0.0 5.000000000000001 10.0
  endloop
endfacet
facet normal 0.0 0.0 -1.0
  outer loop
    vertex 0.0 5.000000000000001 10.0
    vertex 4.229949723821846e-15 6.008628960580153 10.0
    vertex 1.2940952255126081 4.829629131445339 10.0
  endloop
endfacet
facet normal 0.0 0.0 -1.0
  outer loop
    vertex 1.2940952255126081 4.829629131445339 10.0
    vertex 4.229949723821846e-15 6.008628960580153 10.0
    vertex 1.5551476099527108 5.803889893612807 10.0
  endloop
endfacet
facet normal 0.0 0.0 -1.0
  outer loop
    vertex 1.2940952255126081 4.829629131445339 10.0
    vertex 1.5551476099527108 5.803889893612807 10.0
    vertex 2.5000000000000027 4.330127018922192 10.0
  endloop
endfacet
facet normal 0.0 0.0 -1.0
  outer loop
    vertex 2.5000000000000027 4.330127018922192 10.0
    vertex 1.5551476099527108 5.803889893612807 10.0
    vertex 3.0043144802900774 5.203625321777298 10.0
  endloop
endfacet
facet normal 0.0 0.0 -1.0
  outer loop
    vertex 2.5000000000000027 4.330127018922192 10.0
    vertex 3.0043144802900774 5.203625321777298 10.0
    vertex 3.535533905932738 3.5355339059327364 10.0
  endloop
endfacet
facet normal 0.0 0.0 -1.0
  outer loop
    vertex 3.535533905932738 3.5355339059327364 10.0
    vertex 3.0043144802900774 5.203625321777298 10.0
    vertex 4.248742283660103 4.248742283660102 10.0
  endloop
endfacet
facet normal 0.0 0.0 -1.0
  outer loop
    vertex 3.535533905932738 3.5355339059327364 10.0
    vertex 4.248742283660103 4.248742283660102 10.0
    vertex 4.330127018922195 2.499999999999997 10.0
  endloop
endfacet
facet normal 0.0 0.0 -1.0
  outer loop
    vertex 4.330127018922195 2.499999999999997 10.0
    vertex 4.248742283660103 4.248742283660102 10.0
    vertex 5.203625321777305 3.004314480290069 10.0
  endloop
endfacet
facet normal 0.0 0.0 -1.0
  outer loop
    vertex 4.330127018922195 2.499999999999997 10.0
    vertex 5.203625321777305 3.004314480290069 10.0
    vertex 4.829629131445341 1.2940952255126013 10.0
  endloop
endfacet
facet normal 0.0 0.0 -1.0
  outer loop
    vertex 4.829629131445341 1.2940952255126013 10.0
    vertex 5.203625321777305 3.004314480290069 10.0
    vertex 4.999999999999999 -1.4099832412739487e-15 10.0
  endloop
endfacet
facet normal 0.0 0.0 -1.0
  outer loop
    vertex 4.999999999999999 -1.4099832412739487e-15 10.0
    vertex 5.203625321777305 3.004314480290069 10.0
    vertex 5.203625321777294 -3.0043144802900845 10.0
  endloop
endfacet
facet normal 0.0 0.0 -1.0
  outer loop
    vertex 5.203625321777294 -3.0043144802900845 10.0
    vertex 5.203625321777305 3.004314480290069 10.0
    vertex 5.8038898936128085 -1.555147609952715 10.0
  endloop
endfacet
facet normal 0.0 0.0 -1.0
  outer loop
    vertex 5.8038898936128085 -1.555147609952715 10.0
    vertex 5.203625321777305 3.004314480290069 10.0
    vertex 5.8038898936128085 1.5551476099527066 10.0
  endloop
endfacet
facet normal 0.0 0.0 -1.0
  outer loop
    vertex 5.8038898936128085 -1.555147609952715 10.0
    vertex 5.8038898936128085 1.5551476099527066 10.0
    vertex 6.008628960580152 -1.4099832412739487e-15 10.0
  endloop
endfacet
facet normal 0.0 0.0 -1.0
  outer loop
    vertex -5.803889893612809 1.5551476099527093 10.0
    vertex -5.803889893612809 -1.555147609952705 10.0
    vertex -6.008628960580152 -2.8199664825478975e-15 10.0
  endloop
endfacet
facet normal 0.0 0.0 -1.0
  outer loop
    vertex -5.803889893612809 -1.555147609952705 10.0
    vertex -5.803889893612809 1.5551476099527093 10.0
    vertex -5.203625321777295 3.0043144802900845 10.0
  endloop
endfacet
facet normal 0.0 0.0 -1.0
  outer loop
    vertex -5.803889893612809 -1.555147609952705 10.0
    vertex -5.203625321777295 3.0043144802900845 10.0
    vertex -5.203625321777299 -3.004314480290075 10.0
  endloop
endfacet
facet normal 0.0 0.0 -1.0
  outer loop
    vertex -5.203625321777299 -3.004314480290075 10.0
    vertex -5.203625321777295 3.0043144802900845 10.0
    vertex -5.0 0.0 10.0
  endloop
endfacet
facet normal 0.0 0.0 -1.0
  outer loop
    vertex -5.203625321777299 -3.004314480290075 10.0
    vertex -5.0 0.0 10.0
    vertex -4.8296291314453415 -1.2940952255126026 10.0
  endloop
endfacet
facet normal 0.0 0.0 -1.0
  outer loop
    vertex -5.203625321777299 -3.004314480290075 10.0
    vertex -4.8296291314453415 -1.2940952255126026 10.0
    vertex -4.248742283660101 -4.248742283660104 10.0
  endloop
endfacet
facet normal 0.0 0.0 -1.0
  outer loop
    vertex -4.248742283660101 -4.248742283660104 10.0
    vertex -4.8296291314453415 -1.2940952255126026 10.0
    vertex -4.330127018922194 -2.499999999999999 10.0
  endloop
endfacet
facet normal 0.0 0.0 -1.0
  outer loop
    vertex -4.248742283660101 -4.248742283660104 10.0
    vertex -4.330127018922194 -2.499999999999999 10.0
    vertex -3.535533905932738 -3.5355339059327373 10.0
  endloop
endfacet
facet normal 0.0 0.0 -1.0
  outer loop
    vertex -4.248742283660101 -4.248742283660104 10.0
    vertex -3.535533905932738 -3.5355339059327373 10.0
    vertex -3.0043144802900765 -5.203625321777298 10.0
  endloop
endfacet
facet normal 0.0 0.0 -1.0
  outer loop
    vertex -3.0043144802900765 -5.203625321777298 10.0
    vertex -3.535533905932738 -3.5355339059327373 10.0
    vertex -2.5000000000000018 -4.330127018922193 10.0
  endloop
endfacet
facet normal 0.0 0.0 -1.0
  outer loop
    vertex -3.0043144802900765 -5.203625321777298 10.0
    vertex -2.5000000000000018 -4.330127018922193 10.0
    vertex -1.555147609952708 -5.803889893612809 10.0
  endloop
endfacet
facet normal 0.0 0.0 -1.0
  outer loop
    vertex -1.555147609952708 -5.803889893612809 10.0
    vertex -2.5000000000000018 -4.330127018922193 10.0
    vertex -1.2940952255126055 -4.8296291314453415 10.0
  endloop
endfacet
facet normal 0.0 0.0 -1.0
  outer loop
    vertex -1.555147609952708 -5.803889893612809 10.0
    vertex -1.2940952255126055 -4.8296291314453415 10.0
    vertex 2.8199664825478975e-15 -6.008628960580152 10.0
  endloop
endfacet
facet normal 0.0 0.0 -1.0
  outer loop
    vertex 2.8199664825478975e-15 -6.008628960580152 10.0
    vertex -1.2940952255126055 -4.8296291314453415 10.0
    vertex 0.0 -5.0 10.0
  endloop
endfacet
facet normal 0.0 0.0 -1.0
  outer loop
    vertex 2.8199664825478975e-15 -6.008628960580152 10.0
    vertex 0.0 -5.0 10.0
    vertex 1.2940952255126013 -4.829629131445342 10.0
  endloop
endfacet
facet normal 0.0 0.0 -1.0
  outer loop
    vertex 2.8199664825478975e-15 -6.008628960580152 10.0
    vertex 1.2940952255126013 -4.829629131445342 10.0
    vertex 1.555147609952705 -5.803889893612809 10.0
  endloop
endfacet
facet normal 0.0 0.0 -1.0
  outer loop
    vertex 1.555147609952705 -5.803889893612809 10.0
    vertex 1.2940952255126013 -4.829629131445342 10.0
    vertex 2.4999999999999982 -4.3301270189221945 10.0
  endloop
endfacet
facet normal 0.0 0.0 -1.0
  outer loop
    vertex 1.555147609952705 -5.803889893612809 10.0
    vertex 2.4999999999999982 -4.3301270189221945 10.0
    vertex 3.0043144802900774 -5.203625321777298 10.0
  endloop
endfacet
facet normal 0.0 0.0 -1.0
  outer loop
    vertex 3.0043144802900774 -5.203625321777298 10.0
    vertex 2.4999999999999982 -4.3301270189221945 10.0
    vertex 3.535533905932735 -3.5355339059327395 10.0
  endloop
endfacet
facet normal 0.0 0.0 -1.0
  outer loop
    vertex 3.0043144802900774 -5.203625321777298 10.0
    vertex 3.535533905932735 -3.5355339059327395 10.0
    vertex 4.248742283660101 -4.248742283660104 10.0
  endloop
endfacet
facet normal 0.0 0.0 -1.0
  outer loop
    vertex 4.248742283660101 -4.248742283660104 10.0
    vertex 3.535533905932735 -3.5355339059327395 10.0
    vertex 4.330127018922193 -2.5000000000000027 10.0
  endloop
endfacet
facet normal 0.0 0.0 -1.0
  outer loop
    vertex 4.248742283660101 -4.248742283660104 10.0
    vertex 4.330127018922193 -2.5000000000000027 10.0
    vertex 5.203625321777294 -3.0043144802900845 10.0
  endloop
endfacet
facet normal 0.0 0.0 -1.0
  outer loop
    vertex 5.203625321777294 -3.0043144802900845 10.0
    vertex 4.330127018922193 -2.5000000000000027 10.0
    vertex 4.829629131445341 -1.2940952255126081 10.0
  endloop
endfacet
facet normal 0.0 0.0 -1.0
  outer loop
    vertex 5.203625321777294 -3.0043144802900845 10.0
    vertex 4.829629131445341 -1.2940952255126081 10.0
    vertex 4.999999999999999 -1.4099832412739487e-15 10.0
  endloop
endfacet
facet normal -0.9238795325112875 0.3826834323650885 0.0
  outer loop
    vertex -6.077123624632404 3.5086289605801553 9.0
    vertex -6.778150655780279 1.8161999943928007 0.9999999999999999
    vertex -6.778150655780279 1.8161999943928007 9.0
  endloop
endfacet
facet normal -0.9238795325112875 0.3826834323650885 0.0
  outer loop
    vertex -6.778150655780279 1.8161999943928007 0.9999999999999999
    vertex -6.077123624632404 3.5086289605801553 9.0
    vertex -6.077123624632404 3.5086289605801553 0.9999999999999999
  endloop
endfacet
facet normal -0.9914448613738105 0.1305261922200511 0.0
  outer loop
    vertex -6.778150655780279 1.8161999943928007 9.0
    vertex -7.017257921160305 -1.4099832412739487e-15 0.9999999999999999
    vertex -7.017257921160305 -1.4099832412739487e-15 9.0
  endloop
endfacet
facet normal -0.9914448613738105 0.1305261922200511 0.0
  outer loop
    vertex -7.017257921160305 -1.4099832412739487e-15 0.9999999999999999
    vertex -6.778150655780279 1.8161999943928007 9.0
    vertex -6.778150655780279 1.8161999943928007 0.9999999999999999
  endloop
endfacet
facet normal -0.9914448613738102 -0.13052619222005343 -0.0
  outer loop
    vertex -7.017257921160305 -1.4099832412739487e-15 9.0
    vertex -6.778150655780273 -1.8161999943928147 0.9999999999999999
    vertex -6.778150655780273 -1.8161999943928147 9.0
  endloop
endfacet
facet normal -0.9914448613738102 -0.13052619222005343 -0.0
  outer loop
    vertex -6.778150655780273 -1.8161999943928147 0.9999999999999999
    vertex -7.017257921160305 -1.4099832412739487e-15 9.0
    vertex -7.017257921160305 -1.4099832412739487e-15 0.9999999999999999
  endloop
endfacet
facet normal -0.9238795325112863 -0.382683432365091 -0.0
  outer loop
    vertex -6.778150655780273 -1.8161999943928147 9.0
    vertex -6.077123624632394 -3.5086289605801646 0.9999999999999999
    vertex -6.077123624632394 -3.5086289605801646 9.0
  endloop
endfacet
facet normal -0.9238795325112863 -0.382683432365091 -0.0
  outer loop
    vertex -6.077123624632394 -3.5086289605801646 0.9999999999999999
    vertex -6.778150655780273 -1.8161999943928147 9.0
    vertex -6.778150655780273 -1.8161999943928147 0.9999999999999999
  endloop
endfacet
facet normal -0.793353340291236 -0.6087614290087194 -0.0
  outer loop
    vertex -6.077123624632394 -3.5086289605801646 9.0
    vertex -4.9619506613874735 -4.961950661387464 0.9999999999999999
    vertex -4.9619506613874735 -4.961950661387464 9.0
  endloop
endfacet
facet normal -0.793353340291236 -0.6087614290087194 -0.0
  outer loop
    vertex -4.9619506613874735 -4.961950661387464 0.9999999999999999
    vertex -6.077123624632394 -3.5086289605801646 9.0
    vertex -6.077123624632394 -3.5086289605801646 0.9999999999999999
  endloop
endfacet
facet normal -0.6087614290087215 -0.7933533402912345 -0.0
  outer loop
    vertex -3.508628960580163 -6.077123624632399 9.0
    vertex -4.9619506613874735 -4.961950661387464 0.9999999999999999
    vertex -3.508628960580163 -6.077123624632399 0.9999999999999999
  endloop
endfacet
facet normal -0.6087614290087215 -0.7933533402912345 -0.0
  outer loop
    vertex -4.9619506613874735 -4.961950661387464 0.9999999999999999
    vertex -3.508628960580163 -6.077123624632399 9.0
    vertex -4.9619506613874735 -4.961950661387464 9.0
  endloop
endfacet
facet normal -0.3826834323650898 -0.923879532511287 -0.0
  outer loop
    vertex -1.8161999943928049 -6.778150655780279 9.0
    vertex -3.508628960580163 -6.077123624632399 0.9999999999999999
    vertex -1.8161999943928049 -6.778150655780279 0.9999999999999999
  endloop
endfacet
facet normal -0.3826834323650898 -0.923879532511287 -0.0
  outer loop
    vertex -3.508628960580163 -6.077123624632399 0.9999999999999999
    vertex -1.8161999943928049 -6.778150655780279 9.0
    vertex -3.508628960580163 -6.077123624632399 9.0
  endloop
endfacet
facet normal -0.13052619222005077 -0.9914448613738106 -0.0
  outer loop
    vertex 2.8199664825478975e-15 -7.017257921160305 9.0
    vertex -1.8161999943928049 -6.778150655780279 0.9999999999999999
    vertex 2.8199664825478975e-15 -7.017257921160305 0.9999999999999999
  endloop
endfacet
facet normal -0.13052619222005077 -0.9914448613738106 -0.0
  outer loop
    vertex -1.8161999943928049 -6.778150655780279 0.9999999999999999
    vertex 2.8199664825478975e-15 -7.017257921160305 9.0
    vertex -1.8161999943928049 -6.778150655780279 9.0
  endloop
endfacet
facet normal -0.7933533402912348 0.6087614290087212 0.0
  outer loop
    vertex -4.961950661387468 4.961950661387467 9.0
    vertex -6.077123624632404 3.5086289605801553 0.9999999999999999
    vertex -6.077123624632404 3.5086289605801553 9.0
  endloop
endfacet
facet normal -0.7933533402912348 0.6087614290087212 0.0
  outer loop
    vertex -6.077123624632404 3.5086289605801553 0.9999999999999999
    vertex -4.961950661387468 4.961950661387467 9.0
    vertex -4.961950661387468 4.961950661387467 0.9999999999999999
  endloop
endfacet
facet normal -0.6087614290087209 0.793353340291235 0.0
  outer loop
    vertex -4.961950661387468 4.961950661387467 9.0
    vertex -3.5086289605801637 6.077123624632397 0.9999999999999999
    vertex -4.961950661387468 4.961950661387467 0.9999999999999999
  endloop
endfacet
facet normal -0.6087614290087209 0.793353340291235 0.0
  outer loop
    vertex -3.5086289605801637 6.077123624632397 0.9999999999999999
    vertex -4.961950661387468 4.961950661387467 9.0
    vertex -3.5086289605801637 6.077123624632397 9.0
  endloop
endfacet
facet normal 0.6087614290087208 0.793353340291235 0.0
  outer loop
    vertex 3.5086289605801566 6.077123624632402 9.0
    vertex 4.9619506613874655 4.961950661387467 0.9999999999999999
    vertex 3.5086289605801566 6.077123624632402 0.9999999999999999
  endloop
endfacet
facet normal 0.6087614290087208 0.793353340291235 0.0
  outer loop
    vertex 4.9619506613874655 4.961950661387467 0.9999999999999999
    vertex 3.5086289605801566 6.077123624632402 9.0
    vertex 4.9619506613874655 4.961950661387467 9.0
  endloop
endfacet
facet normal -0.13052619222005155 0.9914448613738106 0.0
  outer loop
    vertex -1.8161999943928049 6.77815065578028 9.0
    vertex 2.8199664825478975e-15 7.017257921160306 0.9999999999999999
    vertex -1.8161999943928049 6.77815065578028 0.9999999999999999
  endloop
endfacet
facet normal -0.13052619222005155 0.9914448613738106 0.0
  outer loop
    vertex 2.8199664825478975e-15 7.017257921160306 0.9999999999999999
    vertex -1.8161999943928049 6.77815065578028 9.0
    vertex 2.8199664825478975e-15 7.017257921160306 9.0
  endloop
endfacet
facet normal 0.3826834323650907 0.9238795325112864 0.0
  outer loop
    vertex 1.8161999943928162 6.778150655780275 9.0
    vertex 3.5086289605801566 6.077123624632402 0.9999999999999999
    vertex 1.8161999943928162 6.778150655780275 0.9999999999999999
  endloop
endfacet
facet normal 0.3826834323650907 0.9238795325112864 0.0
  outer loop
    vertex 3.5086289605801566 6.077123624632402 0.9999999999999999
    vertex 1.8161999943928162 6.778150655780275 9.0
    vertex 3.5086289605801566 6.077123624632402 9.0
  endloop
endfacet
facet normal 0.1305261922200527 0.9914448613738103 0.0
  outer loop
    vertex 2.8199664825478975e-15 7.017257921160306 9.0
    vertex 1.8161999943928162 6.778150655780275 0.9999999999999999
    vertex 2.8199664825478975e-15 7.017257921160306 0.9999999999999999
  endloop
endfacet
facet normal 0.1305261922200527 0.9914448613738103 0.0
  outer loop
    vertex 1.8161999943928162 6.778150655780275 0.9999999999999999
    vertex 2.8199664825478975e-15 7.017257921160306 9.0
    vertex 1.8161999943928162 6.778150655780275 9.0
  endloop
endfacet
facet normal -0.3826834323650912 0.9238795325112863 0.0
  outer loop
    vertex -3.5086289605801637 6.077123624632397 9.0
    vertex -1.8161999943928049 6.77815065578028 0.9999999999999999
    vertex -3.5086289605801637 6.077123624632397 0.9999999999999999
  endloop
endfacet
facet normal -0.3826834323650912 0.9238795325112863 0.0
  outer loop
    vertex -1.8161999943928049 6.77815065578028 0.9999999999999999
    vertex -3.5086289605801637 6.077123624632397 9.0
    vertex -1.8161999943928049 6.77815065578028 9.0
  endloop
endfacet
facet normal 0.7933533402912353 0.6087614290087207 0.0
  outer loop
    vertex 4.9619506613874655 4.961950661387467 0.9999999999999999
    vertex 6.077123624632409 3.5086289605801455 9.0
    vertex 6.077123624632409 3.5086289605801455 0.9999999999999999
  endloop
endfacet
facet normal 0.7933533402912353 0.6087614290087207 0.0
  outer loop
    vertex 6.077123624632409 3.5086289605801455 9.0
    vertex 4.9619506613874655 4.961950661387467 0.9999999999999999
    vertex 4.9619506613874655 4.961950661387467 9.0
  endloop
endfacet
facet normal 0.9238795325112872 0.38268343236508917 0.0
  outer loop
    vertex 6.077123624632409 3.5086289605801455 0.9999999999999999
    vertex 6.778150655780279 1.8161999943928062 9.0
    vertex 6.778150655780279 1.8161999943928062 0.9999999999999999
  endloop
endfacet
facet normal 0.9238795325112872 0.38268343236508917 0.0
  outer loop
    vertex 6.778150655780279 1.8161999943928062 9.0
    vertex 6.077123624632409 3.5086289605801455 0.9999999999999999
    vertex 6.077123624632409 3.5086289605801455 9.0
  endloop
endfacet
facet normal 0.9914448613738105 0.1305261922200515 0.0
  outer loop
    vertex 6.778150655780279 1.8161999943928062 0.9999999999999999
    vertex 7.017257921160305 8.459899447643692e-15 9.0
    vertex 7.017257921160305 8.459899447643692e-15 0.9999999999999999
  endloop
endfacet
facet normal 0.9914448613738105 0.1305261922200515 0.0
  outer loop
    vertex 7.017257921160305 8.459899447643692e-15 9.0
    vertex 6.778150655780279 1.8161999943928062 0.9999999999999999
    vertex 6.778150655780279 1.8161999943928062 9.0
  endloop
endfacet
facet normal 0.9914448613738106 -0.1305261922200505 0.0
  outer loop
    vertex 7.017257921160305 8.459899447643692e-15 0.9999999999999999
    vertex 6.778150655780276 -1.8161999943928147 9.0
    vertex 6.778150655780276 -1.8161999943928147 0.9999999999999999
  endloop
endfacet
facet normal 0.9914448613738106 -0.1305261922200505 0.0
  outer loop
    vertex 6.778150655780276 -1.8161999943928147 9.0
    vertex 7.017257921160305 8.459899447643692e-15 0.9999999999999999
    vertex 7.017257921160305 8.459899447643692e-15 9.0
  endloop
endfacet
facet normal 0.9238795325112866 -0.3826834323650906 0.0
  outer loop
    vertex 6.778150655780276 -1.8161999943928147 0.9999999999999999
    vertex 6.0771236246324 -3.5086289605801624 9.0
    vertex 6.0771236246324 -3.5086289605801624 0.9999999999999999
  endloop
endfacet
facet normal 0.9238795325112866 -0.3826834323650906 0.0
  outer loop
    vertex 6.0771236246324 -3.5086289605801624 9.0
    vertex 6.778150655780276 -1.8161999943928147 0.9999999999999999
    vertex 6.778150655780276 -1.8161999943928147 9.0
  endloop
endfacet
facet normal 0.793353340291234 -0.6087614290087221 0.0
  outer loop
    vertex 6.0771236246324 -3.5086289605801624 0.9999999999999999
    vertex 4.961950661387463 -4.961950661387471 9.0
    vertex 4.961950661387463 -4.961950661387471 0.9999999999999999
  endloop
endfacet
facet normal 0.793353340291234 -0.6087614290087221 0.0
  outer loop
    vertex 4.961950661387463 -4.961950661387471 9.0
    vertex 6.0771236246324 -3.5086289605801624 0.9999999999999999
    vertex 6.0771236246324 -3.5086289605801624 9.0
  endloop
endfacet
facet normal 0.6087614290087207 -0.7933533402912354 0.0
  outer loop
    vertex 4.961950661387463 -4.961950661387471 9.0
    vertex 3.5086289605801455 -6.07712362463241 0.9999999999999999
    vertex 4.961950661387463 -4.961950661387471 0.9999999999999999
  endloop
endfacet
facet normal 0.6087614290087207 -0.7933533402912354 0.0
  outer loop
    vertex 3.5086289605801455 -6.07712362463241 0.9999999999999999
    vertex 4.961950661387463 -4.961950661387471 9.0
    vertex 3.5086289605801455 -6.07712362463241 9.0
  endloop
endfacet
facet normal -0.22861101969937292 0.9735178486663781 -3.1981944321426846e-17
  outer loop
    vertex -3.136484237224219 8.29376144531585 0.5
    vertex -0.8830277108986917 8.822940232368607 0.0
    vertex -3.1364842372242183 8.29376144531585 0.0
  endloop
endfacet
facet normal -0.22861101969937292 0.9735178486663781 -3.1981944321426846e-17
  outer loop
    vertex -0.8830277108986917 8.822940232368607 0.0
    vertex -3.136484237224219 8.29376144531585 0.5
    vertex -0.8830277108986917 8.822940232368607 0.5
  endloop
endfacet
facet normal -0.47278624808399644 0.8811771465617217 0.0
  outer loop
    vertex -5.176194546068191 7.199376521853648 0.5
    vertex -3.1364842372242183 8.29376144531585 0.0
    vertex -5.176194546068191 7.199376521853648 0.0
  endloop
endfacet
facet normal -0.47278624808399644 0.8811771465617217 0.0
  outer loop
    vertex -3.1364842372242183 8.29376144531585 0.0
    vertex -5.176194546068191 7.199376521853648 0.5
    vertex -3.136484237224219 8.29376144531585 0.5
  endloop
endfacet
facet normal -0.6847418749779106 0.7287856781329717 4.789658991261879e-16
  outer loop
    vertex -6.863155750663556 5.614365985959358 0.5
    vertex -5.176194546068191 7.199376521853648 0.0
    vertex -6.863155750663556 5.614365985959358 0.0
  endloop
endfacet
facet normal -0.6847418749779106 0.7287856781329717 4.789658991261879e-16
  outer loop
    vertex -5.176194546068191 7.199376521853648 0.0
    vertex -6.863155750663556 5.614365985959358 0.5
    vertex -5.176194546068191 7.199376521853648 0.5
  endloop
endfacet
facet normal -0.850033474681533 0.5267286701147371 -1.2486278858771381e-15
  outer loop
    vertex -6.863155750663556 5.614365985959358 0.5
    vertex -8.08240423275234 3.6467456863004184 0.0
    vertex -8.08240423275234 3.6467456863004184 0.5
  endloop
endfacet
facet normal -0.850033474681533 0.5267286701147371 -1.2486278858771381e-15
  outer loop
    vertex -8.08240423275234 3.6467456863004184 0.0
    vertex -6.863155750663556 5.614365985959358 0.5
    vertex -6.863155750663556 5.614365985959358 0.0
  endloop
endfacet
facet normal -0.9573966978323448 0.28877597368846636 -1.2585694468732918e-15
  outer loop
    vertex -8.08240423275234 3.6467456863004184 0.5
    vertex -8.750850223183576 1.4306056946522938 0.0
    vertex -8.750850223183576 1.4306056946522938 0.5
  endloop
endfacet
facet normal -0.9573966978323448 0.28877597368846636 -1.2585694468732918e-15
  outer loop
    vertex -8.750850223183576 1.4306056946522938 0.0
    vertex -8.08240423275234 3.6467456863004184 0.5
    vertex -8.08240423275234 3.6467456863004184 0.0
  endloop
endfacet
facet normal -0.9995149181987327 0.031143671880188777 0.0
  outer loop
    vertex -8.750850223183576 1.4306056946522938 0.5
    vertex -8.822940232368609 -0.8830277108986903 0.0
    vertex -8.822940232368609 -0.8830277108986903 0.5
  endloop
endfacet
facet normal -0.9995149181987327 0.031143671880188777 0.0
  outer loop
    vertex -8.822940232368609 -0.8830277108986903 0.0
    vertex -8.750850223183576 1.4306056946522938 0.5
    vertex -8.750850223183576 1.4306056946522938 0.0
  endloop
endfacet
facet normal -0.9735178486663781 -0.22861101969937261 -1.3299381272878229e-15
  outer loop
    vertex -8.822940232368609 -0.8830277108986903 0.5
    vertex -8.29376144531585 -3.1364842372242174 0.0
    vertex -8.293761445315852 -3.1364842372242174 0.5
  endloop
endfacet
facet normal -0.9735178486663781 -0.22861101969937261 -1.3299381272878229e-15
  outer loop
    vertex -8.29376144531585 -3.1364842372242174 0.0
    vertex -8.822940232368609 -0.8830277108986903 0.5
    vertex -8.822940232368609 -0.8830277108986903 0.0
  endloop
endfacet
facet normal -0.881177146561722 -0.47278624808399616 -2.8578200917972917e-15
  outer loop
    vertex -8.293761445315852 -3.1364842372242174 0.5
    vertex -7.199376521853648 -5.176194546068191 0.0
    vertex -7.199376521853649 -5.176194546068192 0.5
  endloop
endfacet
facet normal -0.881177146561722 -0.47278624808399616 -2.8578200917972917e-15
  outer loop
    vertex -7.199376521853648 -5.176194546068191 0.0
    vertex -8.293761445315852 -3.1364842372242174 0.5
    vertex -8.29376144531585 -3.1364842372242174 0.0
  endloop
endfacet
facet normal -0.7287856781329717 -0.6847418749779106 -1.4985135574565856e-15
  outer loop
    vertex -7.199376521853649 -5.176194546068192 0.5
    vertex -5.61436598595936 -6.863155750663556 0.0
    vertex -5.61436598595936 -6.863155750663556 0.5
  endloop
endfacet
facet normal -0.7287856781329717 -0.6847418749779106 -1.4985135574565856e-15
  outer loop
    vertex -5.61436598595936 -6.863155750663556 0.0
    vertex -7.199376521853649 -5.176194546068192 0.5
    vertex -7.199376521853648 -5.176194546068191 0.0
  endloop
endfacet
facet normal -0.5267286701147368 -0.8500334746815332 3.6843821050842653e-16
  outer loop
    vertex -3.6467456863004184 -8.08240423275234 0.5
    vertex -5.61436598595936 -6.863155750663556 0.0
    vertex -3.646745686300419 -8.08240423275234 0.0
  endloop
endfacet
facet normal -0.5267286701147368 -0.8500334746815332 3.6843821050842653e-16
  outer loop
    vertex -5.61436598595936 -6.863155750663556 0.0
    vertex -3.6467456863004184 -8.08240423275234 0.5
    vertex -5.61436598595936 -6.863155750663556 0.5
  endloop
endfacet
facet normal -0.2887759736884667 -0.9573966978323448 0.0
  outer loop
    vertex -1.4306056946522951 -8.750850223183576 0.5
    vertex -3.646745686300419 -8.08240423275234 0.0
    vertex -1.4306056946522938 -8.750850223183576 0.0
  endloop
endfacet
facet normal -0.2887759736884667 -0.9573966978323448 0.0
  outer loop
    vertex -3.646745686300419 -8.08240423275234 0.0
    vertex -1.4306056946522951 -8.750850223183576 0.5
    vertex -3.6467456863004184 -8.08240423275234 0.5
  endloop
endfacet
facet normal -0.03114367188018941 -0.9995149181987327 -8.713798497962228e-18
  outer loop
    vertex 0.8830277108986889 -8.82294023236861 0.5
    vertex -1.4306056946522938 -8.750850223183576 0.0
    vertex 0.8830277108986875 -8.82294023236861 0.0
  endloop
endfacet
facet normal -0.03114367188018941 -0.9995149181987327 -8.713798497962228e-18
  outer loop
    vertex -1.4306056946522938 -8.750850223183576 0.0
    vertex 0.8830277108986889 -8.82294023236861 0.5
    vertex -1.4306056946522951 -8.750850223183576 0.5
  endloop
endfacet
facet normal 0.22861101969937275 -0.9735178486663781 -9.594583296428048e-17
  outer loop
    vertex 3.136484237224217 -8.293761445315852 0.5
    vertex 0.8830277108986875 -8.82294023236861 0.0
    vertex 3.136484237224217 -8.293761445315852 0.0
  endloop
endfacet
facet normal 0.22861101969937275 -0.9735178486663781 -9.594583296428048e-17
  outer loop
    vertex 0.8830277108986875 -8.82294023236861 0.0
    vertex 3.136484237224217 -8.293761445315852 0.5
    vertex 0.8830277108986889 -8.82294023236861 0.5
  endloop
endfacet
facet normal 0.47278624808399605 -0.881177146561722 -3.3070635619495764e-16
  outer loop
    vertex 5.176194546068191 -7.199376521853651 0.5
    vertex 3.136484237224217 -8.293761445315852 0.0
    vertex 5.176194546068191 -7.199376521853651 0.0
  endloop
endfacet
facet normal 0.47278624808399605 -0.881177146561722 -3.3070635619495764e-16
  outer loop
    vertex 3.136484237224217 -8.293761445315852 0.0
    vertex 5.176194546068191 -7.199376521853651 0.5
    vertex 3.136484237224217 -8.293761445315852 0.5
  endloop
endfacet
facet normal 0.6847418749779108 -0.7287856781329715 -4.78965899126188e-16
  outer loop
    vertex 6.863155750663553 -5.6143659859593615 0.5
    vertex 5.176194546068191 -7.199376521853651 0.0
    vertex 6.863155750663553 -5.6143659859593615 0.0
  endloop
endfacet
facet normal 0.6847418749779108 -0.7287856781329715 -4.78965899126188e-16
  outer loop
    vertex 5.176194546068191 -7.199376521853651 0.0
    vertex 6.863155750663553 -5.6143659859593615 0.5
    vertex 5.176194546068191 -7.199376521853651 0.5
  endloop
endfacet
facet normal 0.8500334746815327 -0.5267286701147378 0.0
  outer loop
    vertex 8.082404232752339 -3.6467456863004233 0.0
    vertex 6.863155750663553 -5.6143659859593615 0.5
    vertex 6.863155750663553 -5.6143659859593615 0.0
  endloop
endfacet
facet normal 0.8500334746815327 -0.5267286701147378 0.0
  outer loop
    vertex 6.863155750663553 -5.6143659859593615 0.5
    vertex 8.082404232752339 -3.6467456863004233 0.0
    vertex 8.082404232752339 -3.6467456863004233 0.5
  endloop
endfacet
facet normal 0.9573966978323448 -0.28877597368846675 -8.079765467137454e-17
  outer loop
    vertex 8.750850223183576 -1.4306056946522938 0.0
    vertex 8.082404232752339 -3.6467456863004233 0.5
    vertex 8.082404232752339 -3.6467456863004233 0.0
  endloop
endfacet
facet normal 0.9573966978323448 -0.28877597368846675 -8.079765467137454e-17
  outer loop
    vertex 8.082404232752339 -3.6467456863004233 0.5
    vertex 8.750850223183576 -1.4306056946522938 0.0
    vertex 8.750850223183576 -1.4306056946522938 0.5
  endloop
endfacet
facet normal 0.9995149181987327 -0.031143671880189093 1.4026715412415794e-15
  outer loop
    vertex 8.822940232368609 0.8830277108986875 0.0
    vertex 8.750850223183576 -1.4306056946522938 0.5
    vertex 8.750850223183576 -1.4306056946522938 0.0
  endloop
endfacet
facet normal 0.9995149181987327 -0.031143671880189093 1.4026715412415794e-15
  outer loop
    vertex 8.750850223183576 -1.4306056946522938 0.5
    vertex 8.822940232368609 0.8830277108986875 0.0
    vertex 8.822940232368609 0.8830277108986875 0.5
  endloop
endfacet
facet normal 0.9735178486663781 0.22861101969937264 1.265974238644969e-15
  outer loop
    vertex 8.293761445315852 3.1364842372242143 0.0
    vertex 8.822940232368609 0.8830277108986875 0.5
    vertex 8.822940232368609 0.8830277108986875 0.0
  endloop
endfacet
facet normal 0.9735178486663781 0.22861101969937264 1.265974238644969e-15
  outer loop
    vertex 8.822940232368609 0.8830277108986875 0.5
    vertex 8.293761445315852 3.1364842372242143 0.0
    vertex 8.293761445315852 3.1364842372242143 0.5
  endloop
endfacet
facet normal 0.8811771465617221 0.47278624808399555 -1.9842381371697442e-16
  outer loop
    vertex 7.199376521853649 5.176194546068192 0.0
    vertex 8.293761445315852 3.1364842372242143 0.5
    vertex 8.293761445315852 3.1364842372242143 0.0
  endloop
endfacet
facet normal 0.8811771465617221 0.47278624808399555 -1.9842381371697442e-16
  outer loop
    vertex 8.293761445315852 3.1364842372242143 0.5
    vertex 7.199376521853649 5.176194546068192 0.0
    vertex 7.199376521853649 5.176194546068192 0.5
  endloop
endfacet
facet normal 0.7287856781329715 0.684741874977911 -5.097738291651987e-16
  outer loop
    vertex 5.61436598595936 6.863155750663552 0.0
    vertex 7.199376521853649 5.176194546068192 0.5
    vertex 7.199376521853649 5.176194546068192 0.0
  endloop
endfacet
facet normal 0.7287856781329715 0.684741874977911 -5.097738291651987e-16
  outer loop
    vertex 7.199376521853649 5.176194546068192 0.5
    vertex 5.61436598595936 6.863155750663552 0.0
    vertex 5.614365985959362 6.863155750663552 0.5
  endloop
endfacet
facet normal 0.5267286701147378 0.8500334746815327 0.0
  outer loop
    vertex 3.6467456863004237 8.082404232752337 0.5
    vertex 5.61436598595936 6.863155750663552 0.0
    vertex 3.6467456863004237 8.082404232752337 0.0
  endloop
endfacet
facet normal 0.5267286701147378 0.8500334746815327 0.0
  outer loop
    vertex 5.61436598595936 6.863155750663552 0.0
    vertex 3.6467456863004237 8.082404232752337 0.5
    vertex 5.614365985959362 6.863155750663552 0.5
  endloop
endfacet
facet normal 0.2887759736884665 0.9573966978323448 8.079765467137448e-17
  outer loop
    vertex 1.4306056946522925 8.750850223183575 0.5
    vertex 3.6467456863004237 8.082404232752337 0.0
    vertex 1.4306056946522925 8.750850223183575 0.0
  endloop
endfacet
facet normal 0.2887759736884665 0.9573966978323448 8.079765467137448e-17
  outer loop
    vertex 3.6467456863004237 8.082404232752337 0.0
    vertex 1.4306056946522925 8.750850223183575 0.5
    vertex 3.6467456863004237 8.082404232752337 0.5
  endloop
endfacet
facet normal 0.031143671880188767 0.9995149181987327 -3.48551939918482e-17
  outer loop
    vertex -0.8830277108986917 8.822940232368607 0.5
    vertex 1.4306056946522925 8.750850223183575 0.0
    vertex -0.8830277108986917 8.822940232368607 0.0
  endloop
endfacet
facet normal 0.031143671880188767 0.9995149181987327 -3.48551939918482e-17
  outer loop
    vertex 1.4306056946522925 8.750850223183575 0.0
    vertex -0.8830277108986917 8.822940232368607 0.5
    vertex 1.4306056946522925 8.750850223183575 0.5
  endloop
endfacet
facet normal 0.007699253391982148 0.24709734465105254 0.9689600733588589
  outer loop
    vertex 1.8161999943928162 6.778150655780275 0.9999999999999999
    vertex 1.4306056946522925 8.750850223183575 0.5
    vertex -0.8830277108986917 8.822940232368607 0.5
  endloop
endfacet
facet normal 0.03733561511366079 0.2835921520507099 0.958217899613304
  outer loop
    vertex 1.8161999943928162 6.778150655780275 0.9999999999999999
    vertex -0.8830277108986917 8.822940232368607 0.5
    vertex 2.8199664825478975e-15 7.017257921160306 0.9999999999999999
  endloop
endfacet
facet normal -0.0565165910954946 0.24067042021681795 0.9689600733588589
  outer loop
    vertex 2.8199664825478975e-15 7.017257921160306 0.9999999999999999
    vertex -0.8830277108986917 8.822940232368607 0.5
    vertex -3.136484237224219 8.29376144531585 0.5
  endloop
endfacet
facet normal -0.037335615113660445 0.28359215205070964 0.958217899613304
  outer loop
    vertex 2.8199664825478975e-15 7.017257921160306 0.9999999999999999
    vertex -3.136484237224219 8.29376144531585 0.5
    vertex -1.8161999943928049 6.77815065578028 0.9999999999999999
  endloop
endfacet
facet normal -0.11688092329789634 0.21784220437148125 0.9689600733588589
  outer loop
    vertex -1.8161999943928049 6.77815065578028 0.9999999999999999
    vertex -3.136484237224219 8.29376144531585 0.5
    vertex -5.176194546068191 7.199376521853648 0.5
  endloop
endfacet
facet normal -0.1094624848710068 0.26426581554664313 0.9582178996133042
  outer loop
    vertex -1.8161999943928049 6.77815065578028 0.9999999999999999
    vertex -5.176194546068191 7.199376521853648 0.5
    vertex -3.5086289605801637 6.077123624632397 0.9999999999999999
  endloop
endfacet
facet normal -0.16928001373240484 0.18016840229949319 0.9689600733588587
  outer loop
    vertex -3.5086289605801637 6.077123624632397 0.9999999999999999
    vertex -5.176194546068191 7.199376521853648 0.5
    vertex -6.863155750663556 5.614365985959358 0.5
  endloop
endfacet
facet normal -0.17412966717970288 0.2269302004329832 0.958217899613304
  outer loop
    vertex -3.5086289605801637 6.077123624632397 0.9999999999999999
    vertex -6.863155750663556 5.614365985959358 0.5
    vertex -4.961950661387468 4.961950661387467 0.9999999999999999
  endloop
endfacet
facet normal -0.21014295097949934 0.13021642135315648 0.9689600733588589
  outer loop
    vertex -4.961950661387468 4.961950661387467 0.9999999999999999
    vertex -6.863155750663556 5.614365985959358 0.5
    vertex -8.08240423275234 3.6467456863004184 0.5
  endloop
endfacet
facet normal -0.22693020043298337 0.17412966717970307 0.958217899613304
  outer loop
    vertex -4.961950661387468 4.961950661387467 0.9999999999999999
    vertex -8.08240423275234 3.6467456863004184 0.5
    vertex -6.077123624632404 3.5086289605801553 0.9999999999999999
  endloop
endfacet
facet normal -0.23668499339498733 0.0713904064844128 0.9689600733588589
  outer loop
    vertex -6.077123624632404 3.5086289605801553 0.9999999999999999
    vertex -8.08240423275234 3.6467456863004184 0.5
    vertex -8.750850223183576 1.4306056946522938 0.5
  endloop
endfacet
facet normal -0.26426581554664363 0.10946248487100609 0.9582178996133042
  outer loop
    vertex -6.077123624632404 3.5086289605801553 0.9999999999999999
    vertex -8.750850223183576 1.4306056946522938 0.5
    vertex -6.778150655780279 1.8161999943928007 0.9999999999999999
  endloop
endfacet
facet normal -0.2470973446510527 0.007699253391982096 0.9689600733588589
  outer loop
    vertex -6.778150655780279 1.8161999943928007 0.9999999999999999
    vertex -8.750850223183576 1.4306056946522938 0.5
    vertex -8.822940232368609 -0.8830277108986903 0.5
  endloop
endfacet
facet normal -0.2835921520507094 0.03733561511366033 0.958217899613304
  outer loop
    vertex -6.778150655780279 1.8161999943928007 0.9999999999999999
    vertex -8.822940232368609 -0.8830277108986903 0.5
    vertex -7.017257921160305 -1.4099832412739487e-15 0.9999999999999999
  endloop
endfacet
facet normal -0.2406704202168179 -0.05651659109549451 0.9689600733588589
  outer loop
    vertex -7.017257921160305 -1.4099832412739487e-15 0.9999999999999999
    vertex -8.822940232368609 -0.8830277108986903 0.5
    vertex -8.293761445315852 -3.1364842372242174 0.5
  endloop
endfacet
facet normal -0.28359215205070837 -0.037335615113660806 0.9582178996133044
  outer loop
    vertex -6.778150655780273 -1.8161999943928147 0.9999999999999999
    vertex -7.017257921160305 -1.4099832412739487e-15 0.9999999999999999
    vertex -8.293761445315852 -3.1364842372242174 0.5
  endloop
endfacet
facet normal -0.21784220437148116 -0.11688092329789618 0.9689600733588589
  outer loop
    vertex -6.778150655780273 -1.8161999943928147 0.9999999999999999
    vertex -8.293761445315852 -3.1364842372242174 0.5
    vertex -7.199376521853649 -5.176194546068192 0.5
  endloop
endfacet
facet normal -0.2642658155466427 -0.10946248487100657 0.9582178996133044
  outer loop
    vertex -6.077123624632394 -3.5086289605801646 0.9999999999999999
    vertex -6.778150655780273 -1.8161999943928147 0.9999999999999999
    vertex -7.199376521853649 -5.176194546068192 0.5
  endloop
endfacet
facet normal -0.18016840229949288 -0.1692800137324047 0.9689600733588589
  outer loop
    vertex -5.61436598595936 -6.863155750663556 0.5
    vertex -6.077123624632394 -3.5086289605801646 0.9999999999999999
    vertex -7.199376521853649 -5.176194546068192 0.5
  endloop
endfacet
facet normal -0.22693020043298395 -0.17412966717970282 0.958217899613304
  outer loop
    vertex -4.9619506613874735 -4.961950661387464 0.9999999999999999
    vertex -6.077123624632394 -3.5086289605801646 0.9999999999999999
    vertex -5.61436598595936 -6.863155750663556 0.5
  endloop
endfacet
facet normal -0.13021642135315623 -0.21014295097949937 0.9689600733588589
  outer loop
    vertex -3.6467456863004184 -8.08240423275234 0.5
    vertex -4.9619506613874735 -4.961950661387464 0.9999999999999999
    vertex -5.61436598595936 -6.863155750663556 0.5
  endloop
endfacet
facet normal -0.17412966717970352 -0.22693020043298362 0.958217899613304
  outer loop
    vertex -3.508628960580163 -6.077123624632399 0.9999999999999999
    vertex -4.9619506613874735 -4.961950661387464 0.9999999999999999
    vertex -3.6467456863004184 -8.08240423275234 0.5
  endloop
endfacet
facet normal -0.07139040648441293 -0.23668499339498722 0.9689600733588589
  outer loop
    vertex -1.4306056946522951 -8.750850223183576 0.5
    vertex -3.508628960580163 -6.077123624632399 0.9999999999999999
    vertex -3.6467456863004184 -8.08240423275234 0.5
  endloop
endfacet
facet normal -0.10946248487100654 -0.26426581554664386 0.958217899613304
  outer loop
    vertex -1.4306056946522951 -8.750850223183576 0.5
    vertex -1.8161999943928049 -6.778150655780279 0.9999999999999999
    vertex -3.508628960580163 -6.077123624632399 0.9999999999999999
  endloop
endfacet
facet normal -0.0076992533919822805 -0.24709734465105287 0.9689600733588587
  outer loop
    vertex 0.8830277108986889 -8.82294023236861 0.5
    vertex -1.8161999943928049 -6.778150655780279 0.9999999999999999
    vertex -1.4306056946522951 -8.750850223183576 0.5
  endloop
endfacet
facet normal -0.037335615113660035 -0.283592152050709 0.9582178996133042
  outer loop
    vertex 0.8830277108986889 -8.82294023236861 0.5
    vertex 2.8199664825478975e-15 -7.017257921160305 0.9999999999999999
    vertex -1.8161999943928049 -6.778150655780279 0.9999999999999999
  endloop
endfacet
facet normal 0.05651659109549461 -0.24067042021681775 0.9689600733588589
  outer loop
    vertex 3.136484237224217 -8.293761445315852 0.5
    vertex 2.8199664825478975e-15 -7.017257921160305 0.9999999999999999
    vertex 0.8830277108986889 -8.82294023236861 0.5
  endloop
endfacet
facet normal 0.03733561511366039 -0.28359215205070926 0.9582178996133042
  outer loop
    vertex 3.136484237224217 -8.293761445315852 0.5
    vertex 1.816199994392809 -6.778150655780277 0.9999999999999999
    vertex 2.8199664825478975e-15 -7.017257921160305 0.9999999999999999
  endloop
endfacet
facet normal 0.11688092329789619 -0.21784220437148125 0.9689600733588589
  outer loop
    vertex 5.176194546068191 -7.199376521853651 0.5
    vertex 1.816199994392809 -6.778150655780277 0.9999999999999999
    vertex 3.136484237224217 -8.293761445315852 0.5
  endloop
endfacet
facet normal 0.10946248487100635 -0.26426581554664463 0.958217899613304
  outer loop
    vertex 5.176194546068191 -7.199376521853651 0.5
    vertex 3.5086289605801455 -6.07712362463241 0.9999999999999999
    vertex 1.816199994392809 -6.778150655780277 0.9999999999999999
  endloop
endfacet
facet normal 0.16928001373240456 -0.18016840229949263 0.9689600733588589
  outer loop
    vertex 6.863155750663553 -5.6143659859593615 0.5
    vertex 3.5086289605801455 -6.07712362463241 0.9999999999999999
    vertex 5.176194546068191 -7.199376521853651 0.5
  endloop
endfacet
facet normal 0.17412966717970293 -0.22693020043298348 0.958217899613304
  outer loop
    vertex 6.863155750663553 -5.6143659859593615 0.5
    vertex 4.961950661387463 -4.961950661387471 0.9999999999999999
    vertex 3.5086289605801455 -6.07712362463241 0.9999999999999999
  endloop
endfacet
facet normal 0.21014295097949917 -0.1302164213531565 0.9689600733588589
  outer loop
    vertex 8.082404232752339 -3.6467456863004233 0.5
    vertex 4.961950661387463 -4.961950661387471 0.9999999999999999
    vertex 6.863155750663553 -5.6143659859593615 0.5
  endloop
endfacet
facet normal 0.22693020043298345 -0.17412966717970368 0.958217899613304
  outer loop
    vertex 8.082404232752339 -3.6467456863004233 0.5
    vertex 6.0771236246324 -3.5086289605801624 0.9999999999999999
    vertex 4.961950661387463 -4.961950661387471 0.9999999999999999
  endloop
endfacet
facet normal 0.23668499339498736 -0.07139040648441292 0.9689600733588589
  outer loop
    vertex 8.750850223183576 -1.4306056946522938 0.5
    vertex 6.0771236246324 -3.5086289605801624 0.9999999999999999
    vertex 8.082404232752339 -3.6467456863004233 0.5
  endloop
endfacet
facet normal 0.26426581554664413 -0.1094624848710071 0.958217899613304
  outer loop
    vertex 8.750850223183576 -1.4306056946522938 0.5
    vertex 6.778150655780276 -1.8161999943928147 0.9999999999999999
    vertex 6.0771236246324 -3.5086289605801624 0.9999999999999999
  endloop
endfacet
facet normal 0.24709734465105276 -0.007699253391982175 0.9689600733588589
  outer loop
    vertex 8.822940232368609 0.8830277108986875 0.5
    vertex 6.778150655780276 -1.8161999943928147 0.9999999999999999
    vertex 8.750850223183576 -1.4306056946522938 0.5
  endloop
endfacet
facet normal 0.2835921520507091 -0.0373356151136601 0.9582178996133042
  outer loop
    vertex 8.822940232368609 0.8830277108986875 0.5
    vertex 7.017257921160305 8.459899447643692e-15 0.9999999999999999
    vertex 6.778150655780276 -1.8161999943928147 0.9999999999999999
  endloop
endfacet
facet normal 0.24067042021681825 0.056516591095494575 0.9689600733588587
  outer loop
    vertex 8.822940232368609 0.8830277108986875 0.5
    vertex 8.293761445315852 3.1364842372242143 0.5
    vertex 7.017257921160305 8.459899447643692e-15 0.9999999999999999
  endloop
endfacet
facet normal 0.2835921520507095 0.03733561511366036 0.958217899613304
  outer loop
    vertex 8.293761445315852 3.1364842372242143 0.5
    vertex 6.778150655780279 1.8161999943928062 0.9999999999999999
    vertex 7.017257921160305 8.459899447643692e-15 0.9999999999999999
  endloop
endfacet
facet normal 0.21784220437148155 0.11688092329789622 0.9689600733588589
  outer loop
    vertex 8.293761445315852 3.1364842372242143 0.5
    vertex 7.199376521853649 5.176194546068192 0.5
    vertex 6.778150655780279 1.8161999943928062 0.9999999999999999
  endloop
endfacet
facet normal 0.26426581554664424 0.10946248487100653 0.958217899613304
  outer loop
    vertex 7.199376521853649 5.176194546068192 0.5
    vertex 6.077123624632409 3.5086289605801455 0.9999999999999999
    vertex 6.778150655780279 1.8161999943928062 0.9999999999999999
  endloop
endfacet
facet normal 0.18016840229949269 0.16928001373240448 0.9689600733588589
  outer loop
    vertex 7.199376521853649 5.176194546068192 0.5
    vertex 5.614365985959362 6.863155750663552 0.5
    vertex 6.077123624632409 3.5086289605801455 0.9999999999999999
  endloop
endfacet
facet normal 0.2269302004329832 0.17412966717970277 0.9582178996133042
  outer loop
    vertex 6.077123624632409 3.5086289605801455 0.9999999999999999
    vertex 5.614365985959362 6.863155750663552 0.5
    vertex 4.9619506613874655 4.961950661387467 0.9999999999999999
  endloop
endfacet
facet normal 0.1302164213531565 0.21014295097949928 0.9689600733588589
  outer loop
    vertex 5.614365985959362 6.863155750663552 0.5
    vertex 3.6467456863004237 8.082404232752337 0.5
    vertex 4.9619506613874655 4.961950661387467 0.9999999999999999
  endloop
endfacet
facet normal 0.17412966717970274 0.22693020043298315 0.9582178996133042
  outer loop
    vertex 4.9619506613874655 4.961950661387467 0.9999999999999999
    vertex 3.6467456863004237 8.082404232752337 0.5
    vertex 3.5086289605801566 6.077123624632402 0.9999999999999999
  endloop
endfacet
facet normal 0.07139040648441287 0.23668499339498725 0.9689600733588589
  outer loop
    vertex 3.6467456863004237 8.082404232752337 0.5
    vertex 1.4306056946522925 8.750850223183575 0.5
    vertex 3.5086289605801566 6.077123624632402 0.9999999999999999
  endloop
endfacet
facet normal 0.1094624848710071 0.26426581554664413 0.958217899613304
  outer loop
    vertex 3.5086289605801566 6.077123624632402 0.9999999999999999
    vertex 1.4306056946522925 8.750850223183575 0.5
    vertex 1.8161999943928162 6.778150655780275 0.9999999999999999
  endloop
endfacet
facet normal 0.13052619222005168 -0.9914448613738104 0.0
  outer loop
    vertex 1.816199994392809 -6.778150655780277 9.0
    vertex 2.8199664825478975e-15 -7.017257921160305 0.9999999999999999
    vertex 1.816199994392809 -6.778150655780277 0.9999999999999999
  endloop
endfacet
facet normal 0.13052619222005168 -0.9914448613738104 0.0
  outer loop
    vertex 2.8199664825478975e-15 -7.017257921160305 0.9999999999999999
    vertex 1.816199994392809 -6.778150655780277 9.0
    vertex 2.8199664825478975e-15 -7.017257921160305 9.0
  endloop
endfacet
facet normal 0.3826834323650882 -0.9238795325112876 0.0
  outer loop
    vertex 3.5086289605801455 -6.07712362463241 9.0
    vertex 1.816199994392809 -6.778150655780277 0.9999999999999999
    vertex 3.5086289605801455 -6.07712362463241 0.9999999999999999
  endloop
endfacet
facet normal 0.3826834323650882 -0.9238795325112876 0.0
  outer loop
    vertex 1.816199994392809 -6.778150655780277 0.9999999999999999
    vertex 3.5086289605801455 -6.07712362463241 9.0
    vertex 1.816199994392809 -6.778150655780277 9.0
  endloop
endfacet
facet normal 0.0 0.0 -1.0
  outer loop
    vertex -6.778150655780279 1.8161999943928007 9.0
    vertex -6.778150655780273 -1.8161999943928147 9.0
    vertex -7.017257921160305 -1.4099832412739487e-15 9.0
  endloop
endfacet
facet normal 0.0 0.0 -1.0
  outer loop
    vertex -6.778150655780273 -1.8161999943928147 9.0
    vertex -6.778150655780279 1.8161999943928007 9.0
    vertex -6.077123624632404 3.5086289605801553 9.0
  endloop
endfacet
facet normal 0.0 0.0 -1.0
  outer loop
    vertex -6.778150655780273 -1.8161999943928147 9.0
    vertex -6.077123624632404 3.5086289605801553 9.0
    vertex -6.077123624632394 -3.5086289605801646 9.0
  endloop
endfacet
facet normal 0.0 0.0 -1.0
  outer loop
    vertex -6.077123624632394 -3.5086289605801646 9.0
    vertex -6.077123624632404 3.5086289605801553 9.0
    vertex -6.008628960580152 -2.8199664825478975e-15 9.0
  endloop
endfacet
facet normal 0.0 0.0 -1.0
  outer loop
    vertex -6.008628960580152 -2.8199664825478975e-15 9.0
    vertex -6.077123624632404 3.5086289605801553 9.0
    vertex -5.803889893612809 1.5551476099527093 9.0
  endloop
endfacet
facet normal 0.0 0.0 -1.0
  outer loop
    vertex -5.803889893612809 1.5551476099527093 9.0
    vertex -6.077123624632404 3.5086289605801553 9.0
    vertex -4.961950661387468 4.961950661387467 9.0
  endloop
endfacet
facet normal 0.0 0.0 -1.0
  outer loop
    vertex -5.803889893612809 1.5551476099527093 9.0
    vertex -4.961950661387468 4.961950661387467 9.0
    vertex -5.203625321777295 3.0043144802900845 9.0
  endloop
endfacet
facet normal 0.0 0.0 -1.0
  outer loop
    vertex -5.203625321777295 3.0043144802900845 9.0
    vertex -4.961950661387468 4.961950661387467 9.0
    vertex -4.248742283660099 4.248742283660107 9.0
  endloop
endfacet
facet normal 0.0 0.0 -1.0
  outer loop
    vertex -4.248742283660099 4.248742283660107 9.0
    vertex -4.961950661387468 4.961950661387467 9.0
    vertex -3.5086289605801637 6.077123624632397 9.0
  endloop
endfacet
facet normal 0.0 0.0 -1.0
  outer loop
    vertex -4.248742283660099 4.248742283660107 9.0
    vertex -3.5086289605801637 6.077123624632397 9.0
    vertex -3.0043144802900845 5.2036253217772925 9.0
  endloop
endfacet
facet normal 0.0 0.0 -1.0
  outer loop
    vertex -3.0043144802900845 5.2036253217772925 9.0
    vertex -3.5086289605801637 6.077123624632397 9.0
    vertex -1.8161999943928049 6.77815065578028 9.0
  endloop
endfacet
facet normal 0.0 0.0 -1.0
  outer loop
    vertex -3.0043144802900845 5.2036253217772925 9.0
    vertex -1.8161999943928049 6.77815065578028 9.0
    vertex -1.555147609952705 5.803889893612809 9.0
  endloop
endfacet
facet normal 0.0 0.0 -1.0
  outer loop
    vertex -1.555147609952705 5.803889893612809 9.0
    vertex -1.8161999943928049 6.77815065578028 9.0
    vertex 2.8199664825478975e-15 7.017257921160306 9.0
  endloop
endfacet
facet normal 0.0 0.0 -1.0
  outer loop
    vertex -1.555147609952705 5.803889893612809 9.0
    vertex 2.8199664825478975e-15 7.017257921160306 9.0
    vertex 4.229949723821846e-15 6.008628960580153 9.0
  endloop
endfacet
facet normal 0.0 0.0 -1.0
  outer loop
    vertex 4.229949723821846e-15 6.008628960580153 9.0
    vertex 2.8199664825478975e-15 7.017257921160306 9.0
    vertex 1.8161999943928162 6.778150655780275 9.0
  endloop
endfacet
facet normal 0.0 0.0 -1.0
  outer loop
    vertex 4.229949723821846e-15 6.008628960580153 9.0
    vertex 1.8161999943928162 6.778150655780275 9.0
    vertex 1.5551476099527108 5.803889893612807 9.0
  endloop
endfacet
facet normal 0.0 0.0 -1.0
  outer loop
    vertex 1.5551476099527108 5.803889893612807 9.0
    vertex 1.8161999943928162 6.778150655780275 9.0
    vertex 3.0043144802900774 5.203625321777298 9.0
  endloop
endfacet
facet normal 0.0 0.0 -1.0
  outer loop
    vertex 3.0043144802900774 5.203625321777298 9.0
    vertex 1.8161999943928162 6.778150655780275 9.0
    vertex 3.5086289605801566 6.077123624632402 9.0
  endloop
endfacet
facet normal 0.0 0.0 -1.0
  outer loop
    vertex 3.0043144802900774 5.203625321777298 9.0
    vertex 3.5086289605801566 6.077123624632402 9.0
    vertex 4.248742283660103 4.248742283660102 9.0
  endloop
endfacet
facet normal 0.0 0.0 -1.0
  outer loop
    vertex 4.248742283660103 4.248742283660102 9.0
    vertex 3.5086289605801566 6.077123624632402 9.0
    vertex 4.9619506613874655 4.961950661387467 9.0
  endloop
endfacet
facet normal 0.0 0.0 -1.0
  outer loop
    vertex 4.248742283660103 4.248742283660102 9.0
    vertex 4.9619506613874655 4.961950661387467 9.0
    vertex 5.203625321777305 3.004314480290069 9.0
  endloop
endfacet
facet normal 0.0 0.0 -1.0
  outer loop
    vertex 5.203625321777305 3.004314480290069 9.0
    vertex 4.9619506613874655 4.961950661387467 9.0
    vertex 6.077123624632409 3.5086289605801455 9.0
  endloop
endfacet
facet normal 0.0 0.0 -1.0
  outer loop
    vertex 5.203625321777305 3.004314480290069 9.0
    vertex 6.077123624632409 3.5086289605801455 9.0
    vertex 5.8038898936128085 1.5551476099527066 9.0
  endloop
endfacet
facet normal 0.0 0.0 -1.0
  outer loop
    vertex 5.8038898936128085 1.5551476099527066 9.0
    vertex 6.077123624632409 3.5086289605801455 9.0
    vertex 6.008628960580152 -1.4099832412739487e-15 9.0
  endloop
endfacet
facet normal 0.0 0.0 -1.0
  outer loop
    vertex 6.008628960580152 -1.4099832412739487e-15 9.0
    vertex 6.077123624632409 3.5086289605801455 9.0
    vertex 6.0771236246324 -3.5086289605801624 9.0
  endloop
endfacet
facet normal 0.0 0.0 -1.0
  outer loop
    vertex 6.0771236246324 -3.5086289605801624 9.0
    vertex 6.077123624632409 3.5086289605801455 9.0
    vertex 6.778150655780276 -1.8161999943928147 9.0
  endloop
endfacet
facet normal 0.0 0.0 -1.0
  outer loop
    vertex 6.778150655780276 -1.8161999943928147 9.0
    vertex 6.077123624632409 3.5086289605801455 9.0
    vertex 6.778150655780279 1.8161999943928062 9.0
  endloop
endfacet
facet normal 0.0 0.0 -1.0
  outer loop
    vertex 6.778150655780276 -1.8161999943928147 9.0
    vertex 6.778150655780279 1.8161999943928062 9.0
    vertex 7.017257921160305 8.459899447643692e-15 9.0
  endloop
endfacet
facet normal 0.0 0.0 -1.0
  outer loop
    vertex -6.077123624632394 -3.5086289605801646 9.0
    vertex -5.803889893612809 -1.555147609952705 9.0
    vertex -4.9619506613874735 -4.961950661387464 9.0
  endloop
endfacet
facet normal 0.0 0.0 -1.0
  outer loop
    vertex -5.803889893612809 -1.555147609952705 9.0
    vertex -6.077123624632394 -3.5086289605801646 9.0
    vertex -6.008628960580152 -2.8199664825478975e-15 9.0
  endloop
endfacet
facet normal 0.0 0.0 -1.0
  outer loop
    vertex -4.9619506613874735 -4.961950661387464 9.0
    vertex -5.803889893612809 -1.555147609952705 9.0
    vertex -5.203625321777299 -3.004314480290075 9.0
  endloop
endfacet
facet normal 0.0 0.0 -1.0
  outer loop
    vertex -4.9619506613874735 -4.961950661387464 9.0
    vertex -5.203625321777299 -3.004314480290075 9.0
    vertex -4.248742283660101 -4.248742283660104 9.0
  endloop
endfacet
facet normal 0.0 0.0 -1.0
  outer loop
    vertex -4.9619506613874735 -4.961950661387464 9.0
    vertex -4.248742283660101 -4.248742283660104 9.0
    vertex -3.508628960580163 -6.077123624632399 9.0
  endloop
endfacet
facet normal 0.0 0.0 -1.0
  outer loop
    vertex -3.508628960580163 -6.077123624632399 9.0
    vertex -4.248742283660101 -4.248742283660104 9.0
    vertex -3.0043144802900765 -5.203625321777298 9.0
  endloop
endfacet
facet normal 0.0 0.0 -1.0
  outer loop
    vertex -3.508628960580163 -6.077123624632399 9.0
    vertex -3.0043144802900765 -5.203625321777298 9.0
    vertex -1.8161999943928049 -6.778150655780279 9.0
  endloop
endfacet
facet normal 0.0 0.0 -1.0
  outer loop
    vertex -1.8161999943928049 -6.778150655780279 9.0
    vertex -3.0043144802900765 -5.203625321777298 9.0
    vertex -1.555147609952708 -5.803889893612809 9.0
  endloop
endfacet
facet normal 0.0 0.0 -1.0
  outer loop
    vertex -1.8161999943928049 -6.778150655780279 9.0
    vertex -1.555147609952708 -5.803889893612809 9.0
    vertex 2.8199664825478975e-15 -7.017257921160305 9.0
  endloop
endfacet
facet normal 0.0 0.0 -1.0
  outer loop
    vertex 2.8199664825478975e-15 -7.017257921160305 9.0
    vertex -1.555147609952708 -5.803889893612809 9.0
    vertex 2.8199664825478975e-15 -6.008628960580152 9.0
  endloop
endfacet
facet normal 0.0 0.0 -1.0
  outer loop
    vertex 2.8199664825478975e-15 -7.017257921160305 9.0
    vertex 2.8199664825478975e-15 -6.008628960580152 9.0
    vertex 1.555147609952705 -5.803889893612809 9.0
  endloop
endfacet
facet normal 0.0 0.0 -1.0
  outer loop
    vertex 2.8199664825478975e-15 -7.017257921160305 9.0
    vertex 1.555147609952705 -5.803889893612809 9.0
    vertex 1.816199994392809 -6.778150655780277 9.0
  endloop
endfacet
facet normal 0.0 0.0 -1.0
  outer loop
    vertex 1.816199994392809 -6.778150655780277 9.0
    vertex 1.555147609952705 -5.803889893612809 9.0
    vertex 3.0043144802900774 -5.203625321777298 9.0
  endloop
endfacet
facet normal 0.0 0.0 -1.0
  outer loop
    vertex 1.816199994392809 -6.778150655780277 9.0
    vertex 3.0043144802900774 -5.203625321777298 9.0
    vertex 3.5086289605801455 -6.07712362463241 9.0
  endloop
endfacet
facet normal 0.0 0.0 -1.0
  outer loop
    vertex 3.5086289605801455 -6.07712362463241 9.0
    vertex 3.0043144802900774 -5.203625321777298 9.0
    vertex 4.248742283660101 -4.248742283660104 9.0
  endloop
endfacet
facet normal 0.0 0.0 -1.0
  outer loop
    vertex 3.5086289605801455 -6.07712362463241 9.0
    vertex 4.248742283660101 -4.248742283660104 9.0
    vertex 4.961950661387463 -4.961950661387471 9.0
  endloop
endfacet
facet normal 0.0 0.0 -1.0
  outer loop
    vertex 4.961950661387463 -4.961950661387471 9.0
    vertex 4.248742283660101 -4.248742283660104 9.0
    vertex 5.203625321777294 -3.0043144802900845 9.0
  endloop
endfacet
facet normal 0.0 0.0 -1.0
  outer loop
    vertex 4.961950661387463 -4.961950661387471 9.0
    vertex 5.203625321777294 -3.0043144802900845 9.0
    vertex 6.0771236246324 -3.5086289605801624 9.0
  endloop
endfacet
facet normal 0.0 0.0 -1.0
  outer loop
    vertex 6.0771236246324 -3.5086289605801624 9.0
    vertex 5.203625321777294 -3.0043144802900845 9.0
    vertex 5.8038898936128085 -1.555147609952715 9.0
  endloop
endfacet
facet normal 0.0 0.0 -1.0
  outer loop
    vertex 6.0771236246324 -3.5086289605801624 9.0
    vertex 5.8038898936128085 -1.555147609952715 9.0
    vertex 6.008628960580152 -1.4099832412739487e-15 9.0
  endloop
endfacet
endsolid ĐẾ LÒ XO - TRỤC NHỰA - 2
