solid ĐẾ LÒ XO - TRỤC NHỰA - 3
facet normal 0.2570365241963422 0.10646801434736497 0.960519019671132
  outer loop
    vertex 9.659258262890683 2.5881904510252025 0.9999999999999999
    vertex 8.660254037844387 4.999999999999995 0.9999999999999999
    vertex 6.2535556067294165 1.7886165413677324 1.9999999999999998
  endloop
endfacet
facet normal 0.2758341668281677 0.036314256982867395 0.9605190196711322
  outer loop
    vertex 10.000000000000005 -1.4099832412739487e-15 0.9999999999999999
    vertex 9.659258262890683 2.5881904510252025 0.9999999999999999
    vertex 6.503398891966117 0.10913162000569493 1.9999999999999998
  endloop
endfacet
facet normal -0.2739264700457863 0.031397061508143816 0.9612380108677084
  outer loop
    vertex -6.310046290090148 1.5777904409111896 1.9999999999999998
    vertex -9.999999999999996 -1.4099832412739487e-15 0.9999999999999999
    vertex -6.503398891966117 -0.10913162000569634 1.9999999999999998
  endloop
endfacet
facet normal 0.2564664944428608 -0.10122461998585686 0.9612380108677087
  outer loop
    vertex 9.659258262890683 -2.588190451025209 0.9999999999999999
    vertex 6.310046290090147 -1.577790440911191 1.9999999999999998
    vertex 5.686674461389081 -3.157188690701961 1.9999999999999998
  endloop
endfacet
facet normal -0.2215287510745761 0.16415388789312846 0.9612380108677084
  outer loop
    vertex -4.675765165818225 4.521429748722413 1.9999999999999998
    vertex -8.660254037844382 5.000000000000001 0.9999999999999999
    vertex -5.686674461389074 3.157188690701978 1.9999999999999998
  endloop
endfacet
facet normal 0.27583416682816797 -0.03631425698286736 0.9605190196711322
  outer loop
    vertex 10.000000000000005 -1.4099832412739487e-15 0.9999999999999999
    vertex 6.310046290090147 -1.577790440911191 1.9999999999999998
    vertex 9.659258262890683 -2.588190451025209 0.9999999999999999
  endloop
endfacet
facet normal 0.10646801434736523 -0.25703652419634193 0.9605190196711322
  outer loop
    vertex 4.999999999999992 -8.660254037844386 0.9999999999999999
    vertex 1.7886165413677324 -6.253555606729415 1.9999999999999998
    vertex 2.5881904510252025 -9.659258262890683 0.9999999999999999
  endloop
endfacet
facet normal 0.7933533402912342 -0.6087614290087222 -2.2170046216025543e-15
  outer loop
    vertex 8.660254037844382 -5.000000000000003 0.0
    vertex 7.071067811865472 -7.071067811865475 0.9999999999999999
    vertex 7.071067811865472 -7.071067811865475 0.0
  endloop
endfacet
facet normal 0.7933533402912342 -0.6087614290087222 -2.2170046216025543e-15
  outer loop
    vertex 7.071067811865472 -7.071067811865475 0.9999999999999999
    vertex 8.660254037844382 -5.000000000000003 0.0
    vertex 8.660254037844387 -5.000000000000006 0.9999999999999999
  endloop
endfacet
facet normal 0.03631425698286706 0.275834166828168 0.9605190196711322
  outer loop
    vertex 2.588190451025211 9.659258262890683 0.9999999999999999
    vertex 0.0 10.000000000000004 0.9999999999999999
    vertex 1.5777904409111854 6.31004629009015 1.9999999999999998
  endloop
endfacet
facet normal 0.25292581258271984 0.1097725821526583 0.9612380108677084
  outer loop
    vertex 8.660254037844387 4.999999999999995 0.9999999999999999
    vertex 5.577542841383377 3.346210201264143 1.9999999999999998
    vertex 6.2535556067294165 1.7886165413677324 1.9999999999999998
  endloop
endfacet
facet normal -0.21589633961760846 -0.17149418941412967 0.9612380108677087
  outer loop
    vertex -4.521429748722411 -4.675765165818229 1.9999999999999998
    vertex -5.577542841383372 -3.3462102012641486 1.9999999999999998
    vertex -7.071067811865475 -7.071067811865472 0.9999999999999999
  endloop
endfacet
facet normal -0.03631425698286716 0.2758341668281678 0.9605190196711322
  outer loop
    vertex 0.0 10.000000000000004 0.9999999999999999
    vertex -2.588190451025204 9.659258262890683 0.9999999999999999
    vertex -0.10913162000569353 6.503398891966117 1.9999999999999998
  endloop
endfacet
facet normal 0.03139706150814369 0.27392647004578596 0.9612380108677085
  outer loop
    vertex 1.5777904409111854 6.31004629009015 1.9999999999999998
    vertex 0.0 10.000000000000004 0.9999999999999999
    vertex -0.10913162000569353 6.503398891966117 1.9999999999999998
  endloop
endfacet
facet normal 0.17149418941412947 -0.21589633961760915 0.9612380108677084
  outer loop
    vertex 7.071067811865472 -7.071067811865475 0.9999999999999999
    vertex 4.675765165818218 -4.521429748722424 1.9999999999999998
    vertex 3.3462102012641544 -5.577542841383369 1.9999999999999998
  endloop
endfacet
facet normal -0.25292581258271934 -0.10977258215265837 0.9612380108677085
  outer loop
    vertex -5.577542841383372 -3.3462102012641486 1.9999999999999998
    vertex -6.253555606729411 -1.7886165413677437 1.9999999999999998
    vertex -8.660254037844386 -5.000000000000002 0.9999999999999999
  endloop
endfacet
facet normal 0.16415388789312838 0.22152875107457617 0.9612380108677084
  outer loop
    vertex 4.999999999999998 8.660254037844382 0.9999999999999999
    vertex 3.157188690701978 5.686674461389072 1.9999999999999998
    vertex 4.521429748722422 4.675765165818218 1.9999999999999998
  endloop
endfacet
facet normal -0.16936615248080347 -0.2207222672134751 0.960519019671132
  outer loop
    vertex -4.521429748722411 -4.675765165818229 1.9999999999999998
    vertex -7.071067811865475 -7.071067811865472 0.9999999999999999
    vertex -5.000000000000002 -8.660254037844386 0.9999999999999999
  endloop
endfacet
facet normal -0.10122461998585704 -0.2564664944428607 0.9612380108677085
  outer loop
    vertex -1.5777904409111896 -6.310046290090148 1.9999999999999998
    vertex -3.157188690701975 -5.6866744613890745 1.9999999999999998
    vertex -2.588190451025211 -9.659258262890683 0.9999999999999999
  endloop
endfacet
facet normal 0.10977258215265841 -0.2529258125827195 0.9612380108677087
  outer loop
    vertex 4.999999999999992 -8.660254037844386 0.9999999999999999
    vertex 3.3462102012641544 -5.577542841383369 1.9999999999999998
    vertex 1.7886165413677324 -6.253555606729415 1.9999999999999998
  endloop
endfacet
facet normal -0.27583416682816825 -0.036314256982866694 0.9605190196711322
  outer loop
    vertex -6.503398891966117 -0.10913162000569634 1.9999999999999998
    vertex -9.999999999999996 -1.4099832412739487e-15 0.9999999999999999
    vertex -9.659258262890681 -2.5881904510252065 0.9999999999999999
  endloop
endfacet
facet normal 0.036314256982866853 -0.2758341668281681 0.9605190196711322
  outer loop
    vertex 2.5881904510252025 -9.659258262890683 0.9999999999999999
    vertex 0.10913162000569634 -6.503398891966117 1.9999999999999998
    vertex -1.4099832412739487e-15 -10.0 0.9999999999999999
  endloop
endfacet
facet normal 0.10122461998585715 0.2564664944428606 0.9612380108677085
  outer loop
    vertex 3.157188690701978 5.686674461389072 1.9999999999999998
    vertex 2.588190451025211 9.659258262890683 0.9999999999999999
    vertex 1.5777904409111854 6.31004629009015 1.9999999999999998
  endloop
endfacet
facet normal 0.22072226721347474 -0.16936615248080386 0.9605190196711322
  outer loop
    vertex 8.660254037844387 -5.000000000000006 0.9999999999999999
    vertex 4.675765165818218 -4.521429748722424 1.9999999999999998
    vertex 7.071067811865472 -7.071067811865475 0.9999999999999999
  endloop
endfacet
facet normal -0.9914448613738105 0.13052619222005163 -5.108977590144344e-16
  outer loop
    vertex -9.65925826289068 2.5881904510252136 0.9999999999999999
    vertex -9.999999999999996 0.0 0.0
    vertex -9.999999999999996 -1.4099832412739487e-15 0.9999999999999999
  endloop
endfacet
facet normal -0.9914448613738105 0.13052619222005163 -5.108977590144344e-16
  outer loop
    vertex -9.999999999999996 0.0 0.0
    vertex -9.65925826289068 2.5881904510252136 0.9999999999999999
    vertex -9.659258262890678 2.588190451025215 0.0
  endloop
endfacet
facet normal -0.16415388789312801 -0.22152875107457606 0.9612380108677087
  outer loop
    vertex -3.157188690701975 -5.6866744613890745 1.9999999999999998
    vertex -4.521429748722411 -4.675765165818229 1.9999999999999998
    vertex -5.000000000000002 -8.660254037844386 0.9999999999999999
  endloop
endfacet
facet normal -0.27271880939998633 -0.04057015482525264 0.9612380108677085
  outer loop
    vertex -6.253555606729411 -1.7886165413677437 1.9999999999999998
    vertex -6.503398891966117 -0.10913162000569634 1.9999999999999998
    vertex -9.659258262890681 -2.5881904510252065 0.9999999999999999
  endloop
endfacet
facet normal 0.27392647004578585 -0.03139706150814403 0.9612380108677085
  outer loop
    vertex 10.000000000000005 -1.4099832412739487e-15 0.9999999999999999
    vertex 6.503398891966117 0.10913162000569493 1.9999999999999998
    vertex 6.310046290090147 -1.577790440911191 1.9999999999999998
  endloop
endfacet
facet normal 0.2158963396176088 0.17149418941412953 0.9612380108677084
  outer loop
    vertex 7.071067811865477 7.071067811865472 0.9999999999999999
    vertex 4.521429748722422 4.675765165818218 1.9999999999999998
    vertex 5.577542841383377 3.346210201264143 1.9999999999999998
  endloop
endfacet
facet normal -0.608761429008721 0.7933533402912348 -3.0713890753275155e-15
  outer loop
    vertex -7.071067811865473 7.071067811865477 0.9999999999999999
    vertex -4.999999999999992 8.66025403784439 0.0
    vertex -7.071067811865472 7.071067811865475 0.0
  endloop
endfacet
facet normal -0.608761429008721 0.7933533402912348 -3.0713890753275155e-15
  outer loop
    vertex -4.999999999999992 8.66025403784439 0.0
    vertex -7.071067811865473 7.071067811865477 0.9999999999999999
    vertex -4.999999999999994 8.660254037844393 0.9999999999999999
  endloop
endfacet
facet normal -0.7933533402912347 -0.6087614290087213 -1.748603938894631e-15
  outer loop
    vertex -7.071067811865475 -7.071067811865472 0.9999999999999999
    vertex -8.660254037844386 -4.999999999999998 0.0
    vertex -7.071067811865473 -7.071067811865473 0.0
  endloop
endfacet
facet normal -0.7933533402912347 -0.6087614290087213 -1.748603938894631e-15
  outer loop
    vertex -8.660254037844386 -4.999999999999998 0.0
    vertex -7.071067811865475 -7.071067811865472 0.9999999999999999
    vertex -8.660254037844386 -5.000000000000002 0.9999999999999999
  endloop
endfacet
facet normal -0.1097725821526578 0.2529258125827195 0.9612380108677085
  outer loop
    vertex -1.7886165413677395 6.253555606729411 1.9999999999999998
    vertex -4.999999999999994 8.660254037844393 0.9999999999999999
    vertex -3.346210201264144 5.577542841383377 1.9999999999999998
  endloop
endfacet
facet normal -0.2570365241963421 -0.10646801434736473 0.9605190196711322
  outer loop
    vertex -6.253555606729411 -1.7886165413677437 1.9999999999999998
    vertex -9.659258262890681 -2.5881904510252065 0.9999999999999999
    vertex -8.660254037844386 -5.000000000000002 0.9999999999999999
  endloop
endfacet
facet normal -0.10646801434736518 -0.25703652419634165 0.9605190196711322
  outer loop
    vertex -2.588190451025211 -9.659258262890683 0.9999999999999999
    vertex -3.157188690701975 -5.6866744613890745 1.9999999999999998
    vertex -5.000000000000002 -8.660254037844386 0.9999999999999999
  endloop
endfacet
facet normal 0.22152875107457598 -0.16415388789312718 0.9612380108677088
  outer loop
    vertex 8.660254037844387 -5.000000000000006 0.9999999999999999
    vertex 5.686674461389081 -3.157188690701961 1.9999999999999998
    vertex 4.675765165818218 -4.521429748722424 1.9999999999999998
  endloop
endfacet
facet normal -0.9238795325112863 0.38268343236509084 -4.894349993821947e-16
  outer loop
    vertex -8.660254037844382 5.000000000000001 0.9999999999999999
    vertex -9.659258262890678 2.588190451025215 0.0
    vertex -9.65925826289068 2.5881904510252136 0.9999999999999999
  endloop
endfacet
facet normal -0.9238795325112863 0.38268343236509084 -4.894349993821947e-16
  outer loop
    vertex -9.659258262890678 2.588190451025215 0.0
    vertex -8.660254037844382 5.000000000000001 0.9999999999999999
    vertex -8.66025403784438 5.0000000000000036 0.0
  endloop
endfacet
facet normal -0.2564664944428608 0.10122461998585704 0.9612380108677087
  outer loop
    vertex -5.686674461389074 3.157188690701978 1.9999999999999998
    vertex -9.65925826289068 2.5881904510252136 0.9999999999999999
    vertex -6.310046290090148 1.5777904409111896 1.9999999999999998
  endloop
endfacet
facet normal -0.9238795325112871 -0.38268343236508917 -1.961679892366793e-15
  outer loop
    vertex -9.659258262890681 -2.5881904510252065 0.9999999999999999
    vertex -8.660254037844386 -4.999999999999998 0.0
    vertex -8.660254037844386 -5.000000000000002 0.9999999999999999
  endloop
endfacet
facet normal -0.9238795325112871 -0.38268343236508917 -1.961679892366793e-15
  outer loop
    vertex -8.660254037844386 -4.999999999999998 0.0
    vertex -9.659258262890681 -2.5881904510252065 0.9999999999999999
    vertex -9.65925826289068 -2.5881904510252065 0.0
  endloop
endfacet
facet normal -0.03139706150814382 -0.27392647004578613 0.9612380108677087
  outer loop
    vertex 0.10913162000569634 -6.503398891966117 1.9999999999999998
    vertex -1.5777904409111896 -6.310046290090148 1.9999999999999998
    vertex -1.4099832412739487e-15 -10.0 0.9999999999999999
  endloop
endfacet
facet normal 0.22072226721347532 0.16936615248080308 0.9605190196711322
  outer loop
    vertex 8.660254037844387 4.999999999999995 0.9999999999999999
    vertex 7.071067811865477 7.071067811865472 0.9999999999999999
    vertex 5.577542841383377 3.346210201264143 1.9999999999999998
  endloop
endfacet
facet normal -0.04057015482525266 0.2727188093999862 0.9612380108677085
  outer loop
    vertex -0.10913162000569353 6.503398891966117 1.9999999999999998
    vertex -2.588190451025204 9.659258262890683 0.9999999999999999
    vertex -1.7886165413677395 6.253555606729411 1.9999999999999998
  endloop
endfacet
facet normal 0.04057015482525222 -0.27271880939998655 0.9612380108677087
  outer loop
    vertex 2.5881904510252025 -9.659258262890683 0.9999999999999999
    vertex 1.7886165413677324 -6.253555606729415 1.9999999999999998
    vertex 0.10913162000569634 -6.503398891966117 1.9999999999999998
  endloop
endfacet
facet normal 0.10646801434736552 0.25703652419634165 0.9605190196711322
  outer loop
    vertex 4.999999999999998 8.660254037844382 0.9999999999999999
    vertex 2.588190451025211 9.659258262890683 0.9999999999999999
    vertex 3.157188690701978 5.686674461389072 1.9999999999999998
  endloop
endfacet
facet normal -0.25703652419634193 0.10646801434736541 0.9605190196711322
  outer loop
    vertex -5.686674461389074 3.157188690701978 1.9999999999999998
    vertex -8.660254037844382 5.000000000000001 0.9999999999999999
    vertex -9.65925826289068 2.5881904510252136 0.9999999999999999
  endloop
endfacet
facet normal -0.1064680143473644 0.257036524196342 0.9605190196711322
  outer loop
    vertex -1.7886165413677395 6.253555606729411 1.9999999999999998
    vertex -2.588190451025204 9.659258262890683 0.9999999999999999
    vertex -4.999999999999994 8.660254037844393 0.9999999999999999
  endloop
endfacet
facet normal -0.036314256982866784 -0.2758341668281681 0.9605190196711322
  outer loop
    vertex -1.4099832412739487e-15 -10.0 0.9999999999999999
    vertex -1.5777904409111896 -6.310046290090148 1.9999999999999998
    vertex -2.588190451025211 -9.659258262890683 0.9999999999999999
  endloop
endfacet
facet normal -0.27583416682816825 0.03631425698286669 0.9605190196711322
  outer loop
    vertex -6.310046290090148 1.5777904409111896 1.9999999999999998
    vertex -9.65925826289068 2.5881904510252136 0.9999999999999999
    vertex -9.999999999999996 -1.4099832412739487e-15 0.9999999999999999
  endloop
endfacet
facet normal 0.2727188093999868 0.04057015482525199 0.9612380108677084
  outer loop
    vertex 9.659258262890683 2.5881904510252025 0.9999999999999999
    vertex 6.2535556067294165 1.7886165413677324 1.9999999999999998
    vertex 6.503398891966117 0.10913162000569493 1.9999999999999998
  endloop
endfacet
facet normal 0.2570365241963418 -0.10646801434736464 0.9605190196711322
  outer loop
    vertex 9.659258262890683 -2.588190451025209 0.9999999999999999
    vertex 5.686674461389081 -3.157188690701961 1.9999999999999998
    vertex 8.660254037844387 -5.000000000000006 0.9999999999999999
  endloop
endfacet
facet normal -0.17149418941412964 0.2158963396176082 0.9612380108677085
  outer loop
    vertex -3.346210201264144 5.577542841383377 1.9999999999999998
    vertex -7.071067811865473 7.071067811865477 0.9999999999999999
    vertex -4.675765165818225 4.521429748722413 1.9999999999999998
  endloop
endfacet
facet normal 0.16936615248080297 0.2207222672134753 0.9605190196711322
  outer loop
    vertex 7.071067811865477 7.071067811865472 0.9999999999999999
    vertex 4.999999999999998 8.660254037844382 0.9999999999999999
    vertex 4.521429748722422 4.675765165818218 1.9999999999999998
  endloop
endfacet
facet normal -0.16936615248080306 0.22072226721347507 0.9605190196711322
  outer loop
    vertex -3.346210201264144 5.577542841383377 1.9999999999999998
    vertex -4.999999999999994 8.660254037844393 0.9999999999999999
    vertex -7.071067811865473 7.071067811865477 0.9999999999999999
  endloop
endfacet
facet normal -0.22072226721347532 0.16936615248080283 0.9605190196711322
  outer loop
    vertex -4.675765165818225 4.521429748722413 1.9999999999999998
    vertex -7.071067811865473 7.071067811865477 0.9999999999999999
    vertex -8.660254037844382 5.000000000000001 0.9999999999999999
  endloop
endfacet
facet normal -0.9914448613738105 -0.13052619222005157 -7.84800658635747e-16
  outer loop
    vertex -9.999999999999996 -1.4099832412739487e-15 0.9999999999999999
    vertex -9.65925826289068 -2.5881904510252065 0.0
    vertex -9.659258262890681 -2.5881904510252065 0.9999999999999999
  endloop
endfacet
facet normal -0.9914448613738105 -0.13052619222005157 -7.84800658635747e-16
  outer loop
    vertex -9.65925826289068 -2.5881904510252065 0.0
    vertex -9.999999999999996 -1.4099832412739487e-15 0.9999999999999999
    vertex -9.999999999999996 0.0 0.0
  endloop
endfacet
facet normal 0.3826834323650898 -0.9238795325112867 1.3384044481678143e-15
  outer loop
    vertex 4.999999999999992 -8.660254037844386 0.9999999999999999
    vertex 2.588190451025205 -9.659258262890681 0.0
    vertex 4.999999999999998 -8.660254037844386 0.0
  endloop
endfacet
facet normal 0.3826834323650898 -0.9238795325112867 1.3384044481678143e-15
  outer loop
    vertex 2.588190451025205 -9.659258262890681 0.0
    vertex 4.999999999999992 -8.660254037844386 0.9999999999999999
    vertex 2.5881904510252025 -9.659258262890683 0.9999999999999999
  endloop
endfacet
facet normal 0.6087614290087207 0.7933533402912352 6.359813548911503e-16
  outer loop
    vertex 4.999999999999998 8.660254037844382 0.9999999999999999
    vertex 7.071067811865477 7.071067811865469 0.0
    vertex 5.0000000000000036 8.660254037844382 0.0
  endloop
endfacet
facet normal 0.6087614290087207 0.7933533402912352 6.359813548911503e-16
  outer loop
    vertex 7.071067811865477 7.071067811865469 0.0
    vertex 4.999999999999998 8.660254037844382 0.9999999999999999
    vertex 7.071067811865477 7.071067811865472 0.9999999999999999
  endloop
endfacet
facet normal -0.22072226721347482 -0.16936615248080328 0.9605190196711322
  outer loop
    vertex -5.577542841383372 -3.3462102012641486 1.9999999999999998
    vertex -8.660254037844386 -5.000000000000002 0.9999999999999999
    vertex -7.071067811865475 -7.071067811865472 0.9999999999999999
  endloop
endfacet
facet normal -0.6087614290087213 -0.7933533402912347 -3.392816175686638e-16
  outer loop
    vertex -5.000000000000002 -8.660254037844386 0.9999999999999999
    vertex -7.071067811865473 -7.071067811865473 0.0
    vertex -5.0 -8.660254037844386 0.0
  endloop
endfacet
facet normal -0.6087614290087213 -0.7933533402912347 -3.392816175686638e-16
  outer loop
    vertex -7.071067811865473 -7.071067811865473 0.0
    vertex -5.000000000000002 -8.660254037844386 0.9999999999999999
    vertex -7.071067811865475 -7.071067811865472 0.9999999999999999
  endloop
endfacet
facet normal 0.16936615248080314 -0.22072226721347543 0.960519019671132
  outer loop
    vertex 7.071067811865472 -7.071067811865475 0.9999999999999999
    vertex 3.3462102012641544 -5.577542841383369 1.9999999999999998
    vertex 4.999999999999992 -8.660254037844386 0.9999999999999999
  endloop
endfacet
facet normal -0.38268343236508834 0.9238795325112875 -1.8278394475500105e-15
  outer loop
    vertex -4.999999999999994 8.660254037844393 0.9999999999999999
    vertex -2.5881904510252025 9.659258262890683 0.0
    vertex -4.999999999999992 8.66025403784439 0.0
  endloop
endfacet
facet normal -0.38268343236508834 0.9238795325112875 -1.8278394475500105e-15
  outer loop
    vertex -2.5881904510252025 9.659258262890683 0.0
    vertex -4.999999999999994 8.660254037844393 0.9999999999999999
    vertex -2.588190451025204 9.659258262890683 0.9999999999999999
  endloop
endfacet
facet normal -0.13052619222005193 0.9914448613738105 -2.973938193764497e-15
  outer loop
    vertex -2.588190451025204 9.659258262890683 0.9999999999999999
    vertex 1.4099832412739487e-15 9.999999999999996 0.0
    vertex -2.5881904510252025 9.659258262890683 0.0
  endloop
endfacet
facet normal -0.13052619222005193 0.9914448613738105 -2.973938193764497e-15
  outer loop
    vertex 1.4099832412739487e-15 9.999999999999996 0.0
    vertex -2.588190451025204 9.659258262890683 0.9999999999999999
    vertex 0.0 10.000000000000004 0.9999999999999999
  endloop
endfacet
facet normal 0.9914448613738103 -0.1305261922200528 -4.195673137176623e-15
  outer loop
    vertex 9.999999999999996 -1.4099832412739487e-15 0.0
    vertex 9.659258262890683 -2.588190451025209 0.9999999999999999
    vertex 9.65925826289068 -2.588190451025209 0.0
  endloop
endfacet
facet normal 0.9914448613738103 -0.1305261922200528 -4.195673137176623e-15
  outer loop
    vertex 9.659258262890683 -2.588190451025209 0.9999999999999999
    vertex 9.999999999999996 -1.4099832412739487e-15 0.0
    vertex 10.000000000000005 -1.4099832412739487e-15 0.9999999999999999
  endloop
endfacet
facet normal -0.38268343236509017 -0.9238795325112865 -1.1816006134085692e-15
  outer loop
    vertex -2.588190451025211 -9.659258262890683 0.9999999999999999
    vertex -5.0 -8.660254037844386 0.0
    vertex -2.588190451025209 -9.659258262890681 0.0
  endloop
endfacet
facet normal -0.38268343236509017 -0.9238795325112865 -1.1816006134085692e-15
  outer loop
    vertex -5.0 -8.660254037844386 0.0
    vertex -2.588190451025211 -9.659258262890683 0.9999999999999999
    vertex -5.000000000000002 -8.660254037844386 0.9999999999999999
  endloop
endfacet
facet normal 0.1305261922200519 -0.9914448613738105 -1.113096484569306e-15
  outer loop
    vertex 2.5881904510252025 -9.659258262890683 0.9999999999999999
    vertex 0.0 -9.999999999999998 0.0
    vertex 2.588190451025205 -9.659258262890681 0.0
  endloop
endfacet
facet normal 0.1305261922200519 -0.9914448613738105 -1.113096484569306e-15
  outer loop
    vertex 0.0 -9.999999999999998 0.0
    vertex 2.5881904510252025 -9.659258262890683 0.9999999999999999
    vertex -1.4099832412739487e-15 -10.0 0.9999999999999999
  endloop
endfacet
facet normal 0.9914448613738103 0.13052619222005243 -2.717372786445565e-15
  outer loop
    vertex 9.659258262890683 2.588190451025204 0.0
    vertex 10.000000000000005 -1.4099832412739487e-15 0.9999999999999999
    vertex 9.999999999999996 -1.4099832412739487e-15 0.0
  endloop
endfacet
facet normal 0.9914448613738103 0.13052619222005243 -2.717372786445565e-15
  outer loop
    vertex 10.000000000000005 -1.4099832412739487e-15 0.9999999999999999
    vertex 9.659258262890683 2.588190451025204 0.0
    vertex 9.659258262890683 2.5881904510252025 0.9999999999999999
  endloop
endfacet
facet normal 0.9238795325112868 -0.3826834323650894 -3.2541575606496795e-15
  outer loop
    vertex 8.660254037844382 -5.000000000000003 0.0
    vertex 9.659258262890683 -2.588190451025209 0.9999999999999999
    vertex 8.660254037844387 -5.000000000000006 0.9999999999999999
  endloop
endfacet
facet normal 0.9238795325112868 -0.3826834323650894 -3.2541575606496795e-15
  outer loop
    vertex 9.659258262890683 -2.588190451025209 0.9999999999999999
    vertex 8.660254037844382 -5.000000000000003 0.0
    vertex 9.65925826289068 -2.588190451025209 0.0
  endloop
endfacet
facet normal 0.13052619222005202 0.9914448613738105 -3.813131778712489e-15
  outer loop
    vertex 0.0 10.000000000000004 0.9999999999999999
    vertex 2.588190451025215 9.65925826289068 0.0
    vertex 1.4099832412739487e-15 9.999999999999996 0.0
  endloop
endfacet
facet normal 0.13052619222005202 0.9914448613738105 -3.813131778712489e-15
  outer loop
    vertex 2.588190451025215 9.65925826289068 0.0
    vertex 0.0 10.000000000000004 0.9999999999999999
    vertex 2.588190451025211 9.659258262890683 0.9999999999999999
  endloop
endfacet
facet normal 0.7933533402912354 0.6087614290087203 2.5823813027851856e-16
  outer loop
    vertex 7.071067811865477 7.071067811865469 0.0
    vertex 8.660254037844387 4.999999999999995 0.9999999999999999
    vertex 8.660254037844387 4.999999999999995 0.0
  endloop
endfacet
facet normal 0.7933533402912354 0.6087614290087203 2.5823813027851856e-16
  outer loop
    vertex 8.660254037844387 4.999999999999995 0.9999999999999999
    vertex 7.071067811865477 7.071067811865469 0.0
    vertex 7.071067811865477 7.071067811865472 0.9999999999999999
  endloop
endfacet
facet normal 0.6087614290087205 -0.7933533402912352 2.3007949576941666e-15
  outer loop
    vertex 7.071067811865472 -7.071067811865475 0.9999999999999999
    vertex 4.999999999999998 -8.660254037844386 0.0
    vertex 7.071067811865472 -7.071067811865475 0.0
  endloop
endfacet
facet normal 0.6087614290087205 -0.7933533402912352 2.3007949576941666e-15
  outer loop
    vertex 4.999999999999998 -8.660254037844386 0.0
    vertex 7.071067811865472 -7.071067811865475 0.9999999999999999
    vertex 4.999999999999992 -8.660254037844386 0.9999999999999999
  endloop
endfacet
facet normal -0.13052619222005168 -0.9914448613738105 -1.5696013172714943e-15
  outer loop
    vertex -1.4099832412739487e-15 -10.0 0.9999999999999999
    vertex -2.588190451025209 -9.659258262890681 0.0
    vertex 0.0 -9.999999999999998 0.0
  endloop
endfacet
facet normal -0.13052619222005168 -0.9914448613738105 -1.5696013172714943e-15
  outer loop
    vertex -2.588190451025209 -9.659258262890681 0.0
    vertex -1.4099832412739487e-15 -10.0 0.9999999999999999
    vertex -2.588190451025211 -9.659258262890683 0.9999999999999999
  endloop
endfacet
facet normal 0.3826834323650912 0.9238795325112862 3.1360766951849795e-16
  outer loop
    vertex 2.588190451025211 9.659258262890683 0.9999999999999999
    vertex 5.0000000000000036 8.660254037844382 0.0
    vertex 2.588190451025215 9.65925826289068 0.0
  endloop
endfacet
facet normal 0.3826834323650912 0.9238795325112862 3.1360766951849795e-16
  outer loop
    vertex 5.0000000000000036 8.660254037844382 0.0
    vertex 2.588190451025211 9.659258262890683 0.9999999999999999
    vertex 4.999999999999998 8.660254037844382 0.9999999999999999
  endloop
endfacet
facet normal 0.9238795325112868 0.38268343236508934 1.5601585579164489e-15
  outer loop
    vertex 9.659258262890683 2.588190451025204 0.0
    vertex 8.660254037844387 4.999999999999995 0.9999999999999999
    vertex 9.659258262890683 2.5881904510252025 0.9999999999999999
  endloop
endfacet
facet normal 0.9238795325112868 0.38268343236508934 1.5601585579164489e-15
  outer loop
    vertex 8.660254037844387 4.999999999999995 0.9999999999999999
    vertex 9.659258262890683 2.588190451025204 0.0
    vertex 8.660254037844387 4.999999999999995 0.0
  endloop
endfacet
facet normal -0.7933533402912356 0.6087614290087203 -1.1098757352020117e-15
  outer loop
    vertex -7.071067811865473 7.071067811865477 0.9999999999999999
    vertex -8.66025403784438 5.0000000000000036 0.0
    vertex -8.660254037844382 5.000000000000001 0.9999999999999999
  endloop
endfacet
facet normal -0.7933533402912356 0.6087614290087203 -1.1098757352020117e-15
  outer loop
    vertex -8.66025403784438 5.0000000000000036 0.0
    vertex -7.071067811865473 7.071067811865477 0.9999999999999999
    vertex -7.071067811865472 7.071067811865475 0.0
  endloop
endfacet
facet normal 0.3981307312149658 -0.9173286874737085 0.0
  outer loop
    vertex -1.6499354821674899 5.768683810427186 1.5
    vertex -3.0867605292494233 5.145085950211893 0.0
    vertex -1.6499354821674899 5.768683810427186 0.0
  endloop
endfacet
facet normal 0.3981307312149658 -0.9173286874737085 0.0
  outer loop
    vertex -3.0867605292494233 5.145085950211893 0.0
    vertex -1.6499354821674899 5.768683810427186 1.5
    vertex -3.0867605292494233 5.145085950211893 1.5
  endloop
endfacet
facet normal 0.6486493354896143 0.28152093984086246 0.7071067811865471
  outer loop
    vertex -5.577542841383372 -3.3462102012641486 1.9999999999999998
    vertex -5.768683810427187 -1.649935482167494 1.5
    vertex -6.253555606729411 -1.7886165413677437 1.9999999999999998
  endloop
endfacet
facet normal 0.6486493354896143 0.28152093984086246 0.7071067811865471
  outer loop
    vertex -5.768683810427187 -1.649935482167494 1.5
    vertex -5.577542841383372 -3.3462102012641486 1.9999999999999998
    vertex -5.145085950211893 -3.0867605292494233 1.5
  endloop
endfacet
facet normal -0.6994101261806357 -0.10404554481565233 0.7071067811865486
  outer loop
    vertex 5.99915540216261 0.10067005862315057 1.5
    vertex 6.2535556067294165 1.7886165413677324 1.9999999999999998
    vertex 5.768683810427186 1.6499354821674912 1.5
  endloop
endfacet
facet normal -0.6994101261806357 -0.10404554481565233 0.7071067811865486
  outer loop
    vertex 6.2535556067294165 1.7886165413677324 1.9999999999999998
    vertex 5.99915540216261 0.10067005862315057 1.5
    vertex 6.503398891966117 0.10913162000569493 1.9999999999999998
  endloop
endfacet
facet normal 0.6994101261806378 0.10404554481565326 0.7071067811865462
  outer loop
    vertex -6.253555606729411 -1.7886165413677437 1.9999999999999998
    vertex -5.99915540216261 -0.10067005862315338 1.5
    vertex -6.503398891966117 -0.10913162000569634 1.9999999999999998
  endloop
endfacet
facet normal 0.6994101261806378 0.10404554481565326 0.7071067811865462
  outer loop
    vertex -5.99915540216261 -0.10067005862315338 1.5
    vertex -6.253555606729411 -1.7886165413677437 1.9999999999999998
    vertex -5.768683810427187 -1.649935482167494 1.5
  endloop
endfacet
facet normal 0.4209863327614697 0.5681289533442633 0.7071067811865482
  outer loop
    vertex -3.157188690701975 -5.6866744613890745 1.9999999999999998
    vertex -4.170858985146212 -4.313227947375969 1.5
    vertex -4.521429748722411 -4.675765165818229 1.9999999999999998
  endloop
endfacet
facet normal 0.4209863327614697 0.5681289533442633 0.7071067811865482
  outer loop
    vertex -4.170858985146212 -4.313227947375969 1.5
    vertex -3.157188690701975 -5.6866744613890745 1.9999999999999998
    vertex -2.912394872913186 -5.245756008835046 1.5
  endloop
endfacet
facet normal 0.6219868904569817 -0.7830276547476817 0.0
  outer loop
    vertex -3.0867605292494233 5.145085950211893 1.5
    vertex -4.313227947375967 4.170858985146212 0.0
    vertex -3.0867605292494233 5.145085950211893 0.0
  endloop
endfacet
facet normal 0.6219868904569817 -0.7830276547476817 0.0
  outer loop
    vertex -4.313227947375967 4.170858985146212 0.0
    vertex -3.0867605292494233 5.145085950211893 1.5
    vertex -4.313227947375967 4.170858985146212 1.5
  endloop
endfacet
facet normal -0.5536841645286849 -0.43981114805126503 0.7071067811865479
  outer loop
    vertex 5.145085950211896 3.0867605292494207 1.5
    vertex 4.521429748722422 4.675765165818218 1.9999999999999998
    vertex 4.170858985146215 4.313227947375967 1.5
  endloop
endfacet
facet normal -0.5536841645286849 -0.43981114805126503 0.7071067811865479
  outer loop
    vertex 4.521429748722422 4.675765165818218 1.9999999999999998
    vertex 5.145085950211896 3.0867605292494207 1.5
    vertex 5.577542841383377 3.346210201264143 1.9999999999999998
  endloop
endfacet
facet normal -0.25959897812937127 -0.6577297093443372 0.7071067811865475
  outer loop
    vertex 2.9123948729131905 5.245756008835044 1.5
    vertex 1.5777904409111854 6.31004629009015 1.9999999999999998
    vertex 1.4554558630512173 5.820794467313704 1.5
  endloop
endfacet
facet normal -0.25959897812937127 -0.6577297093443372 0.7071067811865475
  outer loop
    vertex 1.5777904409111854 6.31004629009015 1.9999999999999998
    vertex 2.9123948729131905 5.245756008835044 1.5
    vertex 3.157188690701978 5.686674461389072 1.9999999999999998
  endloop
endfacet
facet normal 0.7025072726023309 -0.08052038214535076 0.7071067811865483
  outer loop
    vertex -5.99915540216261 -0.10067005862315338 1.5
    vertex -6.310046290090148 1.5777904409111896 1.9999999999999998
    vertex -6.503398891966117 -0.10913162000569634 1.9999999999999998
  endloop
endfacet
facet normal 0.7025072726023309 -0.08052038214535076 0.7071067811865483
  outer loop
    vertex -6.310046290090148 1.5777904409111896 1.9999999999999998
    vertex -5.99915540216261 -0.10067005862315338 1.5
    vertex -5.820794467313704 1.4554558630512173 1.5
  endloop
endfacet
facet normal -0.6577297093443364 0.25959897812937077 0.7071067811865483
  outer loop
    vertex 5.686674461389081 -3.157188690701961 1.9999999999999998
    vertex 5.820794467313704 -1.4554558630512173 1.5
    vertex 5.245756008835044 -2.912394872913186 1.5
  endloop
endfacet
facet normal -0.6577297093443364 0.25959897812937077 0.7071067811865483
  outer loop
    vertex 5.820794467313704 -1.4554558630512173 1.5
    vertex 5.686674461389081 -3.157188690701961 1.9999999999999998
    vertex 6.310046290090147 -1.577790440911191 1.9999999999999998
  endloop
endfacet
facet normal 0.8034556709962889 -0.5953645813649844 1.748457775602136e-16
  outer loop
    vertex -4.313227947375967 4.170858985146212 0.0
    vertex -5.245756008835045 2.9123948729131874 1.5
    vertex -5.245756008835044 2.9123948729131874 0.0
  endloop
endfacet
facet normal 0.8034556709962889 -0.5953645813649844 1.748457775602136e-16
  outer loop
    vertex -5.245756008835045 2.9123948729131874 1.5
    vertex -4.313227947375967 4.170858985146212 0.0
    vertex -4.313227947375967 4.170858985146212 1.5
  endloop
endfacet
facet normal 0.6577297093443368 -0.2595989781293707 0.707106781186548
  outer loop
    vertex -5.820794467313704 1.4554558630512173 1.5
    vertex -5.686674461389074 3.157188690701978 1.9999999999999998
    vertex -6.310046290090148 1.5777904409111896 1.9999999999999998
  endloop
endfacet
facet normal 0.6577297093443368 -0.2595989781293707 0.707106781186548
  outer loop
    vertex -5.686674461389074 3.157188690701978 1.9999999999999998
    vertex -5.820794467313704 1.4554558630512173 1.5
    vertex -5.245756008835045 2.9123948729131874 1.5
  endloop
endfacet
facet normal 0.5681289533442624 -0.4209863327614702 0.7071067811865487
  outer loop
    vertex -5.245756008835045 2.9123948729131874 1.5
    vertex -4.675765165818225 4.521429748722413 1.9999999999999998
    vertex -5.686674461389074 3.157188690701978 1.9999999999999998
  endloop
endfacet
facet normal 0.5681289533442624 -0.4209863327614702 0.7071067811865487
  outer loop
    vertex -4.675765165818225 4.521429748722413 1.9999999999999998
    vertex -5.245756008835045 2.9123948729131874 1.5
    vertex -4.313227947375967 4.170858985146212 1.5
  endloop
endfacet
facet normal 0.4398111480512656 -0.5536841645286839 0.7071067811865483
  outer loop
    vertex -4.313227947375967 4.170858985146212 1.5
    vertex -3.346210201264144 5.577542841383377 1.9999999999999998
    vertex -4.675765165818225 4.521429748722413 1.9999999999999998
  endloop
endfacet
facet normal 0.4398111480512656 -0.5536841645286839 0.7071067811865483
  outer loop
    vertex -3.346210201264144 5.577542841383377 1.9999999999999998
    vertex -4.313227947375967 4.170858985146212 1.5
    vertex -3.0867605292494233 5.145085950211893 1.5
  endloop
endfacet
facet normal 0.5536841645286849 0.43981114805126587 0.7071067811865474
  outer loop
    vertex -4.521429748722411 -4.675765165818229 1.9999999999999998
    vertex -5.145085950211893 -3.0867605292494233 1.5
    vertex -5.577542841383372 -3.3462102012641486 1.9999999999999998
  endloop
endfacet
facet normal 0.5536841645286849 0.43981114805126587 0.7071067811865474
  outer loop
    vertex -5.145085950211893 -3.0867605292494233 1.5
    vertex -4.521429748722411 -4.675765165818229 1.9999999999999998
    vertex -4.170858985146212 -4.313227947375969 1.5
  endloop
endfacet
facet normal 0.2595989781293707 0.6577297093443368 0.707106781186548
  outer loop
    vertex -1.5777904409111896 -6.310046290090148 1.9999999999999998
    vertex -2.912394872913186 -5.245756008835046 1.5
    vertex -3.157188690701975 -5.6866744613890745 1.9999999999999998
  endloop
endfacet
facet normal 0.2595989781293707 0.6577297093443368 0.707106781186548
  outer loop
    vertex -2.912394872913186 -5.245756008835046 1.5
    vertex -1.5777904409111896 -6.310046290090148 1.9999999999999998
    vertex -1.4554558630512173 -5.8207944673137035 1.5
  endloop
endfacet
facet normal 0.0 0.0 -1.0
  outer loop
    vertex -4.999999999999992 8.66025403784439 0.0
    vertex -5.999155402162609 -0.10067005862315338 0.0
    vertex -7.071067811865472 7.071067811865475 0.0
  endloop
endfacet
facet normal 0.0 0.0 -1.0
  outer loop
    vertex -5.999155402162609 -0.10067005862315338 0.0
    vertex -4.999999999999992 8.66025403784439 0.0
    vertex -5.820794467313704 1.4554558630512173 0.0
  endloop
endfacet
facet normal 0.0 0.0 -1.0
  outer loop
    vertex -5.820794467313704 1.4554558630512173 0.0
    vertex -4.999999999999992 8.66025403784439 0.0
    vertex -5.245756008835044 2.9123948729131874 0.0
  endloop
endfacet
facet normal 0.0 0.0 -1.0
  outer loop
    vertex -5.245756008835044 2.9123948729131874 0.0
    vertex -4.999999999999992 8.66025403784439 0.0
    vertex -4.313227947375967 4.170858985146212 0.0
  endloop
endfacet
facet normal 0.0 0.0 -1.0
  outer loop
    vertex -4.313227947375967 4.170858985146212 0.0
    vertex -4.999999999999992 8.66025403784439 0.0
    vertex -2.5881904510252025 9.659258262890683 0.0
  endloop
endfacet
facet normal 0.0 0.0 -1.0
  outer loop
    vertex -4.313227947375967 4.170858985146212 0.0
    vertex -2.5881904510252025 9.659258262890683 0.0
    vertex -3.0867605292494233 5.145085950211893 0.0
  endloop
endfacet
facet normal 0.0 0.0 -1.0
  outer loop
    vertex -3.0867605292494233 5.145085950211893 0.0
    vertex -2.5881904510252025 9.659258262890683 0.0
    vertex -1.6499354821674899 5.768683810427186 0.0
  endloop
endfacet
facet normal 0.0 0.0 -1.0
  outer loop
    vertex -1.6499354821674899 5.768683810427186 0.0
    vertex -2.5881904510252025 9.659258262890683 0.0
    vertex 1.4099832412739487e-15 9.999999999999996 0.0
  endloop
endfacet
facet normal 0.0 0.0 -1.0
  outer loop
    vertex -1.6499354821674899 5.768683810427186 0.0
    vertex 1.4099832412739487e-15 9.999999999999996 0.0
    vertex -0.10067005862315057 5.99915540216261 0.0
  endloop
endfacet
facet normal 0.0 0.0 -1.0
  outer loop
    vertex -0.10067005862315057 5.99915540216261 0.0
    vertex 1.4099832412739487e-15 9.999999999999996 0.0
    vertex 1.4554558630512173 5.820794467313704 0.0
  endloop
endfacet
facet normal 0.0 0.0 -1.0
  outer loop
    vertex 1.4554558630512173 5.820794467313704 0.0
    vertex 1.4099832412739487e-15 9.999999999999996 0.0
    vertex 2.588190451025215 9.65925826289068 0.0
  endloop
endfacet
facet normal 0.0 0.0 -1.0
  outer loop
    vertex 1.4554558630512173 5.820794467313704 0.0
    vertex 2.588190451025215 9.65925826289068 0.0
    vertex 2.9123948729131905 5.245756008835044 0.0
  endloop
endfacet
facet normal 0.0 0.0 -1.0
  outer loop
    vertex 2.9123948729131905 5.245756008835044 0.0
    vertex 2.588190451025215 9.65925826289068 0.0
    vertex 5.0000000000000036 8.660254037844382 0.0
  endloop
endfacet
facet normal 0.0 0.0 -1.0
  outer loop
    vertex 2.9123948729131905 5.245756008835044 0.0
    vertex 5.0000000000000036 8.660254037844382 0.0
    vertex 4.170858985146215 4.313227947375967 0.0
  endloop
endfacet
facet normal 0.0 0.0 -1.0
  outer loop
    vertex 4.170858985146215 4.313227947375967 0.0
    vertex 5.0000000000000036 8.660254037844382 0.0
    vertex 5.145085950211896 3.0867605292494207 0.0
  endloop
endfacet
facet normal 0.0 0.0 -1.0
  outer loop
    vertex 5.145085950211896 3.0867605292494207 0.0
    vertex 5.0000000000000036 8.660254037844382 0.0
    vertex 7.071067811865477 7.071067811865469 0.0
  endloop
endfacet
facet normal 0.0 0.0 -1.0
  outer loop
    vertex 5.145085950211896 3.0867605292494207 0.0
    vertex 7.071067811865477 7.071067811865469 0.0
    vertex 5.768683810427186 1.6499354821674912 0.0
  endloop
endfacet
facet normal 0.0 0.0 -1.0
  outer loop
    vertex 5.768683810427186 1.6499354821674912 0.0
    vertex 7.071067811865477 7.071067811865469 0.0
    vertex 5.99915540216261 0.10067005862315057 0.0
  endloop
endfacet
facet normal 0.0 0.0 -1.0
  outer loop
    vertex 5.99915540216261 0.10067005862315057 0.0
    vertex 7.071067811865477 7.071067811865469 0.0
    vertex 7.071067811865472 -7.071067811865475 0.0
  endloop
endfacet
facet normal 0.0 0.0 -1.0
  outer loop
    vertex 7.071067811865472 -7.071067811865475 0.0
    vertex 7.071067811865477 7.071067811865469 0.0
    vertex 8.660254037844382 -5.000000000000003 0.0
  endloop
endfacet
facet normal 0.0 0.0 -1.0
  outer loop
    vertex 8.660254037844382 -5.000000000000003 0.0
    vertex 7.071067811865477 7.071067811865469 0.0
    vertex 8.660254037844387 4.999999999999995 0.0
  endloop
endfacet
facet normal 0.0 0.0 -1.0
  outer loop
    vertex 8.660254037844382 -5.000000000000003 0.0
    vertex 8.660254037844387 4.999999999999995 0.0
    vertex 9.65925826289068 -2.588190451025209 0.0
  endloop
endfacet
facet normal 0.0 0.0 -1.0
  outer loop
    vertex 9.65925826289068 -2.588190451025209 0.0
    vertex 8.660254037844387 4.999999999999995 0.0
    vertex 9.659258262890683 2.588190451025204 0.0
  endloop
endfacet
facet normal 0.0 0.0 -1.0
  outer loop
    vertex 9.65925826289068 -2.588190451025209 0.0
    vertex 9.659258262890683 2.588190451025204 0.0
    vertex 9.999999999999996 -1.4099832412739487e-15 0.0
  endloop
endfacet
facet normal 0.0 0.0 -1.0
  outer loop
    vertex -9.659258262890678 2.588190451025215 0.0
    vertex -9.65925826289068 -2.5881904510252065 0.0
    vertex -9.999999999999996 0.0 0.0
  endloop
endfacet
facet normal 0.0 0.0 -1.0
  outer loop
    vertex -9.65925826289068 -2.5881904510252065 0.0
    vertex -9.659258262890678 2.588190451025215 0.0
    vertex -8.660254037844386 -4.999999999999998 0.0
  endloop
endfacet
facet normal 0.0 0.0 -1.0
  outer loop
    vertex -8.660254037844386 -4.999999999999998 0.0
    vertex -9.659258262890678 2.588190451025215 0.0
    vertex -8.66025403784438 5.0000000000000036 0.0
  endloop
endfacet
facet normal 0.0 0.0 -1.0
  outer loop
    vertex -8.660254037844386 -4.999999999999998 0.0
    vertex -8.66025403784438 5.0000000000000036 0.0
    vertex -7.071067811865473 -7.071067811865473 0.0
  endloop
endfacet
facet normal 0.0 0.0 -1.0
  outer loop
    vertex -7.071067811865473 -7.071067811865473 0.0
    vertex -8.66025403784438 5.0000000000000036 0.0
    vertex -7.071067811865472 7.071067811865475 0.0
  endloop
endfacet
facet normal 0.0 0.0 -1.0
  outer loop
    vertex -7.071067811865473 -7.071067811865473 0.0
    vertex -7.071067811865472 7.071067811865475 0.0
    vertex -5.0 -8.660254037844386 0.0
  endloop
endfacet
facet normal 0.0 0.0 -1.0
  outer loop
    vertex -5.0 -8.660254037844386 0.0
    vertex -7.071067811865472 7.071067811865475 0.0
    vertex -5.999155402162609 -0.10067005862315338 0.0
  endloop
endfacet
facet normal 0.0 0.0 -1.0
  outer loop
    vertex -5.0 -8.660254037844386 0.0
    vertex -5.999155402162609 -0.10067005862315338 0.0
    vertex -5.768683810427187 -1.649935482167494 0.0
  endloop
endfacet
facet normal 0.0 0.0 -1.0
  outer loop
    vertex -5.0 -8.660254037844386 0.0
    vertex -5.768683810427187 -1.649935482167494 0.0
    vertex -5.145085950211893 -3.0867605292494233 0.0
  endloop
endfacet
facet normal 0.0 0.0 -1.0
  outer loop
    vertex -5.0 -8.660254037844386 0.0
    vertex -5.145085950211893 -3.0867605292494233 0.0
    vertex -4.170858985146212 -4.313227947375969 0.0
  endloop
endfacet
facet normal 0.0 0.0 -1.0
  outer loop
    vertex -5.0 -8.660254037844386 0.0
    vertex -4.170858985146212 -4.313227947375969 0.0
    vertex -2.588190451025209 -9.659258262890681 0.0
  endloop
endfacet
facet normal 0.0 0.0 -1.0
  outer loop
    vertex -2.588190451025209 -9.659258262890681 0.0
    vertex -4.170858985146212 -4.313227947375969 0.0
    vertex -2.912394872913186 -5.245756008835046 0.0
  endloop
endfacet
facet normal 0.0 0.0 -1.0
  outer loop
    vertex -2.588190451025209 -9.659258262890681 0.0
    vertex -2.912394872913186 -5.245756008835046 0.0
    vertex -1.4554558630512173 -5.820794467313704 0.0
  endloop
endfacet
facet normal 0.0 0.0 -1.0
  outer loop
    vertex -2.588190451025209 -9.659258262890681 0.0
    vertex -1.4554558630512173 -5.820794467313704 0.0
    vertex 0.0 -9.999999999999998 0.0
  endloop
endfacet
facet normal 0.0 0.0 -1.0
  outer loop
    vertex 0.0 -9.999999999999998 0.0
    vertex -1.4554558630512173 -5.820794467313704 0.0
    vertex 0.10067005862315198 -5.999155402162609 0.0
  endloop
endfacet
facet normal 0.0 0.0 -1.0
  outer loop
    vertex 0.0 -9.999999999999998 0.0
    vertex 0.10067005862315198 -5.999155402162609 0.0
    vertex 2.588190451025205 -9.659258262890681 0.0
  endloop
endfacet
facet normal 0.0 0.0 -1.0
  outer loop
    vertex 2.588190451025205 -9.659258262890681 0.0
    vertex 0.10067005862315198 -5.999155402162609 0.0
    vertex 1.6499354821674925 -5.768683810427187 0.0
  endloop
endfacet
facet normal 0.0 0.0 -1.0
  outer loop
    vertex 2.588190451025205 -9.659258262890681 0.0
    vertex 1.6499354821674925 -5.768683810427187 0.0
    vertex 3.0867605292494233 -5.145085950211893 0.0
  endloop
endfacet
facet normal 0.0 0.0 -1.0
  outer loop
    vertex 2.588190451025205 -9.659258262890681 0.0
    vertex 3.0867605292494233 -5.145085950211893 0.0
    vertex 4.999999999999998 -8.660254037844386 0.0
  endloop
endfacet
facet normal 0.0 0.0 -1.0
  outer loop
    vertex 4.999999999999998 -8.660254037844386 0.0
    vertex 3.0867605292494233 -5.145085950211893 0.0
    vertex 4.31322794737597 -4.170858985146213 0.0
  endloop
endfacet
facet normal 0.0 0.0 -1.0
  outer loop
    vertex 4.999999999999998 -8.660254037844386 0.0
    vertex 4.31322794737597 -4.170858985146213 0.0
    vertex 5.245756008835047 -2.912394872913186 0.0
  endloop
endfacet
facet normal 0.0 0.0 -1.0
  outer loop
    vertex 4.999999999999998 -8.660254037844386 0.0
    vertex 5.245756008835047 -2.912394872913186 0.0
    vertex 7.071067811865472 -7.071067811865475 0.0
  endloop
endfacet
facet normal 0.0 0.0 -1.0
  outer loop
    vertex 7.071067811865472 -7.071067811865475 0.0
    vertex 5.245756008835047 -2.912394872913186 0.0
    vertex 5.820794467313704 -1.4554558630512173 0.0
  endloop
endfacet
facet normal 0.0 0.0 -1.0
  outer loop
    vertex 7.071067811865472 -7.071067811865475 0.0
    vertex 5.820794467313704 -1.4554558630512173 0.0
    vertex 5.99915540216261 0.10067005862315057 0.0
  endloop
endfacet
facet normal 0.9301702753304756 -0.36712839564875266 2.1687970243214506e-16
  outer loop
    vertex -5.245756008835044 2.9123948729131874 0.0
    vertex -5.820794467313704 1.4554558630512173 1.5
    vertex -5.820794467313704 1.4554558630512173 0.0
  endloop
endfacet
facet normal 0.9301702753304756 -0.36712839564875266 2.1687970243214506e-16
  outer loop
    vertex -5.820794467313704 1.4554558630512173 1.5
    vertex -5.245756008835044 2.9123948729131874 0.0
    vertex -5.245756008835045 2.9123948729131874 1.5
  endloop
endfacet
facet normal -0.4209863327614708 -0.5681289533442639 0.7071067811865471
  outer loop
    vertex 4.170858985146215 4.313227947375967 1.5
    vertex 3.157188690701978 5.686674461389072 1.9999999999999998
    vertex 2.9123948729131905 5.245756008835044 1.5
  endloop
endfacet
facet normal -0.4209863327614708 -0.5681289533442639 0.7071067811865471
  outer loop
    vertex 3.157188690701978 5.686674461389072 1.9999999999999998
    vertex 4.170858985146215 4.313227947375967 1.5
    vertex 4.521429748722422 4.675765165818218 1.9999999999999998
  endloop
endfacet
facet normal -0.7025072726023315 0.0805203821453512 0.7071067811865478
  outer loop
    vertex 6.310046290090147 -1.577790440911191 1.9999999999999998
    vertex 5.99915540216261 0.10067005862315057 1.5
    vertex 5.820794467313704 -1.4554558630512173 1.5
  endloop
endfacet
facet normal -0.7025072726023315 0.0805203821453512 0.7071067811865478
  outer loop
    vertex 5.99915540216261 0.10067005862315057 1.5
    vertex 6.310046290090147 -1.577790440911191 1.9999999999999998
    vertex 6.503398891966117 0.10913162000569493 1.9999999999999998
  endloop
endfacet
facet normal -0.6486493354896132 -0.28152093984086063 0.7071067811865488
  outer loop
    vertex 5.768683810427186 1.6499354821674912 1.5
    vertex 5.577542841383377 3.346210201264143 1.9999999999999998
    vertex 5.145085950211896 3.0867605292494207 1.5
  endloop
endfacet
facet normal -0.6486493354896132 -0.28152093984086063 0.7071067811865488
  outer loop
    vertex 5.577542841383377 3.346210201264143 1.9999999999999998
    vertex 5.768683810427186 1.6499354821674912 1.5
    vertex 6.2535556067294165 1.7886165413677324 1.9999999999999998
  endloop
endfacet
facet normal -0.5681289533442648 0.4209863327614694 0.7071067811865474
  outer loop
    vertex 4.675765165818218 -4.521429748722424 1.9999999999999998
    vertex 5.245756008835044 -2.912394872913186 1.5
    vertex 4.31322794737597 -4.170858985146213 1.5
  endloop
endfacet
facet normal -0.5681289533442648 0.4209863327614694 0.7071067811865474
  outer loop
    vertex 5.245756008835044 -2.912394872913186 1.5
    vertex 4.675765165818218 -4.521429748722424 1.9999999999999998
    vertex 5.686674461389081 -3.157188690701961 1.9999999999999998
  endloop
endfacet
facet normal 0.2815209398408603 -0.6486493354896137 0.7071067811865486
  outer loop
    vertex -3.0867605292494233 5.145085950211893 1.5
    vertex -1.7886165413677395 6.253555606729411 1.9999999999999998
    vertex -3.346210201264144 5.577542841383377 1.9999999999999998
  endloop
endfacet
facet normal 0.2815209398408603 -0.6486493354896137 0.7071067811865486
  outer loop
    vertex -1.7886165413677395 6.253555606729411 1.9999999999999998
    vertex -3.0867605292494233 5.145085950211893 1.5
    vertex -1.6499354821674899 5.768683810427186 1.5
  endloop
endfacet
facet normal -0.4398111480512644 0.5536841645286843 0.7071067811865488
  outer loop
    vertex 3.3462102012641544 -5.577542841383369 1.9999999999999998
    vertex 4.31322794737597 -4.170858985146213 1.5
    vertex 3.0867605292494233 -5.145085950211893 1.5
  endloop
endfacet
facet normal -0.4398111480512644 0.5536841645286843 0.7071067811865488
  outer loop
    vertex 4.31322794737597 -4.170858985146213 1.5
    vertex 3.3462102012641544 -5.577542841383369 1.9999999999999998
    vertex 4.675765165818218 -4.521429748722424 1.9999999999999998
  endloop
endfacet
facet normal 0.10404554481565356 -0.6994101261806372 0.7071067811865469
  outer loop
    vertex -1.6499354821674899 5.768683810427186 1.5
    vertex -0.10913162000569353 6.503398891966117 1.9999999999999998
    vertex -1.7886165413677395 6.253555606729411 1.9999999999999998
  endloop
endfacet
facet normal 0.10404554481565356 -0.6994101261806372 0.7071067811865469
  outer loop
    vertex -0.10913162000569353 6.503398891966117 1.9999999999999998
    vertex -1.6499354821674899 5.768683810427186 1.5
    vertex -0.10067005862315057 5.99915540216261 1.5
  endloop
endfacet
facet normal -0.08052038214535065 -0.7025072726023306 0.7071067811865486
  outer loop
    vertex -0.10067005862315057 5.99915540216261 1.5
    vertex 1.5777904409111854 6.31004629009015 1.9999999999999998
    vertex -0.10913162000569353 6.503398891966117 1.9999999999999998
  endloop
endfacet
facet normal -0.08052038214535065 -0.7025072726023306 0.7071067811865486
  outer loop
    vertex 1.5777904409111854 6.31004629009015 1.9999999999999998
    vertex -0.10067005862315057 5.99915540216261 1.5
    vertex 1.4554558630512173 5.820794467313704 1.5
  endloop
endfacet
facet normal -0.28152093984086207 0.6486493354896143 0.7071067811865472
  outer loop
    vertex 1.7886165413677324 -6.253555606729415 1.9999999999999998
    vertex 3.0867605292494233 -5.145085950211893 1.5
    vertex 1.6499354821674925 -5.768683810427187 1.5
  endloop
endfacet
facet normal -0.28152093984086207 0.6486493354896143 0.7071067811865472
  outer loop
    vertex 3.0867605292494233 -5.145085950211893 1.5
    vertex 1.7886165413677324 -6.253555606729415 1.9999999999999998
    vertex 3.3462102012641544 -5.577542841383369 1.9999999999999998
  endloop
endfacet
facet normal 0.9934953125799505 -0.11387301647741914 2.316446498825366e-16
  outer loop
    vertex -5.820794467313704 1.4554558630512173 0.0
    vertex -5.99915540216261 -0.10067005862315338 1.5
    vertex -5.999155402162609 -0.10067005862315338 0.0
  endloop
endfacet
facet normal 0.9934953125799505 -0.11387301647741914 2.316446498825366e-16
  outer loop
    vertex -5.99915540216261 -0.10067005862315338 1.5
    vertex -5.820794467313704 1.4554558630512173 0.0
    vertex -5.820794467313704 1.4554558630512173 1.5
  endloop
endfacet
facet normal -0.10404554481565248 0.6994101261806364 0.7071067811865478
  outer loop
    vertex 0.10913162000569634 -6.503398891966117 1.9999999999999998
    vertex 1.6499354821674925 -5.768683810427187 1.5
    vertex 0.10067005862315198 -5.999155402162609 1.5
  endloop
endfacet
facet normal -0.10404554481565248 0.6994101261806364 0.7071067811865478
  outer loop
    vertex 1.6499354821674925 -5.768683810427187 1.5
    vertex 0.10913162000569634 -6.503398891966117 1.9999999999999998
    vertex 1.7886165413677324 -6.253555606729415 1.9999999999999998
  endloop
endfacet
facet normal 0.9891152861057341 0.14714262058279368 4.689342410837779e-16
  outer loop
    vertex -5.999155402162609 -0.10067005862315338 0.0
    vertex -5.768683810427187 -1.649935482167494 1.5
    vertex -5.768683810427187 -1.649935482167494 0.0
  endloop
endfacet
facet normal 0.9891152861057341 0.14714262058279368 4.689342410837779e-16
  outer loop
    vertex -5.768683810427187 -1.649935482167494 1.5
    vertex -5.999155402162609 -0.10067005862315338 0.0
    vertex -5.99915540216261 -0.10067005862315338 1.5
  endloop
endfacet
facet normal 0.9173286874737078 0.3981307312149673 2.1388554122639965e-16
  outer loop
    vertex -5.768683810427187 -1.649935482167494 0.0
    vertex -5.145085950211893 -3.0867605292494233 1.5
    vertex -5.145085950211893 -3.0867605292494233 0.0
  endloop
endfacet
facet normal 0.9173286874737078 0.3981307312149673 2.1388554122639965e-16
  outer loop
    vertex -5.145085950211893 -3.0867605292494233 1.5
    vertex -5.768683810427187 -1.649935482167494 0.0
    vertex -5.768683810427187 -1.649935482167494 1.5
  endloop
endfacet
facet normal 0.7830276547476822 0.6219868904569811 0.0
  outer loop
    vertex -5.145085950211893 -3.0867605292494233 0.0
    vertex -4.170858985146212 -4.313227947375969 1.5
    vertex -4.170858985146212 -4.313227947375969 0.0
  endloop
endfacet
facet normal 0.7830276547476822 0.6219868904569811 0.0
  outer loop
    vertex -4.170858985146212 -4.313227947375969 1.5
    vertex -5.145085950211893 -3.0867605292494233 0.0
    vertex -5.145085950211893 -3.0867605292494233 1.5
  endloop
endfacet
facet normal 0.5953645813649837 0.8034556709962895 0.0
  outer loop
    vertex -4.170858985146212 -4.313227947375969 1.5
    vertex -2.912394872913186 -5.245756008835046 0.0
    vertex -4.170858985146212 -4.313227947375969 0.0
  endloop
endfacet
facet normal 0.5953645813649837 0.8034556709962895 0.0
  outer loop
    vertex -2.912394872913186 -5.245756008835046 0.0
    vertex -4.170858985146212 -4.313227947375969 1.5
    vertex -2.912394872913186 -5.245756008835046 1.5
  endloop
endfacet
facet normal 0.3671283956487523 0.9301702753304759 -2.1687970243214516e-16
  outer loop
    vertex -2.912394872913186 -5.245756008835046 1.5
    vertex -1.4554558630512173 -5.820794467313704 0.0
    vertex -2.912394872913186 -5.245756008835046 0.0
  endloop
endfacet
facet normal 0.3671283956487523 0.9301702753304759 -2.1687970243214516e-16
  outer loop
    vertex -1.4554558630512173 -5.820794467313704 0.0
    vertex -2.912394872913186 -5.245756008835046 1.5
    vertex -1.4554558630512173 -5.8207944673137035 1.5
  endloop
endfacet
facet normal 0.11387301647741924 0.9934953125799505 -2.3164464988253654e-16
  outer loop
    vertex -1.4554558630512173 -5.8207944673137035 1.5
    vertex 0.10067005862315198 -5.999155402162609 0.0
    vertex -1.4554558630512173 -5.820794467313704 0.0
  endloop
endfacet
facet normal 0.11387301647741924 0.9934953125799505 -2.3164464988253654e-16
  outer loop
    vertex 0.10067005862315198 -5.999155402162609 0.0
    vertex -1.4554558630512173 -5.8207944673137035 1.5
    vertex 0.10067005862315198 -5.999155402162609 1.5
  endloop
endfacet
facet normal -0.14714262058279368 0.9891152861057341 0.0
  outer loop
    vertex 0.10067005862315198 -5.999155402162609 1.5
    vertex 1.6499354821674925 -5.768683810427187 0.0
    vertex 0.10067005862315198 -5.999155402162609 0.0
  endloop
endfacet
facet normal -0.14714262058279368 0.9891152861057341 0.0
  outer loop
    vertex 1.6499354821674925 -5.768683810427187 0.0
    vertex 0.10067005862315198 -5.999155402162609 1.5
    vertex 1.6499354821674925 -5.768683810427187 1.5
  endloop
endfacet
facet normal 0.08052038214535072 0.7025072726023306 0.7071067811865486
  outer loop
    vertex 0.10913162000569634 -6.503398891966117 1.9999999999999998
    vertex -1.4554558630512173 -5.8207944673137035 1.5
    vertex -1.5777904409111896 -6.310046290090148 1.9999999999999998
  endloop
endfacet
facet normal 0.08052038214535072 0.7025072726023306 0.7071067811865486
  outer loop
    vertex -1.4554558630512173 -5.8207944673137035 1.5
    vertex 0.10913162000569634 -6.503398891966117 1.9999999999999998
    vertex 0.10067005862315198 -5.999155402162609 1.5
  endloop
endfacet
facet normal -0.3981307312149668 0.917328687473708 0.0
  outer loop
    vertex 1.6499354821674925 -5.768683810427187 1.5
    vertex 3.0867605292494233 -5.145085950211893 0.0
    vertex 1.6499354821674925 -5.768683810427187 0.0
  endloop
endfacet
facet normal -0.3981307312149668 0.917328687473708 0.0
  outer loop
    vertex 3.0867605292494233 -5.145085950211893 0.0
    vertex 1.6499354821674925 -5.768683810427187 1.5
    vertex 3.0867605292494233 -5.145085950211893 1.5
  endloop
endfacet
facet normal -0.595364581364984 -0.8034556709962891 0.0
  outer loop
    vertex 4.170858985146215 4.313227947375967 1.5
    vertex 2.9123948729131905 5.245756008835044 0.0
    vertex 4.170858985146215 4.313227947375967 0.0
  endloop
endfacet
facet normal -0.595364581364984 -0.8034556709962891 0.0
  outer loop
    vertex 2.9123948729131905 5.245756008835044 0.0
    vertex 4.170858985146215 4.313227947375967 1.5
    vertex 2.9123948729131905 5.245756008835044 1.5
  endloop
endfacet
facet normal -0.6219868904569805 0.7830276547476828 0.0
  outer loop
    vertex 3.0867605292494233 -5.145085950211893 1.5
    vertex 4.31322794737597 -4.170858985146213 0.0
    vertex 3.0867605292494233 -5.145085950211893 0.0
  endloop
endfacet
facet normal -0.6219868904569805 0.7830276547476828 0.0
  outer loop
    vertex 4.31322794737597 -4.170858985146213 0.0
    vertex 3.0867605292494233 -5.145085950211893 1.5
    vertex 4.31322794737597 -4.170858985146213 1.5
  endloop
endfacet
facet normal -0.80345567099629 0.5953645813649828 -7.493390466866307e-16
  outer loop
    vertex 5.245756008835044 -2.912394872913186 1.5
    vertex 4.31322794737597 -4.170858985146213 0.0
    vertex 4.31322794737597 -4.170858985146213 1.5
  endloop
endfacet
facet normal -0.80345567099629 0.5953645813649828 -7.493390466866307e-16
  outer loop
    vertex 4.31322794737597 -4.170858985146213 0.0
    vertex 5.245756008835044 -2.912394872913186 1.5
    vertex 5.245756008835047 -2.912394872913186 0.0
  endloop
endfacet
facet normal -0.36712839564875266 -0.9301702753304756 0.0
  outer loop
    vertex 2.9123948729131905 5.245756008835044 1.5
    vertex 1.4554558630512173 5.820794467313704 0.0
    vertex 2.9123948729131905 5.245756008835044 0.0
  endloop
endfacet
facet normal -0.36712839564875266 -0.9301702753304756 0.0
  outer loop
    vertex 1.4554558630512173 5.820794467313704 0.0
    vertex 2.9123948729131905 5.245756008835044 1.5
    vertex 1.4554558630512173 5.820794467313704 1.5
  endloop
endfacet
facet normal -0.9301702753304756 0.36712839564875294 -8.675188097285802e-16
  outer loop
    vertex 5.820794467313704 -1.4554558630512173 1.5
    vertex 5.245756008835047 -2.912394872913186 0.0
    vertex 5.245756008835044 -2.912394872913186 1.5
  endloop
endfacet
facet normal -0.9301702753304756 0.36712839564875294 -8.675188097285802e-16
  outer loop
    vertex 5.245756008835047 -2.912394872913186 0.0
    vertex 5.820794467313704 -1.4554558630512173 1.5
    vertex 5.820794467313704 -1.4554558630512173 0.0
  endloop
endfacet
facet normal -0.9934953125799505 0.11387301647741954 0.0
  outer loop
    vertex 5.99915540216261 0.10067005862315057 1.5
    vertex 5.820794467313704 -1.4554558630512173 0.0
    vertex 5.820794467313704 -1.4554558630512173 1.5
  endloop
endfacet
facet normal -0.9934953125799505 0.11387301647741954 0.0
  outer loop
    vertex 5.820794467313704 -1.4554558630512173 0.0
    vertex 5.99915540216261 0.10067005862315057 1.5
    vertex 5.99915540216261 0.10067005862315057 0.0
  endloop
endfacet
facet normal -0.11387301647741954 -0.9934953125799505 0.0
  outer loop
    vertex 1.4554558630512173 5.820794467313704 1.5
    vertex -0.10067005862315057 5.99915540216261 0.0
    vertex 1.4554558630512173 5.820794467313704 0.0
  endloop
endfacet
facet normal -0.11387301647741954 -0.9934953125799505 0.0
  outer loop
    vertex -0.10067005862315057 5.99915540216261 0.0
    vertex 1.4554558630512173 5.820794467313704 1.5
    vertex -0.10067005862315057 5.99915540216261 1.5
  endloop
endfacet
facet normal -0.9891152861057338 -0.1471426205827946 0.0
  outer loop
    vertex 5.768683810427186 1.6499354821674912 1.5
    vertex 5.99915540216261 0.10067005862315057 0.0
    vertex 5.99915540216261 0.10067005862315057 1.5
  endloop
endfacet
facet normal -0.9891152861057338 -0.1471426205827946 0.0
  outer loop
    vertex 5.99915540216261 0.10067005862315057 0.0
    vertex 5.768683810427186 1.6499354821674912 1.5
    vertex 5.768683810427186 1.6499354821674912 0.0
  endloop
endfacet
facet normal -0.9173286874737087 -0.3981307312149652 0.0
  outer loop
    vertex 5.145085950211896 3.0867605292494207 1.5
    vertex 5.768683810427186 1.6499354821674912 0.0
    vertex 5.768683810427186 1.6499354821674912 1.5
  endloop
endfacet
facet normal -0.9173286874737087 -0.3981307312149652 0.0
  outer loop
    vertex 5.768683810427186 1.6499354821674912 0.0
    vertex 5.145085950211896 3.0867605292494207 1.5
    vertex 5.145085950211896 3.0867605292494207 0.0
  endloop
endfacet
facet normal 0.14714262058279473 -0.9891152861057338 0.0
  outer loop
    vertex -0.10067005862315057 5.99915540216261 1.5
    vertex -1.6499354821674899 5.768683810427186 0.0
    vertex -0.10067005862315057 5.99915540216261 0.0
  endloop
endfacet
facet normal 0.14714262058279473 -0.9891152861057338 0.0
  outer loop
    vertex -1.6499354821674899 5.768683810427186 0.0
    vertex -0.10067005862315057 5.99915540216261 1.5
    vertex -1.6499354821674899 5.768683810427186 1.5
  endloop
endfacet
facet normal -0.7830276547476823 -0.6219868904569809 0.0
  outer loop
    vertex 4.170858985146215 4.313227947375967 1.5
    vertex 5.145085950211896 3.0867605292494207 0.0
    vertex 5.145085950211896 3.0867605292494207 1.5
  endloop
endfacet
facet normal -0.7830276547476823 -0.6219868904569809 0.0
  outer loop
    vertex 5.145085950211896 3.0867605292494207 0.0
    vertex 4.170858985146215 4.313227947375967 1.5
    vertex 4.170858985146215 4.313227947375967 0.0
  endloop
endfacet
endsolid ĐẾ LÒ XO - TRỤC NHỰA - 3
