solid ĐẾ LÒ XO - TRỤC NHỰA - 1
facet normal 0.38268343236509045 -0.9238795325112865 0.0
  outer loop
    vertex 9.000000000000002 5.303847577293371 5.000000000000001
    vertex 7.552914270615128 4.704445042265593 1.9999999999999998
    vertex 9.000000000000002 5.303847577293371 1.9999999999999998
  endloop
endfacet
facet normal 0.38268343236509045 -0.9238795325112865 0.0
  outer loop
    vertex 7.552914270615128 4.704445042265593 1.9999999999999998
    vertex 9.000000000000002 5.303847577293371 5.000000000000001
    vertex 7.552914270615128 4.704445042265593 5.000000000000001
  endloop
endfacet
facet normal -0.9914448613738105 -0.13052619222005177 0.0
  outer loop
    vertex 0.0 10.5 5.000000000000001
    vertex 0.2044450422655912 8.94708572938487 1.9999999999999998
    vertex 0.2044450422655912 8.94708572938487 5.000000000000001
  endloop
endfacet
facet normal -0.9914448613738105 -0.13052619222005177 0.0
  outer loop
    vertex 0.2044450422655912 8.94708572938487 1.9999999999999998
    vertex 0.0 10.5 5.000000000000001
    vertex 0.20000000000000004 8.980849177454973 1.9999999999999998
  endloop
endfacet
facet normal -0.9914448613738105 -0.13052619222005177 0.0
  outer loop
    vertex 0.20000000000000004 8.980849177454973 1.9999999999999998
    vertex 0.0 10.5 5.000000000000001
    vertex 0.0 10.5 1.9999999999999998
  endloop
endfacet
facet normal 0.9238795325112867 -0.3826834323650898 0.0
  outer loop
    vertex 11.79555495773441 8.947085729384877 1.9999999999999998
    vertex 11.196152422706632 7.5000000000000036 5.000000000000001
    vertex 11.196152422706632 7.5000000000000036 1.9999999999999998
  endloop
endfacet
facet normal 0.9238795325112867 -0.3826834323650898 0.0
  outer loop
    vertex 11.196152422706632 7.5000000000000036 5.000000000000001
    vertex 11.79555495773441 8.947085729384877 1.9999999999999998
    vertex 11.79555495773441 8.947085729384877 5.000000000000001
  endloop
endfacet
facet normal 0.7933533402912356 -0.6087614290087199 0.0
  outer loop
    vertex 11.196152422706632 7.5000000000000036 1.9999999999999998
    vertex 10.242640687119287 6.257359312880718 5.000000000000001
    vertex 10.242640687119287 6.257359312880718 1.9999999999999998
  endloop
endfacet
facet normal 0.7933533402912356 -0.6087614290087199 0.0
  outer loop
    vertex 10.242640687119287 6.257359312880718 5.000000000000001
    vertex 11.196152422706632 7.5000000000000036 1.9999999999999998
    vertex 11.196152422706632 7.5000000000000036 5.000000000000001
  endloop
endfacet
facet normal -0.9914448613738105 0.13052619222005132 -1.0189596355589678e-17
  outer loop
    vertex 0.20444504226558982 12.052914270615124 5.000000000000001
    vertex 0.0 10.5 1.9999999999999998
    vertex 0.0 10.5 5.000000000000001
  endloop
endfacet
facet normal -0.9914448613738105 0.13052619222005132 -1.0189596355589678e-17
  outer loop
    vertex 0.0 10.5 1.9999999999999998
    vertex 0.20444504226558982 12.052914270615124 5.000000000000001
    vertex 0.20000000000000004 12.019150822545033 1.9999999999999998
  endloop
endfacet
facet normal -0.9914448613738105 0.13052619222005132 -1.0189596355589678e-17
  outer loop
    vertex 0.20000000000000004 12.019150822545033 1.9999999999999998
    vertex 0.20444504226558982 12.052914270615124 5.000000000000001
    vertex 0.20444504226558982 12.052914270615124 1.9999999999999998
  endloop
endfacet
facet normal -0.9238795325112868 0.3826834323650895 0.0
  outer loop
    vertex 0.8038475772933674 13.5 5.000000000000001
    vertex 0.20444504226558982 12.052914270615124 1.9999999999999998
    vertex 0.20444504226558982 12.052914270615124 5.000000000000001
  endloop
endfacet
facet normal -0.9238795325112868 0.3826834323650895 0.0
  outer loop
    vertex 0.20444504226558982 12.052914270615124 1.9999999999999998
    vertex 0.8038475772933674 13.5 5.000000000000001
    vertex 0.8038475772933674 13.5 1.9999999999999998
  endloop
endfacet
facet normal -6.867846117004472e-18 0.7071067811865485 0.7071067811865467
  outer loop
    vertex 0.20000000000000004 20.8 1.9999999999999998
    vertex 18.0 21.0 1.7999999999999998
    vertex 0.0 21.0 1.7999999999999996
  endloop
endfacet
facet normal -6.867846117004472e-18 0.7071067811865485 0.7071067811865467
  outer loop
    vertex 18.0 21.0 1.7999999999999998
    vertex 0.20000000000000004 20.8 1.9999999999999998
    vertex 17.8 20.8 1.9999999999999998
  endloop
endfacet
facet normal 0.6087614290087209 -0.793353340291235 0.0
  outer loop
    vertex 10.242640687119287 6.257359312880718 5.000000000000001
    vertex 9.000000000000002 5.303847577293371 1.9999999999999998
    vertex 10.242640687119287 6.257359312880718 1.9999999999999998
  endloop
endfacet
facet normal 0.6087614290087209 -0.793353340291235 0.0
  outer loop
    vertex 9.000000000000002 5.303847577293371 1.9999999999999998
    vertex 10.242640687119287 6.257359312880718 5.000000000000001
    vertex 9.000000000000002 5.303847577293371 5.000000000000001
  endloop
endfacet
facet normal 0.7933533402912349 0.6087614290087211 0.0
  outer loop
    vertex 10.242640687119284 14.742640687119286 1.9999999999999998
    vertex 11.19615242270663 13.500000000000004 5.000000000000001
    vertex 11.19615242270663 13.500000000000004 1.9999999999999998
  endloop
endfacet
facet normal 0.7933533402912349 0.6087614290087211 0.0
  outer loop
    vertex 11.19615242270663 13.500000000000004 5.000000000000001
    vertex 10.242640687119284 14.742640687119286 1.9999999999999998
    vertex 10.242640687119284 14.742640687119286 5.000000000000001
  endloop
endfacet
facet normal 0.9238795325112867 0.3826834323650899 0.0
  outer loop
    vertex 11.19615242270663 13.500000000000004 1.9999999999999998
    vertex 11.795554957734408 12.052914270615126 5.000000000000001
    vertex 11.795554957734408 12.052914270615126 1.9999999999999998
  endloop
endfacet
facet normal 0.9238795325112867 0.3826834323650899 0.0
  outer loop
    vertex 11.795554957734408 12.052914270615126 5.000000000000001
    vertex 11.19615242270663 13.500000000000004 1.9999999999999998
    vertex 11.19615242270663 13.500000000000004 5.000000000000001
  endloop
endfacet
facet normal 0.0 -1.0 0.0
  outer loop
    vertex 18.0 0.0 1.7999999999999987
    vertex 0.0 0.0 -0.9999999999999999
    vertex 18.0 0.0 -0.9999999999999999
  endloop
endfacet
facet normal 0.0 -1.0 0.0
  outer loop
    vertex 0.0 0.0 -0.9999999999999999
    vertex 18.0 0.0 1.7999999999999987
    vertex 0.0 0.0 1.7999999999999992
  endloop
endfacet
facet normal -0.6087614290087202 -0.7933533402912355 -0.0
  outer loop
    vertex 3.0000000000000036 5.303847577293367 5.000000000000001
    vertex 1.757359312880716 6.257359312880714 1.9999999999999998
    vertex 3.0000000000000036 5.303847577293367 1.9999999999999998
  endloop
endfacet
facet normal -0.6087614290087202 -0.7933533402912355 -0.0
  outer loop
    vertex 1.757359312880716 6.257359312880714 1.9999999999999998
    vertex 3.0000000000000036 5.303847577293367 5.000000000000001
    vertex 1.757359312880716 6.257359312880714 5.000000000000001
  endloop
endfacet
facet normal -0.130526192220051 -0.9914448613738106 -0.0
  outer loop
    vertex 6.000000000000001 4.500000000000001 5.000000000000001
    vertex 4.447085729384877 4.70444504226559 1.9999999999999998
    vertex 6.000000000000001 4.500000000000001 1.9999999999999998
  endloop
endfacet
facet normal -0.130526192220051 -0.9914448613738106 -0.0
  outer loop
    vertex 4.447085729384877 4.70444504226559 1.9999999999999998
    vertex 6.000000000000001 4.500000000000001 5.000000000000001
    vertex 4.447085729384877 4.70444504226559 5.000000000000001
  endloop
endfacet
facet normal -0.38268343236508956 -0.923879532511287 -0.0
  outer loop
    vertex 4.447085729384877 4.70444504226559 5.000000000000001
    vertex 3.0000000000000036 5.303847577293367 1.9999999999999998
    vertex 4.447085729384877 4.70444504226559 1.9999999999999998
  endloop
endfacet
facet normal -0.38268343236508956 -0.923879532511287 -0.0
  outer loop
    vertex 3.0000000000000036 5.303847577293367 1.9999999999999998
    vertex 4.447085729384877 4.70444504226559 5.000000000000001
    vertex 3.0000000000000036 5.303847577293367 5.000000000000001
  endloop
endfacet
facet normal 0.1305261922200518 0.9914448613738104 0.0
  outer loop
    vertex 5.999999999999999 16.5 5.000000000000001
    vertex 7.552914270615123 16.29555495773441 1.9999999999999998
    vertex 5.999999999999999 16.5 1.9999999999999998
  endloop
endfacet
facet normal 0.1305261922200518 0.9914448613738104 0.0
  outer loop
    vertex 7.552914270615123 16.29555495773441 1.9999999999999998
    vertex 5.999999999999999 16.5 5.000000000000001
    vertex 7.552914270615123 16.29555495773441 5.000000000000001
  endloop
endfacet
facet normal -0.6087614290087212 0.7933533402912347 0.0
  outer loop
    vertex 1.7573593128807143 14.742640687119286 5.000000000000001
    vertex 2.999999999999999 15.696152422706632 1.9999999999999998
    vertex 1.7573593128807143 14.742640687119286 1.9999999999999998
  endloop
endfacet
facet normal -0.6087614290087212 0.7933533402912347 0.0
  outer loop
    vertex 2.999999999999999 15.696152422706632 1.9999999999999998
    vertex 1.7573593128807143 14.742640687119286 5.000000000000001
    vertex 2.999999999999999 15.696152422706632 5.000000000000001
  endloop
endfacet
facet normal 0.3826834323650898 0.9238795325112867 0.0
  outer loop
    vertex 7.552914270615123 16.29555495773441 5.000000000000001
    vertex 8.999999999999998 15.696152422706632 1.9999999999999998
    vertex 7.552914270615123 16.29555495773441 1.9999999999999998
  endloop
endfacet
facet normal 0.3826834323650898 0.9238795325112867 0.0
  outer loop
    vertex 8.999999999999998 15.696152422706632 1.9999999999999998
    vertex 7.552914270615123 16.29555495773441 5.000000000000001
    vertex 8.999999999999998 15.696152422706632 5.000000000000001
  endloop
endfacet
facet normal -0.9238795325112865 -0.38268343236509045 0.0
  outer loop
    vertex 0.2044450422655912 8.94708572938487 5.000000000000001
    vertex 0.8038475772933695 7.499999999999997 1.9999999999999998
    vertex 0.8038475772933695 7.499999999999997 5.000000000000001
  endloop
endfacet
facet normal -0.9238795325112865 -0.38268343236509045 0.0
  outer loop
    vertex 0.8038475772933695 7.499999999999997 1.9999999999999998
    vertex 0.2044450422655912 8.94708572938487 5.000000000000001
    vertex 0.2044450422655912 8.94708572938487 1.9999999999999998
  endloop
endfacet
facet normal -1.0 0.0 0.0
  outer loop
    vertex 0.0 21.0 1.7999999999999996
    vertex 0.0 0.0 -0.9999999999999999
    vertex 0.0 0.0 1.7999999999999992
  endloop
endfacet
facet normal -1.0 0.0 0.0
  outer loop
    vertex 0.0 0.0 -0.9999999999999999
    vertex 0.0 21.0 1.7999999999999996
    vertex 0.0 21.0 -0.9999999999999999
  endloop
endfacet
facet normal 0.0 0.0 1.0
  outer loop
    vertex 0.20009936290765598 0.1999999999999991 1.9999999999999998
    vertex 0.8038475772933695 7.499999999999997 1.9999999999999998
    vertex 0.2044450422655912 8.94708572938487 1.9999999999999998
  endloop
endfacet
facet normal 0.0 0.0 1.0
  outer loop
    vertex 0.8038475772933695 7.499999999999997 1.9999999999999998
    vertex 0.20009936290765598 0.1999999999999991 1.9999999999999998
    vertex 1.757359312880716 6.257359312880714 1.9999999999999998
  endloop
endfacet
facet normal 0.0 0.0 1.0
  outer loop
    vertex 1.757359312880716 6.257359312880714 1.9999999999999998
    vertex 0.20009936290765598 0.1999999999999991 1.9999999999999998
    vertex 3.0000000000000036 5.303847577293367 1.9999999999999998
  endloop
endfacet
facet normal 0.0 0.0 1.0
  outer loop
    vertex 3.0000000000000036 5.303847577293367 1.9999999999999998
    vertex 0.20009936290765598 0.1999999999999991 1.9999999999999998
    vertex 4.447085729384877 4.70444504226559 1.9999999999999998
  endloop
endfacet
facet normal 0.0 0.0 1.0
  outer loop
    vertex 4.447085729384877 4.70444504226559 1.9999999999999998
    vertex 0.20009936290765598 0.1999999999999991 1.9999999999999998
    vertex 17.8 0.20000000000000004 1.9999999999999998
  endloop
endfacet
facet normal 0.0 0.0 1.0
  outer loop
    vertex 4.447085729384877 4.70444504226559 1.9999999999999998
    vertex 17.8 0.20000000000000004 1.9999999999999998
    vertex 6.000000000000001 4.500000000000001 1.9999999999999998
  endloop
endfacet
facet normal 0.0 0.0 1.0
  outer loop
    vertex 6.000000000000001 4.500000000000001 1.9999999999999998
    vertex 17.8 0.20000000000000004 1.9999999999999998
    vertex 7.552914270615128 4.704445042265593 1.9999999999999998
  endloop
endfacet
facet normal 0.0 0.0 1.0
  outer loop
    vertex 7.552914270615128 4.704445042265593 1.9999999999999998
    vertex 17.8 0.20000000000000004 1.9999999999999998
    vertex 9.000000000000002 5.303847577293371 1.9999999999999998
  endloop
endfacet
facet normal 0.0 0.0 1.0
  outer loop
    vertex 9.000000000000002 5.303847577293371 1.9999999999999998
    vertex 17.8 0.20000000000000004 1.9999999999999998
    vertex 10.242640687119287 6.257359312880718 1.9999999999999998
  endloop
endfacet
facet normal 0.0 0.0 1.0
  outer loop
    vertex 10.242640687119287 6.257359312880718 1.9999999999999998
    vertex 17.8 0.20000000000000004 1.9999999999999998
    vertex 11.196152422706632 7.5000000000000036 1.9999999999999998
  endloop
endfacet
facet normal 0.0 0.0 1.0
  outer loop
    vertex 11.196152422706632 7.5000000000000036 1.9999999999999998
    vertex 17.8 0.20000000000000004 1.9999999999999998
    vertex 11.79555495773441 8.947085729384877 1.9999999999999998
  endloop
endfacet
facet normal 0.0 0.0 1.0
  outer loop
    vertex 11.79555495773441 8.947085729384877 1.9999999999999998
    vertex 17.8 0.20000000000000004 1.9999999999999998
    vertex 12.0 10.5 1.9999999999999998
  endloop
endfacet
facet normal 0.0 0.0 1.0
  outer loop
    vertex 0.20000000000000004 20.8 1.9999999999999998
    vertex 4.447085729384874 16.29555495773441 1.9999999999999998
    vertex 17.8 20.8 1.9999999999999998
  endloop
endfacet
facet normal 0.0 0.0 1.0
  outer loop
    vertex 4.447085729384874 16.29555495773441 1.9999999999999998
    vertex 0.20000000000000004 20.8 1.9999999999999998
    vertex 2.999999999999999 15.696152422706632 1.9999999999999998
  endloop
endfacet
facet normal 0.0 0.0 1.0
  outer loop
    vertex 2.999999999999999 15.696152422706632 1.9999999999999998
    vertex 0.20000000000000004 20.8 1.9999999999999998
    vertex 1.7573593128807143 14.742640687119286 1.9999999999999998
  endloop
endfacet
facet normal 0.0 0.0 1.0
  outer loop
    vertex 1.7573593128807143 14.742640687119286 1.9999999999999998
    vertex 0.20000000000000004 20.8 1.9999999999999998
    vertex 0.8038475772933674 13.5 1.9999999999999998
  endloop
endfacet
facet normal 0.0 0.0 1.0
  outer loop
    vertex 0.8038475772933674 13.5 1.9999999999999998
    vertex 0.20000000000000004 20.8 1.9999999999999998
    vertex 0.20444504226558982 12.052914270615124 1.9999999999999998
  endloop
endfacet
facet normal 0.0 0.0 1.0
  outer loop
    vertex 17.8 20.8 1.9999999999999998
    vertex 4.447085729384874 16.29555495773441 1.9999999999999998
    vertex 5.999999999999999 16.5 1.9999999999999998
  endloop
endfacet
facet normal 0.0 0.0 1.0
  outer loop
    vertex 17.8 20.8 1.9999999999999998
    vertex 5.999999999999999 16.5 1.9999999999999998
    vertex 7.552914270615123 16.29555495773441 1.9999999999999998
  endloop
endfacet
facet normal 0.0 0.0 1.0
  outer loop
    vertex 17.8 20.8 1.9999999999999998
    vertex 7.552914270615123 16.29555495773441 1.9999999999999998
    vertex 8.999999999999998 15.696152422706632 1.9999999999999998
  endloop
endfacet
facet normal 0.0 0.0 1.0
  outer loop
    vertex 17.8 20.8 1.9999999999999998
    vertex 8.999999999999998 15.696152422706632 1.9999999999999998
    vertex 10.242640687119284 14.742640687119286 1.9999999999999998
  endloop
endfacet
facet normal 0.0 0.0 1.0
  outer loop
    vertex 17.8 20.8 1.9999999999999998
    vertex 10.242640687119284 14.742640687119286 1.9999999999999998
    vertex 11.19615242270663 13.500000000000004 1.9999999999999998
  endloop
endfacet
facet normal 0.0 0.0 1.0
  outer loop
    vertex 17.8 20.8 1.9999999999999998
    vertex 11.19615242270663 13.500000000000004 1.9999999999999998
    vertex 11.795554957734408 12.052914270615126 1.9999999999999998
  endloop
endfacet
facet normal 0.0 0.0 1.0
  outer loop
    vertex 17.8 20.8 1.9999999999999998
    vertex 11.795554957734408 12.052914270615126 1.9999999999999998
    vertex 12.0 10.5 1.9999999999999998
  endloop
endfacet
facet normal 0.0 0.0 1.0
  outer loop
    vertex 17.8 20.8 1.9999999999999998
    vertex 12.0 10.5 1.9999999999999998
    vertex 17.8 0.20000000000000004 1.9999999999999998
  endloop
endfacet
facet normal 1.0 0.0 0.0
  outer loop
    vertex 18.0 21.0 -0.9999999999999999
    vertex 18.0 14.0 0.30000000000000016
    vertex 18.0 14.0 -0.9999999999999999
  endloop
endfacet
facet normal 1.0 0.0 0.0
  outer loop
    vertex 18.0 7.0 -0.9999999999999999
    vertex 18.0 0.0 1.7999999999999987
    vertex 18.0 0.0 -0.9999999999999999
  endloop
endfacet
facet normal 1.0 0.0 0.0
  outer loop
    vertex 18.0 0.0 1.7999999999999987
    vertex 18.0 7.0 -0.9999999999999999
    vertex 18.0 7.0 0.30000000000000016
  endloop
endfacet
facet normal 1.0 0.0 0.0
  outer loop
    vertex 18.0 0.0 1.7999999999999987
    vertex 18.0 7.0 0.30000000000000016
    vertex 18.0 21.0 1.7999999999999998
  endloop
endfacet
facet normal 1.0 0.0 0.0
  outer loop
    vertex 18.0 21.0 1.7999999999999998
    vertex 18.0 7.0 0.30000000000000016
    vertex 18.0 14.0 0.30000000000000016
  endloop
endfacet
facet normal 1.0 0.0 0.0
  outer loop
    vertex 18.0 21.0 1.7999999999999998
    vertex 18.0 14.0 0.30000000000000016
    vertex 18.0 21.0 -0.9999999999999999
  endloop
endfacet
facet normal -0.7043114144438273 -1.6303743550796178e-06 0.7098911405852854
  outer loop
    vertex 0.20009936290765598 0.1999999999999991 1.9999999999999998
    vertex 0.0 21.0 1.7999999999999996
    vertex 0.0 0.0 1.7999999999999992
  endloop
endfacet
facet normal -0.7043114144438273 -1.6303743550796178e-06 0.7098911405852854
  outer loop
    vertex 0.0 21.0 1.7999999999999996
    vertex 0.20009936290765598 0.1999999999999991 1.9999999999999998
    vertex 0.20000000000000004 8.980849177454973 1.9999999999999998
  endloop
endfacet
facet normal -0.7043114144438273 -1.6303743550796178e-06 0.7098911405852854
  outer loop
    vertex 0.20000000000000004 8.980849177454973 1.9999999999999998
    vertex 0.20009936290765598 0.1999999999999991 1.9999999999999998
    vertex 0.2044450422655912 8.94708572938487 1.9999999999999998
  endloop
endfacet
facet normal -0.7043114144438273 -1.6303743550796178e-06 0.7098911405852854
  outer loop
    vertex 0.20000000000000004 8.980849177454973 1.9999999999999998
    vertex 0.20000000000000004 20.8 1.9999999999999998
    vertex 0.0 21.0 1.7999999999999996
  endloop
endfacet
facet normal -0.7043114144438273 -1.6303743550796178e-06 0.7098911405852854
  outer loop
    vertex 0.20000000000000004 20.8 1.9999999999999998
    vertex 0.20000000000000004 8.980849177454973 1.9999999999999998
    vertex 0.20000000000000004 12.019150822545033 1.9999999999999998
  endloop
endfacet
facet normal -0.7043114144438273 -1.6303743550796178e-06 0.7098911405852854
  outer loop
    vertex 0.20000000000000004 20.8 1.9999999999999998
    vertex 0.20000000000000004 12.019150822545033 1.9999999999999998
    vertex 0.20444504226558982 12.052914270615124 1.9999999999999998
  endloop
endfacet
facet normal 0.0 -3.357102955414163e-17 1.0
  outer loop
    vertex 18.0 0.0 1.7999999999999987
    vertex 0.0 21.0 1.7999999999999996
    vertex 0.0 0.0 1.7999999999999992
  endloop
endfacet
facet normal 0.0 -3.357102955414163e-17 1.0
  outer loop
    vertex 0.0 21.0 1.7999999999999996
    vertex 18.0 0.0 1.7999999999999987
    vertex 18.0 21.0 1.7999999999999998
  endloop
endfacet
facet normal 0.0 1.0 0.0
  outer loop
    vertex 18.0 14.0 0.30000000000000016
    vertex 19.5 14.0 -0.9999999999999999
    vertex 18.0 14.0 -0.9999999999999999
  endloop
endfacet
facet normal 0.0 1.0 0.0
  outer loop
    vertex 19.5 14.0 -0.9999999999999999
    vertex 18.0 14.0 0.30000000000000016
    vertex 19.5 14.0 0.30000000000000016
  endloop
endfacet
facet normal -0.7933533402912352 -0.6087614290087205 0.0
  outer loop
    vertex 1.6698729810778072 7.999999999999999 14.0
    vertex 2.4644660940672622 6.964466094067262 5.000000000000001
    vertex 2.4644660940672622 6.964466094067262 14.0
  endloop
endfacet
facet normal -0.7933533402912352 -0.6087614290087205 0.0
  outer loop
    vertex 2.4644660940672622 6.964466094067262 5.000000000000001
    vertex 1.6698729810778072 7.999999999999999 14.0
    vertex 1.6698729810778072 7.999999999999999 5.000000000000001
  endloop
endfacet
facet normal 0.5609855267969311 0.4304593345768794 0.7071067811865475
  outer loop
    vertex 9.456628716067083 12.495685519709925 15.0
    vertex 9.535533905932736 14.035533905932738 14.0
    vertex 8.82232552820537 13.322325528205374 15.0
  endloop
endfacet
facet normal 0.5609855267969311 0.4304593345768794 0.7071067811865475
  outer loop
    vertex 9.535533905932736 14.035533905932738 14.0
    vertex 9.456628716067083 12.495685519709925 15.0
    vertex 10.330127018922191 13.000000000000002 14.0
  endloop
endfacet
facet normal 0.7071067811865491 -1.8061465026321533e-17 0.707106781186546
  outer loop
    vertex 18.0 21.0 1.7999999999999998
    vertex 17.8 0.20000000000000004 1.9999999999999998
    vertex 18.0 0.0 1.7999999999999987
  endloop
endfacet
facet normal 0.7071067811865491 -1.8061465026321533e-17 0.707106781186546
  outer loop
    vertex 17.8 0.20000000000000004 1.9999999999999998
    vertex 18.0 21.0 1.7999999999999998
    vertex 17.8 20.8 1.9999999999999998
  endloop
endfacet
facet normal -0.9914448613738105 0.13052619222005143 4.805425077272872e-33
  outer loop
    vertex 1.1703708685546577 11.794095225512601 14.0
    vertex 0.9999999999999996 10.5 5.000000000000001
    vertex 0.9999999999999996 10.5 14.0
  endloop
endfacet
facet normal -0.9914448613738105 0.13052619222005143 4.805425077272872e-33
  outer loop
    vertex 0.9999999999999996 10.5 5.000000000000001
    vertex 1.1703708685546577 11.794095225512601 14.0
    vertex 1.1703708685546577 11.794095225512601 5.000000000000001
  endloop
endfacet
facet normal -0.9238795325112865 -0.3826834323650904 2.6437618729241095e-18
  outer loop
    vertex 1.1703708685546583 9.205904774487395 14.0
    vertex 1.6698729810778072 7.999999999999999 5.000000000000001
    vertex 1.6698729810778072 7.999999999999999 14.0
  endloop
endfacet
facet normal -0.9238795325112865 -0.3826834323650904 2.6437618729241095e-18
  outer loop
    vertex 1.6698729810778072 7.999999999999999 5.000000000000001
    vertex 1.1703708685546583 9.205904774487395 14.0
    vertex 1.1703708685546583 9.205904774487395 5.000000000000001
  endloop
endfacet
facet normal 1.0 0.0 0.0
  outer loop
    vertex 18.0 14.0 -0.9999999999999999
    vertex 18.0 7.0 0.30000000000000016
    vertex 18.0 7.0 -0.9999999999999999
  endloop
endfacet
facet normal 1.0 0.0 0.0
  outer loop
    vertex 18.0 7.0 0.30000000000000016
    vertex 18.0 14.0 -0.9999999999999999
    vertex 18.0 14.0 0.30000000000000016
  endloop
endfacet
facet normal -0.13052619222005168 0.9914448613738105 0.0
  outer loop
    vertex 4.447085729384874 16.29555495773441 5.000000000000001
    vertex 5.999999999999999 16.5 1.9999999999999998
    vertex 4.447085729384874 16.29555495773441 1.9999999999999998
  endloop
endfacet
facet normal -0.13052619222005168 0.9914448613738105 0.0
  outer loop
    vertex 5.999999999999999 16.5 1.9999999999999998
    vertex 4.447085729384874 16.29555495773441 5.000000000000001
    vertex 5.999999999999999 16.5 5.000000000000001
  endloop
endfacet
facet normal 0.0922959556412574 0.7010573846499782 0.7071067811865471
  outer loop
    vertex 7.033042841072499 14.355368369277873 15.0
    vertex 5.999999999999999 15.5 14.0
    vertex 5.999999999999999 14.491371039419848 15.0
  endloop
endfacet
facet normal 0.0922959556412574 0.7010573846499782 0.7071067811865471
  outer loop
    vertex 5.999999999999999 15.5 14.0
    vertex 7.033042841072499 14.355368369277873 15.0
    vertex 7.294095225512601 15.32962913144534 14.0
  endloop
endfacet
facet normal 7.147540323030622e-18 0.7071067811865482 0.7071067811865469
  outer loop
    vertex 18.2 13.8 0.5000000000000001
    vertex 19.5 14.0 0.30000000000000016
    vertex 18.0 14.0 0.30000000000000016
  endloop
endfacet
facet normal 7.147540323030622e-18 0.7071067811865482 0.7071067811865469
  outer loop
    vertex 19.5 14.0 0.30000000000000016
    vertex 18.2 13.8 0.5000000000000001
    vertex 19.3 13.8 0.5000000000000001
  endloop
endfacet
facet normal 2.4662092657604723e-17 -0.7071067811865499 0.7071067811865452
  outer loop
    vertex 17.8 0.20000000000000004 1.9999999999999998
    vertex 0.0 0.0 1.7999999999999992
    vertex 18.0 0.0 1.7999999999999987
  endloop
endfacet
facet normal 2.4662092657604723e-17 -0.7071067811865499 0.7071067811865452
  outer loop
    vertex 0.0 0.0 1.7999999999999992
    vertex 17.8 0.20000000000000004 1.9999999999999998
    vertex 0.20009936290765598 0.1999999999999991 1.9999999999999998
  endloop
endfacet
facet normal 1.0 0.0 0.0
  outer loop
    vertex 19.5 14.0 -0.9999999999999999
    vertex 19.5 7.0 0.30000000000000016
    vertex 19.5 7.0 -0.9999999999999999
  endloop
endfacet
facet normal 1.0 0.0 0.0
  outer loop
    vertex 19.5 7.0 0.30000000000000016
    vertex 19.5 14.0 -0.9999999999999999
    vertex 19.5 14.0 0.30000000000000016
  endloop
endfacet
facet normal 1.9826209025841184e-31 1.0058704954202705e-32 1.0
  outer loop
    vertex 0.8038475772933695 7.499999999999997 5.000000000000001
    vertex 1.1703708685546583 9.205904774487395 5.000000000000001
    vertex 0.9999999999999996 10.5 5.000000000000001
  endloop
endfacet
facet normal 1.9826209025841184e-31 1.0058704954202705e-32 1.0
  outer loop
    vertex 1.1703708685546583 9.205904774487395 5.000000000000001
    vertex 0.8038475772933695 7.499999999999997 5.000000000000001
    vertex 1.757359312880716 6.257359312880714 5.000000000000001
  endloop
endfacet
facet normal 1.9826209025841184e-31 1.0058704954202705e-32 1.0
  outer loop
    vertex 1.1703708685546583 9.205904774487395 5.000000000000001
    vertex 1.757359312880716 6.257359312880714 5.000000000000001
    vertex 1.6698729810778072 7.999999999999999 5.000000000000001
  endloop
endfacet
facet normal 1.9826209025841184e-31 1.0058704954202705e-32 1.0
  outer loop
    vertex 1.6698729810778072 7.999999999999999 5.000000000000001
    vertex 1.757359312880716 6.257359312880714 5.000000000000001
    vertex 2.4644660940672622 6.964466094067262 5.000000000000001
  endloop
endfacet
facet normal 1.9826209025841184e-31 1.0058704954202705e-32 1.0
  outer loop
    vertex 2.4644660940672622 6.964466094067262 5.000000000000001
    vertex 1.757359312880716 6.257359312880714 5.000000000000001
    vertex 3.0000000000000036 5.303847577293367 5.000000000000001
  endloop
endfacet
facet normal 1.9826209025841184e-31 1.0058704954202705e-32 1.0
  outer loop
    vertex 2.4644660940672622 6.964466094067262 5.000000000000001
    vertex 3.0000000000000036 5.303847577293367 5.000000000000001
    vertex 3.5000000000000004 6.169872981077806 5.000000000000001
  endloop
endfacet
facet normal 1.9826209025841184e-31 1.0058704954202705e-32 1.0
  outer loop
    vertex 3.5000000000000004 6.169872981077806 5.000000000000001
    vertex 3.0000000000000036 5.303847577293367 5.000000000000001
    vertex 4.447085729384877 4.70444504226559 5.000000000000001
  endloop
endfacet
facet normal 1.9826209025841184e-31 1.0058704954202705e-32 1.0
  outer loop
    vertex 3.5000000000000004 6.169872981077806 5.000000000000001
    vertex 4.447085729384877 4.70444504226559 5.000000000000001
    vertex 4.705904774487396 5.670370868554659 5.000000000000001
  endloop
endfacet
facet normal 1.9826209025841184e-31 1.0058704954202705e-32 1.0
  outer loop
    vertex 4.705904774487396 5.670370868554659 5.000000000000001
    vertex 4.447085729384877 4.70444504226559 5.000000000000001
    vertex 6.000000000000001 4.500000000000001 5.000000000000001
  endloop
endfacet
facet normal 1.9826209025841184e-31 1.0058704954202705e-32 1.0
  outer loop
    vertex 4.705904774487396 5.670370868554659 5.000000000000001
    vertex 6.000000000000001 4.500000000000001 5.000000000000001
    vertex 6.0 5.500000000000001 5.000000000000001
  endloop
endfacet
facet normal 1.9826209025841184e-31 1.0058704954202705e-32 1.0
  outer loop
    vertex 6.0 5.500000000000001 5.000000000000001
    vertex 6.000000000000001 4.500000000000001 5.000000000000001
    vertex 7.294095225512605 5.670370868554659 5.000000000000001
  endloop
endfacet
facet normal 1.9826209025841184e-31 1.0058704954202705e-32 1.0
  outer loop
    vertex 7.294095225512605 5.670370868554659 5.000000000000001
    vertex 6.000000000000001 4.500000000000001 5.000000000000001
    vertex 7.552914270615128 4.704445042265593 5.000000000000001
  endloop
endfacet
facet normal 1.9826209025841184e-31 1.0058704954202705e-32 1.0
  outer loop
    vertex 7.294095225512605 5.670370868554659 5.000000000000001
    vertex 7.552914270615128 4.704445042265593 5.000000000000001
    vertex 8.5 6.169872981077807 5.000000000000001
  endloop
endfacet
facet normal 1.9826209025841184e-31 1.0058704954202705e-32 1.0
  outer loop
    vertex 8.5 6.169872981077807 5.000000000000001
    vertex 7.552914270615128 4.704445042265593 5.000000000000001
    vertex 9.000000000000002 5.303847577293371 5.000000000000001
  endloop
endfacet
facet normal 1.9826209025841184e-31 1.0058704954202705e-32 1.0
  outer loop
    vertex 8.5 6.169872981077807 5.000000000000001
    vertex 9.000000000000002 5.303847577293371 5.000000000000001
    vertex 9.535533905932738 6.964466094067262 5.000000000000001
  endloop
endfacet
facet normal 1.9826209025841184e-31 1.0058704954202705e-32 1.0
  outer loop
    vertex 9.535533905932738 6.964466094067262 5.000000000000001
    vertex 9.000000000000002 5.303847577293371 5.000000000000001
    vertex 10.242640687119287 6.257359312880718 5.000000000000001
  endloop
endfacet
facet normal 1.9826209025841184e-31 1.0058704954202705e-32 1.0
  outer loop
    vertex 9.535533905932738 6.964466094067262 5.000000000000001
    vertex 10.242640687119287 6.257359312880718 5.000000000000001
    vertex 10.330127018922193 8.0 5.000000000000001
  endloop
endfacet
facet normal 1.9826209025841184e-31 1.0058704954202705e-32 1.0
  outer loop
    vertex 10.330127018922193 8.0 5.000000000000001
    vertex 10.242640687119287 6.257359312880718 5.000000000000001
    vertex 11.196152422706632 7.5000000000000036 5.000000000000001
  endloop
endfacet
facet normal 1.9826209025841184e-31 1.0058704954202705e-32 1.0
  outer loop
    vertex 10.330127018922193 8.0 5.000000000000001
    vertex 11.196152422706632 7.5000000000000036 5.000000000000001
    vertex 10.82962913144534 9.205904774487397 5.000000000000001
  endloop
endfacet
facet normal 1.9826209025841184e-31 1.0058704954202705e-32 1.0
  outer loop
    vertex 10.82962913144534 9.205904774487397 5.000000000000001
    vertex 11.196152422706632 7.5000000000000036 5.000000000000001
    vertex 11.0 10.5 5.000000000000001
  endloop
endfacet
facet normal 1.9826209025841184e-31 1.0058704954202705e-32 1.0
  outer loop
    vertex 11.0 10.5 5.000000000000001
    vertex 11.196152422706632 7.5000000000000036 5.000000000000001
    vertex 11.19615242270663 13.500000000000004 5.000000000000001
  endloop
endfacet
facet normal 1.9826209025841184e-31 1.0058704954202705e-32 1.0
  outer loop
    vertex 11.19615242270663 13.500000000000004 5.000000000000001
    vertex 11.196152422706632 7.5000000000000036 5.000000000000001
    vertex 11.795554957734408 12.052914270615126 5.000000000000001
  endloop
endfacet
facet normal 1.9826209025841184e-31 1.0058704954202705e-32 1.0
  outer loop
    vertex 11.795554957734408 12.052914270615126 5.000000000000001
    vertex 11.196152422706632 7.5000000000000036 5.000000000000001
    vertex 11.79555495773441 8.947085729384877 5.000000000000001
  endloop
endfacet
facet normal 1.9826209025841184e-31 1.0058704954202705e-32 1.0
  outer loop
    vertex 11.795554957734408 12.052914270615126 5.000000000000001
    vertex 11.79555495773441 8.947085729384877 5.000000000000001
    vertex 12.0 10.5 5.000000000000001
  endloop
endfacet
facet normal 1.9826209025841184e-31 1.0058704954202705e-32 1.0
  outer loop
    vertex 0.2044450422655912 8.94708572938487 5.000000000000001
    vertex 0.20444504226558982 12.052914270615124 5.000000000000001
    vertex 0.0 10.5 5.000000000000001
  endloop
endfacet
facet normal 1.9826209025841184e-31 1.0058704954202705e-32 1.0
  outer loop
    vertex 0.20444504226558982 12.052914270615124 5.000000000000001
    vertex 0.2044450422655912 8.94708572938487 5.000000000000001
    vertex 0.8038475772933674 13.5 5.000000000000001
  endloop
endfacet
facet normal 1.9826209025841184e-31 1.0058704954202705e-32 1.0
  outer loop
    vertex 0.8038475772933674 13.5 5.000000000000001
    vertex 0.2044450422655912 8.94708572938487 5.000000000000001
    vertex 0.8038475772933695 7.499999999999997 5.000000000000001
  endloop
endfacet
facet normal 1.9826209025841184e-31 1.0058704954202705e-32 1.0
  outer loop
    vertex 0.8038475772933674 13.5 5.000000000000001
    vertex 0.8038475772933695 7.499999999999997 5.000000000000001
    vertex 0.9999999999999996 10.5 5.000000000000001
  endloop
endfacet
facet normal 1.9826209025841184e-31 1.0058704954202705e-32 1.0
  outer loop
    vertex 0.8038475772933674 13.5 5.000000000000001
    vertex 0.9999999999999996 10.5 5.000000000000001
    vertex 1.1703708685546577 11.794095225512601 5.000000000000001
  endloop
endfacet
facet normal 1.9826209025841184e-31 1.0058704954202705e-32 1.0
  outer loop
    vertex 0.8038475772933674 13.5 5.000000000000001
    vertex 1.1703708685546577 11.794095225512601 5.000000000000001
    vertex 1.7573593128807143 14.742640687119286 5.000000000000001
  endloop
endfacet
facet normal 1.9826209025841184e-31 1.0058704954202705e-32 1.0
  outer loop
    vertex 1.7573593128807143 14.742640687119286 5.000000000000001
    vertex 1.1703708685546577 11.794095225512601 5.000000000000001
    vertex 1.6698729810778052 12.999999999999998 5.000000000000001
  endloop
endfacet
facet normal 1.9826209025841184e-31 1.0058704954202705e-32 1.0
  outer loop
    vertex 1.7573593128807143 14.742640687119286 5.000000000000001
    vertex 1.6698729810778052 12.999999999999998 5.000000000000001
    vertex 2.46446609406726 14.035533905932736 5.000000000000001
  endloop
endfacet
facet normal 1.9826209025841184e-31 1.0058704954202705e-32 1.0
  outer loop
    vertex 1.7573593128807143 14.742640687119286 5.000000000000001
    vertex 2.46446609406726 14.035533905932736 5.000000000000001
    vertex 2.999999999999999 15.696152422706632 5.000000000000001
  endloop
endfacet
facet normal 1.9826209025841184e-31 1.0058704954202705e-32 1.0
  outer loop
    vertex 2.999999999999999 15.696152422706632 5.000000000000001
    vertex 2.46446609406726 14.035533905932736 5.000000000000001
    vertex 3.499999999999998 14.830127018922193 5.000000000000001
  endloop
endfacet
facet normal 1.9826209025841184e-31 1.0058704954202705e-32 1.0
  outer loop
    vertex 2.999999999999999 15.696152422706632 5.000000000000001
    vertex 3.499999999999998 14.830127018922193 5.000000000000001
    vertex 4.447085729384874 16.29555495773441 5.000000000000001
  endloop
endfacet
facet normal 1.9826209025841184e-31 1.0058704954202705e-32 1.0
  outer loop
    vertex 4.447085729384874 16.29555495773441 5.000000000000001
    vertex 3.499999999999998 14.830127018922193 5.000000000000001
    vertex 4.705904774487392 15.32962913144534 5.000000000000001
  endloop
endfacet
facet normal 1.9826209025841184e-31 1.0058704954202705e-32 1.0
  outer loop
    vertex 4.447085729384874 16.29555495773441 5.000000000000001
    vertex 4.705904774487392 15.32962913144534 5.000000000000001
    vertex 5.999999999999999 16.5 5.000000000000001
  endloop
endfacet
facet normal 1.9826209025841184e-31 1.0058704954202705e-32 1.0
  outer loop
    vertex 5.999999999999999 16.5 5.000000000000001
    vertex 4.705904774487392 15.32962913144534 5.000000000000001
    vertex 5.999999999999999 15.5 5.000000000000001
  endloop
endfacet
facet normal 1.9826209025841184e-31 1.0058704954202705e-32 1.0
  outer loop
    vertex 5.999999999999999 16.5 5.000000000000001
    vertex 5.999999999999999 15.5 5.000000000000001
    vertex 7.294095225512601 15.32962913144534 5.000000000000001
  endloop
endfacet
facet normal 1.9826209025841184e-31 1.0058704954202705e-32 1.0
  outer loop
    vertex 5.999999999999999 16.5 5.000000000000001
    vertex 7.294095225512601 15.32962913144534 5.000000000000001
    vertex 7.552914270615123 16.29555495773441 5.000000000000001
  endloop
endfacet
facet normal 1.9826209025841184e-31 1.0058704954202705e-32 1.0
  outer loop
    vertex 7.552914270615123 16.29555495773441 5.000000000000001
    vertex 7.294095225512601 15.32962913144534 5.000000000000001
    vertex 8.499999999999996 14.830127018922196 5.000000000000001
  endloop
endfacet
facet normal 1.9826209025841184e-31 1.0058704954202705e-32 1.0
  outer loop
    vertex 7.552914270615123 16.29555495773441 5.000000000000001
    vertex 8.499999999999996 14.830127018922196 5.000000000000001
    vertex 8.999999999999998 15.696152422706632 5.000000000000001
  endloop
endfacet
facet normal 1.9826209025841184e-31 1.0058704954202705e-32 1.0
  outer loop
    vertex 8.999999999999998 15.696152422706632 5.000000000000001
    vertex 8.499999999999996 14.830127018922196 5.000000000000001
    vertex 9.535533905932736 14.035533905932738 5.000000000000001
  endloop
endfacet
facet normal 1.9826209025841184e-31 1.0058704954202705e-32 1.0
  outer loop
    vertex 8.999999999999998 15.696152422706632 5.000000000000001
    vertex 9.535533905932736 14.035533905932738 5.000000000000001
    vertex 10.242640687119284 14.742640687119286 5.000000000000001
  endloop
endfacet
facet normal 1.9826209025841184e-31 1.0058704954202705e-32 1.0
  outer loop
    vertex 10.242640687119284 14.742640687119286 5.000000000000001
    vertex 9.535533905932736 14.035533905932738 5.000000000000001
    vertex 10.330127018922191 13.000000000000002 5.000000000000001
  endloop
endfacet
facet normal 1.9826209025841184e-31 1.0058704954202705e-32 1.0
  outer loop
    vertex 10.242640687119284 14.742640687119286 5.000000000000001
    vertex 10.330127018922191 13.000000000000002 5.000000000000001
    vertex 11.19615242270663 13.500000000000004 5.000000000000001
  endloop
endfacet
facet normal 1.9826209025841184e-31 1.0058704954202705e-32 1.0
  outer loop
    vertex 11.19615242270663 13.500000000000004 5.000000000000001
    vertex 10.330127018922191 13.000000000000002 5.000000000000001
    vertex 10.82962913144534 11.794095225512608 5.000000000000001
  endloop
endfacet
facet normal 1.9826209025841184e-31 1.0058704954202705e-32 1.0
  outer loop
    vertex 11.19615242270663 13.500000000000004 5.000000000000001
    vertex 10.82962913144534 11.794095225512608 5.000000000000001
    vertex 11.0 10.5 5.000000000000001
  endloop
endfacet
facet normal -0.7933533402912348 0.608761429008721 0.0
  outer loop
    vertex 1.7573593128807143 14.742640687119286 5.000000000000001
    vertex 0.8038475772933674 13.5 1.9999999999999998
    vertex 0.8038475772933674 13.5 5.000000000000001
  endloop
endfacet
facet normal -0.7933533402912348 0.608761429008721 0.0
  outer loop
    vertex 0.8038475772933674 13.5 1.9999999999999998
    vertex 1.7573593128807143 14.742640687119286 5.000000000000001
    vertex 1.7573593128807143 14.742640687119286 1.9999999999999998
  endloop
endfacet
facet normal 0.0 1.0 0.0
  outer loop
    vertex 18.2 13.8 0.5000000000000001
    vertex 19.3 13.8 0.30000000000000016
    vertex 18.2 13.8 0.30000000000000016
  endloop
endfacet
facet normal 0.0 1.0 0.0
  outer loop
    vertex 19.3 13.8 0.30000000000000016
    vertex 18.2 13.8 0.5000000000000001
    vertex 19.3 13.8 0.5000000000000001
  endloop
endfacet
facet normal 0.9914448613738106 -0.13052619222005105 0.0
  outer loop
    vertex 12.0 10.5 1.9999999999999998
    vertex 11.79555495773441 8.947085729384877 5.000000000000001
    vertex 11.79555495773441 8.947085729384877 1.9999999999999998
  endloop
endfacet
facet normal 0.9914448613738106 -0.13052619222005105 0.0
  outer loop
    vertex 11.79555495773441 8.947085729384877 5.000000000000001
    vertex 12.0 10.5 1.9999999999999998
    vertex 12.0 10.5 5.000000000000001
  endloop
endfacet
facet normal 0.7933533402912355 -0.6087614290087201 -2.102808901045653e-18
  outer loop
    vertex 10.330127018922193 8.0 5.000000000000001
    vertex 9.535533905932738 6.964466094067262 14.0
    vertex 9.535533905932738 6.964466094067262 5.000000000000001
  endloop
endfacet
facet normal 0.7933533402912355 -0.6087614290087201 -2.102808901045653e-18
  outer loop
    vertex 9.535533905932738 6.964466094067262 14.0
    vertex 10.330127018922193 8.0 5.000000000000001
    vertex 10.330127018922193 8.0 14.0
  endloop
endfacet
facet normal 0.43045933457687946 0.560985526796931 0.7071067811865475
  outer loop
    vertex 8.82232552820537 13.322325528205374 15.0
    vertex 8.499999999999996 14.830127018922196 14.0
    vertex 7.995685519709915 13.956628716067092 15.0
  endloop
endfacet
facet normal 0.43045933457687946 0.560985526796931 0.7071067811865475
  outer loop
    vertex 8.499999999999996 14.830127018922196 14.0
    vertex 8.82232552820537 13.322325528205374 15.0
    vertex 9.535533905932736 14.035533905932738 14.0
  endloop
endfacet
facet normal 0.382683432365088 0.9238795325112875 -4.239413315248599e-18
  outer loop
    vertex 7.294095225512601 15.32962913144534 14.0
    vertex 8.499999999999996 14.830127018922196 5.000000000000001
    vertex 7.294095225512601 15.32962913144534 5.000000000000001
  endloop
endfacet
facet normal 0.382683432365088 0.9238795325112875 -4.239413315248599e-18
  outer loop
    vertex 8.499999999999996 14.830127018922196 5.000000000000001
    vertex 7.294095225512601 15.32962913144534 14.0
    vertex 8.499999999999996 14.830127018922196 14.0
  endloop
endfacet
facet normal -7.147540323030622e-18 -0.7071067811865482 0.7071067811865469
  outer loop
    vertex 19.3 7.199999999999999 0.5000000000000001
    vertex 18.0 7.0 0.30000000000000016
    vertex 19.5 7.0 0.30000000000000016
  endloop
endfacet
facet normal -7.147540323030622e-18 -0.7071067811865482 0.7071067811865469
  outer loop
    vertex 18.0 7.0 0.30000000000000016
    vertex 19.3 7.199999999999999 0.5000000000000001
    vertex 18.2 7.199999999999999 0.5000000000000001
  endloop
endfacet
facet normal 0.0 0.0 1.0
  outer loop
    vertex 18.0 7.0 0.30000000000000016
    vertex 18.2 7.199999999999999 0.30000000000000016
    vertex 18.0 14.0 0.30000000000000016
  endloop
endfacet
facet normal 0.0 0.0 1.0
  outer loop
    vertex 18.2 7.199999999999999 0.30000000000000016
    vertex 18.0 7.0 0.30000000000000016
    vertex 19.5 7.0 0.30000000000000016
  endloop
endfacet
facet normal 0.0 0.0 1.0
  outer loop
    vertex 18.2 7.199999999999999 0.30000000000000016
    vertex 19.5 7.0 0.30000000000000016
    vertex 19.3 7.199999999999999 0.30000000000000016
  endloop
endfacet
facet normal 0.0 0.0 1.0
  outer loop
    vertex 19.3 7.199999999999999 0.30000000000000016
    vertex 19.5 7.0 0.30000000000000016
    vertex 19.3 13.8 0.30000000000000016
  endloop
endfacet
facet normal 0.0 0.0 1.0
  outer loop
    vertex 18.0 14.0 0.30000000000000016
    vertex 18.2 13.8 0.30000000000000016
    vertex 19.5 14.0 0.30000000000000016
  endloop
endfacet
facet normal 0.0 0.0 1.0
  outer loop
    vertex 18.2 13.8 0.30000000000000016
    vertex 18.0 14.0 0.30000000000000016
    vertex 18.2 7.199999999999999 0.30000000000000016
  endloop
endfacet
facet normal 0.0 0.0 1.0
  outer loop
    vertex 19.5 14.0 0.30000000000000016
    vertex 18.2 13.8 0.30000000000000016
    vertex 19.3 13.8 0.30000000000000016
  endloop
endfacet
facet normal 0.0 0.0 1.0
  outer loop
    vertex 19.5 14.0 0.30000000000000016
    vertex 19.3 13.8 0.30000000000000016
    vertex 19.5 7.0 0.30000000000000016
  endloop
endfacet
facet normal 0.9914448613738105 0.13052619222005132 0.0
  outer loop
    vertex 10.82962913144534 11.794095225512608 5.000000000000001
    vertex 11.0 10.5 14.0
    vertex 11.0 10.5 5.000000000000001
  endloop
endfacet
facet normal 0.9914448613738105 0.13052619222005132 0.0
  outer loop
    vertex 11.0 10.5 14.0
    vertex 10.82962913144534 11.794095225512608 5.000000000000001
    vertex 10.82962913144534 11.794095225512608 14.0
  endloop
endfacet
facet normal -0.0922959556412571 0.7010573846499784 0.7071067811865471
  outer loop
    vertex 4.966957158927495 14.355368369277873 15.0
    vertex 5.999999999999999 15.5 14.0
    vertex 4.705904774487392 15.32962913144534 14.0
  endloop
endfacet
facet normal -0.0922959556412571 0.7010573846499784 0.7071067811865471
  outer loop
    vertex 5.999999999999999 15.5 14.0
    vertex 4.966957158927495 14.355368369277873 15.0
    vertex 5.999999999999999 14.491371039419848 15.0
  endloop
endfacet
facet normal -0.13052619222005177 -0.9914448613738105 -5.4104276468407496e-18
  outer loop
    vertex 5.999999999999999 5.500000000000001 14.0
    vertex 4.705904774487396 5.670370868554659 5.000000000000001
    vertex 6.0 5.500000000000001 5.000000000000001
  endloop
endfacet
facet normal -0.13052619222005177 -0.9914448613738105 -5.4104276468407496e-18
  outer loop
    vertex 4.705904774487396 5.670370868554659 5.000000000000001
    vertex 5.999999999999999 5.500000000000001 14.0
    vertex 4.705904774487396 5.670370868554659 14.0
  endloop
endfacet
facet normal 0.6532814824381888 -0.27059805007309895 0.7071067811865469
  outer loop
    vertex 10.330127018922193 8.0 14.0
    vertex 9.855368369277873 9.466957158927496 15.0
    vertex 9.456628716067087 8.504314480290075 15.0
  endloop
endfacet
facet normal 0.6532814824381888 -0.27059805007309895 0.7071067811865469
  outer loop
    vertex 9.855368369277873 9.466957158927496 15.0
    vertex 10.330127018922193 8.0 14.0
    vertex 10.82962913144534 9.205904774487397 14.0
  endloop
endfacet
facet normal -0.2705980500730992 -0.6532814824381891 0.7071067811865466
  outer loop
    vertex 4.705904774487396 5.670370868554659 14.0
    vertex 4.004314480290078 7.0433712839329115 15.0
    vertex 3.5000000000000004 6.169872981077806 14.0
  endloop
endfacet
facet normal -0.2705980500730992 -0.6532814824381891 0.7071067811865466
  outer loop
    vertex 4.004314480290078 7.0433712839329115 15.0
    vertex 4.705904774487396 5.670370868554659 14.0
    vertex 4.966957158927484 6.644631630722131 15.0
  endloop
endfacet
facet normal 0.9238795325112857 0.3826834323650921 1.5956514423245716e-18
  outer loop
    vertex 10.330127018922191 13.000000000000002 5.000000000000001
    vertex 10.82962913144534 11.794095225512608 14.0
    vertex 10.82962913144534 11.794095225512608 5.000000000000001
  endloop
endfacet
facet normal 0.9238795325112857 0.3826834323650921 1.5956514423245716e-18
  outer loop
    vertex 10.82962913144534 11.794095225512608 14.0
    vertex 10.330127018922191 13.000000000000002 5.000000000000001
    vertex 10.330127018922191 13.000000000000002 14.0
  endloop
endfacet
facet normal -0.38268343236508945 -0.9238795325112868 0.0
  outer loop
    vertex 4.705904774487396 5.670370868554659 14.0
    vertex 3.5000000000000004 6.169872981077806 5.000000000000001
    vertex 4.705904774487396 5.670370868554659 5.000000000000001
  endloop
endfacet
facet normal -0.38268343236508945 -0.9238795325112868 0.0
  outer loop
    vertex 3.5000000000000004 6.169872981077806 5.000000000000001
    vertex 4.705904774487396 5.670370868554659 14.0
    vertex 3.5000000000000004 6.169872981077806 14.0
  endloop
endfacet
facet normal -0.4304593345768811 0.5609855267969307 0.7071067811865468
  outer loop
    vertex 3.177674471794625 13.32232552820537 15.0
    vertex 3.499999999999998 14.830127018922193 14.0
    vertex 2.46446609406726 14.035533905932736 14.0
  endloop
endfacet
facet normal -0.4304593345768811 0.5609855267969307 0.7071067811865468
  outer loop
    vertex 3.499999999999998 14.830127018922193 14.0
    vertex 3.177674471794625 13.32232552820537 15.0
    vertex 4.004314480290069 13.956628716067087 15.0
  endloop
endfacet
facet normal 0.6532814824381876 0.27059805007310056 0.7071067811865475
  outer loop
    vertex 9.855368369277873 11.533042841072504 15.0
    vertex 10.330127018922191 13.000000000000002 14.0
    vertex 9.456628716067083 12.495685519709925 15.0
  endloop
endfacet
facet normal 0.6532814824381876 0.27059805007310056 0.7071067811865475
  outer loop
    vertex 10.330127018922191 13.000000000000002 14.0
    vertex 9.855368369277873 11.533042841072504 15.0
    vertex 10.82962913144534 11.794095225512608 14.0
  endloop
endfacet
facet normal 0.6087614290087201 -0.7933533402912355 2.102808901045653e-18
  outer loop
    vertex 9.535533905932738 6.964466094067262 14.0
    vertex 8.5 6.169872981077807 5.000000000000001
    vertex 9.535533905932738 6.964466094067262 5.000000000000001
  endloop
endfacet
facet normal 0.6087614290087201 -0.7933533402912355 2.102808901045653e-18
  outer loop
    vertex 8.5 6.169872981077807 5.000000000000001
    vertex 9.535533905932738 6.964466094067262 14.0
    vertex 8.5 6.169872981077807 14.0
  endloop
endfacet
facet normal -0.09229595564125759 -0.7010573846499778 0.7071067811865476
  outer loop
    vertex 5.999999999999999 5.500000000000001 14.0
    vertex 4.966957158927484 6.644631630722131 15.0
    vertex 4.705904774487396 5.670370868554659 14.0
  endloop
endfacet
facet normal -0.09229595564125759 -0.7010573846499778 0.7071067811865476
  outer loop
    vertex 4.966957158927484 6.644631630722131 15.0
    vertex 5.999999999999999 5.500000000000001 14.0
    vertex 5.999999999999999 6.508628960580154 15.0
  endloop
endfacet
facet normal 0.2705980500730988 -0.6532814824381886 0.707106781186547
  outer loop
    vertex 7.294095225512605 5.670370868554659 14.0
    vertex 7.99568551970992 7.0433712839329115 15.0
    vertex 7.033042841072506 6.644631630722129 15.0
  endloop
endfacet
facet normal 0.2705980500730988 -0.6532814824381886 0.707106781186547
  outer loop
    vertex 7.99568551970992 7.0433712839329115 15.0
    vertex 7.294095225512605 5.670370868554659 14.0
    vertex 8.5 6.169872981077807 14.0
  endloop
endfacet
facet normal 0.0 1.0 0.0
  outer loop
    vertex 0.0 21.0 1.7999999999999996
    vertex 18.0 21.0 -0.9999999999999999
    vertex 0.0 21.0 -0.9999999999999999
  endloop
endfacet
facet normal 0.0 1.0 0.0
  outer loop
    vertex 18.0 21.0 -0.9999999999999999
    vertex 0.0 21.0 1.7999999999999996
    vertex 18.0 21.0 1.7999999999999998
  endloop
endfacet
facet normal 0.3826834323650899 -0.9238795325112867 1.595651442324556e-18
  outer loop
    vertex 8.5 6.169872981077807 14.0
    vertex 7.294095225512605 5.670370868554659 5.000000000000001
    vertex 8.5 6.169872981077807 5.000000000000001
  endloop
endfacet
facet normal 0.3826834323650899 -0.9238795325112867 1.595651442324556e-18
  outer loop
    vertex 7.294095225512605 5.670370868554659 5.000000000000001
    vertex 8.5 6.169872981077807 14.0
    vertex 7.294095225512605 5.670370868554659 14.0
  endloop
endfacet
facet normal 0.7071067811865482 -9.492258901568265e-34 0.7071067811865469
  outer loop
    vertex 19.5 14.0 0.30000000000000016
    vertex 19.3 7.199999999999999 0.5000000000000001
    vertex 19.5 7.0 0.30000000000000016
  endloop
endfacet
facet normal 0.7071067811865482 -9.492258901568265e-34 0.7071067811865469
  outer loop
    vertex 19.3 7.199999999999999 0.5000000000000001
    vertex 19.5 14.0 0.30000000000000016
    vertex 19.3 13.8 0.5000000000000001
  endloop
endfacet
facet normal -0.0 -1.0 -0.0
  outer loop
    vertex 19.5 7.0 0.30000000000000016
    vertex 18.0 7.0 -0.9999999999999999
    vertex 19.5 7.0 -0.9999999999999999
  endloop
endfacet
facet normal -0.0 -1.0 -0.0
  outer loop
    vertex 18.0 7.0 -0.9999999999999999
    vertex 19.5 7.0 0.30000000000000016
    vertex 18.0 7.0 0.30000000000000016
  endloop
endfacet
facet normal -0.7071067811865482 -9.492258901568265e-34 0.7071067811865469
  outer loop
    vertex 18.2 7.199999999999999 0.5000000000000001
    vertex 18.0 14.0 0.30000000000000016
    vertex 18.0 7.0 0.30000000000000016
  endloop
endfacet
facet normal -0.7071067811865482 -9.492258901568265e-34 0.7071067811865469
  outer loop
    vertex 18.0 14.0 0.30000000000000016
    vertex 18.2 7.199999999999999 0.5000000000000001
    vertex 18.2 13.8 0.5000000000000001
  endloop
endfacet
facet normal -0.5609855267969311 -0.43045933457687957 0.7071067811865474
  outer loop
    vertex 2.4644660940672622 6.964466094067262 14.0
    vertex 2.543371283932911 8.504314480290079 15.0
    vertex 1.6698729810778072 7.999999999999999 14.0
  endloop
endfacet
facet normal -0.5609855267969311 -0.43045933457687957 0.7071067811865474
  outer loop
    vertex 2.543371283932911 8.504314480290079 15.0
    vertex 2.4644660940672622 6.964466094067262 14.0
    vertex 3.1776744717946266 7.677674471794629 15.0
  endloop
endfacet
facet normal -1.0 0.0 0.0
  outer loop
    vertex 18.2 13.8 0.5000000000000001
    vertex 18.2 7.199999999999999 0.30000000000000016
    vertex 18.2 7.199999999999999 0.5000000000000001
  endloop
endfacet
facet normal -1.0 0.0 0.0
  outer loop
    vertex 18.2 7.199999999999999 0.30000000000000016
    vertex 18.2 13.8 0.5000000000000001
    vertex 18.2 13.8 0.30000000000000016
  endloop
endfacet
facet normal 8.047092371828476e-33 -1.9351629680482832e-32 1.0
  outer loop
    vertex 0.2044450422655912 8.94708572938487 1.9999999999999998
    vertex 0.20000000000000004 12.019150822545033 1.9999999999999998
    vertex 0.20000000000000004 8.980849177454973 1.9999999999999998
  endloop
endfacet
facet normal 8.047092371828476e-33 -1.9351629680482832e-32 1.0
  outer loop
    vertex 0.20000000000000004 12.019150822545033 1.9999999999999998
    vertex 0.2044450422655912 8.94708572938487 1.9999999999999998
    vertex 0.20444504226558982 12.052914270615124 1.9999999999999998
  endloop
endfacet
facet normal 8.047092371828476e-33 -1.9351629680482832e-32 1.0
  outer loop
    vertex 0.20444504226558982 12.052914270615124 1.9999999999999998
    vertex 0.2044450422655912 8.94708572938487 1.9999999999999998
    vertex 0.8038475772933674 13.5 1.9999999999999998
  endloop
endfacet
facet normal 8.047092371828476e-33 -1.9351629680482832e-32 1.0
  outer loop
    vertex 0.8038475772933674 13.5 1.9999999999999998
    vertex 0.2044450422655912 8.94708572938487 1.9999999999999998
    vertex 0.8038475772933695 7.499999999999997 1.9999999999999998
  endloop
endfacet
facet normal 8.047092371828476e-33 -1.9351629680482832e-32 1.0
  outer loop
    vertex 0.8038475772933674 13.5 1.9999999999999998
    vertex 0.8038475772933695 7.499999999999997 1.9999999999999998
    vertex 1.7573593128807143 14.742640687119286 1.9999999999999998
  endloop
endfacet
facet normal 8.047092371828476e-33 -1.9351629680482832e-32 1.0
  outer loop
    vertex 1.7573593128807143 14.742640687119286 1.9999999999999998
    vertex 0.8038475772933695 7.499999999999997 1.9999999999999998
    vertex 1.757359312880716 6.257359312880714 1.9999999999999998
  endloop
endfacet
facet normal 8.047092371828476e-33 -1.9351629680482832e-32 1.0
  outer loop
    vertex 1.7573593128807143 14.742640687119286 1.9999999999999998
    vertex 1.757359312880716 6.257359312880714 1.9999999999999998
    vertex 2.999999999999999 15.696152422706632 1.9999999999999998
  endloop
endfacet
facet normal 8.047092371828476e-33 -1.9351629680482832e-32 1.0
  outer loop
    vertex 2.999999999999999 15.696152422706632 1.9999999999999998
    vertex 1.757359312880716 6.257359312880714 1.9999999999999998
    vertex 3.0000000000000036 5.303847577293367 1.9999999999999998
  endloop
endfacet
facet normal 8.047092371828476e-33 -1.9351629680482832e-32 1.0
  outer loop
    vertex 2.999999999999999 15.696152422706632 1.9999999999999998
    vertex 3.0000000000000036 5.303847577293367 1.9999999999999998
    vertex 4.447085729384874 16.29555495773441 1.9999999999999998
  endloop
endfacet
facet normal 8.047092371828476e-33 -1.9351629680482832e-32 1.0
  outer loop
    vertex 4.447085729384874 16.29555495773441 1.9999999999999998
    vertex 3.0000000000000036 5.303847577293367 1.9999999999999998
    vertex 4.447085729384877 4.70444504226559 1.9999999999999998
  endloop
endfacet
facet normal 8.047092371828476e-33 -1.9351629680482832e-32 1.0
  outer loop
    vertex 4.447085729384874 16.29555495773441 1.9999999999999998
    vertex 4.447085729384877 4.70444504226559 1.9999999999999998
    vertex 5.999999999999999 16.5 1.9999999999999998
  endloop
endfacet
facet normal 8.047092371828476e-33 -1.9351629680482832e-32 1.0
  outer loop
    vertex 5.999999999999999 16.5 1.9999999999999998
    vertex 4.447085729384877 4.70444504226559 1.9999999999999998
    vertex 6.000000000000001 4.500000000000001 1.9999999999999998
  endloop
endfacet
facet normal 8.047092371828476e-33 -1.9351629680482832e-32 1.0
  outer loop
    vertex 5.999999999999999 16.5 1.9999999999999998
    vertex 6.000000000000001 4.500000000000001 1.9999999999999998
    vertex 7.552914270615123 16.29555495773441 1.9999999999999998
  endloop
endfacet
facet normal 8.047092371828476e-33 -1.9351629680482832e-32 1.0
  outer loop
    vertex 7.552914270615123 16.29555495773441 1.9999999999999998
    vertex 6.000000000000001 4.500000000000001 1.9999999999999998
    vertex 7.552914270615128 4.704445042265593 1.9999999999999998
  endloop
endfacet
facet normal 8.047092371828476e-33 -1.9351629680482832e-32 1.0
  outer loop
    vertex 7.552914270615123 16.29555495773441 1.9999999999999998
    vertex 7.552914270615128 4.704445042265593 1.9999999999999998
    vertex 8.999999999999998 15.696152422706632 1.9999999999999998
  endloop
endfacet
facet normal 8.047092371828476e-33 -1.9351629680482832e-32 1.0
  outer loop
    vertex 8.999999999999998 15.696152422706632 1.9999999999999998
    vertex 7.552914270615128 4.704445042265593 1.9999999999999998
    vertex 9.000000000000002 5.303847577293371 1.9999999999999998
  endloop
endfacet
facet normal 8.047092371828476e-33 -1.9351629680482832e-32 1.0
  outer loop
    vertex 8.999999999999998 15.696152422706632 1.9999999999999998
    vertex 9.000000000000002 5.303847577293371 1.9999999999999998
    vertex 10.242640687119284 14.742640687119286 1.9999999999999998
  endloop
endfacet
facet normal 8.047092371828476e-33 -1.9351629680482832e-32 1.0
  outer loop
    vertex 10.242640687119284 14.742640687119286 1.9999999999999998
    vertex 9.000000000000002 5.303847577293371 1.9999999999999998
    vertex 10.242640687119287 6.257359312880718 1.9999999999999998
  endloop
endfacet
facet normal 8.047092371828476e-33 -1.9351629680482832e-32 1.0
  outer loop
    vertex 10.242640687119284 14.742640687119286 1.9999999999999998
    vertex 10.242640687119287 6.257359312880718 1.9999999999999998
    vertex 11.19615242270663 13.500000000000004 1.9999999999999998
  endloop
endfacet
facet normal 8.047092371828476e-33 -1.9351629680482832e-32 1.0
  outer loop
    vertex 11.19615242270663 13.500000000000004 1.9999999999999998
    vertex 10.242640687119287 6.257359312880718 1.9999999999999998
    vertex 11.196152422706632 7.5000000000000036 1.9999999999999998
  endloop
endfacet
facet normal 8.047092371828476e-33 -1.9351629680482832e-32 1.0
  outer loop
    vertex 11.19615242270663 13.500000000000004 1.9999999999999998
    vertex 11.196152422706632 7.5000000000000036 1.9999999999999998
    vertex 11.795554957734408 12.052914270615126 1.9999999999999998
  endloop
endfacet
facet normal 8.047092371828476e-33 -1.9351629680482832e-32 1.0
  outer loop
    vertex 11.795554957734408 12.052914270615126 1.9999999999999998
    vertex 11.196152422706632 7.5000000000000036 1.9999999999999998
    vertex 11.79555495773441 8.947085729384877 1.9999999999999998
  endloop
endfacet
facet normal 8.047092371828476e-33 -1.9351629680482832e-32 1.0
  outer loop
    vertex 11.795554957734408 12.052914270615126 1.9999999999999998
    vertex 11.79555495773441 8.947085729384877 1.9999999999999998
    vertex 12.0 10.5 1.9999999999999998
  endloop
endfacet
facet normal -0.38268343236508984 0.9238795325112867 0.0
  outer loop
    vertex 2.999999999999999 15.696152422706632 5.000000000000001
    vertex 4.447085729384874 16.29555495773441 1.9999999999999998
    vertex 2.999999999999999 15.696152422706632 1.9999999999999998
  endloop
endfacet
facet normal -0.38268343236508984 0.9238795325112867 0.0
  outer loop
    vertex 4.447085729384874 16.29555495773441 1.9999999999999998
    vertex 2.999999999999999 15.696152422706632 5.000000000000001
    vertex 4.447085729384874 16.29555495773441 5.000000000000001
  endloop
endfacet
facet normal 0.7010573846499784 0.09229595564125706 0.7071067811865472
  outer loop
    vertex 9.991371039419846 10.5 15.0
    vertex 10.82962913144534 11.794095225512608 14.0
    vertex 9.855368369277873 11.533042841072504 15.0
  endloop
endfacet
facet normal 0.7010573846499784 0.09229595564125706 0.7071067811865472
  outer loop
    vertex 10.82962913144534 11.794095225512608 14.0
    vertex 9.991371039419846 10.5 15.0
    vertex 11.0 10.5 14.0
  endloop
endfacet
facet normal 0.0 0.0 1.0
  outer loop
    vertex 19.3 7.199999999999999 0.5000000000000001
    vertex 18.2 13.8 0.5000000000000001
    vertex 18.2 7.199999999999999 0.5000000000000001
  endloop
endfacet
facet normal 0.0 0.0 1.0
  outer loop
    vertex 18.2 13.8 0.5000000000000001
    vertex 19.3 7.199999999999999 0.5000000000000001
    vertex 19.3 13.8 0.5000000000000001
  endloop
endfacet
facet normal -0.4304593345768796 -0.560985526796931 0.7071067811865474
  outer loop
    vertex 3.5000000000000004 6.169872981077806 14.0
    vertex 3.1776744717946266 7.677674471794629 15.0
    vertex 2.4644660940672622 6.964466094067262 14.0
  endloop
endfacet
facet normal -0.4304593345768796 -0.560985526796931 0.7071067811865474
  outer loop
    vertex 3.1776744717946266 7.677674471794629 15.0
    vertex 3.5000000000000004 6.169872981077806 14.0
    vertex 4.004314480290078 7.0433712839329115 15.0
  endloop
endfacet
facet normal 0.0 0.0 -1.0
  outer loop
    vertex 19.5 14.0 -0.9999999999999999
    vertex 18.0 7.0 -0.9999999999999999
    vertex 18.0 14.0 -0.9999999999999999
  endloop
endfacet
facet normal 0.0 0.0 -1.0
  outer loop
    vertex 18.0 7.0 -0.9999999999999999
    vertex 19.5 14.0 -0.9999999999999999
    vertex 19.5 7.0 -0.9999999999999999
  endloop
endfacet
facet normal -0.9238795325112871 0.3826834323650891 -1.4088793454142876e-32
  outer loop
    vertex 1.6698729810778052 12.999999999999998 14.0
    vertex 1.1703708685546577 11.794095225512601 5.000000000000001
    vertex 1.1703708685546577 11.794095225512601 14.0
  endloop
endfacet
facet normal -0.9238795325112871 0.3826834323650891 -1.4088793454142876e-32
  outer loop
    vertex 1.1703708685546577 11.794095225512601 5.000000000000001
    vertex 1.6698729810778052 12.999999999999998 14.0
    vertex 1.6698729810778052 12.999999999999998 5.000000000000001
  endloop
endfacet
facet normal 0.13052619222005185 0.9914448613738105 0.0
  outer loop
    vertex 5.999999999999999 15.5 14.0
    vertex 7.294095225512601 15.32962913144534 5.000000000000001
    vertex 5.999999999999999 15.5 5.000000000000001
  endloop
endfacet
facet normal 0.13052619222005185 0.9914448613738105 0.0
  outer loop
    vertex 7.294095225512601 15.32962913144534 5.000000000000001
    vertex 5.999999999999999 15.5 14.0
    vertex 7.294095225512601 15.32962913144534 14.0
  endloop
endfacet
facet normal 0.2705980500730975 0.6532814824381892 0.7071067811865471
  outer loop
    vertex 7.995685519709915 13.956628716067092 15.0
    vertex 7.294095225512601 15.32962913144534 14.0
    vertex 7.033042841072499 14.355368369277873 15.0
  endloop
endfacet
facet normal 0.2705980500730975 0.6532814824381892 0.7071067811865471
  outer loop
    vertex 7.294095225512601 15.32962913144534 14.0
    vertex 7.995685519709915 13.956628716067092 15.0
    vertex 8.499999999999996 14.830127018922196 14.0
  endloop
endfacet
facet normal 0.43045933457687935 -0.560985526796931 0.7071067811865477
  outer loop
    vertex 8.5 6.169872981077807 14.0
    vertex 8.822325528205376 7.677674471794632 15.0
    vertex 7.99568551970992 7.0433712839329115 15.0
  endloop
endfacet
facet normal 0.43045933457687935 -0.560985526796931 0.7071067811865477
  outer loop
    vertex 8.822325528205376 7.677674471794632 15.0
    vertex 8.5 6.169872981077807 14.0
    vertex 9.535533905932738 6.964466094067262 14.0
  endloop
endfacet
facet normal 0.09229595564125735 -0.701057384649978 0.7071067811865476
  outer loop
    vertex 7.294095225512605 5.670370868554659 14.0
    vertex 5.999999999999999 6.508628960580154 15.0
    vertex 5.999999999999999 5.500000000000001 14.0
  endloop
endfacet
facet normal 0.09229595564125735 -0.701057384649978 0.7071067811865476
  outer loop
    vertex 5.999999999999999 6.508628960580154 15.0
    vertex 7.294095225512605 5.670370868554659 14.0
    vertex 7.033042841072506 6.644631630722129 15.0
  endloop
endfacet
facet normal -0.38268343236508984 0.9238795325112867 0.0
  outer loop
    vertex 3.499999999999998 14.830127018922193 14.0
    vertex 4.705904774487392 15.32962913144534 5.000000000000001
    vertex 3.499999999999998 14.830127018922193 5.000000000000001
  endloop
endfacet
facet normal -0.38268343236508984 0.9238795325112867 0.0
  outer loop
    vertex 4.705904774487392 15.32962913144534 5.000000000000001
    vertex 3.499999999999998 14.830127018922193 14.0
    vertex 4.705904774487392 15.32962913144534 14.0
  endloop
endfacet
facet normal 0.1305261922200516 -0.9914448613738105 5.410427646840742e-18
  outer loop
    vertex 7.294095225512605 5.670370868554659 14.0
    vertex 6.0 5.500000000000001 5.000000000000001
    vertex 7.294095225512605 5.670370868554659 5.000000000000001
  endloop
endfacet
facet normal 0.1305261922200516 -0.9914448613738105 5.410427646840742e-18
  outer loop
    vertex 6.0 5.500000000000001 5.000000000000001
    vertex 7.294095225512605 5.670370868554659 14.0
    vertex 5.999999999999999 5.500000000000001 14.0
  endloop
endfacet
facet normal -0.5609855267969314 0.43045933457687996 0.707106781186547
  outer loop
    vertex 2.5433712839329123 12.495685519709927 15.0
    vertex 2.46446609406726 14.035533905932736 14.0
    vertex 1.6698729810778052 12.999999999999998 14.0
  endloop
endfacet
facet normal -0.5609855267969314 0.43045933457687996 0.707106781186547
  outer loop
    vertex 2.46446609406726 14.035533905932736 14.0
    vertex 2.5433712839329123 12.495685519709927 15.0
    vertex 3.177674471794625 13.32232552820537 15.0
  endloop
endfacet
facet normal -0.0 -1.0 -0.0
  outer loop
    vertex 19.3 7.199999999999999 0.5000000000000001
    vertex 18.2 7.199999999999999 0.30000000000000016
    vertex 19.3 7.199999999999999 0.30000000000000016
  endloop
endfacet
facet normal -0.0 -1.0 -0.0
  outer loop
    vertex 18.2 7.199999999999999 0.30000000000000016
    vertex 19.3 7.199999999999999 0.5000000000000001
    vertex 18.2 7.199999999999999 0.5000000000000001
  endloop
endfacet
facet normal -0.27059805007309873 0.6532814824381888 0.707106781186547
  outer loop
    vertex 4.004314480290069 13.956628716067087 15.0
    vertex 4.705904774487392 15.32962913144534 14.0
    vertex 3.499999999999998 14.830127018922193 14.0
  endloop
endfacet
facet normal -0.27059805007309873 0.6532814824381888 0.707106781186547
  outer loop
    vertex 4.705904774487392 15.32962913144534 14.0
    vertex 4.004314480290069 13.956628716067087 15.0
    vertex 4.966957158927495 14.355368369277873 15.0
  endloop
endfacet
facet normal 0.7933533402912352 0.6087614290087205 -2.102808901045647e-18
  outer loop
    vertex 9.535533905932736 14.035533905932738 5.000000000000001
    vertex 10.330127018922191 13.000000000000002 14.0
    vertex 10.330127018922191 13.000000000000002 5.000000000000001
  endloop
endfacet
facet normal 0.7933533402912352 0.6087614290087205 -2.102808901045647e-18
  outer loop
    vertex 10.330127018922191 13.000000000000002 14.0
    vertex 9.535533905932736 14.035533905932738 5.000000000000001
    vertex 9.535533905932736 14.035533905932738 14.0
  endloop
endfacet
facet normal 0.608761429008721 0.7933533402912348 1.9471954104794792e-32
  outer loop
    vertex 8.499999999999996 14.830127018922196 14.0
    vertex 9.535533905932736 14.035533905932738 5.000000000000001
    vertex 8.499999999999996 14.830127018922196 5.000000000000001
  endloop
endfacet
facet normal 0.608761429008721 0.7933533402912348 1.9471954104794792e-32
  outer loop
    vertex 9.535533905932736 14.035533905932738 5.000000000000001
    vertex 8.499999999999996 14.830127018922196 14.0
    vertex 9.535533905932736 14.035533905932738 14.0
  endloop
endfacet
facet normal -0.13052619222005143 0.9914448613738105 -9.017379411401207e-19
  outer loop
    vertex 4.705904774487392 15.32962913144534 14.0
    vertex 5.999999999999999 15.5 5.000000000000001
    vertex 4.705904774487392 15.32962913144534 5.000000000000001
  endloop
endfacet
facet normal -0.13052619222005143 0.9914448613738105 -9.017379411401207e-19
  outer loop
    vertex 5.999999999999999 15.5 5.000000000000001
    vertex 4.705904774487392 15.32962913144534 14.0
    vertex 5.999999999999999 15.5 14.0
  endloop
endfacet
facet normal 0.0 0.0 1.0
  outer loop
    vertex 2.1446316307221256 9.466957158927501 15.0
    vertex 2.144631630722127 11.533042841072504 15.0
    vertex 2.008628960580152 10.5 15.0
  endloop
endfacet
facet normal 0.0 0.0 1.0
  outer loop
    vertex 2.144631630722127 11.533042841072504 15.0
    vertex 2.1446316307221256 9.466957158927501 15.0
    vertex 2.543371283932911 8.504314480290079 15.0
  endloop
endfacet
facet normal 0.0 0.0 1.0
  outer loop
    vertex 2.144631630722127 11.533042841072504 15.0
    vertex 2.543371283932911 8.504314480290079 15.0
    vertex 2.5433712839329123 12.495685519709927 15.0
  endloop
endfacet
facet normal 0.0 0.0 1.0
  outer loop
    vertex 2.5433712839329123 12.495685519709927 15.0
    vertex 2.543371283932911 8.504314480290079 15.0
    vertex 3.1776744717946266 7.677674471794629 15.0
  endloop
endfacet
facet normal 0.0 0.0 1.0
  outer loop
    vertex 2.5433712839329123 12.495685519709927 15.0
    vertex 3.1776744717946266 7.677674471794629 15.0
    vertex 3.177674471794625 13.32232552820537 15.0
  endloop
endfacet
facet normal 0.0 0.0 1.0
  outer loop
    vertex 3.177674471794625 13.32232552820537 15.0
    vertex 3.1776744717946266 7.677674471794629 15.0
    vertex 4.004314480290069 13.956628716067087 15.0
  endloop
endfacet
facet normal 0.0 0.0 1.0
  outer loop
    vertex 4.004314480290069 13.956628716067087 15.0
    vertex 3.1776744717946266 7.677674471794629 15.0
    vertex 4.004314480290078 7.0433712839329115 15.0
  endloop
endfacet
facet normal 0.0 0.0 1.0
  outer loop
    vertex 4.004314480290069 13.956628716067087 15.0
    vertex 4.004314480290078 7.0433712839329115 15.0
    vertex 4.966957158927495 14.355368369277873 15.0
  endloop
endfacet
facet normal 0.0 0.0 1.0
  outer loop
    vertex 4.966957158927495 14.355368369277873 15.0
    vertex 4.004314480290078 7.0433712839329115 15.0
    vertex 4.966957158927484 6.644631630722131 15.0
  endloop
endfacet
facet normal 0.0 0.0 1.0
  outer loop
    vertex 4.966957158927495 14.355368369277873 15.0
    vertex 4.966957158927484 6.644631630722131 15.0
    vertex 5.999999999999999 6.508628960580154 15.0
  endloop
endfacet
facet normal 0.0 0.0 1.0
  outer loop
    vertex 4.966957158927495 14.355368369277873 15.0
    vertex 5.999999999999999 6.508628960580154 15.0
    vertex 5.999999999999999 14.491371039419848 15.0
  endloop
endfacet
facet normal 0.0 0.0 1.0
  outer loop
    vertex 5.999999999999999 14.491371039419848 15.0
    vertex 5.999999999999999 6.508628960580154 15.0
    vertex 7.033042841072506 6.644631630722129 15.0
  endloop
endfacet
facet normal 0.0 0.0 1.0
  outer loop
    vertex 5.999999999999999 14.491371039419848 15.0
    vertex 7.033042841072506 6.644631630722129 15.0
    vertex 7.033042841072499 14.355368369277873 15.0
  endloop
endfacet
facet normal 0.0 0.0 1.0
  outer loop
    vertex 7.033042841072499 14.355368369277873 15.0
    vertex 7.033042841072506 6.644631630722129 15.0
    vertex 7.995685519709915 13.956628716067092 15.0
  endloop
endfacet
facet normal 0.0 0.0 1.0
  outer loop
    vertex 7.995685519709915 13.956628716067092 15.0
    vertex 7.033042841072506 6.644631630722129 15.0
    vertex 7.99568551970992 7.0433712839329115 15.0
  endloop
endfacet
facet normal 0.0 0.0 1.0
  outer loop
    vertex 7.995685519709915 13.956628716067092 15.0
    vertex 7.99568551970992 7.0433712839329115 15.0
    vertex 8.82232552820537 13.322325528205374 15.0
  endloop
endfacet
facet normal 0.0 0.0 1.0
  outer loop
    vertex 8.82232552820537 13.322325528205374 15.0
    vertex 7.99568551970992 7.0433712839329115 15.0
    vertex 8.822325528205376 7.677674471794632 15.0
  endloop
endfacet
facet normal 0.0 0.0 1.0
  outer loop
    vertex 8.82232552820537 13.322325528205374 15.0
    vertex 8.822325528205376 7.677674471794632 15.0
    vertex 9.456628716067083 12.495685519709925 15.0
  endloop
endfacet
facet normal 0.0 0.0 1.0
  outer loop
    vertex 9.456628716067083 12.495685519709925 15.0
    vertex 8.822325528205376 7.677674471794632 15.0
    vertex 9.456628716067087 8.504314480290075 15.0
  endloop
endfacet
facet normal 0.0 0.0 1.0
  outer loop
    vertex 9.456628716067083 12.495685519709925 15.0
    vertex 9.456628716067087 8.504314480290075 15.0
    vertex 9.855368369277873 11.533042841072504 15.0
  endloop
endfacet
facet normal 0.0 0.0 1.0
  outer loop
    vertex 9.855368369277873 11.533042841072504 15.0
    vertex 9.456628716067087 8.504314480290075 15.0
    vertex 9.855368369277873 9.466957158927496 15.0
  endloop
endfacet
facet normal 0.0 0.0 1.0
  outer loop
    vertex 9.855368369277873 11.533042841072504 15.0
    vertex 9.855368369277873 9.466957158927496 15.0
    vertex 9.991371039419846 10.5 15.0
  endloop
endfacet
facet normal -0.6532814824381885 -0.27059805007309906 0.7071067811865472
  outer loop
    vertex 1.6698729810778072 7.999999999999999 14.0
    vertex 2.1446316307221256 9.466957158927501 15.0
    vertex 1.1703708685546583 9.205904774487395 14.0
  endloop
endfacet
facet normal -0.6532814824381885 -0.27059805007309906 0.7071067811865472
  outer loop
    vertex 2.1446316307221256 9.466957158927501 15.0
    vertex 1.6698729810778072 7.999999999999999 14.0
    vertex 2.543371283932911 8.504314480290079 15.0
  endloop
endfacet
facet normal 0.9238795325112868 -0.38268343236508945 0.0
  outer loop
    vertex 10.82962913144534 9.205904774487397 5.000000000000001
    vertex 10.330127018922193 8.0 14.0
    vertex 10.330127018922193 8.0 5.000000000000001
  endloop
endfacet
facet normal 0.9238795325112868 -0.38268343236508945 0.0
  outer loop
    vertex 10.330127018922193 8.0 14.0
    vertex 10.82962913144534 9.205904774487397 5.000000000000001
    vertex 10.82962913144534 9.205904774487397 14.0
  endloop
endfacet
facet normal -0.7933533402912352 0.6087614290087207 4.482406767989024e-32
  outer loop
    vertex 2.46446609406726 14.035533905932736 14.0
    vertex 1.6698729810778052 12.999999999999998 5.000000000000001
    vertex 1.6698729810778052 12.999999999999998 14.0
  endloop
endfacet
facet normal -0.7933533402912352 0.6087614290087207 4.482406767989024e-32
  outer loop
    vertex 1.6698729810778052 12.999999999999998 5.000000000000001
    vertex 2.46446609406726 14.035533905932736 14.0
    vertex 2.46446609406726 14.035533905932736 5.000000000000001
  endloop
endfacet
facet normal 0.5609855267969314 -0.43045933457687957 0.7071067811865472
  outer loop
    vertex 9.535533905932738 6.964466094067262 14.0
    vertex 9.456628716067087 8.504314480290075 15.0
    vertex 8.822325528205376 7.677674471794632 15.0
  endloop
endfacet
facet normal 0.5609855267969314 -0.43045933457687957 0.7071067811865472
  outer loop
    vertex 9.456628716067087 8.504314480290075 15.0
    vertex 9.535533905932738 6.964466094067262 14.0
    vertex 10.330127018922193 8.0 14.0
  endloop
endfacet
facet normal -0.7933533402912347 -0.6087614290087212 -0.0
  outer loop
    vertex 0.8038475772933695 7.499999999999997 5.000000000000001
    vertex 1.757359312880716 6.257359312880714 1.9999999999999998
    vertex 1.757359312880716 6.257359312880714 5.000000000000001
  endloop
endfacet
facet normal -0.7933533402912347 -0.6087614290087212 -0.0
  outer loop
    vertex 1.757359312880716 6.257359312880714 1.9999999999999998
    vertex 0.8038475772933695 7.499999999999997 5.000000000000001
    vertex 0.8038475772933695 7.499999999999997 1.9999999999999998
  endloop
endfacet
facet normal 0.0 0.0 -1.0
  outer loop
    vertex 18.0 21.0 -0.9999999999999999
    vertex 0.0 0.0 -0.9999999999999999
    vertex 0.0 21.0 -0.9999999999999999
  endloop
endfacet
facet normal 0.0 0.0 -1.0
  outer loop
    vertex 0.0 0.0 -0.9999999999999999
    vertex 18.0 21.0 -0.9999999999999999
    vertex 18.0 0.0 -0.9999999999999999
  endloop
endfacet
facet normal 0.0 0.0 -1.0
  outer loop
    vertex 18.0 0.0 -0.9999999999999999
    vertex 18.0 21.0 -0.9999999999999999
    vertex 18.0 14.0 -0.9999999999999999
  endloop
endfacet
facet normal 0.0 0.0 -1.0
  outer loop
    vertex 18.0 0.0 -0.9999999999999999
    vertex 18.0 14.0 -0.9999999999999999
    vertex 18.0 7.0 -0.9999999999999999
  endloop
endfacet
facet normal -0.7010573846499784 0.09229595564125735 0.7071067811865472
  outer loop
    vertex 2.008628960580152 10.5 15.0
    vertex 1.1703708685546577 11.794095225512601 14.0
    vertex 0.9999999999999996 10.5 14.0
  endloop
endfacet
facet normal -0.7010573846499784 0.09229595564125735 0.7071067811865472
  outer loop
    vertex 1.1703708685546577 11.794095225512601 14.0
    vertex 2.008628960580152 10.5 15.0
    vertex 2.144631630722127 11.533042841072504 15.0
  endloop
endfacet
facet normal 0.9914448613738105 0.13052619222005168 0.0
  outer loop
    vertex 11.795554957734408 12.052914270615126 1.9999999999999998
    vertex 12.0 10.5 5.000000000000001
    vertex 12.0 10.5 1.9999999999999998
  endloop
endfacet
facet normal 0.9914448613738105 0.13052619222005168 0.0
  outer loop
    vertex 12.0 10.5 5.000000000000001
    vertex 11.795554957734408 12.052914270615126 1.9999999999999998
    vertex 11.795554957734408 12.052914270615126 5.000000000000001
  endloop
endfacet
facet normal 0.7010573846499784 -0.09229595564125719 0.7071067811865471
  outer loop
    vertex 10.82962913144534 9.205904774487397 14.0
    vertex 9.991371039419846 10.5 15.0
    vertex 9.855368369277873 9.466957158927496 15.0
  endloop
endfacet
facet normal 0.7010573846499784 -0.09229595564125719 0.7071067811865471
  outer loop
    vertex 9.991371039419846 10.5 15.0
    vertex 10.82962913144534 9.205904774487397 14.0
    vertex 11.0 10.5 14.0
  endloop
endfacet
facet normal 0.6087614290087205 0.7933533402912354 0.0
  outer loop
    vertex 8.999999999999998 15.696152422706632 5.000000000000001
    vertex 10.242640687119284 14.742640687119286 1.9999999999999998
    vertex 8.999999999999998 15.696152422706632 1.9999999999999998
  endloop
endfacet
facet normal 0.6087614290087205 0.7933533402912354 0.0
  outer loop
    vertex 10.242640687119284 14.742640687119286 1.9999999999999998
    vertex 8.999999999999998 15.696152422706632 5.000000000000001
    vertex 10.242640687119284 14.742640687119286 5.000000000000001
  endloop
endfacet
facet normal -0.653281482438189 0.2705980500730985 0.707106781186547
  outer loop
    vertex 2.144631630722127 11.533042841072504 15.0
    vertex 1.6698729810778052 12.999999999999998 14.0
    vertex 1.1703708685546577 11.794095225512601 14.0
  endloop
endfacet
facet normal -0.653281482438189 0.2705980500730985 0.707106781186547
  outer loop
    vertex 1.6698729810778052 12.999999999999998 14.0
    vertex 2.144631630722127 11.533042841072504 15.0
    vertex 2.5433712839329123 12.495685519709927 15.0
  endloop
endfacet
facet normal 0.13052619222005196 -0.9914448613738105 0.0
  outer loop
    vertex 7.552914270615128 4.704445042265593 5.000000000000001
    vertex 6.000000000000001 4.500000000000001 1.9999999999999998
    vertex 7.552914270615128 4.704445042265593 1.9999999999999998
  endloop
endfacet
facet normal 0.13052619222005196 -0.9914448613738105 0.0
  outer loop
    vertex 6.000000000000001 4.500000000000001 1.9999999999999998
    vertex 7.552914270615128 4.704445042265593 5.000000000000001
    vertex 6.000000000000001 4.500000000000001 5.000000000000001
  endloop
endfacet
facet normal -0.6087614290087218 0.7933533402912343 -1.9471954104794778e-32
  outer loop
    vertex 2.46446609406726 14.035533905932736 14.0
    vertex 3.499999999999998 14.830127018922193 5.000000000000001
    vertex 2.46446609406726 14.035533905932736 5.000000000000001
  endloop
endfacet
facet normal -0.6087614290087218 0.7933533402912343 -1.9471954104794778e-32
  outer loop
    vertex 3.499999999999998 14.830127018922193 5.000000000000001
    vertex 2.46446609406726 14.035533905932736 14.0
    vertex 3.499999999999998 14.830127018922193 14.0
  endloop
endfacet
facet normal -0.6087614290087205 -0.7933533402912353 4.8679885261987007e-33
  outer loop
    vertex 3.5000000000000004 6.169872981077806 14.0
    vertex 2.4644660940672622 6.964466094067262 5.000000000000001
    vertex 3.5000000000000004 6.169872981077806 5.000000000000001
  endloop
endfacet
facet normal -0.6087614290087205 -0.7933533402912353 4.8679885261987007e-33
  outer loop
    vertex 2.4644660940672622 6.964466094067262 5.000000000000001
    vertex 3.5000000000000004 6.169872981077806 14.0
    vertex 2.4644660940672622 6.964466094067262 14.0
  endloop
endfacet
facet normal 0.9914448613738105 -0.1305261922200517 -9.017379411401259e-19
  outer loop
    vertex 11.0 10.5 5.000000000000001
    vertex 10.82962913144534 9.205904774487397 14.0
    vertex 10.82962913144534 9.205904774487397 5.000000000000001
  endloop
endfacet
facet normal 0.9914448613738105 -0.1305261922200517 -9.017379411401259e-19
  outer loop
    vertex 10.82962913144534 9.205904774487397 14.0
    vertex 11.0 10.5 5.000000000000001
    vertex 11.0 10.5 14.0
  endloop
endfacet
facet normal -0.9914448613738105 -0.13052619222005157 0.0
  outer loop
    vertex 0.9999999999999996 10.5 14.0
    vertex 1.1703708685546583 9.205904774487395 5.000000000000001
    vertex 1.1703708685546583 9.205904774487395 14.0
  endloop
endfacet
facet normal -0.9914448613738105 -0.13052619222005157 0.0
  outer loop
    vertex 1.1703708685546583 9.205904774487395 5.000000000000001
    vertex 0.9999999999999996 10.5 14.0
    vertex 0.9999999999999996 10.5 5.000000000000001
  endloop
endfacet
facet normal 1.0 0.0 0.0
  outer loop
    vertex 19.3 13.8 0.30000000000000016
    vertex 19.3 7.199999999999999 0.5000000000000001
    vertex 19.3 7.199999999999999 0.30000000000000016
  endloop
endfacet
facet normal 1.0 0.0 0.0
  outer loop
    vertex 19.3 7.199999999999999 0.5000000000000001
    vertex 19.3 13.8 0.30000000000000016
    vertex 19.3 13.8 0.5000000000000001
  endloop
endfacet
facet normal -0.7010573846499785 -0.09229595564125728 0.707106781186547
  outer loop
    vertex 1.1703708685546583 9.205904774487395 14.0
    vertex 2.008628960580152 10.5 15.0
    vertex 0.9999999999999996 10.5 14.0
  endloop
endfacet
facet normal -0.7010573846499785 -0.09229595564125728 0.707106781186547
  outer loop
    vertex 2.008628960580152 10.5 15.0
    vertex 1.1703708685546583 9.205904774487395 14.0
    vertex 2.1446316307221256 9.466957158927501 15.0
  endloop
endfacet
endsolid ĐẾ LÒ XO - TRỤC NHỰA - 1
